<?xml version="1.0" standalone="no"?>
<!DOCTYPE svg PUBLIC "-//W3C//DTD SVG 1.1//EN" "http://www.w3.org/Graphics/SVG/1.1/DTD/svg11.dtd" >
<svg xmlns="http://www.w3.org/2000/svg" xmlns:xlink="http://www.w3.org/1999/xlink" version="1.1">
<metadata>
Created by FontForge 20170731 at Thu Feb  5 19:21:23 2015
 By Aleksey,,,
Copyright (c) 2015 by Fontsmith Ltd. All rights reserved.
</metadata>
<defs>
<font id="RenaultLife-Bold" horiz-adv-x="576" >
  <font-face 
    font-family="Renault Life"
    font-weight="700"
    font-stretch="normal"
    units-per-em="1000"
    panose-1="2 0 8 4 5 0 0 2 0 4"
    ascent="745"
    descent="-255"
    x-height="490"
    cap-height="672"
    bbox="-127 -256 1212 1008"
    underline-thickness="128"
    underline-position="-256"
    unicode-range="U+000D-FB04"
  />
<missing-glyph horiz-adv-x="500" 
d="M12 672h476v-672h-476v672zM250 380l162 244h-324zM60 92l162 244l-162 244v-488zM278 336l162 -244v488zM250 292l-162 -244h324z" />
    <glyph glyph-name="f_f" unicode="ff" horiz-adv-x="724" 
d="M439 530q0 99 46 142.5t151 43.5q12 0 26 -1t27.5 -2.5t25 -4t19.5 -5.5l-19 -97q-11 3 -29 6.5t-35 3.5q-45 0 -65 -19t-20 -62v-45h134v-97h-134v-393h-127v393h-232v-393h-127v374q0 15 -1.5 19t-11.5 6l-62 17l12 74h63v33q0 99 46 142.5t151 43.5q12 0 26 -1
t27.5 -2.5t25 -4t19.5 -5.5l-19 -97q-11 3 -29 6.5t-35 3.5q-45 0 -65 -19t-20 -62v-38h232v40z" />
    <glyph glyph-name="fi" unicode="fi" horiz-adv-x="628" 
d="M439 393h-232v-393h-127v374q0 15 -1.5 19t-11.5 6l-62 17l12 74h63v40q0 99 46 142.5t151 43.5q12 0 26 -1t27.5 -2.5t25 -4t19.5 -5.5l-19 -97q-11 3 -29 6.5t-35 3.5q-45 0 -65 -19t-20 -62v-45h351q9 0 9 -10v-480h-128v393zM427 630q0 38 18 55.5t58 17.5
q41 0 58.5 -17.5t17.5 -55.5q0 -39 -17.5 -56.5t-58.5 -17.5q-40 0 -58 17.5t-18 56.5z" />
    <glyph glyph-name="fl" unicode="fl" horiz-adv-x="626" 
d="M80 518q0 51 13.5 88t44.5 62q60 48 204 48q55 0 108 -8.5t85 -19.5q14 -5 18.5 -11t4.5 -18v-564q0 -11 2 -14.5t12 -7.5l35 -14l-12 -59h-156q-9 0 -9 10v597q-23 5 -45.5 7t-46.5 2q-74 0 -105 -28q-26 -23 -26 -68v-30h134v-97h-134v-393h-127v374q0 15 -1.5 19
t-11.5 6l-62 17l12 74h63v28z" />
    <glyph glyph-name="f_f_i" unicode="ffi" horiz-adv-x="987" 
d="M566 0h-127v393h-232v-393h-127v374q0 15 -1.5 19t-11.5 6l-62 17l12 74h63v33q0 99 46 142.5t151 43.5q12 0 26 -1t27.5 -2.5t25 -4t19.5 -5.5l-19 -97q-11 3 -29 6.5t-35 3.5q-45 0 -65 -19t-20 -62v-38h232v40q0 99 46 142.5t151 43.5q12 0 26 -1t27.5 -2.5t25 -4
t19.5 -5.5l-19 -97q-11 3 -29 6.5t-35 3.5q-45 0 -65 -19t-20 -62v-45h351q9 0 9 -10v-480h-128v393h-232v-393zM786 630q0 38 18 55.5t58 17.5q41 0 58.5 -17.5t17.5 -55.5q0 -39 -17.5 -56.5t-58.5 -17.5q-40 0 -58 17.5t-18 56.5z" />
    <glyph glyph-name="f_f_l" unicode="ffl" horiz-adv-x="985" 
d="M566 490h134v-97h-134v-393h-127v393h-232v-393h-127v374q0 15 -1.5 19t-11.5 6l-62 17l12 74h63v33q0 99 49 142.5t154 43.5q12 0 26.5 -1t29.5 -2.5t27.5 -4t20.5 -5.5l-19 -97q-11 3 -32 6.5t-38 3.5q-45 0 -68 -19t-23 -62v-38h232v28q0 51 13.5 88t44.5 62
q60 48 204 48q55 0 108 -8.5t85 -19.5q14 -5 18.5 -11t4.5 -18v-564q0 -11 2 -14.5t12 -7.5l35 -14l-12 -59h-156q-9 0 -9 10v597q-23 5 -45.5 7t-46.5 2q-74 0 -105 -28q-26 -23 -26 -68v-30z" />
    <glyph glyph-name="f_t" unicode="ft" horiz-adv-x="748" 
d="M437 393h-230v-393h-127v374q0 15 -1.5 19t-11.5 6l-62 17l12 74h63v40q0 99 46 142.5t151 43.5q12 0 26 -1t27.5 -2.5t25 -4t19.5 -5.5l-19 -97q-11 3 -29 6.5t-35 3.5q-45 0 -65 -19t-20 -62v-45h230v141h127v-141h154v-97h-154v-222q0 -45 19 -64t63 -19q37 0 72 9
v-100q-44 -9 -92 -9q-101 0 -145 41.5t-44 136.5v227z" />
    <glyph glyph-name="t_t" unicode="tt" horiz-adv-x="772" 
d="M461 393h-256v-222q0 -45 19 -64t63 -19q37 0 72 9v-100q-44 -9 -92 -9q-101 0 -145 41.5t-44 136.5v208q0 15 -1.5 19t-11.5 6l-62 17l12 74h63v141h127v-141h256v141h127v-141h154v-97h-154v-222q0 -45 19 -64t63 -19q37 0 72 9v-100q-44 -9 -92 -9q-101 0 -145 41.5
t-44 136.5v227z" />
    <glyph glyph-name=".notdef" horiz-adv-x="500" 
d="M12 672h476v-672h-476v672zM250 380l162 244h-324zM60 92l162 244l-162 244v-488zM278 336l162 -244v488zM250 292l-162 -244h324z" />
    <glyph glyph-name=".null" horiz-adv-x="0" 
 />
    <glyph glyph-name=".null" horiz-adv-x="0" 
 />
    <glyph glyph-name="nonmarkingreturn" unicode="&#xd;" horiz-adv-x="224" 
 />
    <glyph glyph-name="space" unicode=" " horiz-adv-x="224" 
 />
    <glyph glyph-name="exclam" unicode="!" horiz-adv-x="265" 
d="M68 672h129l-6 -460h-117zM54 65q0 40 18 57.5t60 17.5t60 -17.5t18 -57.5q0 -41 -18 -58.5t-60 -17.5t-60 17.5t-18 58.5z" />
    <glyph glyph-name="quotedbl" unicode="&#x22;" horiz-adv-x="465" 
d="M178 419h-107v253h107v-253zM395 419h-108v253h108v-253z" />
    <glyph glyph-name="numbersign" unicode="#" horiz-adv-x="660" 
d="M124 159h-103v88h114l22 178h-103v88h114l20 159h98l-20 -159h173l19 159h98l-20 -159h104v-88h-115l-22 -178h104v-88h-115l-20 -159h-97l20 159h-173l-20 -159h-98zM232 247h174l22 178h-173z" />
    <glyph glyph-name="dollar" unicode="$" 
d="M229 21q-90 6 -168 30v102q105 -33 209 -33q68 0 95 19.5t27 63.5q0 33 -25 49t-63 26t-82 18.5t-82 27.5t-63 53t-25 94q0 82 42 124.5t135 53.5v167h118v-166q75 -4 148 -23v-102q-96 27 -189 27q-66 0 -92 -18t-26 -61q0 -32 25 -46.5t63 -23.5t82 -18t82 -28.5
t63 -54.5t25 -97q0 -85 -43.5 -128t-137.5 -54v-167h-118v165z" />
    <glyph glyph-name="percent" unicode="%" horiz-adv-x="864" 
d="M36 504q0 96 40.5 138t131.5 42t131.5 -42t40.5 -138t-40.5 -138t-131.5 -42t-131.5 42t-40.5 138zM128 504q0 -57 18.5 -82t61.5 -25t61.5 25t18.5 82t-18.5 82t-61.5 25t-61.5 -25t-18.5 -82zM543 672h80l-302 -672h-80zM484 168q0 96 40.5 138t131.5 42t131.5 -42
t40.5 -138t-40.5 -138t-131.5 -42t-131.5 42t-40.5 138zM576 168q0 -57 18.5 -82t61.5 -25t61.5 25t18.5 82t-18.5 82t-61.5 25t-61.5 -25t-18.5 -82z" />
    <glyph glyph-name="ampersand" unicode="&#x26;" horiz-adv-x="687" 
d="M482 59q-35 -35 -85 -53t-112 -18q-127 0 -186.5 47t-59.5 148q0 61 33.5 110.5t107.5 83.5q-42 35 -59.5 71t-17.5 73q0 163 202 163q100 0 147.5 -38.5t47.5 -117.5q0 -58 -36.5 -101.5t-111.5 -81.5l124 -125q11 24 15 52t4 58h117q-1 -59 -15 -110.5t-40 -88.5
l124 -131h-141zM161 192q0 -107 124 -107q38 0 69 13.5t53 40.5l-163 167q-83 -41 -83 -114zM303 589q-80 0 -80 -71q0 -26 15.5 -48.5t47.5 -51.5q49 23 71.5 46.5t22.5 55.5q0 69 -77 69z" />
    <glyph glyph-name="quotesingle" unicode="'" horiz-adv-x="249" 
d="M178 419h-107v253h107v-253z" />
    <glyph glyph-name="parenleft" unicode="(" horiz-adv-x="329" 
d="M63 288q0 242 127 416h124q-66 -88 -98.5 -193t-32.5 -223t32.5 -223t98.5 -193h-124q-127 174 -127 416z" />
    <glyph glyph-name="parenright" unicode=")" horiz-adv-x="329" 
d="M266 288q0 -242 -127 -416h-124q66 88 98.5 193t32.5 223t-32.5 223t-98.5 193h124q127 -174 127 -416z" />
    <glyph glyph-name="asterisk" unicode="*" horiz-adv-x="489" 
d="M288 530l135 44l27 -83l-135 -44l83 -115l-71 -52l-83 116l-83 -116l-71 52l83 115l-135 44l28 83l135 -44v142h87v-142z" />
    <glyph glyph-name="plus" unicode="+" 
d="M70 342h164v164h108v-164h164v-108h-164v-164h-108v164h-164v108z" />
    <glyph glyph-name="comma" unicode="," horiz-adv-x="249" 
d="M120 -144h-103l57 253h130z" />
    <glyph glyph-name="hyphen" unicode="-" horiz-adv-x="320" 
d="M22 298h276v-98h-276v98z" />
    <glyph glyph-name="period" unicode="." horiz-adv-x="249" 
d="M45 66q0 41 18.5 59t60.5 18t61 -18t19 -59t-19 -59t-61 -18t-60.5 18t-18.5 59z" />
    <glyph glyph-name="slash" unicode="/" horiz-adv-x="384" 
d="M280 704h113l-289 -832h-113z" />
    <glyph glyph-name="zero" unicode="0" 
d="M31 336q0 92 14.5 158t46 108t80 62t116.5 20t116.5 -20t80 -62t46 -108t14.5 -158t-14.5 -158t-46 -108t-80 -62t-116.5 -20t-116.5 20t-80 62t-46 108t-14.5 158zM153 336q0 -129 32 -186t103 -57t103 57t32 186t-32 186t-103 57t-103 -57t-32 -186z" />
    <glyph glyph-name="one" unicode="1" 
d="M280 559l-175 -77v103l196 87h107v-672h-128v559z" />
    <glyph glyph-name="two" unicode="2" 
d="M49 92l243 233q40 38 60 73t20 70q0 60 -30 85.5t-98 25.5q-86 0 -176 -30v106q46 15 95 22t101 7q125 0 182 -47.5t57 -152.5q0 -54 -24.5 -103.5t-74.5 -97.5l-188 -181h289v-102h-456v92z" />
    <glyph glyph-name="three" unicode="3" 
d="M479 585l-167 -197q102 -9 150.5 -56.5t48.5 -136.5q0 -55 -16.5 -94t-51.5 -64t-89 -37t-130 -12q-94 0 -175 25v102q81 -27 165 -27q89 0 127.5 25.5t38.5 84.5q0 58 -41 83t-136 25h-31v75l163 194h-278v97h422v-87z" />
    <glyph glyph-name="four" unicode="4" 
d="M349 140h-329v92l313 440h134v-435h86v-97h-86v-140h-118v140zM349 237v295l-209 -295h209z" />
    <glyph glyph-name="five" unicode="5" 
d="M489 575h-290v-171q36 3 72 3q132 0 191 -49.5t59 -158.5q0 -111 -66.5 -161t-216.5 -50q-94 0 -175 25v102q79 -27 165 -27q87 0 125 26.5t38 87.5q0 60 -40 86t-131 26q-34 0 -68.5 -1.5t-70.5 -5.5v365h408v-97z" />
    <glyph glyph-name="six" unicode="6" 
d="M41 304q0 100 17.5 172t55 118.5t96.5 68t142 21.5q84 0 156 -21v-101q-37 11 -74 16.5t-72 5.5q-101 0 -146 -49t-49 -155q38 59 150 59q121 0 174.5 -52t53.5 -168q0 -61 -14 -104.5t-44.5 -71.5t-77.5 -41.5t-113 -13.5q-68 0 -116 18t-79 56t-45.5 98t-14.5 144z
M171 224q0 -136 122 -136q69 0 99.5 30t30.5 99q0 65 -28 94.5t-93 29.5q-69 0 -100 -28.5t-31 -88.5z" />
    <glyph glyph-name="seven" unicode="7" 
d="M521 585l-262 -585h-129l258 570h-336v102h469v-87z" />
    <glyph glyph-name="eight" unicode="8" 
d="M288 393q63 9 89.5 32.5t26.5 70.5q0 48 -27 69.5t-89 21.5t-89 -21.5t-27 -69.5q0 -47 26.5 -70.5t89.5 -32.5zM33 179q0 70 32 109t104 56q-62 16 -91 53.5t-29 103.5q0 97 56.5 140t182.5 43t182.5 -43t56.5 -140q0 -66 -29 -103.5t-91 -53.5q72 -17 104 -56t32 -109
q0 -101 -60.5 -146t-194.5 -45t-194.5 45t-60.5 146zM288 295q-71 -10 -100 -35t-29 -76q0 -53 30 -76t99 -23t99 23t30 76q0 51 -29 76t-100 35z" />
    <glyph glyph-name="nine" unicode="9" 
d="M535 368q0 -101 -17.5 -172.5t-55 -118t-96.5 -68t-142 -21.5q-84 0 -156 21v101q37 -11 74 -16.5t72 -5.5q51 0 87 12t59 37t35 63.5t14 91.5q-38 -59 -150 -59q-121 0 -174.5 52t-53.5 168q0 121 58.5 176t190.5 55q67 0 115.5 -18t79.5 -56t45.5 -98t14.5 -144z
M405 448q0 136 -122 136q-69 0 -99.5 -30t-30.5 -99q0 -65 28 -94.5t93 -29.5q69 0 100 28.5t31 88.5z" />
    <glyph glyph-name="colon" unicode=":" horiz-adv-x="265" 
d="M53 66q0 41 18.5 59t60.5 18t61 -18t19 -59t-19 -59t-61 -18t-60.5 18t-18.5 59zM53 424q0 41 18.5 59t60.5 18t61 -18t19 -59t-19 -59t-61 -18t-60.5 18t-18.5 59z" />
    <glyph glyph-name="semicolon" unicode=";" horiz-adv-x="265" 
d="M128 -144h-103l57 253h130zM53 424q0 41 18.5 59t60.5 18t61 -18t19 -59t-19 -59t-61 -18t-60.5 18t-18.5 59z" />
    <glyph glyph-name="less" unicode="&#x3c;" 
d="M70 228v120l436 173v-114l-308 -119l308 -119v-114z" />
    <glyph glyph-name="equal" unicode="=" 
d="M70 233h436v-107h-436v107zM70 450h436v-107h-436v107z" />
    <glyph glyph-name="greater" unicode="&#x3e;" 
d="M506 348v-120l-436 -173v114l308 119l-308 119v114z" />
    <glyph glyph-name="question" unicode="?" horiz-adv-x="452" 
d="M132 212v19q0 42 12 72t29.5 51.5t38 37.5t38 31.5t29.5 32.5t12 41q0 47 -26 67t-86 20q-35 0 -73.5 -7t-80.5 -21v101q81 27 169 27q121 0 174.5 -41.5t53.5 -134.5q0 -43 -13.5 -73t-33.5 -52t-44 -39.5t-44 -35.5t-33.5 -38.5t-13.5 -49.5v-8h-108zM108 65
q0 40 18 57.5t60 17.5t60 -17.5t18 -57.5q0 -41 -18 -58.5t-60 -17.5t-60 17.5t-18 58.5z" />
    <glyph glyph-name="at" unicode="@" horiz-adv-x="991" 
d="M47 245q0 119 26.5 204t82.5 139.5t143 80t209 25.5q115 0 197.5 -22.5t135.5 -70.5t78 -123t25 -180q0 -142 -49 -207.5t-159 -65.5q-42 0 -74 14t-50 40q-53 -54 -153 -54q-99 0 -143 52t-44 168t44 168t143 52q92 0 137 -48l8 36h100v-279q0 -54 52 -54q42 0 60 40
t18 128q0 82 -19 141t-59 97t-102.5 55.5t-150.5 17.5q-92 0 -157.5 -20t-107.5 -63t-61.5 -110t-19.5 -161t21 -161t66 -110t115.5 -63t169.5 -20q72 0 141 11t137 33v-98q-67 -21 -137.5 -31t-145.5 -10q-126 0 -216.5 25.5t-148.5 80t-85 139.5t-27 204zM397 245
q0 -64 22 -92t73 -28q48 0 68.5 21.5t20.5 71.5v54q0 50 -20.5 71.5t-68.5 21.5q-51 0 -73 -28t-22 -92z" />
    <glyph glyph-name="A" unicode="A" horiz-adv-x="664" 
d="M406 672q20 -36 43 -86.5t47.5 -109.5t48.5 -123t45.5 -127t39.5 -121t30 -105h-134q-11 41 -23 80t-23 77h-296q-12 -38 -23.5 -77t-22.5 -80h-134q12 47 30 105t39.5 121t45.5 127t48.5 123t47.5 109.5t43 86.5h148zM332 554q-64 -144 -116 -299h232q-54 155 -116 299z
" />
    <glyph glyph-name="B" unicode="B" horiz-adv-x="672" 
d="M213 97h179q60 0 85 23t25 76t-25 76t-85 23h-179v-198zM213 389h163q57 0 81 22t24 71t-24 71t-81 22h-163v-186zM402 672q110 0 158.5 -43.5t48.5 -140.5q0 -103 -79 -139q103 -34 103 -161q0 -98 -50.5 -143t-164.5 -45h-333v578q0 11 -2.5 14.5t-12.5 7.5l-36 14
l11 58h357z" />
    <glyph glyph-name="C" unicode="C" horiz-adv-x="612" 
d="M396 579q-118 0 -170 -57t-52 -186t52 -186t170 -57q88 0 181 26v-106q-48 -12 -98 -18.5t-104 -6.5q-89 0 -152.5 20t-104.5 62t-60 108t-19 158t19 158t60 108t104.5 62t152.5 20q73 0 129.5 -10t81.5 -18l-18 -101q-38 11 -80.5 17.5t-91.5 6.5z" />
    <glyph glyph-name="D" unicode="D" horiz-adv-x="736" 
d="M218 102h115q61 0 104 13.5t70.5 42t40.5 72.5t13 106t-13 106t-40.5 72.5t-70.5 42t-104 13.5h-115v-468zM343 672q94 0 161 -19t110 -60t63 -104.5t20 -152.5t-20 -152.5t-63 -104.5t-110 -60t-161 -19h-258v578q0 11 -2.5 14.5t-12.5 7.5l-36 14l11 58h298z" />
    <glyph glyph-name="E" unicode="E" horiz-adv-x="613" 
d="M570 672v-102h-352v-179h280v-98h-280v-191h360v-102h-493v578q0 11 -2.5 14.5t-12.5 7.5l-36 14l11 58h525z" />
    <glyph glyph-name="F" unicode="F" horiz-adv-x="597" 
d="M570 672v-102h-352v-206h280v-100h-280v-264h-133v578q0 11 -2.5 14.5t-12.5 7.5l-36 14l11 58h525z" />
    <glyph glyph-name="G" unicode="G" horiz-adv-x="687" 
d="M637 15q-60 -13 -123 -20t-131 -7q-91 0 -156 20t-107 62t-61.5 108t-19.5 158t20 158t64 108t114.5 62t171.5 20q73 0 129.5 -10t81.5 -18l-18 -101q-38 11 -84 19t-95 8q-65 0 -112.5 -12t-79 -40.5t-47 -76t-15.5 -117.5q0 -65 13 -111.5t41 -76.5t71.5 -44t104.5 -14
q29 0 58.5 3t56.5 8v175h-156v93h279v-354z" />
    <glyph glyph-name="H" unicode="H" horiz-adv-x="768" 
d="M218 393h348v279h133v-672h-133v291h-348v-291h-133v578q0 11 -2.5 14.5t-12.5 7.5l-36 14l11 58h164q9 0 9 -10v-269z" />
    <glyph glyph-name="I" unicode="I" horiz-adv-x="287" 
d="M85 578q0 11 -2.5 14.5t-12.5 7.5l-36 14l11 58h164q9 0 9 -10v-662h-133v578z" />
    <glyph glyph-name="J" unicode="J" horiz-adv-x="457" 
d="M388 214q0 -118 -56.5 -172t-180.5 -54q-32 0 -63.5 3.5t-60.5 9.5v105q52 -13 104 -13q66 0 95 29t29 97v453h133v-458z" />
    <glyph glyph-name="K" unicode="K" horiz-adv-x="644" 
d="M85 578q0 11 -2.5 14.5t-12.5 7.5l-36 14l11 58h164q9 0 9 -10v-278l262 288h151l-278 -309l286 -363h-150l-217 281l-54 -58v-223h-133v578z" />
    <glyph glyph-name="L" unicode="L" horiz-adv-x="544" 
d="M85 578q0 11 -2.5 14.5t-12.5 7.5l-36 14l11 58h164q9 0 9 -10v-560h307v-102h-440v578z" />
    <glyph glyph-name="M" unicode="M" horiz-adv-x="848" 
d="M432 308l221 364h126v-672h-123v472l-178 -291h-58q-13 0 -20.5 0.5t-12 3t-8 7.5t-9.5 15l-162 265v-472h-123v578q0 11 -2.5 14.5t-12.5 7.5l-36 14l11 58h146q16 0 21 -4t14 -19z" />
    <glyph glyph-name="N" unicode="N" horiz-adv-x="768" 
d="M85 578q0 11 -2.5 14.5t-12.5 7.5l-36 14l11 58h150q15 0 19.5 -3.5t16.5 -19.5l345 -467v490h123v-672h-129l-362 490v-490h-123v578z" />
    <glyph glyph-name="O" unicode="O" horiz-adv-x="751" 
d="M39 336q0 92 19 158t59.5 108t104.5 62t153 20t153 -20t105 -62t60 -108t19 -158t-19 -158t-60 -108t-105 -62t-153 -20t-153 20t-104.5 62t-59.5 108t-19 158zM174 336q0 -65 11.5 -111t36 -75t62.5 -43t91 -14q107 0 154 57t47 186t-47 186t-154 57q-53 0 -91 -14
t-62.5 -43t-36 -75.5t-11.5 -110.5z" />
    <glyph glyph-name="P" unicode="P" horiz-adv-x="656" 
d="M218 340h145q70 0 100.5 26.5t30.5 88.5q0 61 -30.5 88t-100.5 27h-145v-230zM373 672q133 0 192.5 -51t59.5 -166q0 -58 -14.5 -99t-45 -67.5t-78.5 -39t-114 -12.5h-155v-237h-133v578q0 11 -2.5 14.5t-12.5 7.5l-36 14l11 58h328z" />
    <glyph glyph-name="Q" unicode="Q" horiz-adv-x="751" 
d="M462 -6q-41 -6 -87 -6q-89 0 -153 20t-104.5 62t-59.5 108t-19 158t19 158t59.5 108t104.5 62t153 20t153 -20t105 -62t60 -108t19 -158q0 -122 -33.5 -198t-106.5 -113l89 -143h-130zM169 336q0 -66 11.5 -113t36.5 -77t64 -44t94 -14h13.5t13.5 1l-63 101h130l41 -66
q37 29 54 80.5t17 131.5q0 129 -48.5 186t-157.5 57q-55 0 -94 -14t-64 -43t-36.5 -75.5t-11.5 -110.5z" />
    <glyph glyph-name="R" unicode="R" horiz-adv-x="672" 
d="M218 0h-133v578q0 11 -2.5 14.5t-12.5 7.5l-36 14l11 58h336q130 0 187 -49.5t57 -159.5q0 -87 -35.5 -134t-110.5 -61l164 -268h-147l-149 253h-129v-253zM218 353h148q69 0 98.5 25t29.5 85q0 59 -29.5 84t-98.5 25h-148v-219z" />
    <glyph glyph-name="S" unicode="S" horiz-adv-x="589" 
d="M514 552q-41 14 -92.5 22t-102.5 8q-74 0 -108.5 -21t-34.5 -72q0 -35 28.5 -52.5t71.5 -29t92.5 -22.5t92.5 -32.5t71.5 -60t28.5 -103.5q0 -105 -66 -153t-202 -48q-124 0 -238 33v105q112 -36 228 -36q77 0 112.5 22.5t35.5 74.5q0 37 -28.5 56t-71.5 30.5t-92.5 22
t-92.5 31.5t-71.5 58t-28.5 102q0 106 70.5 151.5t211.5 45.5q55 0 110.5 -9t94.5 -23l-19 -100v0z" />
    <glyph glyph-name="T" unicode="T" horiz-adv-x="607" 
d="M237 570h-218v102h569v-102h-218v-570h-133v570z" />
    <glyph glyph-name="U" unicode="U" horiz-adv-x="770" 
d="M87 578q0 11 -2.5 14.5t-12.5 7.5l-36 14l11 58h164q9 0 9 -10v-389q0 -96 41 -138t133 -42q93 0 133.5 42t40.5 138v399h133v-409q0 -73 -17.5 -125t-54.5 -85.5t-95.5 -49t-139.5 -15.5t-139.5 15.5t-95.5 49t-54.5 85.5t-17.5 125v315z" />
    <glyph glyph-name="V" unicode="V" horiz-adv-x="664" 
d="M258 0q-20 36 -43 86.5t-47.5 109.5t-48.5 123t-45.5 127t-39.5 121t-30 105h134q43 -157 90.5 -292t103.5 -262q28 64 53.5 129t49.5 133.5t46.5 141t44.5 150.5h134q-12 -47 -30 -105t-39.5 -121t-45.5 -127t-48.5 -123t-47.5 -109.5t-43 -86.5h-148z" />
    <glyph glyph-name="W" unicode="W" horiz-adv-x="1017" 
d="M508 475q-4 -27 -10.5 -61t-15.5 -72t-20.5 -78t-23.5 -77q-14 -41 -32 -91t-37 -96h-152q-27 66 -56 153t-57 178.5t-51.5 180.5t-38.5 160h130q9 -42 25.5 -107.5t40.5 -156.5q9 -36 20 -74t22.5 -75.5t22.5 -72t21 -62.5h1q10 28 21 62.5t22 72t22 75.5t20 74
q23 85 38 146.5t25 103.5h127q10 -42 25 -103.5t38 -146.5q9 -36 20 -74t22 -75.5t22 -72t21 -62.5h1q10 28 21 62.5t22.5 72t22.5 75.5t20 74q24 91 40.5 156.5t25.5 107.5h130q-15 -71 -38.5 -160t-51.5 -180.5t-57 -178.5t-56 -153h-152q-19 46 -37 96t-32 91
q-12 37 -23.5 77t-20.5 78t-15.5 72t-10.5 61h-1z" />
    <glyph glyph-name="X" unicode="X" horiz-adv-x="665" 
d="M247 342l-227 330h149l163 -245l164 245h148l-227 -330l235 -342h-149l-171 257l-170 -257h-150z" />
    <glyph glyph-name="Y" unicode="Y" horiz-adv-x="617" 
d="M242 273l-246 399h150l162 -281l163 281h149l-245 -399v-273h-133v273z" />
    <glyph glyph-name="Z" unicode="Z" horiz-adv-x="628" 
d="M36 92l383 478h-375v102h541v-92l-384 -478h392v-102h-557v92z" />
    <glyph glyph-name="bracketleft" unicode="[" horiz-adv-x="329" 
d="M81 704h226v-97h-108v-638h108v-97h-226v832z" />
    <glyph glyph-name="backslash" unicode="\" horiz-adv-x="384" 
d="M-9 704h113l289 -832h-113z" />
    <glyph glyph-name="bracketright" unicode="]" horiz-adv-x="329" 
d="M247 -128h-225v97h107v638h-107v97h225v-832z" />
    <glyph glyph-name="asciicircum" unicode="^" 
d="M223 672h130l194 -436h-124l-135 307l-135 -307h-124z" />
    <glyph glyph-name="underscore" unicode="_" horiz-adv-x="480" 
d="M0 -79h480v-98h-480v98z" />
    <glyph glyph-name="grave" unicode="`" horiz-adv-x="240" 
d="M-61 704h133l123 -148h-112z" />
    <glyph glyph-name="a" unicode="a" horiz-adv-x="543" 
d="M158 140q0 -32 21.5 -47t69.5 -15q58 0 84 19t26 61v28q-46 16 -102 16q-51 0 -75 -14.5t-24 -47.5zM224 -12q-100 0 -145.5 36.5t-45.5 114.5q0 75 49 110t155 35q65 0 122 -17v46q0 50 -29 71t-98 21q-75 0 -154 -24v98q81 23 169 23q124 0 179.5 -46.5t55.5 -152.5
v-208q0 -11 2 -14.5t12 -7.5l35 -14l-12 -59h-109q-15 0 -19 4t-7 17l-4 21q-50 -54 -156 -54z" />
    <glyph glyph-name="b" unicode="b" horiz-adv-x="591" 
d="M306 402q-61 0 -87.5 -28t-26.5 -93v-158q17 -12 43.5 -23.5t70.5 -11.5q64 0 92 36.5t28 120.5t-28 120.5t-92 36.5zM64 609q0 11 -2 14.5t-12 7.5l-35 14l12 59h156q9 0 9 -10v-240q51 48 147 48q57 0 98.5 -14.5t67.5 -45.5t38.5 -80t12.5 -117t-12.5 -117t-38.5 -80
t-67.5 -45.5t-98.5 -14.5q-58 0 -100.5 16t-68.5 54l-8 -58h-98v609z" />
    <glyph glyph-name="c" unicode="c" horiz-adv-x="485" 
d="M313 402q-78 0 -112.5 -36.5t-34.5 -120.5t34.5 -120.5t112.5 -36.5q67 0 133 20v-101q-67 -19 -154 -19q-68 0 -116.5 14.5t-79.5 46t-45.5 80t-14.5 116.5t14.5 117t45.5 80t79.5 45.5t116.5 14.5q63 0 104.5 -8t58.5 -14l-18 -96q-18 6 -51 12t-73 6z" />
    <glyph glyph-name="d" unicode="d" horiz-adv-x="594" 
d="M422 52q-27 -33 -70.5 -48.5t-100.5 -15.5t-98 14.5t-67 45.5t-38.5 80t-12.5 117q0 136 51 196.5t165 60.5q98 0 147 -48v250h128v-609q0 -11 2 -14.5t12 -7.5l35 -14l-12 -59h-109q-15 0 -19 4t-7 17zM284 402q-64 0 -91.5 -36.5t-27.5 -120.5t27.5 -120.5t91.5 -36.5
q44 0 70.5 11.5t43.5 23.5v158q0 65 -26.5 93t-87.5 28z" />
    <glyph glyph-name="e" unicode="e" horiz-adv-x="539" 
d="M34 245q0 68 14 117t43.5 80t76 45.5t111.5 14.5q120 0 173 -58.5t53 -190.5q0 -13 -0.5 -23.5t-1.5 -21.5h-344q4 -66 41.5 -94.5t118.5 -28.5q82 0 165 24v-98q-40 -12 -83 -17.5t-92 -5.5q-73 0 -125 14.5t-85.5 46t-49 80t-15.5 116.5zM279 412q-60 0 -88 -28.5
t-32 -93.5h223q-2 66 -25.5 94t-77.5 28z" />
    <glyph glyph-name="f" unicode="f" horiz-adv-x="365" 
d="M80 530q0 99 46 142.5t151 43.5q12 0 26 -1t27.5 -2.5t25 -4t19.5 -5.5l-19 -97q-11 3 -29 6.5t-35 3.5q-45 0 -65 -19t-20 -62v-45h134v-97h-134v-393h-127v374q0 15 -1.5 19t-11.5 6l-62 17l12 74h63v40z" />
    <glyph glyph-name="g" unicode="g" horiz-adv-x="584" 
d="M399 37q-49 -49 -148 -49q-57 0 -98 14.5t-67 45.5t-38.5 80t-12.5 117q0 136 51 196.5t165 60.5q113 0 168 -59l10 47h97v-487q0 -63 -16.5 -105.5t-48.5 -68.5t-79 -37.5t-108 -11.5q-29 0 -55.5 2t-40.5 4v98q20 -3 43 -4.5t43 -1.5q72 0 103.5 26t31.5 81v52zM284 88
q61 0 87.5 28t26.5 93v158q-17 12 -43.5 23.5t-70.5 11.5q-64 0 -91.5 -36.5t-27.5 -120.5t27.5 -120.5t91.5 -36.5z" />
    <glyph glyph-name="h" unicode="h" horiz-adv-x="595" 
d="M534 95q0 -11 2 -14.5t12 -7.5l35 -14l-12 -59h-156q-9 0 -9 10v287q0 55 -22.5 79t-75.5 24q-38 0 -70.5 -10t-45.5 -18v-372h-128v609q0 11 -2 14.5t-12 7.5l-35 14l12 59h156q9 0 9 -10v-240q57 48 148 48q97 0 145.5 -46.5t48.5 -153.5v-207z" />
    <glyph glyph-name="i" unicode="i" horiz-adv-x="261" 
d="M60 630q0 38 18 55.5t58 17.5q41 0 58.5 -17.5t17.5 -55.5q0 -39 -17.5 -56.5t-58.5 -17.5q-40 0 -58 17.5t-18 56.5zM72 395q0 11 -2 14.5t-12 7.5l-35 14l12 59h156q9 0 9 -10v-480h-128v395z" />
    <glyph glyph-name="j" unicode="j" horiz-adv-x="261" 
d="M60 630q0 38 18 55.5t58 17.5q41 0 58.5 -17.5t17.5 -55.5q0 -39 -17.5 -56.5t-58.5 -17.5q-40 0 -58 17.5t-18 56.5zM200 -31q0 -46 -9.5 -81t-31.5 -58t-57 -35t-87 -12q-27 0 -51 3v95q8 -1 15.5 -1h14.5q49 0 63.5 23t14.5 69v423q0 11 -2 14.5t-12 7.5l-35 14l12 59
h156q9 0 9 -10v-511z" />
    <glyph glyph-name="k" unicode="k" horiz-adv-x="514" 
d="M192 300l165 190h146l-187 -210l200 -280h-147l-134 199l-43 -46v-153h-128v609q0 11 -2 14.5t-12 7.5l-35 14l12 59h156q9 0 9 -10v-394z" />
    <glyph glyph-name="l" unicode="l" horiz-adv-x="261" 
d="M193 95q0 -11 2 -14.5t12 -7.5l35 -14l-12 -59h-156q-9 0 -9 10v599q0 11 -2 14.5t-12 7.5l-35 14l12 59h156q9 0 9 -10v-599z" />
    <glyph glyph-name="m" unicode="m" horiz-adv-x="902" 
d="M190 451q33 27 67.5 39t78.5 12q54 0 91.5 -16.5t56.5 -45.5q32 29 72 45.5t95 16.5q102 0 146 -48.5t44 -142.5v-216q0 -11 2 -14.5t12 -7.5l35 -14l-12 -59h-156q-9 0 -9 10v293q0 52 -19 74.5t-70 22.5q-33 0 -62 -9t-50 -23q2 -5 4 -23t2 -43v-302h-128v303
q0 52 -19 74.5t-70 22.5q-36 0 -65 -10t-41 -18v-372h-128v395q0 11 -2 14.5t-12 7.5l-35 14l12 59h151q9 0 9 -10v-29z" />
    <glyph glyph-name="n" unicode="n" horiz-adv-x="598" 
d="M343 502q97 0 145.5 -46.5t48.5 -153.5v-207q0 -11 2 -14.5t12 -7.5l35 -14l-12 -59h-156q-9 0 -9 10v287q0 55 -22.5 79t-75.5 24q-38 0 -70.5 -10t-45.5 -18v-372h-128v395q0 11 -2 14.5t-12 7.5l-35 14l12 59h151q9 0 9 -10v-29q33 27 70 39t83 12z" />
    <glyph glyph-name="o" unicode="o" horiz-adv-x="579" 
d="M33 245q0 68 14.5 117t45.5 80t79.5 45.5t116.5 14.5t116.5 -14.5t80 -45.5t46 -80t14.5 -117q0 -136 -60.5 -196.5t-196.5 -60.5q-68 0 -116.5 14.5t-79.5 46t-45.5 80t-14.5 116.5zM163 245q0 -84 29.5 -120.5t96.5 -36.5q68 0 97.5 36.5t29.5 120.5t-29.5 120.5
t-97.5 36.5q-67 0 -96.5 -36.5t-29.5 -120.5z" />
    <glyph glyph-name="p" unicode="p" horiz-adv-x="594" 
d="M309 402q-61 0 -87.5 -28t-26.5 -93v-158q17 -12 43.5 -23.5t70.5 -11.5q64 0 92 36.5t28 120.5t-28 120.5t-92 36.5zM190 446q28 30 62 43t90 13q57 0 98.5 -14.5t67.5 -45.5t38.5 -80t12.5 -117t-12.5 -117t-38.5 -80t-67.5 -45.5t-98.5 -14.5q-96 0 -147 48v-244h-128
v603q0 11 -2 14.5t-12 7.5l-35 14l12 59h151q9 0 9 -10v-34z" />
    <glyph glyph-name="q" unicode="q" horiz-adv-x="584" 
d="M526 -197l-128 -22v255q-49 -48 -147 -48q-57 0 -98 14.5t-67 45.5t-38.5 80t-12.5 117q0 136 51 196.5t165 60.5q112 0 168 -59l10 47h97v-687zM284 402q-64 0 -91.5 -36.5t-27.5 -120.5t27.5 -120.5t91.5 -36.5q44 0 70.5 11.5t43.5 23.5v158q0 65 -26.5 93t-87.5 28z
" />
    <glyph glyph-name="r" unicode="r" horiz-adv-x="396" 
d="M67 395q0 11 -2 14.5t-12 7.5l-35 14l12 59h151q9 0 9 -10v-54q26 37 61 56.5t86 19.5q17 0 30.5 -1t22.5 -3l-22 -103q-7 2 -20.5 3.5t-27.5 1.5q-32 0 -66 -12t-59 -36v-352h-128v395z" />
    <glyph glyph-name="s" unicode="s" horiz-adv-x="467" 
d="M246 502q47 0 93.5 -6.5t80.5 -17.5l-19 -95q-35 11 -71.5 17t-74.5 6q-50 0 -72 -13.5t-22 -39.5q0 -23 20.5 -33.5t51.5 -16.5t67 -12.5t67 -22t51.5 -44.5t20.5 -80q0 -81 -51.5 -118.5t-160.5 -37.5q-100 0 -182 24v99q42 -13 85 -20t87 -7q97 0 97 57q0 24 -20.5 35
t-51.5 17.5t-67 12.5t-67 21t-51.5 43.5t-20.5 79.5q0 41 16 70t44 47t66.5 26.5t83.5 8.5z" />
    <glyph glyph-name="t" unicode="t" horiz-adv-x="389" 
d="M78 374q0 15 -1.5 19t-11.5 6l-62 17l12 74h63v141h127v-141h154v-97h-154v-222q0 -45 19 -64t63 -19q37 0 72 9v-100q-44 -9 -92 -9q-101 0 -145 41.5t-44 136.5v208z" />
    <glyph glyph-name="u" unicode="u" horiz-adv-x="587" 
d="M533 191q0 -107 -55 -155t-180 -48q-62 0 -106.5 11.5t-73 36.5t-42 63t-13.5 92v204q0 11 -2 14.5t-12 7.5l-35 14l12 59h156q9 0 9 -10v-279q0 -61 25 -87t82 -26t82 26t25 87v289h128v-299z" />
    <glyph glyph-name="v" unicode="v" horiz-adv-x="541" 
d="M149 490q24 -88 54.5 -182t66.5 -185q36 91 66.5 185t55.5 182h133q-12 -47 -34.5 -112.5t-49 -134.5t-54.5 -133.5t-51 -109.5h-131q-23 45 -51 109.5t-54.5 133.5t-49 134.5t-34.5 112.5h133v0z" />
    <glyph glyph-name="w" unicode="w" horiz-adv-x="838" 
d="M418 305q-20 -79 -45 -159t-52 -146h-138q-26 62 -49 126.5t-44 127.5t-38.5 123t-30.5 113h126q9 -38 22 -85t25 -89q14 -48 29 -96.5t32 -95.5h1q14 41 30 89.5t31 102.5q11 38 22 80t20 78h120q9 -36 20 -78t22 -80q15 -54 31 -102.5t30 -89.5h1q17 47 32 95.5
t29 96.5q12 42 25 89t22 85h126q-14 -53 -31 -113t-38 -123t-44.5 -127.5t-48.5 -126.5h-138q-27 66 -52 146t-45 159h-2z" />
    <glyph glyph-name="x" unicode="x" horiz-adv-x="532" 
d="M186 249l-162 241h139l103 -162l104 162h138l-162 -241l168 -249h-139l-109 171l-108 -171h-140z" />
    <glyph glyph-name="y" unicode="y" horiz-adv-x="544" 
d="M8 490h139l134 -339l114 339h133l-204 -550q-16 -42 -34.5 -72.5t-43.5 -50t-58 -28.5t-78 -9q-10 0 -22 0.5t-20 1.5v98q7 -1 17 -1.5t18 -0.5q22 0 38 4.5t28.5 15t22.5 27t19 41.5l11 29z" />
    <glyph glyph-name="z" unicode="z" horiz-adv-x="493" 
d="M38 87l255 306h-247v97h407v-86l-255 -307h263v-97h-423v87z" />
    <glyph glyph-name="braceleft" unicode="{" horiz-adv-x="329" 
d="M6 337h13q42 0 60 18t18 60v118q0 91 41.5 131t134.5 40h34v-97h-13q-42 0 -60.5 -18.5t-18.5 -60.5v-123q0 -95 -72 -117q72 -22 72 -117v-123q0 -43 18.5 -61t60.5 -18h13v-97h-34q-93 0 -134.5 40t-41.5 131v118q0 42 -18 60t-60 18h-13v98z" />
    <glyph glyph-name="bar" unicode="|" horiz-adv-x="240" 
d="M66 736h108v-960h-108v960z" />
    <glyph glyph-name="braceright" unicode="}" horiz-adv-x="329" 
d="M323 239h-13q-42 0 -60.5 -18t-18.5 -60v-118q0 -91 -41 -131t-135 -40h-33v97h13q42 0 60 18.5t18 60.5v123q0 95 73 117q-73 22 -73 117v123q0 43 -18 61t-60 18h-13v97h33q94 0 135 -40t41 -131v-118q0 -42 18.5 -60t60.5 -18h13v-98z" />
    <glyph glyph-name="asciitilde" unicode="~" 
d="M186 389q41 0 68 -14.5t47.5 -31.5t38.5 -31.5t40 -14.5q32 0 45.5 20.5t14.5 65.5h108q-1 -103 -38.5 -149.5t-119.5 -46.5q-41 0 -68 14.5t-47.5 31.5t-38.5 31.5t-40 14.5q-32 0 -45.5 -20.5t-14.5 -65.5h-108q1 103 38.5 149.5t119.5 46.5z" />
    <glyph glyph-name="nonbreakingspace" unicode="&#xa0;" horiz-adv-x="224" 
 />
    <glyph glyph-name="exclamdown" unicode="&#xa1;" horiz-adv-x="265" 
d="M197 -182h-129l6 460h117zM210 425q0 -40 -18 -57.5t-60 -17.5t-60 17.5t-18 57.5q0 41 18 58.5t60 17.5t60 -17.5t18 -58.5z" />
    <glyph glyph-name="cent" unicode="&#xa2;" 
d="M84 336q0 115 42.5 175.5t137.5 75.5v170h118v-165q31 -2 59 -6t54 -12v-101q-32 10 -65 15t-69 5q-78 0 -112 -36.5t-34 -120.5t34 -120.5t112 -36.5q36 0 69 5t65 15v-101q-53 -15 -113 -18v-165h-118v169q-95 16 -137.5 76.5t-42.5 175.5z" />
    <glyph glyph-name="sterling" unicode="&#xa3;" 
d="M65 100h86v193h-70v98h70v66q0 118 57 172.5t181 54.5q67 0 124 -15v-102q-53 15 -104 15q-67 0 -96 -30.5t-29 -99.5v-61h179v-98h-179v-193h237v-100h-456v100z" />
    <glyph glyph-name="currency" unicode="&#xa4;" 
d="M85 336q0 33 5 59.5t16 47.5l-74 73l76 76l73 -74q42 21 107 21t107 -21l73 74l76 -76l-74 -73q21 -42 21 -107t-21 -107l74 -73l-76 -76l-73 74q-21 -11 -47.5 -16t-59.5 -5t-59.5 5t-47.5 16l-73 -74l-76 76l74 73q-11 21 -16 47.5t-5 59.5zM185 336q0 -55 24 -79
t79 -24t79 24t24 79t-24 79t-79 24t-79 -24t-24 -79z" />
    <glyph glyph-name="yen" unicode="&#xa5;" 
d="M221 119h-145v77h145v77h-145v78h110l-202 321h145l159 -268l159 268h145l-202 -321h110v-78h-145v-77h145v-77h-145v-119h-134v119z" />
    <glyph glyph-name="brokenbar" unicode="&#xa6;" horiz-adv-x="240" 
d="M174 688v-384h-108v384h108zM66 -176v384h108v-384h-108z" />
    <glyph glyph-name="section" unicode="&#xa7;" horiz-adv-x="564" 
d="M56 505q0 95 57.5 137t184.5 42q53 0 101.5 -6.5t93.5 -18.5v-102q-92 27 -185 27q-65 0 -90.5 -18t-25.5 -61q0 -31 24.5 -46t62 -24.5t80.5 -18t80.5 -28t62 -54t24.5 -94.5q0 -72 -47 -119q31 -36 31 -94q0 -97 -58 -140t-186 -43q-59 0 -113.5 8t-103.5 23v102
q100 -33 207 -33q66 0 92 19.5t26 63.5q0 32 -24.5 48.5t-62 26t-80.5 19t-80.5 28t-62 51.5t-24.5 92q0 38 13 67.5t36 51.5q-15 17 -24 40t-9 54zM170 295q0 -32 21 -48.5t51.5 -26t66.5 -17.5t66 -24q20 23 20 58q0 33 -20 50t-50.5 27t-65.5 18t-65 23q-24 -20 -24 -60z
" />
    <glyph glyph-name="dieresis" unicode="&#xa8;" horiz-adv-x="240" 
d="M155 630q0 38 17.5 54.5t55.5 16.5q39 0 56.5 -16.5t17.5 -54.5t-17.5 -54.5t-56.5 -16.5q-38 0 -55.5 16.5t-17.5 54.5zM-62 630q0 38 17.5 54.5t56.5 16.5q38 0 55.5 -16.5t17.5 -54.5t-17.5 -54.5t-55.5 -16.5q-39 0 -56.5 16.5t-17.5 54.5z" />
    <glyph glyph-name="copyright" unicode="&#xa9;" horiz-adv-x="832" 
d="M38 336q0 95 21.5 164.5t67.5 114.5t117.5 67t171.5 22t171.5 -22t117.5 -67t67.5 -114.5t21.5 -164.5t-21.5 -164.5t-67.5 -114.5t-117.5 -67t-171.5 -22t-171.5 22t-117.5 67t-67.5 114.5t-21.5 164.5zM112 336q0 -161 75 -232.5t229 -71.5t229 71.5t75 232.5
q0 81 -17.5 138.5t-54 94t-94 54t-138.5 17.5t-138.5 -17.5t-94 -54t-54 -94t-17.5 -138.5zM220 336q0 114 50 165t164 51q34 0 65.5 -4t62.5 -12v-78q-29 8 -56 12.5t-56 4.5q-72 0 -102 -32.5t-30 -106.5t30 -106.5t102 -32.5q29 0 56 4.5t56 12.5v-78q-31 -8 -62.5 -12
t-65.5 -4q-114 0 -164 51t-50 165z" />
    <glyph glyph-name="ordfeminine" unicode="&#xaa;" horiz-adv-x="386" 
d="M38 288h310v-74h-310v74zM124 443q0 -21 13 -29.5t42 -8.5q37 0 53.5 12t16.5 39v16q-13 4 -29.5 6.5t-33.5 2.5q-34 0 -48 -9t-14 -29zM33 440q0 52 32.5 75.5t105.5 23.5q45 0 78 -11v24q0 32 -18 45.5t-60 13.5q-27 0 -53 -4t-53 -11v70q27 7 55 10.5t59 3.5
q85 0 122.5 -31.5t37.5 -103.5v-198h-72l-7 26q-31 -34 -98 -34q-68 0 -98.5 24t-30.5 77z" />
    <glyph glyph-name="guillemotleft" unicode="&#xab;" horiz-adv-x="529" 
d="M148 245l126 -199h-118l-139 199l139 199h118zM380 245l127 -199h-119l-138 199l138 199h119z" />
    <glyph glyph-name="logicalnot" unicode="&#xac;" 
d="M70 342h436v-272h-107v164h-329v108z" />
    <glyph glyph-name="uni00AD" unicode="&#xad;" horiz-adv-x="336" 
d="M22 298h276v-98h-276v98z" />
    <glyph glyph-name="registered" unicode="&#xae;" horiz-adv-x="832" 
d="M38 336q0 95 21.5 164.5t67.5 114.5t117.5 67t171.5 22t171.5 -22t117.5 -67t67.5 -114.5t21.5 -164.5t-21.5 -164.5t-67.5 -114.5t-117.5 -67t-171.5 -22t-171.5 22t-117.5 67t-67.5 114.5t-21.5 164.5zM112 336q0 -161 75 -232.5t229 -71.5t229 71.5t75 232.5
q0 81 -17.5 138.5t-54 94t-94 54t-138.5 17.5t-138.5 -17.5t-94 -54t-54 -94t-17.5 -138.5zM252 544h191q83 0 119.5 -31t36.5 -102q0 -103 -86 -122l97 -161h-102l-87 151h-78v-151h-91v416zM343 352h92q37 0 52.5 14t15.5 46t-15.5 45.5t-52.5 13.5h-92v-119z" />
    <glyph glyph-name="macron" unicode="&#xaf;" horiz-adv-x="240" 
d="M-41 673h322v-87h-322v87z" />
    <glyph glyph-name="degree" unicode="&#xb0;" horiz-adv-x="361" 
d="M41 545q0 68 35.5 103t103.5 35q69 0 104.5 -35.5t35.5 -102.5q0 -66 -35.5 -101.5t-104.5 -35.5q-68 0 -103.5 35.5t-35.5 101.5zM113 545q0 -67 67 -67q68 0 68 67q0 68 -68 68q-67 0 -67 -68z" />
    <glyph glyph-name="plusminus" unicode="&#xb1;" 
d="M70 108h436v-108h-436v108zM70 446h164v165h108v-165h164v-107h-164v-164h-108v164h-164v107z" />
    <glyph glyph-name="twosuperior" unicode="&#xb2;" horiz-adv-x="352" 
d="M24 450l148 139q45 42 45 80q0 33 -16.5 47.5t-54.5 14.5q-53 0 -110 -18v78q60 17 125 17q81 0 116.5 -30.5t35.5 -97.5q0 -32 -16 -62.5t-45 -57.5l-104 -100h167v-76h-291v66z" />
    <glyph glyph-name="threesuperior" unicode="&#xb3;" horiz-adv-x="352" 
d="M299 738l-95 -111q115 -16 115 -120q0 -69 -43 -100t-139 -31q-61 0 -113 15v74q28 -8 54 -12t51 -4q51 0 72.5 14t21.5 46t-23 45t-77 13h-21v55l89 106h-161v72h269v-62z" />
    <glyph glyph-name="acute" unicode="&#xb4;" horiz-adv-x="240" 
d="M157 556h-112l123 148h133z" />
    <glyph glyph-name="uni00B5" unicode="&#xb5;" horiz-adv-x="585" 
d="M57 490h128v-290q0 -58 24 -84t78 -26q60 0 86 27.5t26 89.5v283h128v-490h-97l-10 51q-45 -60 -136 -60q-32 0 -57.5 7.5t-41.5 24.5v-231h-128v698z" />
    <glyph glyph-name="paragraph" unicode="&#xb6;" horiz-adv-x="607" 
d="M431 575h-104v-338h-58q-238 0 -238 218q0 217 238 217h269v-816h-107v719z" />
    <glyph glyph-name="periodcentered" unicode="&#xb7;" horiz-adv-x="249" 
d="M45 249q0 41 18.5 59t60.5 18t61 -18t19 -59t-19 -59t-61 -18t-60.5 18t-18.5 59z" />
    <glyph glyph-name="cedilla" unicode="&#xb8;" horiz-adv-x="240" 
d="M76 0h88v-44q75 -11 75 -90q0 -54 -33 -78.5t-107 -24.5q-47 0 -87 12v69q36 -11 69 -11q31 0 44.5 8t13.5 27q0 20 -12.5 28t-42.5 8h-8v96z" />
    <glyph glyph-name="onesuperior" unicode="&#xb9;" horiz-adv-x="284" 
d="M129 716l-101 -42v76l120 50h74v-416h-93v332z" />
    <glyph glyph-name="ordmasculine" unicode="&#xba;" horiz-adv-x="413" 
d="M38 288h338v-74h-338v74zM33 510q0 90 41 130t133 40q91 0 132.5 -40t41.5 -130q0 -91 -41 -131t-133 -40q-93 0 -133.5 40t-40.5 131zM129 510q0 -52 18 -74t60 -22t60 22t18 74q0 51 -18 73.5t-60 22.5t-60 -22.5t-18 -73.5z" />
    <glyph glyph-name="guillemotright" unicode="&#xbb;" horiz-adv-x="529" 
d="M149 245l-126 199h118l138 -199l-138 -199h-118zM382 245l-127 199h119l138 -199l-138 -199h-119z" />
    <glyph glyph-name="onequarter" unicode="&#xbc;" horiz-adv-x="864" 
d="M712 84h-206v67l194 265h97v-263h55v-69h-55v-84h-85v84zM712 153v164l-119 -164h119zM171 588l-101 -42v76l120 50h74v-416h-93v332zM543 672h80l-302 -672h-80z" />
    <glyph glyph-name="onehalf" unicode="&#xbd;" horiz-adv-x="864" 
d="M171 588l-101 -42v76l120 50h74v-416h-93v332zM543 672h80l-302 -672h-80zM528 66l148 139q45 42 45 80q0 33 -16.5 47.5t-54.5 14.5q-53 0 -110 -18v78q60 17 125 17q81 0 116.5 -30.5t35.5 -97.5q0 -32 -16 -62.5t-45 -57.5l-104 -100h167v-76h-291v66z" />
    <glyph glyph-name="threequarters" unicode="&#xbe;" horiz-adv-x="864" 
d="M712 84h-206v67l194 265h97v-263h55v-69h-55v-84h-85v84zM712 153v164l-119 -164h119zM307 610l-95 -111q115 -16 115 -120q0 -69 -43 -100t-139 -31q-61 0 -113 15v74q28 -8 54 -12t51 -4q51 0 72.5 14t21.5 46t-23 45t-77 13h-21v55l89 106h-161v72h269v-62zM543 672
h80l-302 -672h-80z" />
    <glyph glyph-name="questiondown" unicode="&#xbf;" horiz-adv-x="420" 
d="M320 278v-18q0 -43 -12 -72.5t-29.5 -51.5t-38 -38t-38 -31.5t-29.5 -32.5t-12 -41q0 -47 26 -67t86 -20q36 0 74.5 7t80.5 21v-101q-81 -27 -170 -27q-121 0 -174 41.5t-53 135.5q0 42 13.5 72t33.5 52t43.5 39.5t43.5 35.5t33.5 38.5t13.5 49.5v8h108zM344 425
q0 -40 -18 -57.5t-60 -17.5t-60 17.5t-18 57.5q0 41 18 58.5t60 17.5t60 -17.5t18 -58.5z" />
    <glyph glyph-name="Agrave" unicode="&#xc0;" horiz-adv-x="664" 
d="M406 672q20 -36 43 -86.5t47.5 -109.5t48.5 -123t45.5 -127t39.5 -121t30 -105h-134q-11 41 -23 80t-23 77h-296q-12 -38 -23.5 -77t-22.5 -80h-134q12 47 30 105t39.5 121t45.5 127t48.5 123t47.5 109.5t43 86.5h148zM332 554q-64 -144 -116 -299h232q-54 155 -116 299z
M151 880h133l123 -148h-112z" />
    <glyph glyph-name="Aacute" unicode="&#xc1;" horiz-adv-x="664" 
d="M406 672q20 -36 43 -86.5t47.5 -109.5t48.5 -123t45.5 -127t39.5 -121t30 -105h-134q-11 41 -23 80t-23 77h-296q-12 -38 -23.5 -77t-22.5 -80h-134q12 47 30 105t39.5 121t45.5 127t48.5 123t47.5 109.5t43 86.5h148zM332 554q-64 -144 -116 -299h232q-54 155 -116 299z
M373 733h-112l123 148h133z" />
    <glyph glyph-name="Acircumflex" unicode="&#xc2;" horiz-adv-x="664" 
d="M406 672q20 -36 43 -86.5t47.5 -109.5t48.5 -123t45.5 -127t39.5 -121t30 -105h-134q-11 41 -23 80t-23 77h-296q-12 -38 -23.5 -77t-22.5 -80h-134q12 47 30 105t39.5 121t45.5 127t48.5 123t47.5 109.5t43 86.5h148zM332 554q-64 -144 -116 -299h232q-54 155 -116 299z
M270 880h124l123 -148h-109l-76 81l-76 -81h-109z" />
    <glyph glyph-name="Atilde" unicode="&#xc3;" horiz-adv-x="664" 
d="M406 672q20 -36 43 -86.5t47.5 -109.5t48.5 -123t45.5 -127t39.5 -121t30 -105h-134q-11 41 -23 80t-23 77h-296q-12 -38 -23.5 -77t-22.5 -80h-134q12 47 30 105t39.5 121t45.5 127t48.5 123t47.5 109.5t43 86.5h148zM332 554q-64 -144 -116 -299h232q-54 155 -116 299z
M163 751q0 63 24 90.5t80 27.5q21 0 37 -6.5t29 -14t24.5 -14t22.5 -6.5q17 0 24 9t7 32v5h90v-13q0 -63 -24 -90.5t-80 -27.5q-21 0 -37 6.5t-29 14t-24.5 14t-22.5 6.5q-17 0 -24 -9t-7 -32v-6h-90v14z" />
    <glyph glyph-name="Adieresis" unicode="&#xc4;" horiz-adv-x="664" 
d="M406 672q20 -36 43 -86.5t47.5 -109.5t48.5 -123t45.5 -127t39.5 -121t30 -105h-134q-11 41 -23 80t-23 77h-296q-12 -38 -23.5 -77t-22.5 -80h-134q12 47 30 105t39.5 121t45.5 127t48.5 123t47.5 109.5t43 86.5h148zM332 554q-64 -144 -116 -299h232q-54 155 -116 299z
M367 806q0 38 17.5 54.5t55.5 16.5q39 0 56.5 -16.5t17.5 -54.5t-17.5 -54.5t-56.5 -16.5q-38 0 -55.5 16.5t-17.5 54.5zM150 806q0 38 17.5 54.5t56.5 16.5q38 0 55.5 -16.5t17.5 -54.5t-17.5 -54.5t-55.5 -16.5q-39 0 -56.5 16.5t-17.5 54.5z" />
    <glyph glyph-name="Aring" unicode="&#xc5;" horiz-adv-x="664" 
d="M406 672q20 -36 43 -86.5t47.5 -109.5t48.5 -123t45.5 -127t39.5 -121t30 -105h-134q-11 41 -23 80t-23 77h-296q-12 -38 -23.5 -77t-22.5 -80h-134q12 47 30 105t39.5 121t45.5 127t48.5 123t47.5 109.5t43 86.5h148zM332 554q-64 -144 -116 -299h232q-54 155 -116 299z
M215 806q0 54 27.5 78t89.5 24t89.5 -24t27.5 -78t-27.5 -78t-89.5 -24t-89.5 24t-27.5 78zM284 806q0 -26 11 -37t37 -11q25 0 36.5 11t11.5 37t-11 36.5t-37 10.5t-37 -10.5t-11 -36.5z" />
    <glyph glyph-name="AE" unicode="&#xc6;" horiz-adv-x="1024" 
d="M981 672v-102h-352v-179h280v-98h-280v-191h360v-102h-493v157h-276q-25 -42 -47.5 -81.5t-42.5 -75.5h-137q52 96 111.5 195t118.5 188.5t112.5 164.5t93.5 124h552zM496 578q-22 -29 -47.5 -65t-53.5 -78t-57.5 -87.5t-58.5 -92.5h217v323z" />
    <glyph glyph-name="Ccedilla" unicode="&#xc7;" horiz-adv-x="612" 
d="M318 -10q-74 6 -126.5 29t-86.5 65.5t-50 105t-16 146.5q0 92 19 158t60 108t104.5 62t152.5 20q54 0 104 -6.5t98 -18.5v-106q-93 26 -181 26q-118 0 -170 -57t-52 -186t52 -186t170 -57q88 0 181 26v-106q-41 -10 -83.5 -16t-87.5 -8v-33q75 -11 75 -90
q0 -54 -33 -78.5t-107 -24.5q-47 0 -87 12v69q36 -11 69 -11q31 0 44.5 8t13.5 27q0 20 -12.5 28t-42.5 8h-8v86z" />
    <glyph glyph-name="Egrave" unicode="&#xc8;" horiz-adv-x="613" 
d="M570 672v-102h-352v-179h280v-98h-280v-191h360v-102h-493v578q0 11 -2.5 14.5t-12.5 7.5l-36 14l11 58h525zM145 880h133l123 -148h-112z" />
    <glyph glyph-name="Eacute" unicode="&#xc9;" horiz-adv-x="613" 
d="M570 672v-102h-352v-179h280v-98h-280v-191h360v-102h-493v578q0 11 -2.5 14.5t-12.5 7.5l-36 14l11 58h525zM363 732h-112l123 148h133z" />
    <glyph glyph-name="Ecircumflex" unicode="&#xca;" horiz-adv-x="613" 
d="M570 672v-102h-352v-179h280v-98h-280v-191h360v-102h-493v578q0 11 -2.5 14.5t-12.5 7.5l-36 14l11 58h525zM264 880h124l123 -148h-109l-76 81l-76 -81h-109z" />
    <glyph glyph-name="Edieresis" unicode="&#xcb;" horiz-adv-x="613" 
d="M570 672v-102h-352v-179h280v-98h-280v-191h360v-102h-493v578q0 11 -2.5 14.5t-12.5 7.5l-36 14l11 58h525zM361 806q0 38 17.5 54.5t55.5 16.5q39 0 56.5 -16.5t17.5 -54.5t-17.5 -54.5t-56.5 -16.5q-38 0 -55.5 16.5t-17.5 54.5zM144 806q0 38 17.5 54.5t56.5 16.5
q38 0 55.5 -16.5t17.5 -54.5t-17.5 -54.5t-55.5 -16.5q-39 0 -56.5 16.5t-17.5 54.5z" />
    <glyph glyph-name="Igrave" unicode="&#xcc;" horiz-adv-x="287" 
d="M85 578q0 11 -2.5 14.5t-12.5 7.5l-36 14l11 58h164q9 0 9 -10v-662h-133v578zM-29 880h133l123 -148h-112z" />
    <glyph glyph-name="Iacute" unicode="&#xcd;" horiz-adv-x="287" 
d="M85 578q0 11 -2.5 14.5t-12.5 7.5l-36 14l11 58h164q9 0 9 -10v-662h-133v578zM189 732h-112l123 148h133z" />
    <glyph glyph-name="Icircumflex" unicode="&#xce;" horiz-adv-x="287" 
d="M85 578q0 11 -2.5 14.5t-12.5 7.5l-36 14l11 58h164q9 0 9 -10v-662h-133v578zM90 880h124l123 -148h-109l-76 81l-76 -81h-109z" />
    <glyph glyph-name="Idieresis" unicode="&#xcf;" horiz-adv-x="287" 
d="M85 578q0 11 -2.5 14.5t-12.5 7.5l-36 14l11 58h164q9 0 9 -10v-662h-133v578zM187 806q0 38 17.5 54.5t55.5 16.5q39 0 56.5 -16.5t17.5 -54.5t-17.5 -54.5t-56.5 -16.5q-38 0 -55.5 16.5t-17.5 54.5zM-30 806q0 38 17.5 54.5t56.5 16.5q38 0 55.5 -16.5t17.5 -54.5
t-17.5 -54.5t-55.5 -16.5q-39 0 -56.5 16.5t-17.5 54.5z" />
    <glyph glyph-name="Eth" unicode="&#xd0;" horiz-adv-x="756" 
d="M105 578q0 11 -2.5 14.5t-12.5 7.5l-36 14l11 58h298q94 0 161 -19t110 -60t63 -104.5t20 -152.5t-20 -152.5t-63 -104.5t-110 -60t-161 -19h-258v296h-65v92h65v190zM238 388h163v-92h-163v-194h115q61 0 104 13.5t70.5 42t40.5 72.5t13 106t-13 106t-40.5 72.5
t-70.5 42t-104 13.5h-115v-182z" />
    <glyph glyph-name="Ntilde" unicode="&#xd1;" horiz-adv-x="768" 
d="M85 578q0 11 -2.5 14.5t-12.5 7.5l-36 14l11 58h150q15 0 19.5 -3.5t16.5 -19.5l345 -467v490h123v-672h-129l-362 490v-490h-123v578zM223 751q0 63 24 90.5t80 27.5q21 0 37 -6.5t29 -14t24.5 -14t22.5 -6.5q17 0 24 9t7 32v5h90v-13q0 -63 -24 -90.5t-80 -27.5
q-21 0 -37 6.5t-29 14t-24.5 14t-22.5 6.5q-17 0 -24 -9t-7 -32v-6h-90v14z" />
    <glyph glyph-name="Ograve" unicode="&#xd2;" horiz-adv-x="751" 
d="M39 336q0 92 19 158t59.5 108t104.5 62t153 20t153 -20t105 -62t60 -108t19 -158t-19 -158t-60 -108t-105 -62t-153 -20t-153 20t-104.5 62t-59.5 108t-19 158zM174 336q0 -65 11.5 -111t36 -75t62.5 -43t91 -14q107 0 154 57t47 186t-47 186t-154 57q-53 0 -91 -14
t-62.5 -43t-36 -75.5t-11.5 -110.5zM194 880h133l123 -148h-112z" />
    <glyph glyph-name="Oacute" unicode="&#xd3;" horiz-adv-x="751" 
d="M39 336q0 92 19 158t59.5 108t104.5 62t153 20t153 -20t105 -62t60 -108t19 -158t-19 -158t-60 -108t-105 -62t-153 -20t-153 20t-104.5 62t-59.5 108t-19 158zM174 336q0 -65 11.5 -111t36 -75t62.5 -43t91 -14q107 0 154 57t47 186t-47 186t-154 57q-53 0 -91 -14
t-62.5 -43t-36 -75.5t-11.5 -110.5zM412 732h-112l123 148h133z" />
    <glyph glyph-name="Ocircumflex" unicode="&#xd4;" horiz-adv-x="751" 
d="M39 336q0 92 19 158t59.5 108t104.5 62t153 20t153 -20t105 -62t60 -108t19 -158t-19 -158t-60 -108t-105 -62t-153 -20t-153 20t-104.5 62t-59.5 108t-19 158zM174 336q0 -65 11.5 -111t36 -75t62.5 -43t91 -14q107 0 154 57t47 186t-47 186t-154 57q-53 0 -91 -14
t-62.5 -43t-36 -75.5t-11.5 -110.5zM313 880h124l123 -148h-109l-76 81l-76 -81h-109z" />
    <glyph glyph-name="Otilde" unicode="&#xd5;" horiz-adv-x="751" 
d="M39 336q0 92 19 158t59.5 108t104.5 62t153 20t153 -20t105 -62t60 -108t19 -158t-19 -158t-60 -108t-105 -62t-153 -20t-153 20t-104.5 62t-59.5 108t-19 158zM174 336q0 -65 11.5 -111t36 -75t62.5 -43t91 -14q107 0 154 57t47 186t-47 186t-154 57q-53 0 -91 -14
t-62.5 -43t-36 -75.5t-11.5 -110.5zM206 751q0 63 24 90.5t80 27.5q21 0 37 -6.5t29 -14t24.5 -14t22.5 -6.5q17 0 24 9t7 32v5h90v-13q0 -63 -24 -90.5t-80 -27.5q-21 0 -37 6.5t-29 14t-24.5 14t-22.5 6.5q-17 0 -24 -9t-7 -32v-6h-90v14z" />
    <glyph glyph-name="Odieresis" unicode="&#xd6;" horiz-adv-x="751" 
d="M39 336q0 92 19 158t59.5 108t104.5 62t153 20t153 -20t105 -62t60 -108t19 -158t-19 -158t-60 -108t-105 -62t-153 -20t-153 20t-104.5 62t-59.5 108t-19 158zM174 336q0 -65 11.5 -111t36 -75t62.5 -43t91 -14q107 0 154 57t47 186t-47 186t-154 57q-53 0 -91 -14
t-62.5 -43t-36 -75.5t-11.5 -110.5zM410 806q0 38 17.5 54.5t55.5 16.5q39 0 56.5 -16.5t17.5 -54.5t-17.5 -54.5t-56.5 -16.5q-38 0 -55.5 16.5t-17.5 54.5zM193 806q0 38 17.5 54.5t56.5 16.5q38 0 55.5 -16.5t17.5 -54.5t-17.5 -54.5t-55.5 -16.5q-39 0 -56.5 16.5
t-17.5 54.5z" />
    <glyph glyph-name="multiply" unicode="&#xd7;" 
d="M73 149l139 139l-139 139l76 76l139 -139l139 139l76 -76l-139 -139l139 -139l-76 -76l-139 139l-139 -139z" />
    <glyph glyph-name="Oslash" unicode="&#xd8;" horiz-adv-x="751" 
d="M39 336q0 92 19 158t59.5 108t104.5 62t153 20q116 0 188 -34l40 54h96l-72 -96q85 -82 85 -272q0 -92 -19 -158t-60 -108t-105 -62t-153 -20q-115 0 -188 33l-40 -53h-96l72 96q-44 42 -64 109t-20 163zM587 336q0 111 -36 171l-296 -395q46 -24 120 -24q112 0 162 58
t50 190zM164 336q0 -113 35 -171l296 395q-47 24 -120 24q-112 0 -161.5 -58t-49.5 -190z" />
    <glyph glyph-name="Ugrave" unicode="&#xd9;" horiz-adv-x="770" 
d="M87 578q0 11 -2.5 14.5t-12.5 7.5l-36 14l11 58h164q9 0 9 -10v-389q0 -96 41 -138t133 -42q93 0 133.5 42t40.5 138v399h133v-409q0 -73 -17.5 -125t-54.5 -85.5t-95.5 -49t-139.5 -15.5t-139.5 15.5t-95.5 49t-54.5 85.5t-17.5 125v315zM213 880h133l123 -148h-112z
" />
    <glyph glyph-name="Uacute" unicode="&#xda;" horiz-adv-x="770" 
d="M87 578q0 11 -2.5 14.5t-12.5 7.5l-36 14l11 58h164q9 0 9 -10v-389q0 -96 41 -138t133 -42q93 0 133.5 42t40.5 138v399h133v-409q0 -73 -17.5 -125t-54.5 -85.5t-95.5 -49t-139.5 -15.5t-139.5 15.5t-95.5 49t-54.5 85.5t-17.5 125v315zM431 732h-112l123 148h133z" />
    <glyph glyph-name="Ucircumflex" unicode="&#xdb;" horiz-adv-x="770" 
d="M87 578q0 11 -2.5 14.5t-12.5 7.5l-36 14l11 58h164q9 0 9 -10v-389q0 -96 41 -138t133 -42q93 0 133.5 42t40.5 138v399h133v-409q0 -73 -17.5 -125t-54.5 -85.5t-95.5 -49t-139.5 -15.5t-139.5 15.5t-95.5 49t-54.5 85.5t-17.5 125v315zM332 880h124l123 -148h-109
l-76 81l-76 -81h-109z" />
    <glyph glyph-name="Udieresis" unicode="&#xdc;" horiz-adv-x="770" 
d="M87 578q0 11 -2.5 14.5t-12.5 7.5l-36 14l11 58h164q9 0 9 -10v-389q0 -96 41 -138t133 -42q93 0 133.5 42t40.5 138v399h133v-409q0 -73 -17.5 -125t-54.5 -85.5t-95.5 -49t-139.5 -15.5t-139.5 15.5t-95.5 49t-54.5 85.5t-17.5 125v315zM429 806q0 38 17.5 54.5
t55.5 16.5q39 0 56.5 -16.5t17.5 -54.5t-17.5 -54.5t-56.5 -16.5q-38 0 -55.5 16.5t-17.5 54.5zM212 806q0 38 17.5 54.5t56.5 16.5q38 0 55.5 -16.5t17.5 -54.5t-17.5 -54.5t-55.5 -16.5q-39 0 -56.5 16.5t-17.5 54.5z" />
    <glyph glyph-name="Yacute" unicode="&#xdd;" horiz-adv-x="617" 
d="M242 273l-246 399h150l162 -281l163 281h149l-245 -399v-273h-133v273zM345 732h-112l123 148h133z" />
    <glyph glyph-name="Thorn" unicode="&#xde;" horiz-adv-x="656" 
d="M85 578q0 11 -2.5 14.5t-12.5 7.5l-36 14l11 58h159q9 0 9 -10v-103h160q133 0 192.5 -51t59.5 -166t-59.5 -166t-192.5 -51h-160v-125h-128v578zM213 227h150q70 0 100.5 26.5t30.5 88.5q0 61 -30.5 88t-100.5 27h-150v-230z" />
    <glyph glyph-name="germandbls" unicode="&#xdf;" horiz-adv-x="585" 
d="M57 491q0 118 58 171.5t187 53.5q118 0 170.5 -44.5t52.5 -145.5q0 -62 -22.5 -98t-64.5 -54q57 -17 88 -62.5t31 -117.5q0 -109 -54 -157.5t-174 -48.5q-22 0 -44.5 1.5t-44.5 5.5v100q17 -4 34.5 -5.5t33.5 -1.5q67 0 95.5 27t28.5 89q0 61 -30.5 88t-101.5 27h-32v98
h24q59 0 84.5 23t25.5 76q0 54 -24 77t-81 23q-63 0 -90 -31.5t-27 -103.5v-481h-123v491z" />
    <glyph glyph-name="agrave" unicode="&#xe0;" horiz-adv-x="543" 
d="M158 140q0 -32 21.5 -47t69.5 -15q58 0 84 19t26 61v28q-46 16 -102 16q-51 0 -75 -14.5t-24 -47.5zM224 -12q-100 0 -145.5 36.5t-45.5 114.5q0 75 49 110t155 35q65 0 122 -17v46q0 50 -29 71t-98 21q-75 0 -154 -24v98q81 23 169 23q124 0 179.5 -46.5t55.5 -152.5
v-208q0 -11 2 -14.5t12 -7.5l35 -14l-12 -59h-109q-15 0 -19 4t-7 17l-4 21q-50 -54 -156 -54zM87 704h133l123 -148h-112z" />
    <glyph glyph-name="aacute" unicode="&#xe1;" horiz-adv-x="543" 
d="M158 140q0 -32 21.5 -47t69.5 -15q58 0 84 19t26 61v28q-46 16 -102 16q-51 0 -75 -14.5t-24 -47.5zM224 -12q-100 0 -145.5 36.5t-45.5 114.5q0 75 49 110t155 35q65 0 122 -17v46q0 50 -29 71t-98 21q-75 0 -154 -24v98q81 23 169 23q124 0 179.5 -46.5t55.5 -152.5
v-208q0 -11 2 -14.5t12 -7.5l35 -14l-12 -59h-109q-15 0 -19 4t-7 17l-4 21q-50 -54 -156 -54zM305 556h-112l123 148h133z" />
    <glyph glyph-name="acircumflex" unicode="&#xe2;" horiz-adv-x="543" 
d="M158 140q0 -32 21.5 -47t69.5 -15q58 0 84 19t26 61v28q-46 16 -102 16q-51 0 -75 -14.5t-24 -47.5zM224 -12q-100 0 -145.5 36.5t-45.5 114.5q0 75 49 110t155 35q65 0 122 -17v46q0 50 -29 71t-98 21q-75 0 -154 -24v98q81 23 169 23q124 0 179.5 -46.5t55.5 -152.5
v-208q0 -11 2 -14.5t12 -7.5l35 -14l-12 -59h-109q-15 0 -19 4t-7 17l-4 21q-50 -54 -156 -54zM206 704h124l123 -148h-109l-76 81l-76 -81h-109z" />
    <glyph glyph-name="atilde" unicode="&#xe3;" horiz-adv-x="543" 
d="M158 140q0 -32 21.5 -47t69.5 -15q58 0 84 19t26 61v28q-46 16 -102 16q-51 0 -75 -14.5t-24 -47.5zM224 -12q-100 0 -145.5 36.5t-45.5 114.5q0 75 49 110t155 35q65 0 122 -17v46q0 50 -29 71t-98 21q-75 0 -154 -24v98q81 23 169 23q124 0 179.5 -46.5t55.5 -152.5
v-208q0 -11 2 -14.5t12 -7.5l35 -14l-12 -59h-109q-15 0 -19 4t-7 17l-4 21q-50 -54 -156 -54zM99 575q0 63 24 90.5t80 27.5q21 0 37 -6.5t29 -14t24.5 -14t22.5 -6.5q17 0 24 9t7 32v5h90v-13q0 -63 -24 -90.5t-80 -27.5q-21 0 -37 6.5t-29 14t-24.5 14t-22.5 6.5
q-17 0 -24 -9t-7 -32v-6h-90v14z" />
    <glyph glyph-name="adieresis" unicode="&#xe4;" horiz-adv-x="543" 
d="M158 140q0 -32 21.5 -47t69.5 -15q58 0 84 19t26 61v28q-46 16 -102 16q-51 0 -75 -14.5t-24 -47.5zM224 -12q-100 0 -145.5 36.5t-45.5 114.5q0 75 49 110t155 35q65 0 122 -17v46q0 50 -29 71t-98 21q-75 0 -154 -24v98q81 23 169 23q124 0 179.5 -46.5t55.5 -152.5
v-208q0 -11 2 -14.5t12 -7.5l35 -14l-12 -59h-109q-15 0 -19 4t-7 17l-4 21q-50 -54 -156 -54zM303 630q0 38 17.5 54.5t55.5 16.5q39 0 56.5 -16.5t17.5 -54.5t-17.5 -54.5t-56.5 -16.5q-38 0 -55.5 16.5t-17.5 54.5zM86 630q0 38 17.5 54.5t56.5 16.5q38 0 55.5 -16.5
t17.5 -54.5t-17.5 -54.5t-55.5 -16.5q-39 0 -56.5 16.5t-17.5 54.5z" />
    <glyph glyph-name="aring" unicode="&#xe5;" horiz-adv-x="543" 
d="M158 140q0 -32 21.5 -47t69.5 -15q58 0 84 19t26 61v28q-46 16 -102 16q-51 0 -75 -14.5t-24 -47.5zM224 -12q-100 0 -145.5 36.5t-45.5 114.5q0 75 49 110t155 35q65 0 122 -17v46q0 50 -29 71t-98 21q-75 0 -154 -24v98q81 23 169 23q124 0 179.5 -46.5t55.5 -152.5
v-208q0 -11 2 -14.5t12 -7.5l35 -14l-12 -59h-109q-15 0 -19 4t-7 17l-4 21q-50 -54 -156 -54zM151 630q0 54 27.5 78t89.5 24t89.5 -24t27.5 -78t-27.5 -78t-89.5 -24t-89.5 24t-27.5 78zM220 630q0 -26 11 -37t37 -11q25 0 36.5 11t11.5 37t-11 36.5t-37 10.5t-37 -10.5
t-11 -36.5z" />
    <glyph glyph-name="ae" unicode="&#xe6;" horiz-adv-x="859" 
d="M33 139q0 75 49 110t155 35q65 0 122 -17v46q0 50 -29 71t-98 21q-75 0 -154 -24v98q81 23 169 23q67 0 110.5 -16.5t66.5 -52.5q54 69 175 69q120 0 173 -58.5t53 -190.5v-23.5t-2 -21.5h-343q4 -66 41.5 -94.5t118.5 -28.5t164 24v-98q-39 -12 -82.5 -17.5t-91.5 -5.5
q-153 0 -219 73q-52 -73 -186 -73q-100 0 -146 36.5t-46 114.5zM599 412q-60 0 -88 -28.5t-31 -93.5h223q-2 66 -26 94t-78 28zM158 140q0 -32 22.5 -47t70.5 -15q57 0 82.5 19t25.5 61v28q-46 16 -102 16q-51 0 -75 -14.5t-24 -47.5z" />
    <glyph glyph-name="ccedilla" unicode="&#xe7;" horiz-adv-x="485" 
d="M230 -8q-103 12 -148.5 72.5t-45.5 180.5q0 68 14.5 117t45.5 80t79.5 45.5t116.5 14.5q87 0 154 -19v-101q-66 20 -133 20q-78 0 -112.5 -36.5t-34.5 -120.5t34.5 -120.5t112.5 -36.5q67 0 133 20v-101q-57 -16 -128 -19v-32q75 -11 75 -90q0 -54 -33 -78.5t-107 -24.5
q-47 0 -87 12v69q36 -11 69 -11q31 0 44.5 8t13.5 27q0 20 -12.5 28t-42.5 8h-8v88z" />
    <glyph glyph-name="egrave" unicode="&#xe8;" horiz-adv-x="539" 
d="M34 245q0 68 14 117t43.5 80t76 45.5t111.5 14.5q120 0 173 -58.5t53 -190.5q0 -13 -0.5 -23.5t-1.5 -21.5h-344q4 -66 41.5 -94.5t118.5 -28.5q82 0 165 24v-98q-40 -12 -83 -17.5t-92 -5.5q-73 0 -125 14.5t-85.5 46t-49 80t-15.5 116.5zM279 412q-60 0 -88 -28.5
t-32 -93.5h223q-2 66 -25.5 94t-77.5 28zM96 704h133l123 -148h-112z" />
    <glyph glyph-name="eacute" unicode="&#xe9;" horiz-adv-x="539" 
d="M34 245q0 68 14 117t43.5 80t76 45.5t111.5 14.5q120 0 173 -58.5t53 -190.5q0 -13 -0.5 -23.5t-1.5 -21.5h-344q4 -66 41.5 -94.5t118.5 -28.5q82 0 165 24v-98q-40 -12 -83 -17.5t-92 -5.5q-73 0 -125 14.5t-85.5 46t-49 80t-15.5 116.5zM279 412q-60 0 -88 -28.5
t-32 -93.5h223q-2 66 -25.5 94t-77.5 28zM314 556h-112l123 148h133z" />
    <glyph glyph-name="ecircumflex" unicode="&#xea;" horiz-adv-x="539" 
d="M34 245q0 68 14 117t43.5 80t76 45.5t111.5 14.5q120 0 173 -58.5t53 -190.5q0 -13 -0.5 -23.5t-1.5 -21.5h-344q4 -66 41.5 -94.5t118.5 -28.5q82 0 165 24v-98q-40 -12 -83 -17.5t-92 -5.5q-73 0 -125 14.5t-85.5 46t-49 80t-15.5 116.5zM279 412q-60 0 -88 -28.5
t-32 -93.5h223q-2 66 -25.5 94t-77.5 28zM215 704h124l123 -148h-109l-76 81l-76 -81h-109z" />
    <glyph glyph-name="edieresis" unicode="&#xeb;" horiz-adv-x="539" 
d="M34 245q0 68 14 117t43.5 80t76 45.5t111.5 14.5q120 0 173 -58.5t53 -190.5q0 -13 -0.5 -23.5t-1.5 -21.5h-344q4 -66 41.5 -94.5t118.5 -28.5q82 0 165 24v-98q-40 -12 -83 -17.5t-92 -5.5q-73 0 -125 14.5t-85.5 46t-49 80t-15.5 116.5zM279 412q-60 0 -88 -28.5
t-32 -93.5h223q-2 66 -25.5 94t-77.5 28zM312 630q0 38 17.5 54.5t55.5 16.5q39 0 56.5 -16.5t17.5 -54.5t-17.5 -54.5t-56.5 -16.5q-38 0 -55.5 16.5t-17.5 54.5zM95 630q0 38 17.5 54.5t56.5 16.5q38 0 55.5 -16.5t17.5 -54.5t-17.5 -54.5t-55.5 -16.5q-39 0 -56.5 16.5
t-17.5 54.5z" />
    <glyph glyph-name="igrave" unicode="&#xec;" horiz-adv-x="261" 
d="M72 395q0 11 -2 14.5t-12 7.5l-35 14l12 59h156q9 0 9 -10v-480h-128v395zM-45 704h133l123 -148h-112z" />
    <glyph glyph-name="iacute" unicode="&#xed;" horiz-adv-x="261" 
d="M72 395q0 11 -2 14.5t-12 7.5l-35 14l12 59h156q9 0 9 -10v-480h-128v395zM173 556h-112l123 148h133z" />
    <glyph glyph-name="icircumflex" unicode="&#xee;" horiz-adv-x="261" 
d="M72 395q0 11 -2 14.5t-12 7.5l-35 14l12 59h156q9 0 9 -10v-480h-128v395zM74 704h124l123 -148h-109l-76 81l-76 -81h-109z" />
    <glyph glyph-name="idieresis" unicode="&#xef;" horiz-adv-x="261" 
d="M72 395q0 11 -2 14.5t-12 7.5l-35 14l12 59h156q9 0 9 -10v-480h-128v395zM171 630q0 38 17.5 54.5t55.5 16.5q39 0 56.5 -16.5t17.5 -54.5t-17.5 -54.5t-56.5 -16.5q-38 0 -55.5 16.5t-17.5 54.5zM-46 630q0 38 17.5 54.5t56.5 16.5q38 0 55.5 -16.5t17.5 -54.5
t-17.5 -54.5t-55.5 -16.5q-39 0 -56.5 16.5t-17.5 54.5z" />
    <glyph glyph-name="eth" unicode="&#xf0;" horiz-adv-x="585" 
d="M381 658q82 -48 121 -140t39 -237q0 -153 -61 -223t-196 -70q-131 0 -189.5 58t-58.5 189q0 130 53 188.5t173 58.5q89 0 136 -46q-16 92 -84 138l-36 -45h-108l63 80q-23 6 -50.5 9t-58.5 5v93q51 -1 94.5 -6.5t81.5 -16.5l30 37h108zM166 235q0 -81 27.5 -116.5
t90.5 -35.5q67 0 97 36.5t30 120.5q0 76 -28.5 111.5t-92.5 35.5q-66 0 -95 -35.5t-29 -116.5z" />
    <glyph glyph-name="ntilde" unicode="&#xf1;" horiz-adv-x="598" 
d="M343 502q97 0 145.5 -46.5t48.5 -153.5v-207q0 -11 2 -14.5t12 -7.5l35 -14l-12 -59h-156q-9 0 -9 10v287q0 55 -22.5 79t-75.5 24q-38 0 -70.5 -10t-45.5 -18v-372h-128v395q0 11 -2 14.5t-12 7.5l-35 14l12 59h151q9 0 9 -10v-29q33 27 70 39t83 12zM132 575
q0 63 24 90.5t80 27.5q21 0 37 -6.5t29 -14t24.5 -14t22.5 -6.5q17 0 24 9t7 32v5h90v-13q0 -63 -24 -90.5t-80 -27.5q-21 0 -37 6.5t-29 14t-24.5 14t-22.5 6.5q-17 0 -24 -9t-7 -32v-6h-90v14z" />
    <glyph glyph-name="ograve" unicode="&#xf2;" horiz-adv-x="579" 
d="M33 245q0 68 14.5 117t45.5 80t79.5 45.5t116.5 14.5t116.5 -14.5t80 -45.5t46 -80t14.5 -117q0 -136 -60.5 -196.5t-196.5 -60.5q-68 0 -116.5 14.5t-79.5 46t-45.5 80t-14.5 116.5zM163 245q0 -84 29.5 -120.5t96.5 -36.5q68 0 97.5 36.5t29.5 120.5t-29.5 120.5
t-97.5 36.5q-67 0 -96.5 -36.5t-29.5 -120.5zM107 704h133l123 -148h-112z" />
    <glyph glyph-name="oacute" unicode="&#xf3;" horiz-adv-x="579" 
d="M33 245q0 68 14.5 117t45.5 80t79.5 45.5t116.5 14.5t116.5 -14.5t80 -45.5t46 -80t14.5 -117q0 -136 -60.5 -196.5t-196.5 -60.5q-68 0 -116.5 14.5t-79.5 46t-45.5 80t-14.5 116.5zM163 245q0 -84 29.5 -120.5t96.5 -36.5q68 0 97.5 36.5t29.5 120.5t-29.5 120.5
t-97.5 36.5q-67 0 -96.5 -36.5t-29.5 -120.5zM325 556h-112l123 148h133z" />
    <glyph glyph-name="ocircumflex" unicode="&#xf4;" horiz-adv-x="579" 
d="M33 245q0 68 14.5 117t45.5 80t79.5 45.5t116.5 14.5t116.5 -14.5t80 -45.5t46 -80t14.5 -117q0 -136 -60.5 -196.5t-196.5 -60.5q-68 0 -116.5 14.5t-79.5 46t-45.5 80t-14.5 116.5zM163 245q0 -84 29.5 -120.5t96.5 -36.5q68 0 97.5 36.5t29.5 120.5t-29.5 120.5
t-97.5 36.5q-67 0 -96.5 -36.5t-29.5 -120.5zM226 704h124l123 -148h-109l-76 81l-76 -81h-109z" />
    <glyph glyph-name="otilde" unicode="&#xf5;" horiz-adv-x="579" 
d="M33 245q0 68 14.5 117t45.5 80t79.5 45.5t116.5 14.5t116.5 -14.5t80 -45.5t46 -80t14.5 -117q0 -136 -60.5 -196.5t-196.5 -60.5q-68 0 -116.5 14.5t-79.5 46t-45.5 80t-14.5 116.5zM163 245q0 -84 29.5 -120.5t96.5 -36.5q68 0 97.5 36.5t29.5 120.5t-29.5 120.5
t-97.5 36.5q-67 0 -96.5 -36.5t-29.5 -120.5zM119 575q0 63 24 90.5t80 27.5q21 0 37 -6.5t29 -14t24.5 -14t22.5 -6.5q17 0 24 9t7 32v5h90v-13q0 -63 -24 -90.5t-80 -27.5q-21 0 -37 6.5t-29 14t-24.5 14t-22.5 6.5q-17 0 -24 -9t-7 -32v-6h-90v14z" />
    <glyph glyph-name="odieresis" unicode="&#xf6;" horiz-adv-x="579" 
d="M33 245q0 68 14.5 117t45.5 80t79.5 45.5t116.5 14.5t116.5 -14.5t80 -45.5t46 -80t14.5 -117q0 -136 -60.5 -196.5t-196.5 -60.5q-68 0 -116.5 14.5t-79.5 46t-45.5 80t-14.5 116.5zM163 245q0 -84 29.5 -120.5t96.5 -36.5q68 0 97.5 36.5t29.5 120.5t-29.5 120.5
t-97.5 36.5q-67 0 -96.5 -36.5t-29.5 -120.5zM323 630q0 38 17.5 54.5t55.5 16.5q39 0 56.5 -16.5t17.5 -54.5t-17.5 -54.5t-56.5 -16.5q-38 0 -55.5 16.5t-17.5 54.5zM106 630q0 38 17.5 54.5t56.5 16.5q38 0 55.5 -16.5t17.5 -54.5t-17.5 -54.5t-55.5 -16.5
q-39 0 -56.5 16.5t-17.5 54.5z" />
    <glyph glyph-name="divide" unicode="&#xf7;" 
d="M70 337h436v-98h-436v98zM220 464q0 35 16 50.5t52 15.5t52 -15.5t16 -50.5t-16 -50.5t-52 -15.5t-52 15.5t-16 50.5zM220 112q0 35 16 50.5t52 15.5t52 -15.5t16 -50.5t-16 -50.5t-52 -15.5t-52 15.5t-16 50.5z" />
    <glyph glyph-name="oslash" unicode="&#xf8;" horiz-adv-x="579" 
d="M32 245q0 68 14.5 117t45.5 80t79.5 45.5t116.5 14.5q81 0 135 -21l31 41h84l-58 -77q34 -31 49.5 -80.5t15.5 -119.5q0 -136 -60.5 -196.5t-196.5 -60.5q-81 0 -135 21l-31 -41h-83l57 76q-33 32 -48.5 81t-15.5 120zM430 245q0 70 -20 107l-196 -261q29 -13 74 -13
q75 0 108.5 39t33.5 128zM147 245q0 -69 19 -107l195 260q-31 14 -73 14q-75 0 -108 -39t-33 -128z" />
    <glyph glyph-name="ugrave" unicode="&#xf9;" horiz-adv-x="587" 
d="M533 191q0 -107 -55 -155t-180 -48q-62 0 -106.5 11.5t-73 36.5t-42 63t-13.5 92v204q0 11 -2 14.5t-12 7.5l-35 14l12 59h156q9 0 9 -10v-279q0 -61 25 -87t82 -26t82 26t25 87v289h128v-299zM117 704h133l123 -148h-112z" />
    <glyph glyph-name="uacute" unicode="&#xfa;" horiz-adv-x="587" 
d="M533 191q0 -107 -55 -155t-180 -48q-62 0 -106.5 11.5t-73 36.5t-42 63t-13.5 92v204q0 11 -2 14.5t-12 7.5l-35 14l12 59h156q9 0 9 -10v-279q0 -61 25 -87t82 -26t82 26t25 87v289h128v-299zM335 556h-112l123 148h133z" />
    <glyph glyph-name="ucircumflex" unicode="&#xfb;" horiz-adv-x="587" 
d="M533 191q0 -107 -55 -155t-180 -48q-62 0 -106.5 11.5t-73 36.5t-42 63t-13.5 92v204q0 11 -2 14.5t-12 7.5l-35 14l12 59h156q9 0 9 -10v-279q0 -61 25 -87t82 -26t82 26t25 87v289h128v-299zM236 704h124l123 -148h-109l-76 81l-76 -81h-109z" />
    <glyph glyph-name="udieresis" unicode="&#xfc;" horiz-adv-x="587" 
d="M533 191q0 -107 -55 -155t-180 -48q-62 0 -106.5 11.5t-73 36.5t-42 63t-13.5 92v204q0 11 -2 14.5t-12 7.5l-35 14l12 59h156q9 0 9 -10v-279q0 -61 25 -87t82 -26t82 26t25 87v289h128v-299zM333 630q0 38 17.5 54.5t55.5 16.5q39 0 56.5 -16.5t17.5 -54.5t-17.5 -54.5
t-56.5 -16.5q-38 0 -55.5 16.5t-17.5 54.5zM116 630q0 38 17.5 54.5t56.5 16.5q38 0 55.5 -16.5t17.5 -54.5t-17.5 -54.5t-55.5 -16.5q-39 0 -56.5 16.5t-17.5 54.5z" />
    <glyph glyph-name="yacute" unicode="&#xfd;" horiz-adv-x="544" 
d="M8 490h139l134 -339l114 339h133l-204 -550q-16 -42 -34.5 -72.5t-43.5 -50t-58 -28.5t-78 -9q-10 0 -22 0.5t-20 1.5v98q7 -1 17 -1.5t18 -0.5q22 0 38 4.5t28.5 15t22.5 27t19 41.5l11 29zM309 556h-112l123 148h133z" />
    <glyph glyph-name="thorn" unicode="&#xfe;" horiz-adv-x="592" 
d="M557 245q0 -68 -12.5 -117t-38.5 -80t-67.5 -45.5t-98.5 -14.5q-96 0 -147 48v-244h-128v817q0 11 -2 14.5t-12 7.5l-35 14l12 59h156q9 0 9 -10v-240q51 48 147 48q57 0 98.5 -14.5t67.5 -45.5t38.5 -80t12.5 -117zM193 123q17 -12 43.5 -23.5t70.5 -11.5q64 0 92 36.5
t28 120.5t-28 120.5t-92 36.5q-61 0 -87.5 -28t-26.5 -93v-158z" />
    <glyph glyph-name="ydieresis" unicode="&#xff;" horiz-adv-x="544" 
d="M8 490h139l134 -339l114 339h133l-204 -550q-16 -42 -34.5 -72.5t-43.5 -50t-58 -28.5t-78 -9q-10 0 -22 0.5t-20 1.5v98q7 -1 17 -1.5t18 -0.5q22 0 38 4.5t28.5 15t22.5 27t19 41.5l11 29zM307 630q0 38 17.5 54.5t55.5 16.5q39 0 56.5 -16.5t17.5 -54.5t-17.5 -54.5
t-56.5 -16.5q-38 0 -55.5 16.5t-17.5 54.5zM90 630q0 38 17.5 54.5t56.5 16.5q38 0 55.5 -16.5t17.5 -54.5t-17.5 -54.5t-55.5 -16.5q-39 0 -56.5 16.5t-17.5 54.5z" />
    <glyph glyph-name="Amacron" unicode="&#x100;" horiz-adv-x="664" 
d="M406 672q20 -36 43 -86.5t47.5 -109.5t48.5 -123t45.5 -127t39.5 -121t30 -105h-134q-11 41 -23 80t-23 77h-296q-12 -38 -23.5 -77t-22.5 -80h-134q12 47 30 105t39.5 121t45.5 127t48.5 123t47.5 109.5t43 86.5h148zM332 554q-64 -144 -116 -299h232q-54 155 -116 299z
M171 849h322v-87h-322v87z" />
    <glyph glyph-name="amacron" unicode="&#x101;" horiz-adv-x="543" 
d="M158 140q0 -32 21.5 -47t69.5 -15q58 0 84 19t26 61v28q-46 16 -102 16q-51 0 -75 -14.5t-24 -47.5zM224 -12q-100 0 -145.5 36.5t-45.5 114.5q0 75 49 110t155 35q65 0 122 -17v46q0 50 -29 71t-98 21q-75 0 -154 -24v98q81 23 169 23q124 0 179.5 -46.5t55.5 -152.5
v-208q0 -11 2 -14.5t12 -7.5l35 -14l-12 -59h-109q-15 0 -19 4t-7 17l-4 21q-50 -54 -156 -54zM107 673h322v-87h-322v87z" />
    <glyph glyph-name="Abreve" unicode="&#x102;" horiz-adv-x="664" 
d="M406 672q20 -36 43 -86.5t47.5 -109.5t48.5 -123t45.5 -127t39.5 -121t30 -105h-134q-11 41 -23 80t-23 77h-296q-12 -38 -23.5 -77t-22.5 -80h-134q12 47 30 105t39.5 121t45.5 127t48.5 123t47.5 109.5t43 86.5h148zM332 554q-64 -144 -116 -299h232q-54 155 -116 299z
M254 880q0 -39 18 -56.5t60 -17.5t60 17.5t18 56.5h90q0 -85 -40 -122t-128 -37t-128 37t-40 122h90z" />
    <glyph glyph-name="abreve" unicode="&#x103;" horiz-adv-x="543" 
d="M158 140q0 -32 21.5 -47t69.5 -15q58 0 84 19t26 61v28q-46 16 -102 16q-51 0 -75 -14.5t-24 -47.5zM224 -12q-100 0 -145.5 36.5t-45.5 114.5q0 75 49 110t155 35q65 0 122 -17v46q0 50 -29 71t-98 21q-75 0 -154 -24v98q81 23 169 23q124 0 179.5 -46.5t55.5 -152.5
v-208q0 -11 2 -14.5t12 -7.5l35 -14l-12 -59h-109q-15 0 -19 4t-7 17l-4 21q-50 -54 -156 -54zM190 704q0 -39 18 -56.5t60 -17.5t60 17.5t18 56.5h90q0 -85 -40 -122t-128 -37t-128 37t-40 122h90z" />
    <glyph glyph-name="Aogonek" unicode="&#x104;" horiz-adv-x="664" 
d="M526 0q-11 41 -23 80t-23 77h-296q-12 -38 -23.5 -77t-22.5 -80h-134q12 47 30 105t39.5 121t45.5 127t48.5 123t47.5 109.5t43 86.5h148q20 -36 43 -86.5t47.5 -109.5t48.5 -123t45.5 -127t39.5 -121t30 -105q-50 -45 -69.5 -72t-19.5 -48t12.5 -31t41.5 -10q10 0 19 1
t16 2v-73q-14 -2 -30.5 -4t-34.5 -2q-66 0 -95 22.5t-29 72.5q0 34 21 67.5t67 74.5h-33zM332 554q-64 -144 -116 -299h232q-54 155 -116 299z" />
    <glyph glyph-name="aogonek" unicode="&#x105;" horiz-adv-x="543" 
d="M33 139q0 75 49 110t155 35q65 0 122 -17v46q0 50 -29 71t-98 21q-75 0 -154 -24v98q81 23 169 23q124 0 179.5 -46.5t55.5 -152.5v-208q0 -11 2 -14.5t12 -7.5l35 -14l-12 -59h-37q-50 -45 -69.5 -72t-19.5 -48t12.5 -31t41.5 -10q10 0 19 1t16 2v-73q-14 -2 -30.5 -4
t-34.5 -2q-66 0 -95 22.5t-29 72.5q0 35 22 70t72 77l-7 37q-50 -54 -156 -54q-100 0 -145.5 36.5t-45.5 114.5zM158 140q0 -32 21.5 -47t69.5 -15q58 0 84 19t26 61v28q-46 16 -102 16q-51 0 -75 -14.5t-24 -47.5z" />
    <glyph glyph-name="Cacute" unicode="&#x106;" horiz-adv-x="612" 
d="M396 579q-118 0 -170 -57t-52 -186t52 -186t170 -57q88 0 181 26v-106q-48 -12 -98 -18.5t-104 -6.5q-89 0 -152.5 20t-104.5 62t-60 108t-19 158t19 158t60 108t104.5 62t152.5 20q73 0 129.5 -10t81.5 -18l-18 -101q-38 11 -80.5 17.5t-91.5 6.5zM399 732h-112l123 148
h133z" />
    <glyph glyph-name="cacute" unicode="&#x107;" horiz-adv-x="485" 
d="M313 402q-78 0 -112.5 -36.5t-34.5 -120.5t34.5 -120.5t112.5 -36.5q67 0 133 20v-101q-67 -19 -154 -19q-68 0 -116.5 14.5t-79.5 46t-45.5 80t-14.5 116.5t14.5 117t45.5 80t79.5 45.5t116.5 14.5q63 0 104.5 -8t58.5 -14l-18 -96q-18 6 -51 12t-73 6zM311 556h-112
l123 148h133z" />
    <glyph glyph-name="Ccircumflex" unicode="&#x108;" horiz-adv-x="612" 
d="M396 579q-118 0 -170 -57t-52 -186t52 -186t170 -57q88 0 181 26v-106q-48 -12 -98 -18.5t-104 -6.5q-89 0 -152.5 20t-104.5 62t-60 108t-19 158t19 158t60 108t104.5 62t152.5 20q73 0 129.5 -10t81.5 -18l-18 -101q-38 11 -80.5 17.5t-91.5 6.5zM300 880h124l123 -148
h-109l-76 81l-76 -81h-109z" />
    <glyph glyph-name="ccircumflex" unicode="&#x109;" horiz-adv-x="485" 
d="M313 402q-78 0 -112.5 -36.5t-34.5 -120.5t34.5 -120.5t112.5 -36.5q67 0 133 20v-101q-67 -19 -154 -19q-68 0 -116.5 14.5t-79.5 46t-45.5 80t-14.5 116.5t14.5 117t45.5 80t79.5 45.5t116.5 14.5q63 0 104.5 -8t58.5 -14l-18 -96q-18 6 -51 12t-73 6zM212 704h124
l123 -148h-109l-76 81l-76 -81h-109z" />
    <glyph glyph-name="Cdotaccent" unicode="&#x10a;" horiz-adv-x="612" 
d="M396 579q-118 0 -170 -57t-52 -186t52 -186t170 -57q88 0 181 26v-106q-48 -12 -98 -18.5t-104 -6.5q-89 0 -152.5 20t-104.5 62t-60 108t-19 158t19 158t60 108t104.5 62t152.5 20q73 0 129.5 -10t81.5 -18l-18 -101q-38 11 -80.5 17.5t-91.5 6.5zM289 806q0 38 17 54.5
t56 16.5t56 -16.5t17 -54.5t-17 -54.5t-56 -16.5t-56 16.5t-17 54.5z" />
    <glyph glyph-name="cdotaccent" unicode="&#x10b;" horiz-adv-x="485" 
d="M313 402q-78 0 -112.5 -36.5t-34.5 -120.5t34.5 -120.5t112.5 -36.5q67 0 133 20v-101q-67 -19 -154 -19q-68 0 -116.5 14.5t-79.5 46t-45.5 80t-14.5 116.5t14.5 117t45.5 80t79.5 45.5t116.5 14.5q63 0 104.5 -8t58.5 -14l-18 -96q-18 6 -51 12t-73 6zM201 630
q0 38 17 54.5t56 16.5t56 -16.5t17 -54.5t-17 -54.5t-56 -16.5t-56 16.5t-17 54.5z" />
    <glyph glyph-name="Ccaron" unicode="&#x10c;" horiz-adv-x="612" 
d="M396 579q-118 0 -170 -57t-52 -186t52 -186t170 -57q88 0 181 26v-106q-48 -12 -98 -18.5t-104 -6.5q-89 0 -152.5 20t-104.5 62t-60 108t-19 158t19 158t60 108t104.5 62t152.5 20q73 0 129.5 -10t81.5 -18l-18 -101q-38 11 -80.5 17.5t-91.5 6.5zM424 732h-124
l-123 148h109l76 -81l76 81h109z" />
    <glyph glyph-name="ccaron" unicode="&#x10d;" horiz-adv-x="485" 
d="M313 402q-78 0 -112.5 -36.5t-34.5 -120.5t34.5 -120.5t112.5 -36.5q67 0 133 20v-101q-67 -19 -154 -19q-68 0 -116.5 14.5t-79.5 46t-45.5 80t-14.5 116.5t14.5 117t45.5 80t79.5 45.5t116.5 14.5q63 0 104.5 -8t58.5 -14l-18 -96q-18 6 -51 12t-73 6zM336 556h-124
l-123 148h109l76 -81l76 81h109z" />
    <glyph glyph-name="Dcaron" unicode="&#x10e;" horiz-adv-x="736" 
d="M218 102h115q61 0 104 13.5t70.5 42t40.5 72.5t13 106t-13 106t-40.5 72.5t-70.5 42t-104 13.5h-115v-468zM343 672q94 0 161 -19t110 -60t63 -104.5t20 -152.5t-20 -152.5t-63 -104.5t-110 -60t-161 -19h-258v578q0 11 -2.5 14.5t-12.5 7.5l-36 14l11 58h298zM422 732
h-124l-123 148h109l76 -81l76 81h109z" />
    <glyph glyph-name="dcaron" unicode="&#x10f;" horiz-adv-x="733" 
d="M422 52q-27 -33 -70.5 -48.5t-100.5 -15.5t-98 14.5t-67 45.5t-38.5 80t-12.5 117q0 136 51 196.5t165 60.5q98 0 147 -48v250h128v-609q0 -11 2 -14.5t12 -7.5l35 -14l-12 -59h-109q-15 0 -19 4t-7 17zM284 402q-64 0 -91.5 -36.5t-27.5 -120.5t27.5 -120.5t91.5 -36.5
q44 0 70.5 11.5t43.5 23.5v158q0 65 -26.5 93t-87.5 28zM656 550h-88l50 196h109z" />
    <glyph glyph-name="Dcroat" unicode="&#x110;" horiz-adv-x="756" 
d="M105 578q0 11 -2.5 14.5t-12.5 7.5l-36 14l11 58h298q94 0 161 -19t110 -60t63 -104.5t20 -152.5t-20 -152.5t-63 -104.5t-110 -60t-161 -19h-258v296h-65v92h65v190zM238 388h163v-92h-163v-194h115q61 0 104 13.5t70.5 42t40.5 72.5t13 106t-13 106t-40.5 72.5
t-70.5 42t-104 13.5h-115v-182z" />
    <glyph glyph-name="dcroat" unicode="&#x111;" horiz-adv-x="594" 
d="M398 267q0 72 -26.5 103.5t-88.5 31.5q-63 0 -90.5 -36.5t-27.5 -120.5t27.5 -120.5t91.5 -36.5q44 0 70.5 11.5t43.5 23.5v144zM526 95q0 -11 2 -14.5t12 -7.5l35 -14l-12 -59h-109q-15 0 -19 4t-7 17l-6 31q-27 -33 -70.5 -48.5t-100.5 -15.5t-98 14.5t-67 45.5
t-38.5 80t-12.5 117q0 136 50.5 196.5t164.5 60.5q99 0 148 -62v111h-166v88h166v65h128v-65h55v-88h-55v-456z" />
    <glyph glyph-name="Emacron" unicode="&#x112;" horiz-adv-x="613" 
d="M570 672v-102h-352v-179h280v-98h-280v-191h360v-102h-493v578q0 11 -2.5 14.5t-12.5 7.5l-36 14l11 58h525zM165 849h322v-87h-322v87z" />
    <glyph glyph-name="emacron" unicode="&#x113;" horiz-adv-x="539" 
d="M34 245q0 68 14 117t43.5 80t76 45.5t111.5 14.5q120 0 173 -58.5t53 -190.5q0 -13 -0.5 -23.5t-1.5 -21.5h-344q4 -66 41.5 -94.5t118.5 -28.5q82 0 165 24v-98q-40 -12 -83 -17.5t-92 -5.5q-73 0 -125 14.5t-85.5 46t-49 80t-15.5 116.5zM279 412q-60 0 -88 -28.5
t-32 -93.5h223q-2 66 -25.5 94t-77.5 28zM116 673h322v-87h-322v87z" />
    <glyph glyph-name="Ebreve" unicode="&#x114;" horiz-adv-x="613" 
d="M570 672v-102h-352v-179h280v-98h-280v-191h360v-102h-493v578q0 11 -2.5 14.5t-12.5 7.5l-36 14l11 58h525zM248 880q0 -39 18 -56.5t60 -17.5t60 17.5t18 56.5h90q0 -85 -40 -122t-128 -37t-128 37t-40 122h90z" />
    <glyph glyph-name="ebreve" unicode="&#x115;" horiz-adv-x="539" 
d="M34 245q0 68 14 117t43.5 80t76 45.5t111.5 14.5q120 0 173 -58.5t53 -190.5q0 -13 -0.5 -23.5t-1.5 -21.5h-344q4 -66 41.5 -94.5t118.5 -28.5q82 0 165 24v-98q-40 -12 -83 -17.5t-92 -5.5q-73 0 -125 14.5t-85.5 46t-49 80t-15.5 116.5zM279 412q-60 0 -88 -28.5
t-32 -93.5h223q-2 66 -25.5 94t-77.5 28zM199 704q0 -39 18 -56.5t60 -17.5t60 17.5t18 56.5h90q0 -85 -40 -122t-128 -37t-128 37t-40 122h90z" />
    <glyph glyph-name="Edotaccent" unicode="&#x116;" horiz-adv-x="613" 
d="M570 672v-102h-352v-179h280v-98h-280v-191h360v-102h-493v578q0 11 -2.5 14.5t-12.5 7.5l-36 14l11 58h525zM253 806q0 38 17 54.5t56 16.5t56 -16.5t17 -54.5t-17 -54.5t-56 -16.5t-56 16.5t-17 54.5z" />
    <glyph glyph-name="edotaccent" unicode="&#x117;" horiz-adv-x="539" 
d="M34 245q0 68 14 117t43.5 80t76 45.5t111.5 14.5q120 0 173 -58.5t53 -190.5q0 -13 -0.5 -23.5t-1.5 -21.5h-344q4 -66 41.5 -94.5t118.5 -28.5q82 0 165 24v-98q-40 -12 -83 -17.5t-92 -5.5q-73 0 -125 14.5t-85.5 46t-49 80t-15.5 116.5zM279 412q-60 0 -88 -28.5
t-32 -93.5h223q-2 66 -25.5 94t-77.5 28zM204 630q0 38 17 54.5t56 16.5t56 -16.5t17 -54.5t-17 -54.5t-56 -16.5t-56 16.5t-17 54.5z" />
    <glyph glyph-name="Eogonek" unicode="&#x118;" horiz-adv-x="613" 
d="M570 672v-100h-352v-181h280v-98h-280v-193h360v-100q-50 -45 -69.5 -72t-19.5 -48t12.5 -31t41.5 -10q10 0 19 1t16 2v-73q-14 -2 -30.5 -4t-34.5 -2q-66 0 -95 22.5t-29 72.5q0 34 21 67.5t67 74.5h-392v578q0 11 -2.5 14.5t-12.5 7.5l-36 14l11 58h525z" />
    <glyph glyph-name="eogonek" unicode="&#x119;" horiz-adv-x="539" 
d="M34 245q0 68 14 117t43.5 80t76 45.5t111.5 14.5q120 0 173 -58.5t53 -190.5q0 -13 -0.5 -23.5t-1.5 -21.5h-344q4 -66 41.5 -94.5t118.5 -28.5q82 0 165 24v-98q-50 -47 -69.5 -77t-19.5 -53q0 -22 12.5 -32t41.5 -10q10 0 19 1t16 2v-73q-14 -2 -30.5 -4t-35.5 -2
q-65 0 -94 22.5t-29 72.5q0 58 69 132q-14 -1 -27.5 -1.5t-27.5 -0.5q-73 0 -125 14.5t-85.5 46t-49 80t-15.5 116.5zM279 412q-60 0 -88 -28.5t-32 -93.5h223q-2 66 -25.5 94t-77.5 28z" />
    <glyph glyph-name="Ecaron" unicode="&#x11a;" horiz-adv-x="613" 
d="M570 672v-102h-352v-179h280v-98h-280v-191h360v-102h-493v578q0 11 -2.5 14.5t-12.5 7.5l-36 14l11 58h525zM388 732h-124l-123 148h109l76 -81l76 81h109z" />
    <glyph glyph-name="ecaron" unicode="&#x11b;" horiz-adv-x="539" 
d="M34 245q0 68 14 117t43.5 80t76 45.5t111.5 14.5q120 0 173 -58.5t53 -190.5q0 -13 -0.5 -23.5t-1.5 -21.5h-344q4 -66 41.5 -94.5t118.5 -28.5q82 0 165 24v-98q-40 -12 -83 -17.5t-92 -5.5q-73 0 -125 14.5t-85.5 46t-49 80t-15.5 116.5zM279 412q-60 0 -88 -28.5
t-32 -93.5h223q-2 66 -25.5 94t-77.5 28zM339 556h-124l-123 148h109l76 -81l76 81h109z" />
    <glyph glyph-name="Gcircumflex" unicode="&#x11c;" horiz-adv-x="687" 
d="M637 15q-60 -13 -123 -20t-131 -7q-91 0 -156 20t-107 62t-61.5 108t-19.5 158t20 158t64 108t114.5 62t171.5 20q73 0 129.5 -10t81.5 -18l-18 -101q-38 11 -84 19t-95 8q-65 0 -112.5 -12t-79 -40.5t-47 -76t-15.5 -117.5q0 -65 13 -111.5t41 -76.5t71.5 -44t104.5 -14
q29 0 58.5 3t56.5 8v175h-156v93h279v-354zM301 880h124l123 -148h-109l-76 81l-76 -81h-109z" />
    <glyph glyph-name="gcircumflex" unicode="&#x11d;" horiz-adv-x="584" 
d="M399 37q-49 -49 -148 -49q-57 0 -98 14.5t-67 45.5t-38.5 80t-12.5 117q0 136 51 196.5t165 60.5q113 0 168 -59l10 47h97v-487q0 -63 -16.5 -105.5t-48.5 -68.5t-79 -37.5t-108 -11.5q-29 0 -55.5 2t-40.5 4v98q20 -3 43 -4.5t43 -1.5q72 0 103.5 26t31.5 81v52zM284 88
q61 0 87.5 28t26.5 93v158q-17 12 -43.5 23.5t-70.5 11.5q-64 0 -91.5 -36.5t-27.5 -120.5t27.5 -120.5t91.5 -36.5zM229 704h124l123 -148h-109l-76 81l-76 -81h-109z" />
    <glyph glyph-name="Gbreve" unicode="&#x11e;" horiz-adv-x="687" 
d="M637 15q-60 -13 -123 -20t-131 -7q-91 0 -156 20t-107 62t-61.5 108t-19.5 158t20 158t64 108t114.5 62t171.5 20q73 0 129.5 -10t81.5 -18l-18 -101q-38 11 -84 19t-95 8q-65 0 -112.5 -12t-79 -40.5t-47 -76t-15.5 -117.5q0 -65 13 -111.5t41 -76.5t71.5 -44t104.5 -14
q29 0 58.5 3t56.5 8v175h-156v93h279v-354zM285 880q0 -39 18 -56.5t60 -17.5t60 17.5t18 56.5h90q0 -85 -40 -122t-128 -37t-128 37t-40 122h90z" />
    <glyph glyph-name="gbreve" unicode="&#x11f;" horiz-adv-x="584" 
d="M399 37q-49 -49 -148 -49q-57 0 -98 14.5t-67 45.5t-38.5 80t-12.5 117q0 136 51 196.5t165 60.5q113 0 168 -59l10 47h97v-487q0 -63 -16.5 -105.5t-48.5 -68.5t-79 -37.5t-108 -11.5q-29 0 -55.5 2t-40.5 4v98q20 -3 43 -4.5t43 -1.5q72 0 103.5 26t31.5 81v52zM284 88
q61 0 87.5 28t26.5 93v158q-17 12 -43.5 23.5t-70.5 11.5q-64 0 -91.5 -36.5t-27.5 -120.5t27.5 -120.5t91.5 -36.5zM213 704q0 -39 18 -56.5t60 -17.5t60 17.5t18 56.5h90q0 -85 -40 -122t-128 -37t-128 37t-40 122h90z" />
    <glyph glyph-name="Gdotaccent" unicode="&#x120;" horiz-adv-x="687" 
d="M637 15q-60 -13 -123 -20t-131 -7q-91 0 -156 20t-107 62t-61.5 108t-19.5 158t20 158t64 108t114.5 62t171.5 20q73 0 129.5 -10t81.5 -18l-18 -101q-38 11 -84 19t-95 8q-65 0 -112.5 -12t-79 -40.5t-47 -76t-15.5 -117.5q0 -65 13 -111.5t41 -76.5t71.5 -44t104.5 -14
q29 0 58.5 3t56.5 8v175h-156v93h279v-354zM290 806q0 38 17 54.5t56 16.5t56 -16.5t17 -54.5t-17 -54.5t-56 -16.5t-56 16.5t-17 54.5z" />
    <glyph glyph-name="gdotaccent" unicode="&#x121;" horiz-adv-x="584" 
d="M399 37q-49 -49 -148 -49q-57 0 -98 14.5t-67 45.5t-38.5 80t-12.5 117q0 136 51 196.5t165 60.5q113 0 168 -59l10 47h97v-487q0 -63 -16.5 -105.5t-48.5 -68.5t-79 -37.5t-108 -11.5q-29 0 -55.5 2t-40.5 4v98q20 -3 43 -4.5t43 -1.5q72 0 103.5 26t31.5 81v52zM284 88
q61 0 87.5 28t26.5 93v158q-17 12 -43.5 23.5t-70.5 11.5q-64 0 -91.5 -36.5t-27.5 -120.5t27.5 -120.5t91.5 -36.5zM218 630q0 38 17 54.5t56 16.5t56 -16.5t17 -54.5t-17 -54.5t-56 -16.5t-56 16.5t-17 54.5z" />
    <glyph glyph-name="Gcommaaccent" unicode="&#x122;" horiz-adv-x="687" 
d="M637 15q-60 -13 -123 -20t-131 -7q-91 0 -156 20t-107 62t-61.5 108t-19.5 158t20 158t64 108t114.5 62t171.5 20q73 0 129.5 -10t81.5 -18l-18 -101q-38 11 -84 19t-95 8q-65 0 -112.5 -12t-79 -40.5t-47 -76t-15.5 -117.5q0 -65 13 -111.5t41 -76.5t71.5 -44t104.5 -14
q29 0 58.5 3t56.5 8v175h-156v93h279v-354zM367 -256h-88l50 196h109z" />
    <glyph glyph-name="gcommaaccent" unicode="&#x123;" horiz-adv-x="584" 
d="M399 37q-49 -49 -148 -49q-57 0 -98 14.5t-67 45.5t-38.5 80t-12.5 117q0 136 51 196.5t165 60.5q113 0 168 -59l10 47h97v-487q0 -63 -16.5 -105.5t-48.5 -68.5t-79 -37.5t-108 -11.5q-29 0 -55.5 2t-40.5 4v98q20 -3 43 -4.5t43 -1.5q72 0 103.5 26t31.5 81v52zM284 88
q61 0 87.5 28t26.5 93v158q-17 12 -43.5 23.5t-70.5 11.5q-64 0 -91.5 -36.5t-27.5 -120.5t27.5 -120.5t91.5 -36.5zM287 746h88l-50 -196h-109z" />
    <glyph glyph-name="Hcircumflex" unicode="&#x124;" horiz-adv-x="768" 
d="M218 393h348v279h133v-672h-133v291h-348v-291h-133v578q0 11 -2.5 14.5t-12.5 7.5l-36 14l11 58h164q9 0 9 -10v-269zM340 880h124l123 -148h-109l-76 81l-76 -81h-109z" />
    <glyph glyph-name="hcircumflex" unicode="&#x125;" horiz-adv-x="595" 
d="M66 880h125l123 -138h-109l-77 76l-76 -76h-109zM534 95q0 -11 2 -14.5t12 -7.5l35 -14l-12 -59h-156q-9 0 -9 10v287q0 55 -22.5 79t-75.5 24q-38 0 -70.5 -10t-45.5 -18v-372h-128v609q0 11 -2 14.5t-12 7.5l-35 14l12 59h156q9 0 9 -10v-240q57 48 148 48
q97 0 145.5 -46.5t48.5 -153.5v-207z" />
    <glyph glyph-name="Hbar" unicode="&#x126;" horiz-adv-x="771" 
d="M78 503h-57v88h57v81h133v-81h348v81h133v-81h58v-88h-58v-503h-133v286h-348v-286h-133v503zM559 388v115h-348v-115h348z" />
    <glyph glyph-name="hbar" unicode="&#x127;" horiz-adv-x="595" 
d="M192 0h-128v551h-54v88h54v65h128v-65h167v-88h-167v-98q49 49 142 49q107 0 153.5 -46.5t46.5 -153.5v-207q0 -11 2 -14.5t12 -7.5l35 -14l-12 -59h-156q-9 0 -9 10v287q0 55 -22.5 79t-75.5 24q-38 0 -70.5 -10t-45.5 -18v-372z" />
    <glyph glyph-name="Itilde" unicode="&#x128;" horiz-adv-x="287" 
d="M85 578q0 11 -2.5 14.5t-12.5 7.5l-36 14l11 58h164q9 0 9 -10v-662h-133v578zM-17 751q0 63 24 90.5t80 27.5q21 0 37 -6.5t29 -14t24.5 -14t22.5 -6.5q17 0 24 9t7 32v5h90v-13q0 -63 -24 -90.5t-80 -27.5q-21 0 -37 6.5t-29 14t-24.5 14t-22.5 6.5q-17 0 -24 -9
t-7 -32v-6h-90v14z" />
    <glyph glyph-name="itilde" unicode="&#x129;" horiz-adv-x="261" 
d="M72 395q0 11 -2 14.5t-12 7.5l-35 14l12 59h156q9 0 9 -10v-480h-128v395zM-33 575q0 63 24 90.5t80 27.5q21 0 37 -6.5t29 -14t24.5 -14t22.5 -6.5q17 0 24 9t7 32v5h90v-13q0 -63 -24 -90.5t-80 -27.5q-21 0 -37 6.5t-29 14t-24.5 14t-22.5 6.5q-17 0 -24 -9t-7 -32v-6
h-90v14z" />
    <glyph glyph-name="Imacron" unicode="&#x12a;" horiz-adv-x="287" 
d="M85 578q0 11 -2.5 14.5t-12.5 7.5l-36 14l11 58h164q9 0 9 -10v-662h-133v578zM-9 849h322v-87h-322v87z" />
    <glyph glyph-name="imacron" unicode="&#x12b;" horiz-adv-x="261" 
d="M72 395q0 11 -2 14.5t-12 7.5l-35 14l12 59h156q9 0 9 -10v-480h-128v395zM-25 673h322v-87h-322v87z" />
    <glyph glyph-name="Ibreve" unicode="&#x12c;" horiz-adv-x="287" 
d="M85 578q0 11 -2.5 14.5t-12.5 7.5l-36 14l11 58h164q9 0 9 -10v-662h-133v578zM74 880q0 -39 18 -56.5t60 -17.5t60 17.5t18 56.5h90q0 -85 -40 -122t-128 -37t-128 37t-40 122h90z" />
    <glyph glyph-name="ibreve" unicode="&#x12d;" horiz-adv-x="261" 
d="M72 395q0 11 -2 14.5t-12 7.5l-35 14l12 59h156q9 0 9 -10v-480h-128v395zM58 704q0 -39 18 -56.5t60 -17.5t60 17.5t18 56.5h90q0 -85 -40 -122t-128 -37t-128 37t-40 122h90z" />
    <glyph glyph-name="Iogonek" unicode="&#x12e;" horiz-adv-x="287" 
d="M85 578q0 11 -2.5 14.5t-12.5 7.5l-36 14l11 58h164q9 0 9 -10v-662q-50 -45 -69.5 -72t-19.5 -48t12.5 -31t41.5 -10q10 0 19 1t16 2v-73q-14 -2 -30.5 -4t-34.5 -2q-66 0 -95 22.5t-29 72.5q0 34 21 67.5t67 74.5h-32v578z" />
    <glyph glyph-name="iogonek" unicode="&#x12f;" horiz-adv-x="261" 
d="M72 395q0 11 -2 14.5t-12 7.5l-35 14l12 59h156q9 0 9 -10v-480q-50 -45 -69.5 -72t-19.5 -48t12.5 -31t41.5 -10q10 0 19 1t16 2v-73q-14 -2 -30.5 -4t-34.5 -2q-66 0 -95 22.5t-29 72.5q0 34 21 67.5t67 74.5h-27v395zM60 630q0 38 18 55.5t58 17.5q41 0 58.5 -17.5
t17.5 -55.5q0 -39 -17.5 -56.5t-58.5 -17.5q-40 0 -58 17.5t-18 56.5z" />
    <glyph glyph-name="Idotaccent" unicode="&#x130;" horiz-adv-x="287" 
d="M85 578q0 11 -2.5 14.5t-12.5 7.5l-36 14l11 58h164q9 0 9 -10v-662h-133v578zM79 806q0 38 17 54.5t56 16.5t56 -16.5t17 -54.5t-17 -54.5t-56 -16.5t-56 16.5t-17 54.5z" />
    <glyph glyph-name="dotlessi" unicode="&#x131;" horiz-adv-x="261" 
d="M72 395q0 11 -2 14.5t-12 7.5l-35 14l12 59h156q9 0 9 -10v-480h-128v395z" />
    <glyph glyph-name="IJ" unicode="&#x132;" horiz-adv-x="744" 
d="M85 578q0 11 -2.5 14.5t-12.5 7.5l-36 14l11 58h164q9 0 9 -10v-662h-133v578zM675 214q0 -118 -56.5 -172t-180.5 -54q-32 0 -63.5 3.5t-60.5 9.5v105q52 -13 104 -13q66 0 95 29t29 97v453h133v-458z" />
    <glyph glyph-name="ij" unicode="&#x133;" horiz-adv-x="521" 
d="M60 630q0 38 18 55.5t58 17.5q41 0 58.5 -17.5t17.5 -55.5q0 -39 -17.5 -56.5t-58.5 -17.5q-40 0 -58 17.5t-18 56.5zM72 395q0 11 -2 14.5t-12 7.5l-35 14l12 59h156q9 0 9 -10v-480h-128v395zM320 630q0 38 18 55.5t58 17.5q41 0 58.5 -17.5t17.5 -55.5
q0 -39 -17.5 -56.5t-58.5 -17.5q-40 0 -58 17.5t-18 56.5zM460 -31q0 -46 -9.5 -81t-31.5 -58t-57 -35t-87 -12q-27 0 -51 3v95q8 -1 15.5 -1h14.5q49 0 63.5 23t14.5 69v423q0 11 -2 14.5t-12 7.5l-35 14l12 59h156q9 0 9 -10v-511z" />
    <glyph glyph-name="Jcircumflex" unicode="&#x134;" horiz-adv-x="457" 
d="M388 214q0 -118 -56.5 -172t-180.5 -54q-32 0 -63.5 3.5t-60.5 9.5v105q52 -13 104 -13q66 0 95 29t29 97v453h133v-458zM260 880h124l123 -148h-109l-76 81l-76 -81h-109z" />
    <glyph glyph-name="jcircumflex" unicode="&#x135;" horiz-adv-x="261" 
d="M200 -31q0 -46 -9.5 -81t-31.5 -58t-57 -35t-87 -12q-27 0 -51 3v95q8 -1 15.5 -1h14.5q49 0 63.5 23t14.5 69v423q0 11 -2 14.5t-12 7.5l-35 14l12 59h156q9 0 9 -10v-511zM74 704h124l123 -148h-109l-76 81l-76 -81h-109z" />
    <glyph glyph-name="Kcommaaccent" unicode="&#x136;" horiz-adv-x="644" 
d="M85 578q0 11 -2.5 14.5t-12.5 7.5l-36 14l11 58h164q9 0 9 -10v-278l262 288h151l-278 -309l286 -363h-150l-217 281l-54 -58v-223h-133v578zM329 -256h-88l50 196h109z" />
    <glyph glyph-name="kcommaaccent" unicode="&#x137;" horiz-adv-x="513" 
d="M191 300l165 190h146l-187 -210l200 -280h-147l-134 199l-43 -46v-153h-128v609q0 11 -2 14.5t-12 7.5l-35 14l12 59h156q9 0 9 -10v-394zM259 -256h-88l50 196h109z" />
    <glyph glyph-name="kgreenlandic" unicode="&#x138;" horiz-adv-x="513" 
d="M195 304l165 186h146l-187 -210l196 -280h-149l-128 199l-43 -46v-153h-128v395q0 11 -2 14.5t-12 7.5l-35 14l12 59h156q9 0 9 -10v-176z" />
    <glyph glyph-name="Lacute" unicode="&#x139;" horiz-adv-x="544" 
d="M85 578q0 11 -2.5 14.5t-12.5 7.5l-36 14l11 58h164q9 0 9 -10v-560h307v-102h-440v578zM189 732h-112l123 148h133z" />
    <glyph glyph-name="lacute" unicode="&#x13a;" horiz-adv-x="261" 
d="M166 742h-111l122 138h133zM193 95q0 -11 2 -14.5t12 -7.5l35 -14l-12 -59h-156q-9 0 -9 10v599q0 11 -2 14.5t-12 7.5l-35 14l12 59h156q9 0 9 -10v-599z" />
    <glyph glyph-name="Lcommaaccent" unicode="&#x13b;" horiz-adv-x="544" 
d="M85 578q0 11 -2.5 14.5t-12.5 7.5l-36 14l11 58h164q9 0 9 -10v-560h307v-102h-440v578zM314 -256h-88l50 196h109z" />
    <glyph glyph-name="lcommaaccent" unicode="&#x13c;" horiz-adv-x="261" 
d="M193 95q0 -11 2 -14.5t12 -7.5l35 -14l-12 -59h-156q-9 0 -9 10v599q0 11 -2 14.5t-12 7.5l-35 14l12 59h156q9 0 9 -10v-599zM133 -256h-88l50 196h109z" />
    <glyph glyph-name="Lcaron" unicode="&#x13d;" horiz-adv-x="544" 
d="M85 578q0 11 -2.5 14.5t-12.5 7.5l-36 14l11 58h164q9 0 9 -10v-560h307v-102h-440v578zM359 518h-88l50 196h109z" />
    <glyph glyph-name="lcaron" unicode="&#x13e;" horiz-adv-x="400" 
d="M193 95q0 -11 2 -14.5t12 -7.5l35 -14l-12 -59h-156q-9 0 -9 10v599q0 11 -2 14.5t-12 7.5l-35 14l12 59h156q9 0 9 -10v-599zM323 550h-88l50 196h109z" />
    <glyph glyph-name="Ldot" unicode="&#x13f;" horiz-adv-x="544" 
d="M85 578q0 11 -2.5 14.5t-12.5 7.5l-36 14l11 58h164q9 0 9 -10v-560h307v-102h-440v578zM336 359q0 38 17 54.5t56 16.5t56 -16.5t17 -54.5t-17 -54.5t-56 -16.5t-56 16.5t-17 54.5z" />
    <glyph glyph-name="ldot" unicode="&#x140;" horiz-adv-x="369" 
d="M240 358q0 35 16 50.5t52 15.5q37 0 53 -15.5t16 -50.5t-16 -50.5t-53 -15.5q-36 0 -52 15.5t-16 50.5zM193 95q0 -11 2 -14.5t12 -7.5l35 -14l-12 -59h-156q-9 0 -9 10v599q0 11 -2 14.5t-12 7.5l-35 14l12 59h156q9 0 9 -10v-599z" />
    <glyph glyph-name="Lslash" unicode="&#x141;" horiz-adv-x="543" 
d="M84 578q0 11 -3 14.5t-12 7.5l-36 14l11 58h164q9 0 9 -10v-239l147 73v-98l-147 -73v-223h307v-102h-440v258l-65 -32v98l65 33v221z" />
    <glyph glyph-name="lslash" unicode="&#x142;" horiz-adv-x="327" 
d="M227 439l87 43v-98l-87 -43v-246q0 -11 2 -14.5t12 -7.5l35 -14l-12 -59h-156q-9 0 -9 10v267l-86 -43v98l86 43v234q0 11 -2 14.5t-12 7.5l-35 14l12 59h156q9 0 9 -10v-255z" />
    <glyph glyph-name="Nacute" unicode="&#x143;" horiz-adv-x="768" 
d="M85 578q0 11 -2.5 14.5t-12.5 7.5l-36 14l11 58h150q15 0 19.5 -3.5t16.5 -19.5l345 -467v490h123v-672h-129l-362 490v-490h-123v578zM429 732h-112l123 148h133z" />
    <glyph glyph-name="nacute" unicode="&#x144;" horiz-adv-x="598" 
d="M343 502q97 0 145.5 -46.5t48.5 -153.5v-207q0 -11 2 -14.5t12 -7.5l35 -14l-12 -59h-156q-9 0 -9 10v287q0 55 -22.5 79t-75.5 24q-38 0 -70.5 -10t-45.5 -18v-372h-128v395q0 11 -2 14.5t-12 7.5l-35 14l12 59h151q9 0 9 -10v-29q33 27 70 39t83 12zM338 556h-112
l123 148h133z" />
    <glyph glyph-name="Ncommaaccent" unicode="&#x145;" horiz-adv-x="768" 
d="M85 578q0 11 -2.5 14.5t-12.5 7.5l-36 14l11 58h150q15 0 19.5 -3.5t16.5 -19.5l345 -467v490h123v-672h-129l-362 490v-490h-123v578zM396 -256h-88l50 196h109z" />
    <glyph glyph-name="ncommaaccent" unicode="&#x146;" horiz-adv-x="598" 
d="M343 502q97 0 145.5 -46.5t48.5 -153.5v-207q0 -11 2 -14.5t12 -7.5l35 -14l-12 -59h-156q-9 0 -9 10v287q0 55 -22.5 79t-75.5 24q-38 0 -70.5 -10t-45.5 -18v-372h-128v395q0 11 -2 14.5t-12 7.5l-35 14l12 59h151q9 0 9 -10v-29q33 27 70 39t83 12zM305 -256h-88
l50 196h109z" />
    <glyph glyph-name="Ncaron" unicode="&#x147;" horiz-adv-x="768" 
d="M85 578q0 11 -2.5 14.5t-12.5 7.5l-36 14l11 58h150q15 0 19.5 -3.5t16.5 -19.5l345 -467v490h123v-672h-129l-362 490v-490h-123v578zM454 732h-124l-123 148h109l76 -81l76 81h109z" />
    <glyph glyph-name="ncaron" unicode="&#x148;" horiz-adv-x="598" 
d="M343 502q97 0 145.5 -46.5t48.5 -153.5v-207q0 -11 2 -14.5t12 -7.5l35 -14l-12 -59h-156q-9 0 -9 10v287q0 55 -22.5 79t-75.5 24q-38 0 -70.5 -10t-45.5 -18v-372h-128v395q0 11 -2 14.5t-12 7.5l-35 14l12 59h151q9 0 9 -10v-29q33 27 70 39t83 12zM363 556h-124
l-123 148h109l76 -81l76 81h109z" />
    <glyph glyph-name="napostrophe" unicode="&#x149;" horiz-adv-x="711" 
d="M456 502q97 0 145.5 -46.5t48.5 -153.5v-207q0 -11 2 -14.5t12 -7.5l35 -14l-12 -59h-156q-9 0 -9 10v287q0 55 -22.5 79t-75.5 24q-38 0 -70.5 -10t-45.5 -18v-372h-128v395q0 11 -2 14.5t-12 7.5l-35 14l12 59h151q9 0 9 -10v-29q33 27 70 39t83 12zM108 476h-88
l50 196h109z" />
    <glyph glyph-name="Eng" unicode="&#x14a;" horiz-adv-x="768" 
d="M85 578q0 11 -2.5 14.5t-12.5 7.5l-36 14l11 58h150q15 0 19.5 -3.5t16.5 -19.5l345 -467v490h123v-666q0 -118 -56.5 -172t-180.5 -54q-33 0 -64 3.5t-60 9.5v105q52 -13 104 -13q67 0 98 24.5t31 75.5v14l-363 491v-490h-123v578z" />
    <glyph glyph-name="eng" unicode="&#x14b;" horiz-adv-x="598" 
d="M537 -42q0 -95 -44 -136.5t-145 -41.5q-50 0 -92 9v100q34 -9 72 -9q44 0 62.5 19t18.5 64v334q0 55 -22.5 79t-75.5 24q-38 0 -70.5 -10t-45.5 -18v-372h-128v395q0 11 -2 14.5t-12 7.5l-35 14l12 59h151q9 0 9 -10v-29q33 27 69 39t84 12q97 0 145.5 -46.5t48.5 -153.5
v-344z" />
    <glyph glyph-name="Omacron" unicode="&#x14c;" horiz-adv-x="751" 
d="M39 336q0 92 19 158t59.5 108t104.5 62t153 20t153 -20t105 -62t60 -108t19 -158t-19 -158t-60 -108t-105 -62t-153 -20t-153 20t-104.5 62t-59.5 108t-19 158zM174 336q0 -65 11.5 -111t36 -75t62.5 -43t91 -14q107 0 154 57t47 186t-47 186t-154 57q-53 0 -91 -14
t-62.5 -43t-36 -75.5t-11.5 -110.5zM214 849h322v-87h-322v87z" />
    <glyph glyph-name="omacron" unicode="&#x14d;" horiz-adv-x="579" 
d="M33 245q0 68 14.5 117t45.5 80t79.5 45.5t116.5 14.5t116.5 -14.5t80 -45.5t46 -80t14.5 -117q0 -136 -60.5 -196.5t-196.5 -60.5q-68 0 -116.5 14.5t-79.5 46t-45.5 80t-14.5 116.5zM163 245q0 -84 29.5 -120.5t96.5 -36.5q68 0 97.5 36.5t29.5 120.5t-29.5 120.5
t-97.5 36.5q-67 0 -96.5 -36.5t-29.5 -120.5zM127 673h322v-87h-322v87z" />
    <glyph glyph-name="Obreve" unicode="&#x14e;" horiz-adv-x="751" 
d="M39 336q0 92 19 158t59.5 108t104.5 62t153 20t153 -20t105 -62t60 -108t19 -158t-19 -158t-60 -108t-105 -62t-153 -20t-153 20t-104.5 62t-59.5 108t-19 158zM174 336q0 -65 11.5 -111t36 -75t62.5 -43t91 -14q107 0 154 57t47 186t-47 186t-154 57q-53 0 -91 -14
t-62.5 -43t-36 -75.5t-11.5 -110.5zM297 880q0 -39 18 -56.5t60 -17.5t60 17.5t18 56.5h90q0 -85 -40 -122t-128 -37t-128 37t-40 122h90z" />
    <glyph glyph-name="obreve" unicode="&#x14f;" horiz-adv-x="579" 
d="M33 245q0 68 14.5 117t45.5 80t79.5 45.5t116.5 14.5t116.5 -14.5t80 -45.5t46 -80t14.5 -117q0 -136 -60.5 -196.5t-196.5 -60.5q-68 0 -116.5 14.5t-79.5 46t-45.5 80t-14.5 116.5zM163 245q0 -84 29.5 -120.5t96.5 -36.5q68 0 97.5 36.5t29.5 120.5t-29.5 120.5
t-97.5 36.5q-67 0 -96.5 -36.5t-29.5 -120.5zM210 704q0 -39 18 -56.5t60 -17.5t60 17.5t18 56.5h90q0 -85 -40 -122t-128 -37t-128 37t-40 122h90z" />
    <glyph glyph-name="Ohungarumlaut" unicode="&#x150;" horiz-adv-x="751" 
d="M39 336q0 92 19 158t59.5 108t104.5 62t153 20t153 -20t105 -62t60 -108t19 -158t-19 -158t-60 -108t-105 -62t-153 -20t-153 20t-104.5 62t-59.5 108t-19 158zM174 336q0 -65 11.5 -111t36 -75t62.5 -43t91 -14q107 0 154 57t47 186t-47 186t-154 57q-53 0 -91 -14
t-62.5 -43t-36 -75.5t-11.5 -110.5zM523 732h-115l123 148h133zM307 732h-115l122 148h134z" />
    <glyph glyph-name="ohungarumlaut" unicode="&#x151;" horiz-adv-x="579" 
d="M33 245q0 68 14.5 117t45.5 80t79.5 45.5t116.5 14.5t116.5 -14.5t80 -45.5t46 -80t14.5 -117q0 -136 -60.5 -196.5t-196.5 -60.5q-68 0 -116.5 14.5t-79.5 46t-45.5 80t-14.5 116.5zM163 245q0 -84 29.5 -120.5t96.5 -36.5q68 0 97.5 36.5t29.5 120.5t-29.5 120.5
t-97.5 36.5q-67 0 -96.5 -36.5t-29.5 -120.5zM436 556h-115l123 148h133zM220 556h-115l122 148h134z" />
    <glyph glyph-name="OE" unicode="&#x152;" horiz-adv-x="1026" 
d="M983 572h-344v-181h272v-98h-272v-193h352v-100h-598q-94 0 -161 19t-110 60t-63 104.5t-20 152.5t20 152.5t63 104.5t110 60t161 19h590v-100zM506 570h-103q-61 0 -104.5 -13.5t-71 -42t-40.5 -72.5t-13 -106t13 -106t40.5 -72.5t71 -42t104.5 -13.5h103v468z" />
    <glyph glyph-name="oe" unicode="&#x153;" horiz-adv-x="923" 
d="M33 245q0 68 14.5 117t45.5 80t79.5 45.5t116.5 14.5q140 0 192 -81q25 42 70 61.5t112 19.5q120 0 173 -58.5t53 -190.5v-23.5t-2 -21.5h-343q4 -66 41 -94.5t119 -28.5q81 0 164 24v-98q-39 -12 -82.5 -17.5t-91.5 -5.5q-78 0 -130 20t-81 64q-47 -84 -194 -84
q-68 0 -116.5 14.5t-79.5 46t-45.5 80t-14.5 116.5zM163 245q0 -84 29.5 -120.5t96.5 -36.5q68 0 97.5 36.5t29.5 120.5t-29.5 120.5t-97.5 36.5q-67 0 -96.5 -36.5t-29.5 -120.5zM663 412q-60 0 -88.5 -29t-30.5 -93h223q-2 66 -26 94t-78 28z" />
    <glyph glyph-name="Racute" unicode="&#x154;" horiz-adv-x="672" 
d="M218 0h-133v578q0 11 -2.5 14.5t-12.5 7.5l-36 14l11 58h336q130 0 187 -49.5t57 -159.5q0 -87 -35.5 -134t-110.5 -61l164 -268h-147l-149 253h-129v-253zM218 353h148q69 0 98.5 25t29.5 85q0 59 -29.5 84t-98.5 25h-148v-219zM381 732h-112l123 148h133z" />
    <glyph glyph-name="racute" unicode="&#x155;" horiz-adv-x="396" 
d="M67 395q0 11 -2 14.5t-12 7.5l-35 14l12 59h151q9 0 9 -10v-54q26 37 61 56.5t86 19.5q17 0 30.5 -1t22.5 -3l-22 -103q-7 2 -20.5 3.5t-27.5 1.5q-32 0 -66 -12t-59 -36v-352h-128v395zM256 556h-112l123 148h133z" />
    <glyph glyph-name="Rcommaaccent" unicode="&#x156;" horiz-adv-x="672" 
d="M218 0h-133v578q0 11 -2.5 14.5t-12.5 7.5l-36 14l11 58h336q130 0 187 -49.5t57 -159.5q0 -87 -35.5 -134t-110.5 -61l164 -268h-147l-149 253h-129v-253zM218 353h148q69 0 98.5 25t29.5 85q0 59 -29.5 84t-98.5 25h-148v-219zM348 -256h-88l50 196h109z" />
    <glyph glyph-name="rcommaaccent" unicode="&#x157;" horiz-adv-x="396" 
d="M67 395q0 11 -2 14.5t-12 7.5l-35 14l12 59h151q9 0 9 -10v-54q26 37 61 56.5t86 19.5q17 0 30.5 -1t22.5 -3l-22 -103q-7 2 -20.5 3.5t-27.5 1.5q-32 0 -66 -12t-59 -36v-352h-128v395zM114 -256h-88l50 196h109z" />
    <glyph glyph-name="Rcaron" unicode="&#x158;" horiz-adv-x="672" 
d="M218 0h-133v578q0 11 -2.5 14.5t-12.5 7.5l-36 14l11 58h336q130 0 187 -49.5t57 -159.5q0 -87 -35.5 -134t-110.5 -61l164 -268h-147l-149 253h-129v-253zM218 353h148q69 0 98.5 25t29.5 85q0 59 -29.5 84t-98.5 25h-148v-219zM406 732h-124l-123 148h109l76 -81l76 81
h109z" />
    <glyph glyph-name="rcaron" unicode="&#x159;" horiz-adv-x="396" 
d="M67 395q0 11 -2 14.5t-12 7.5l-35 14l12 59h151q9 0 9 -10v-54q26 37 61 56.5t86 19.5q17 0 30.5 -1t22.5 -3l-22 -103q-7 2 -20.5 3.5t-27.5 1.5q-32 0 -66 -12t-59 -36v-352h-128v395zM281 556h-124l-123 148h109l76 -81l76 81h109z" />
    <glyph glyph-name="Sacute" unicode="&#x15a;" horiz-adv-x="589" 
d="M514 552q-41 14 -92.5 22t-102.5 8q-74 0 -108.5 -21t-34.5 -72q0 -35 28.5 -52.5t71.5 -29t92.5 -22.5t92.5 -32.5t71.5 -60t28.5 -103.5q0 -105 -66 -153t-202 -48q-124 0 -238 33v105q112 -36 228 -36q77 0 112.5 22.5t35.5 74.5q0 37 -28.5 56t-71.5 30.5t-92.5 22
t-92.5 31.5t-71.5 58t-28.5 102q0 106 70.5 151.5t211.5 45.5q55 0 110.5 -9t94.5 -23l-19 -100v0zM338 732h-112l123 148h133z" />
    <glyph glyph-name="sacute" unicode="&#x15b;" horiz-adv-x="467" 
d="M246 502q47 0 93.5 -6.5t80.5 -17.5l-19 -95q-35 11 -71.5 17t-74.5 6q-50 0 -72 -13.5t-22 -39.5q0 -23 20.5 -33.5t51.5 -16.5t67 -12.5t67 -22t51.5 -44.5t20.5 -80q0 -81 -51.5 -118.5t-160.5 -37.5q-100 0 -182 24v99q42 -13 85 -20t87 -7q97 0 97 57q0 24 -20.5 35
t-51.5 17.5t-67 12.5t-67 21t-51.5 43.5t-20.5 79.5q0 41 16 70t44 47t66.5 26.5t83.5 8.5zM272 556h-112l123 148h133z" />
    <glyph glyph-name="Scircumflex" unicode="&#x15c;" horiz-adv-x="589" 
d="M514 552q-41 14 -92.5 22t-102.5 8q-74 0 -108.5 -21t-34.5 -72q0 -35 28.5 -52.5t71.5 -29t92.5 -22.5t92.5 -32.5t71.5 -60t28.5 -103.5q0 -105 -66 -153t-202 -48q-124 0 -238 33v105q112 -36 228 -36q77 0 112.5 22.5t35.5 74.5q0 37 -28.5 56t-71.5 30.5t-92.5 22
t-92.5 31.5t-71.5 58t-28.5 102q0 106 70.5 151.5t211.5 45.5q55 0 110.5 -9t94.5 -23l-19 -100v0zM239 880h124l123 -148h-109l-76 81l-76 -81h-109z" />
    <glyph glyph-name="scircumflex" unicode="&#x15d;" horiz-adv-x="467" 
d="M246 502q47 0 93.5 -6.5t80.5 -17.5l-19 -95q-35 11 -71.5 17t-74.5 6q-50 0 -72 -13.5t-22 -39.5q0 -23 20.5 -33.5t51.5 -16.5t67 -12.5t67 -22t51.5 -44.5t20.5 -80q0 -81 -51.5 -118.5t-160.5 -37.5q-100 0 -182 24v99q42 -13 85 -20t87 -7q97 0 97 57q0 24 -20.5 35
t-51.5 17.5t-67 12.5t-67 21t-51.5 43.5t-20.5 79.5q0 41 16 70t44 47t66.5 26.5t83.5 8.5zM173 704h124l123 -148h-109l-76 81l-76 -81h-109z" />
    <glyph glyph-name="Scedilla" unicode="&#x15e;" horiz-adv-x="589" 
d="M245 -11q-50 3 -97 10.5t-93 21.5v105q112 -36 228 -36q77 0 113 22.5t36 74.5q0 38 -28.5 57t-71.5 31t-93 22.5t-93 31t-71.5 57.5t-28.5 101q0 106 70.5 151.5t211.5 45.5q55 0 110.5 -9t94.5 -23l-19 -100q-41 14 -92.5 22t-102.5 8q-74 0 -109 -21t-35 -72
q0 -35 28.5 -53t71.5 -29.5t93 -22.5t93 -32.5t71.5 -59.5t28.5 -103q0 -97 -56.5 -145t-171.5 -55v-33q75 -11 75 -90q0 -54 -33 -78.5t-107 -24.5q-47 0 -87 12v69q36 -11 69 -11q31 0 44.5 8t13.5 27q0 20 -12.5 28t-42.5 8h-8v85z" />
    <glyph glyph-name="scedilla" unicode="&#x15f;" horiz-adv-x="467" 
d="M186 -11q-74 4 -141 23v99q42 -13 85 -20t87 -7q97 0 97 57q0 24 -20.5 35t-51.5 17.5t-67 12.5t-67 21t-51.5 43.5t-20.5 79.5q0 41 16 70t44 47t66.5 26.5t83.5 8.5q47 0 93.5 -6.5t80.5 -17.5l-19 -95q-35 11 -71.5 17t-74.5 6q-50 0 -72 -13.5t-22 -39.5
q0 -23 20.5 -33.5t51.5 -16.5t67 -12.5t67 -22t51.5 -44.5t20.5 -80q0 -72 -40 -109t-125 -45v-34q75 -11 75 -90q0 -54 -33 -78.5t-107 -24.5q-47 0 -87 12v69q36 -11 69 -11q31 0 44.5 8t13.5 27q0 20 -12.5 28t-42.5 8h-8v85z" />
    <glyph glyph-name="Scaron" unicode="&#x160;" horiz-adv-x="589" 
d="M514 552q-41 14 -92.5 22t-102.5 8q-74 0 -108.5 -21t-34.5 -72q0 -35 28.5 -52.5t71.5 -29t92.5 -22.5t92.5 -32.5t71.5 -60t28.5 -103.5q0 -105 -66 -153t-202 -48q-124 0 -238 33v105q112 -36 228 -36q77 0 112.5 22.5t35.5 74.5q0 37 -28.5 56t-71.5 30.5t-92.5 22
t-92.5 31.5t-71.5 58t-28.5 102q0 106 70.5 151.5t211.5 45.5q55 0 110.5 -9t94.5 -23l-19 -100v0zM363 732h-124l-123 148h109l76 -81l76 81h109z" />
    <glyph glyph-name="scaron" unicode="&#x161;" horiz-adv-x="467" 
d="M246 502q47 0 93.5 -6.5t80.5 -17.5l-19 -95q-35 11 -71.5 17t-74.5 6q-50 0 -72 -13.5t-22 -39.5q0 -23 20.5 -33.5t51.5 -16.5t67 -12.5t67 -22t51.5 -44.5t20.5 -80q0 -81 -51.5 -118.5t-160.5 -37.5q-100 0 -182 24v99q42 -13 85 -20t87 -7q97 0 97 57q0 24 -20.5 35
t-51.5 17.5t-67 12.5t-67 21t-51.5 43.5t-20.5 79.5q0 41 16 70t44 47t66.5 26.5t83.5 8.5zM297 556h-124l-123 148h109l76 -81l76 81h109z" />
    <glyph glyph-name="Tcommaaccent" unicode="&#x162;" horiz-adv-x="607" 
d="M237 570h-218v102h569v-102h-218v-570h-133v570zM307 -256h-88l50 196h109z" />
    <glyph glyph-name="tcommaaccent" unicode="&#x163;" horiz-adv-x="389" 
d="M79 374q0 15 -1.5 19t-11.5 6l-62 17l12 74h63v141h127v-141h154v-97h-154v-222q0 -45 19 -64t63 -19q37 0 72 9v-100q-44 -9 -92 -9q-101 0 -145 41.5t-44 136.5v208zM223 -256h-88l50 196h109z" />
    <glyph glyph-name="Tcaron" unicode="&#x164;" horiz-adv-x="607" 
d="M237 570h-218v102h569v-102h-218v-570h-133v570zM365 732h-124l-123 148h109l76 -81l76 81h109z" />
    <glyph glyph-name="tcaron" unicode="&#x165;" horiz-adv-x="389" 
d="M79 374q0 15 -1.5 19t-11.5 6l-62 17l12 74h63v141h127v-141h154v-97h-154v-222q0 -45 19 -64t63 -19q37 0 72 9v-100q-44 -9 -92 -9q-101 0 -145 41.5t-44 136.5v208zM335 550h-88l50 196h109z" />
    <glyph glyph-name="Tbar" unicode="&#x166;" horiz-adv-x="607" 
d="M237 267h-140v93h140v210h-218v102h569v-102h-218v-210h140v-93h-140v-267h-133v267z" />
    <glyph glyph-name="tbar" unicode="&#x167;" horiz-adv-x="409" 
d="M98 374q0 15 -1.5 19t-11.5 6l-62 17l12 74h63v133l127 22v-155h154v-92h-154v-110h138v-83h-138v-42q0 -42 19 -61t63 -19q19 0 37 2.5t35 6.5v-94q-41 -10 -92 -10q-101 0 -145 41t-44 134v42h-84v83h84v86z" />
    <glyph glyph-name="Utilde" unicode="&#x168;" horiz-adv-x="770" 
d="M87 578q0 11 -2.5 14.5t-12.5 7.5l-36 14l11 58h164q9 0 9 -10v-389q0 -96 41 -138t133 -42q93 0 133.5 42t40.5 138v399h133v-409q0 -73 -17.5 -125t-54.5 -85.5t-95.5 -49t-139.5 -15.5t-139.5 15.5t-95.5 49t-54.5 85.5t-17.5 125v315zM225 751q0 63 24 90.5t80 27.5
q21 0 37 -6.5t29 -14t24.5 -14t22.5 -6.5q17 0 24 9t7 32v5h90v-13q0 -63 -24 -90.5t-80 -27.5q-21 0 -37 6.5t-29 14t-24.5 14t-22.5 6.5q-17 0 -24 -9t-7 -32v-6h-90v14z" />
    <glyph glyph-name="utilde" unicode="&#x169;" horiz-adv-x="587" 
d="M533 191q0 -107 -55 -155t-180 -48q-62 0 -106.5 11.5t-73 36.5t-42 63t-13.5 92v204q0 11 -2 14.5t-12 7.5l-35 14l12 59h156q9 0 9 -10v-279q0 -61 25 -87t82 -26t82 26t25 87v289h128v-299zM129 575q0 63 24 90.5t80 27.5q21 0 37 -6.5t29 -14t24.5 -14t22.5 -6.5
q17 0 24 9t7 32v5h90v-13q0 -63 -24 -90.5t-80 -27.5q-21 0 -37 6.5t-29 14t-24.5 14t-22.5 6.5q-17 0 -24 -9t-7 -32v-6h-90v14z" />
    <glyph glyph-name="Umacron" unicode="&#x16a;" horiz-adv-x="770" 
d="M87 578q0 11 -2.5 14.5t-12.5 7.5l-36 14l11 58h164q9 0 9 -10v-389q0 -96 41 -138t133 -42q93 0 133.5 42t40.5 138v399h133v-409q0 -73 -17.5 -125t-54.5 -85.5t-95.5 -49t-139.5 -15.5t-139.5 15.5t-95.5 49t-54.5 85.5t-17.5 125v315zM233 849h322v-87h-322v87z" />
    <glyph glyph-name="umacron" unicode="&#x16b;" horiz-adv-x="587" 
d="M533 191q0 -107 -55 -155t-180 -48q-62 0 -106.5 11.5t-73 36.5t-42 63t-13.5 92v204q0 11 -2 14.5t-12 7.5l-35 14l12 59h156q9 0 9 -10v-279q0 -61 25 -87t82 -26t82 26t25 87v289h128v-299zM137 673h322v-87h-322v87z" />
    <glyph glyph-name="Ubreve" unicode="&#x16c;" horiz-adv-x="770" 
d="M87 578q0 11 -2.5 14.5t-12.5 7.5l-36 14l11 58h164q9 0 9 -10v-389q0 -96 41 -138t133 -42q93 0 133.5 42t40.5 138v399h133v-409q0 -73 -17.5 -125t-54.5 -85.5t-95.5 -49t-139.5 -15.5t-139.5 15.5t-95.5 49t-54.5 85.5t-17.5 125v315zM316 880q0 -39 18 -56.5
t60 -17.5t60 17.5t18 56.5h90q0 -85 -40 -122t-128 -37t-128 37t-40 122h90z" />
    <glyph glyph-name="ubreve" unicode="&#x16d;" horiz-adv-x="587" 
d="M533 191q0 -107 -55 -155t-180 -48q-62 0 -106.5 11.5t-73 36.5t-42 63t-13.5 92v204q0 11 -2 14.5t-12 7.5l-35 14l12 59h156q9 0 9 -10v-279q0 -61 25 -87t82 -26t82 26t25 87v289h128v-299zM220 704q0 -39 18 -56.5t60 -17.5t60 17.5t18 56.5h90q0 -85 -40 -122
t-128 -37t-128 37t-40 122h90z" />
    <glyph glyph-name="Uring" unicode="&#x16e;" horiz-adv-x="770" 
d="M87 578q0 11 -2.5 14.5t-12.5 7.5l-36 14l11 58h164q9 0 9 -10v-389q0 -96 41 -138t133 -42q93 0 133.5 42t40.5 138v399h133v-409q0 -73 -17.5 -125t-54.5 -85.5t-95.5 -49t-139.5 -15.5t-139.5 15.5t-95.5 49t-54.5 85.5t-17.5 125v315zM277 806q0 54 27.5 78t89.5 24
t89.5 -24t27.5 -78t-27.5 -78t-89.5 -24t-89.5 24t-27.5 78zM346 806q0 -26 11 -37t37 -11q25 0 36.5 11t11.5 37t-11 36.5t-37 10.5t-37 -10.5t-11 -36.5z" />
    <glyph glyph-name="uring" unicode="&#x16f;" horiz-adv-x="587" 
d="M533 191q0 -107 -55 -155t-180 -48q-62 0 -106.5 11.5t-73 36.5t-42 63t-13.5 92v204q0 11 -2 14.5t-12 7.5l-35 14l12 59h156q9 0 9 -10v-279q0 -61 25 -87t82 -26t82 26t25 87v289h128v-299zM181 630q0 54 27.5 78t89.5 24t89.5 -24t27.5 -78t-27.5 -78t-89.5 -24
t-89.5 24t-27.5 78zM250 630q0 -26 11 -37t37 -11q25 0 36.5 11t11.5 37t-11 36.5t-37 10.5t-37 -10.5t-11 -36.5z" />
    <glyph glyph-name="Uhungarumlaut" unicode="&#x170;" horiz-adv-x="770" 
d="M87 578q0 11 -2.5 14.5t-12.5 7.5l-36 14l11 58h164q9 0 9 -10v-389q0 -96 41 -138t133 -42q93 0 133.5 42t40.5 138v399h133v-409q0 -73 -17.5 -125t-54.5 -85.5t-95.5 -49t-139.5 -15.5t-139.5 15.5t-95.5 49t-54.5 85.5t-17.5 125v315zM542 732h-115l123 148h133z
M326 732h-115l122 148h134z" />
    <glyph glyph-name="uhungarumlaut" unicode="&#x171;" horiz-adv-x="587" 
d="M533 191q0 -107 -55 -155t-180 -48q-62 0 -106.5 11.5t-73 36.5t-42 63t-13.5 92v204q0 11 -2 14.5t-12 7.5l-35 14l12 59h156q9 0 9 -10v-279q0 -61 25 -87t82 -26t82 26t25 87v289h128v-299zM446 556h-115l123 148h133zM230 556h-115l122 148h134z" />
    <glyph glyph-name="Uogonek" unicode="&#x172;" horiz-adv-x="770" 
d="M87 578q0 11 -2.5 14.5t-12.5 7.5l-36 14l11 58h164q9 0 9 -10v-389q0 -96 41 -138t133 -42q93 0 133.5 42t40.5 138v399h133v-409q0 -56 -9 -97.5t-28.5 -72t-51 -53t-77.5 -41.5q-69 -28 -100.5 -60t-31.5 -59q0 -21 12.5 -31t41.5 -10q10 0 19 1t16 2v-73
q-14 -2 -30.5 -4t-35.5 -2q-65 0 -94 22.5t-29 72.5q0 33 21.5 67t64.5 64q-23 -1 -51 2q-133 10 -192 75t-59 197v315z" />
    <glyph glyph-name="uogonek" unicode="&#x173;" horiz-adv-x="587" 
d="M63 395q0 11 -2 14.5t-12 7.5l-35 14l12 59h156q9 0 9 -10v-279q0 -61 25 -87t82 -26t82 26t25 87v289h128v-299q0 -38 -6 -67t-20.5 -51.5t-37.5 -41t-56 -36.5q-57 -30 -85.5 -58t-28.5 -57q0 -21 12.5 -31t41.5 -10q10 0 19 1t16 2v-73q-14 -2 -30.5 -4t-35.5 -2
q-65 0 -94 22.5t-29 72.5q0 32 22 66t67 66q-12 -1 -21.5 -0.5t-20.5 1.5q-95 8 -139 55t-44 146v203z" />
    <glyph glyph-name="Wcircumflex" unicode="&#x174;" horiz-adv-x="1017" 
d="M508 475q-4 -27 -10.5 -61t-15.5 -72t-20.5 -78t-23.5 -77q-14 -41 -32 -91t-37 -96h-152q-27 66 -56 153t-57 178.5t-51.5 180.5t-38.5 160h130q9 -42 25.5 -107.5t40.5 -156.5q9 -36 20 -74t22.5 -75.5t22.5 -72t21 -62.5h1q10 28 21 62.5t22 72t22 75.5t20 74
q23 85 38 146.5t25 103.5h127q10 -42 25 -103.5t38 -146.5q9 -36 20 -74t22 -75.5t22 -72t21 -62.5h1q10 28 21 62.5t22.5 72t22.5 75.5t20 74q24 91 40.5 156.5t25.5 107.5h130q-15 -71 -38.5 -160t-51.5 -180.5t-57 -178.5t-56 -153h-152q-19 46 -37 96t-32 91
q-12 37 -23.5 77t-20.5 78t-15.5 72t-10.5 61h-1zM447 880h124l123 -148h-109l-76 81l-76 -81h-109z" />
    <glyph glyph-name="wcircumflex" unicode="&#x175;" horiz-adv-x="838" 
d="M418 305q-20 -79 -45 -159t-52 -146h-138q-26 62 -49 126.5t-44 127.5t-38.5 123t-30.5 113h126q9 -38 22 -85t25 -89q14 -48 29 -96.5t32 -95.5h1q14 41 30 89.5t31 102.5q11 38 22 80t20 78h120q9 -36 20 -78t22 -80q15 -54 31 -102.5t30 -89.5h1q17 47 32 95.5
t29 96.5q12 42 25 89t22 85h126q-14 -53 -31 -113t-38 -123t-44.5 -127.5t-48.5 -126.5h-138q-27 66 -52 146t-45 159h-2zM359 704h124l123 -148h-109l-76 81l-76 -81h-109z" />
    <glyph glyph-name="Ycircumflex" unicode="&#x176;" horiz-adv-x="617" 
d="M242 273l-246 399h150l162 -281l163 281h149l-245 -399v-273h-133v273zM246 880h124l123 -148h-109l-76 81l-76 -81h-109z" />
    <glyph glyph-name="ycircumflex" unicode="&#x177;" horiz-adv-x="544" 
d="M8 490h139l134 -339l114 339h133l-204 -550q-16 -42 -34.5 -72.5t-43.5 -50t-58 -28.5t-78 -9q-10 0 -22 0.5t-20 1.5v98q7 -1 17 -1.5t18 -0.5q22 0 38 4.5t28.5 15t22.5 27t19 41.5l11 29zM210 704h124l123 -148h-109l-76 81l-76 -81h-109z" />
    <glyph glyph-name="Ydieresis" unicode="&#x178;" horiz-adv-x="617" 
d="M242 273l-246 399h150l162 -281l163 281h149l-245 -399v-273h-133v273zM343 812q0 38 17.5 54.5t55.5 16.5q39 0 56.5 -16.5t17.5 -54.5t-17.5 -54.5t-56.5 -16.5q-38 0 -55.5 16.5t-17.5 54.5zM126 812q0 38 17.5 54.5t56.5 16.5q38 0 55.5 -16.5t17.5 -54.5
t-17.5 -54.5t-55.5 -16.5q-39 0 -56.5 16.5t-17.5 54.5z" />
    <glyph glyph-name="Zacute" unicode="&#x179;" horiz-adv-x="628" 
d="M36 92l383 478h-375v102h541v-92l-384 -478h392v-102h-557v92zM351 732h-112l123 148h133z" />
    <glyph glyph-name="zacute" unicode="&#x17a;" horiz-adv-x="493" 
d="M38 87l255 306h-247v97h407v-86l-255 -307h263v-97h-423v87zM286 556h-112l123 148h133z" />
    <glyph glyph-name="Zdotaccent" unicode="&#x17b;" horiz-adv-x="628" 
d="M36 92l383 478h-375v102h541v-92l-384 -478h392v-102h-557v92zM241 806q0 38 17 54.5t56 16.5t56 -16.5t17 -54.5t-17 -54.5t-56 -16.5t-56 16.5t-17 54.5z" />
    <glyph glyph-name="zdotaccent" unicode="&#x17c;" horiz-adv-x="493" 
d="M38 87l255 306h-247v97h407v-86l-255 -307h263v-97h-423v87zM176 630q0 38 17 54.5t56 16.5t56 -16.5t17 -54.5t-17 -54.5t-56 -16.5t-56 16.5t-17 54.5z" />
    <glyph glyph-name="Zcaron" unicode="&#x17d;" horiz-adv-x="628" 
d="M36 92l383 478h-375v102h541v-92l-384 -478h392v-102h-557v92zM376 732h-124l-123 148h109l76 -81l76 81h109z" />
    <glyph glyph-name="zcaron" unicode="&#x17e;" horiz-adv-x="493" 
d="M38 87l255 306h-247v97h407v-86l-255 -307h263v-97h-423v87zM311 556h-124l-123 148h109l76 -81l76 81h109z" />
    <glyph glyph-name="florin" unicode="&#x192;" 
d="M455 329h-114v-166q0 -92 -42 -133.5t-136 -41.5q-20 0 -40 1.5t-39 6.5v99q27 -7 56 -7q38 0 55.5 18t17.5 57v166h-105v97h105v80q0 94 43 136t138 42q24 0 44.5 -2t40.5 -6v-99q-16 3 -31 5t-31 2q-39 0 -57.5 -18.5t-18.5 -59.5v-80h114v-97z" />
    <glyph glyph-name="Acaron" unicode="&#x1cd;" horiz-adv-x="664" 
d="M406 672q20 -36 43 -86.5t47.5 -109.5t48.5 -123t45.5 -127t39.5 -121t30 -105h-134q-11 41 -23 80t-23 77h-296q-12 -38 -23.5 -77t-22.5 -80h-134q12 47 30 105t39.5 121t45.5 127t48.5 123t47.5 109.5t43 86.5h148zM332 554q-64 -144 -116 -299h232q-54 155 -116 299z
M394 732h-124l-123 148h109l76 -81l76 81h109z" />
    <glyph glyph-name="acaron" unicode="&#x1ce;" horiz-adv-x="543" 
d="M158 140q0 -32 21.5 -47t69.5 -15q58 0 84 19t26 61v28q-46 16 -102 16q-51 0 -75 -14.5t-24 -47.5zM224 -12q-100 0 -145.5 36.5t-45.5 114.5q0 75 49 110t155 35q65 0 122 -17v46q0 50 -29 71t-98 21q-75 0 -154 -24v98q81 23 169 23q124 0 179.5 -46.5t55.5 -152.5
v-208q0 -11 2 -14.5t12 -7.5l35 -14l-12 -59h-109q-15 0 -19 4t-7 17l-4 21q-50 -54 -156 -54zM330 556h-124l-123 148h109l76 -81l76 81h109z" />
    <glyph glyph-name="Aringacute" unicode="&#x1fa;" horiz-adv-x="664" 
d="M406 672q20 -36 43 -86.5t47.5 -109.5t48.5 -123t45.5 -127t39.5 -121t30 -105h-134q-11 41 -23 80t-23 77h-296q-12 -38 -23.5 -77t-22.5 -80h-134q12 47 30 105t39.5 121t45.5 127t48.5 123t47.5 109.5t43 86.5h148zM332 554q-64 -144 -116 -299h232q-54 155 -116 299z
M401 895q46 -22 46 -89q0 -54 -27.5 -78t-89.5 -24t-89.5 24t-27.5 78q0 45 18.5 68.5t60.5 30.5l86 103h133zM282 806q0 -26 11 -37t37 -11q25 0 36.5 11t11.5 37t-11 36.5t-37 10.5t-37 -10.5t-11 -36.5z" />
    <glyph glyph-name="aringacute" unicode="&#x1fb;" horiz-adv-x="543" 
d="M158 140q0 -32 21.5 -47t69.5 -15q58 0 84 19t26 61v28q-46 16 -102 16q-51 0 -75 -14.5t-24 -47.5zM224 -12q-100 0 -145.5 36.5t-45.5 114.5q0 75 49 110t155 35q65 0 122 -17v46q0 50 -29 71t-98 21q-75 0 -154 -24v98q81 23 169 23q124 0 179.5 -46.5t55.5 -152.5
v-208q0 -11 2 -14.5t12 -7.5l35 -14l-12 -59h-109q-15 0 -19 4t-7 17l-4 21q-50 -54 -156 -54zM336 719q46 -22 46 -89q0 -54 -27.5 -78t-89.5 -24t-89.5 24t-27.5 78q0 45 18.5 68.5t60.5 30.5l86 103h133zM217 630q0 -26 11 -37t37 -11q25 0 36.5 11t11.5 37t-11 36.5
t-37 10.5t-37 -10.5t-11 -36.5z" />
    <glyph glyph-name="AEacute" unicode="&#x1fc;" horiz-adv-x="1024" 
d="M981 672v-102h-352v-179h280v-98h-280v-191h360v-102h-493v157h-276q-25 -42 -47.5 -81.5t-42.5 -75.5h-137q52 96 111.5 195t118.5 188.5t112.5 164.5t93.5 124h552zM496 578q-22 -29 -47.5 -65t-53.5 -78t-57.5 -87.5t-58.5 -92.5h217v323zM601 732h-112l123 148h133z
" />
    <glyph glyph-name="aeacute" unicode="&#x1fd;" horiz-adv-x="859" 
d="M33 139q0 75 49 110t155 35q65 0 122 -17v46q0 50 -29 71t-98 21q-75 0 -154 -24v98q81 23 169 23q67 0 110.5 -16.5t66.5 -52.5q54 69 175 69q120 0 173 -58.5t53 -190.5v-23.5t-2 -21.5h-343q4 -66 41.5 -94.5t118.5 -28.5t164 24v-98q-39 -12 -82.5 -17.5t-91.5 -5.5
q-153 0 -219 73q-52 -73 -186 -73q-100 0 -146 36.5t-46 114.5zM599 412q-60 0 -88 -28.5t-31 -93.5h223q-2 66 -26 94t-78 28zM158 140q0 -32 22.5 -47t70.5 -15q57 0 82.5 19t25.5 61v28q-46 16 -102 16q-51 0 -75 -14.5t-24 -47.5zM466 556h-112l123 148h133z" />
    <glyph glyph-name="Oslashacute" unicode="&#x1fe;" horiz-adv-x="751" 
d="M39 336q0 92 19 158t59.5 108t104.5 62t153 20q116 0 188 -34l40 54h96l-72 -96q85 -82 85 -272q0 -92 -19 -158t-60 -108t-105 -62t-153 -20q-115 0 -188 33l-40 -53h-96l72 96q-44 42 -64 109t-20 163zM587 336q0 111 -36 171l-296 -395q46 -24 120 -24q112 0 162 58
t50 190zM164 336q0 -113 35 -171l296 395q-47 24 -120 24q-112 0 -161.5 -58t-49.5 -190zM412 732h-112l123 148h133z" />
    <glyph glyph-name="oslashacute" unicode="&#x1ff;" horiz-adv-x="579" 
d="M32 245q0 68 14.5 117t45.5 80t79.5 45.5t116.5 14.5q81 0 135 -21l31 41h84l-58 -77q34 -31 49.5 -80.5t15.5 -119.5q0 -136 -60.5 -196.5t-196.5 -60.5q-81 0 -135 21l-31 -41h-83l57 76q-33 32 -48.5 81t-15.5 120zM430 245q0 70 -20 107l-196 -261q29 -13 74 -13
q75 0 108.5 39t33.5 128zM147 245q0 -69 19 -107l195 260q-31 14 -73 14q-75 0 -108 -39t-33 -128zM325 556h-112l123 148h133z" />
    <glyph glyph-name="Scommaaccent" unicode="&#x218;" horiz-adv-x="589" 
d="M514 552q-41 14 -92.5 22t-102.5 8q-74 0 -108.5 -21t-34.5 -72q0 -35 28.5 -52.5t71.5 -29t92.5 -22.5t92.5 -32.5t71.5 -60t28.5 -103.5q0 -105 -66 -153t-202 -48q-124 0 -238 33v105q112 -36 228 -36q77 0 112.5 22.5t35.5 74.5q0 37 -28.5 56t-71.5 30.5t-92.5 22
t-92.5 31.5t-71.5 58t-28.5 102q0 106 70.5 151.5t211.5 45.5q55 0 110.5 -9t94.5 -23l-19 -100v0zM305 -256h-88l50 196h109z" />
    <glyph glyph-name="scommaaccent" unicode="&#x219;" horiz-adv-x="467" 
d="M246 502q47 0 93.5 -6.5t80.5 -17.5l-19 -95q-35 11 -71.5 17t-74.5 6q-50 0 -72 -13.5t-22 -39.5q0 -23 20.5 -33.5t51.5 -16.5t67 -12.5t67 -22t51.5 -44.5t20.5 -80q0 -81 -51.5 -118.5t-160.5 -37.5q-100 0 -182 24v99q42 -13 85 -20t87 -7q97 0 97 57q0 24 -20.5 35
t-51.5 17.5t-67 12.5t-67 21t-51.5 43.5t-20.5 79.5q0 41 16 70t44 47t66.5 26.5t83.5 8.5zM239 -256h-88l50 196h109z" />
    <glyph glyph-name="uni021A" unicode="&#x21a;" horiz-adv-x="607" 
d="M237 570h-218v102h569v-102h-218v-570h-133v570zM307 -256h-88l50 196h109z" />
    <glyph glyph-name="uni021B" unicode="&#x21b;" horiz-adv-x="389" 
d="M79 374q0 15 -1.5 19t-11.5 6l-62 17l12 74h63v141h127v-141h154v-97h-154v-222q0 -45 19 -64t63 -19q37 0 72 9v-100q-44 -9 -92 -9q-101 0 -145 41.5t-44 136.5v208zM223 -256h-88l50 196h109z" />
    <glyph glyph-name="circumflex" unicode="&#x2c6;" horiz-adv-x="240" 
d="M58 704h124l123 -148h-109l-76 81l-76 -81h-109z" />
    <glyph glyph-name="caron" unicode="&#x2c7;" horiz-adv-x="240" 
d="M182 556h-124l-123 148h109l76 -81l76 81h109z" />
    <glyph glyph-name="breve" unicode="&#x2d8;" horiz-adv-x="240" 
d="M42 704q0 -39 18 -56.5t60 -17.5t60 17.5t18 56.5h90q0 -85 -40 -122t-128 -37t-128 37t-40 122h90z" />
    <glyph glyph-name="dotaccent" unicode="&#x2d9;" horiz-adv-x="240" 
d="M47 630q0 38 17 54.5t56 16.5t56 -16.5t17 -54.5t-17 -54.5t-56 -16.5t-56 16.5t-17 54.5z" />
    <glyph glyph-name="ring" unicode="&#x2da;" horiz-adv-x="240" 
d="M3 630q0 54 27.5 78t89.5 24t89.5 -24t27.5 -78t-27.5 -78t-89.5 -24t-89.5 24t-27.5 78zM72 630q0 -26 11 -37t37 -11q25 0 36.5 11t11.5 37t-11 36.5t-37 10.5t-37 -10.5t-11 -36.5z" />
    <glyph glyph-name="ogonek" unicode="&#x2db;" horiz-adv-x="240" 
d="M184 0q-50 -45 -69.5 -72t-19.5 -48t12.5 -31t41.5 -10q10 0 19 1t16 2v-73q-14 -2 -30.5 -4t-34.5 -2q-66 0 -95 22.5t-29 72.5q0 36 24 72.5t78 81.5z" />
    <glyph glyph-name="tilde" unicode="&#x2dc;" horiz-adv-x="240" 
d="M-49 575q0 63 24 90.5t80 27.5q21 0 37 -6.5t29 -14t24.5 -14t22.5 -6.5q17 0 24 9t7 32v5h90v-13q0 -63 -24 -90.5t-80 -27.5q-21 0 -37 6.5t-29 14t-24.5 14t-22.5 6.5q-17 0 -24 -9t-7 -32v-6h-90v14z" />
    <glyph glyph-name="hungarumlaut" unicode="&#x2dd;" horiz-adv-x="240" 
d="M268 556h-115l123 148h133zM52 556h-115l122 148h134z" />
    <glyph glyph-name="uni0394" unicode="&#x394;" horiz-adv-x="697" 
d="M33 86l240 586h150l241 -586v-86h-631v86zM167 102h362l-181 452z" />
    <glyph glyph-name="Omega" unicode="&#x3a9;" horiz-adv-x="751" 
d="M22 102h155q-66 54 -97 120.5t-31 155.5q0 81 18.5 138.5t58 95t101.5 55t148 17.5t148 -17.5t101.5 -55t58.5 -95t19 -138.5q0 -89 -31 -155.5t-97 -120.5h155v-102h-299v97q71 45 105 108.5t34 152.5q0 118 -45.5 169.5t-148.5 51.5t-148 -51.5t-45 -169.5
q0 -89 33.5 -152.5t105.5 -108.5v-97h-299v102z" />
    <glyph glyph-name="mu" unicode="&#x3bc;" horiz-adv-x="585" 
d="M57 490h128v-290q0 -58 24 -84t78 -26q60 0 86 27.5t26 89.5v283h128v-490h-97l-10 51q-45 -60 -136 -60q-32 0 -57.5 7.5t-41.5 24.5v-231h-128v698z" />
    <glyph glyph-name="pi" unicode="&#x3c0;" horiz-adv-x="617" 
d="M89 393h-59v97h557v-97h-60v-393h-123v393h-192v-393h-123v393z" />
    <glyph glyph-name="uni0400" unicode="&#x400;" horiz-adv-x="613" 
d="M570 672v-102h-352v-179h280v-98h-280v-191h360v-102h-493v578q0 11 -2.5 14.5t-12.5 7.5l-36 14l11 58h525zM128 880h133l123 -148h-112z" />
    <glyph glyph-name="uni0401" unicode="&#x401;" horiz-adv-x="613" 
d="M570 672v-102h-352v-179h280v-98h-280v-191h360v-102h-493v578q0 11 -2.5 14.5t-12.5 7.5l-36 14l11 58h525zM344 806q0 38 17.5 54.5t55.5 16.5q39 0 56.5 -16.5t17.5 -54.5t-17.5 -54.5t-56.5 -16.5q-38 0 -55.5 16.5t-17.5 54.5zM127 806q0 38 17.5 54.5t56.5 16.5
q38 0 55.5 -16.5t17.5 -54.5t-17.5 -54.5t-55.5 -16.5q-39 0 -56.5 16.5t-17.5 54.5z" />
    <glyph glyph-name="uni0402" unicode="&#x402;" horiz-adv-x="852" 
d="M237 570h-218v102h569v-102h-218v-185q48 11 95.5 17t98.5 6q137 0 197.5 -49.5t60.5 -160.5t-57 -160.5t-185 -49.5q-32 0 -62.5 3.5t-62.5 11.5v103q52 -13 104 -13q68 0 97.5 25t29.5 80q0 56 -31.5 80.5t-106.5 24.5q-46 0 -90 -5.5t-88 -14.5v-283h-133v570z" />
    <glyph glyph-name="uni0403" unicode="&#x403;" horiz-adv-x="544" 
d="M85 578q0 11 -2.5 14.5t-12.5 7.5l-36 14l11 58h480v-102h-307v-570h-133v578zM347 732h-112l123 148h133z" />
    <glyph glyph-name="uni0404" unicode="&#x404;" horiz-adv-x="612" 
d="M505 293h-333q8 -109 61.5 -157t162.5 -48q88 0 181 26v-101q-48 -12 -98 -18.5t-104 -6.5q-89 0 -152.5 20t-104.5 62t-60 108t-19 158t19.5 158t61 108t105 62t150.5 20q54 0 105.5 -6t96.5 -19l-17 -99q-38 11 -81 17.5t-83 6.5q-105 0 -159 -45.5t-64 -147.5h332v-98
z" />
    <glyph glyph-name="uni0405" unicode="&#x405;" horiz-adv-x="596" 
d="M514 552q-41 14 -92.5 22t-102.5 8q-74 0 -108.5 -21t-34.5 -72q0 -35 28.5 -52.5t71.5 -29t92.5 -22.5t92.5 -32.5t71.5 -60t28.5 -103.5q0 -105 -66 -153t-202 -48q-124 0 -238 33v105q112 -36 228 -36q77 0 112.5 22.5t35.5 74.5q0 37 -28.5 56t-71.5 30.5t-92.5 22
t-92.5 31.5t-71.5 58t-28.5 102q0 106 70.5 151.5t211.5 45.5q55 0 110.5 -9t94.5 -23l-19 -100v0z" />
    <glyph glyph-name="uni0406" unicode="&#x406;" horiz-adv-x="287" 
d="M85 578q0 11 -2.5 14.5t-12.5 7.5l-36 14l11 58h164q9 0 9 -10v-662h-133v578z" />
    <glyph glyph-name="uni0407" unicode="&#x407;" horiz-adv-x="287" 
d="M85 578q0 11 -2.5 14.5t-12.5 7.5l-36 14l11 58h164q9 0 9 -10v-662h-133v578zM170 806q0 38 17.5 54.5t55.5 16.5q39 0 56.5 -16.5t17.5 -54.5t-17.5 -54.5t-56.5 -16.5q-38 0 -55.5 16.5t-17.5 54.5zM-47 806q0 38 17.5 54.5t56.5 16.5q38 0 55.5 -16.5t17.5 -54.5
t-17.5 -54.5t-55.5 -16.5q-39 0 -56.5 16.5t-17.5 54.5z" />
    <glyph glyph-name="uni0408" unicode="&#x408;" horiz-adv-x="457" 
d="M388 214q0 -118 -56.5 -172t-180.5 -54q-32 0 -63.5 3.5t-60.5 9.5v105q52 -13 104 -13q66 0 95 29t29 97v453h133v-458z" />
    <glyph glyph-name="uni0409" unicode="&#x409;" horiz-adv-x="1119" 
d="M685 102h142q69 0 100 27.5t31 87.5q0 62 -31 88.5t-100 26.5h-142v-230zM685 672v-237h152q133 0 192.5 -51.5t59.5 -166.5q0 -114 -59.5 -165.5t-192.5 -51.5h-280v570h-251v-138q0 -118 -14.5 -201.5t-45.5 -136.5t-80 -77.5t-118 -24.5h-14.5t-14.5 1v110h13
q40 0 68 18.5t45 59t25 105t8 156.5v136q0 11 -2.5 14.5t-12.5 7.5l-36 14l11 58h547z" />
    <glyph glyph-name="uni040A" unicode="&#x40a;" horiz-adv-x="1120" 
d="M85 578q0 11 -2.5 14.5t-12.5 7.5l-36 14l11 58h168v-269h345v269h128v-269h168q124 0 180 -48t56 -154t-56 -153.5t-180 -47.5h-296v300h-345v-300h-128v578zM686 102h158q61 0 88 23.5t27 75.5q0 53 -27 76t-88 23h-158v-198z" />
    <glyph glyph-name="uni040B" unicode="&#x40b;" horiz-adv-x="852" 
d="M237 570h-218v102h569v-102h-218v-185q90 23 178 23q133 0 194 -59t61 -182v-167h-133v157q0 75 -36 110.5t-117 35.5q-36 0 -72.5 -5t-74.5 -13v-285h-133v570z" />
    <glyph glyph-name="uni040C" unicode="&#x40c;" horiz-adv-x="644" 
d="M85 578q0 11 -2.5 14.5t-12.5 7.5l-36 14l11 58h164q9 0 9 -10v-278l262 288h151l-278 -309l286 -363h-150l-217 281l-54 -58v-223h-133v578zM345 732h-112l123 148h133z" />
    <glyph glyph-name="uni040D" unicode="&#x40d;" horiz-adv-x="768" 
d="M208 672v-490l362 490h129v-672h-123v490l-362 -490h-129v578q0 11 -2.5 14.5t-12.5 7.5l-36 14l11 58h163zM211 880h133l123 -148h-112z" />
    <glyph glyph-name="uni040E" unicode="&#x40e;" horiz-adv-x="633" 
d="M246 880q0 -39 18 -56.5t60 -17.5t60 17.5t18 56.5h90q0 -85 -40 -122t-128 -37t-128 37t-40 122h90zM393 161q-23 -47 -47.5 -80t-54.5 -53.5t-67.5 -30t-85.5 -9.5q-45 0 -84 9v106q19 -5 38 -7.5t36 -2.5q48 0 79.5 19.5t52.5 61.5l11 22l-259 476h144l179 -358
l162 358h139z" />
    <glyph glyph-name="uni040F" unicode="&#x40f;" horiz-adv-x="768" 
d="M85 578q0 11 -2.5 14.5t-12.5 7.5l-36 14l11 58h173v-570h348v570h133v-672h-245v-160h-123v160h-246v578z" />
    <glyph glyph-name="uni0410" unicode="&#x410;" horiz-adv-x="664" 
d="M406 672q20 -36 43 -86.5t47.5 -109.5t48.5 -123t45.5 -127t39.5 -121t30 -105h-134q-11 41 -23 80t-23 77h-296q-12 -38 -23.5 -77t-22.5 -80h-134q12 47 30 105t39.5 121t45.5 127t48.5 123t47.5 109.5t43 86.5h148zM332 554q-64 -144 -116 -299h232q-54 155 -116 299z
" />
    <glyph glyph-name="uni0411" unicode="&#x411;" horiz-adv-x="672" 
d="M85 578q0 11 -2.5 14.5t-12.5 7.5l-36 14l11 58h540v-100h-372v-173h192q119 0 173.5 -46t54.5 -154q0 -107 -54.5 -153t-173.5 -46h-320v578zM213 97h176q60 0 86.5 24t26.5 78t-26.5 78t-86.5 24h-176v-204z" />
    <glyph glyph-name="uni0412" unicode="&#x412;" horiz-adv-x="672" 
d="M213 97h179q60 0 85 23t25 76t-25 76t-85 23h-179v-198zM213 389h163q57 0 81 22t24 71t-24 71t-81 22h-163v-186zM402 672q110 0 158.5 -43.5t48.5 -140.5q0 -103 -79 -139q103 -34 103 -161q0 -98 -50.5 -143t-164.5 -45h-333v578q0 11 -2.5 14.5t-12.5 7.5l-36 14
l11 58h357z" />
    <glyph glyph-name="uni0413" unicode="&#x413;" horiz-adv-x="544" 
d="M85 578q0 11 -2.5 14.5t-12.5 7.5l-36 14l11 58h480v-102h-307v-570h-133v578z" />
    <glyph glyph-name="uni0414" unicode="&#x414;" horiz-adv-x="802" 
d="M181 578q0 11 -2.5 14.5t-12.5 7.5l-36 14l11 58h550v-570h84v-262h-123v160h-507v-160h-123v262h57q27 18 46.5 45.5t32 68t18 96t5.5 130.5v136zM309 432q0 -66 -4 -116.5t-12 -90t-21.5 -69.5t-31.5 -54h323v468h-254v-138z" />
    <glyph glyph-name="uni0415" unicode="&#x415;" horiz-adv-x="613" 
d="M570 672v-102h-352v-179h280v-98h-280v-191h360v-102h-493v578q0 11 -2.5 14.5t-12.5 7.5l-36 14l11 58h525z" />
    <glyph glyph-name="uni0416" unicode="&#x416;" horiz-adv-x="951" 
d="M414 223l-52 57l-212 -280h-146l279 363l-271 309h146l256 -298v298h123v-298l256 298h146l-271 -309l279 -363h-146l-212 280l-52 -57v-223h-123v223z" />
    <glyph glyph-name="uni0417" unicode="&#x417;" horiz-adv-x="596" 
d="M135 391h117q79 0 114 22.5t35 74.5t-35 74t-115 22q-90 0 -191 -29l-18 95q55 17 111.5 25.5t112.5 8.5q142 0 205 -44t63 -142q0 -61 -23 -97t-77 -52q66 -16 95 -56t29 -113q0 -101 -69 -146.5t-223 -45.5q-59 0 -117 8.5t-113 26.5v103q55 -17 108.5 -27.5
t106.5 -10.5q91 0 131 23.5t40 78.5t-40 79t-130 24h-117v98z" />
    <glyph glyph-name="uni0418" unicode="&#x418;" horiz-adv-x="768" 
d="M208 672v-490l362 490h129v-672h-123v490l-362 -490h-129v578q0 11 -2.5 14.5t-12.5 7.5l-36 14l11 58h163z" />
    <glyph glyph-name="uni0419" unicode="&#x419;" horiz-adv-x="768" 
d="M208 672v-490l362 490h129v-672h-123v490l-362 -490h-129v578q0 11 -2.5 14.5t-12.5 7.5l-36 14l11 58h163zM314 880q0 -39 18 -56.5t60 -17.5t60 17.5t18 56.5h90q0 -85 -40 -122t-128 -37t-128 37t-40 122h90z" />
    <glyph glyph-name="uni041A" unicode="&#x41a;" horiz-adv-x="644" 
d="M85 578q0 11 -2.5 14.5t-12.5 7.5l-36 14l11 58h164q9 0 9 -10v-278l262 288h151l-278 -309l286 -363h-150l-217 281l-54 -58v-223h-133v578z" />
    <glyph glyph-name="uni041B" unicode="&#x41b;" horiz-adv-x="767" 
d="M178 578q0 11 -2.5 14.5t-12.5 7.5l-36 14l11 58h560v-672h-133v570h-257v-138q0 -118 -14 -201.5t-45 -136.5t-80.5 -77.5t-119.5 -24.5h-15t-15 1v106h15q39 0 66.5 19t45 60.5t25 106.5t7.5 157v136z" />
    <glyph glyph-name="uni041C" unicode="&#x41c;" horiz-adv-x="848" 
d="M432 308l221 364h126v-672h-123v472l-178 -291h-58q-13 0 -20.5 0.5t-12 3t-8 7.5t-9.5 15l-162 265v-472h-123v578q0 11 -2.5 14.5t-12.5 7.5l-36 14l11 58h146q16 0 21 -4t14 -19z" />
    <glyph glyph-name="uni041D" unicode="&#x41d;" horiz-adv-x="751" 
d="M218 393h348v279h133v-672h-133v291h-348v-291h-133v578q0 11 -2.5 14.5t-12.5 7.5l-36 14l11 58h164q9 0 9 -10v-269z" />
    <glyph glyph-name="uni041E" unicode="&#x41e;" horiz-adv-x="751" 
d="M39 336q0 92 19 158t59.5 108t104.5 62t153 20t153 -20t105 -62t60 -108t19 -158t-19 -158t-60 -108t-105 -62t-153 -20t-153 20t-104.5 62t-59.5 108t-19 158zM174 336q0 -65 11.5 -111t36 -75t62.5 -43t91 -14q107 0 154 57t47 186t-47 186t-154 57q-53 0 -91 -14
t-62.5 -43t-36 -75.5t-11.5 -110.5z" />
    <glyph glyph-name="uni041F" unicode="&#x41f;" horiz-adv-x="768" 
d="M699 672v-672h-133v570h-348v-570h-133v578q0 11 -2.5 14.5t-12.5 7.5l-36 14l11 58h654z" />
    <glyph glyph-name="uni0420" unicode="&#x420;" horiz-adv-x="656" 
d="M218 340h145q70 0 100.5 26.5t30.5 88.5q0 61 -30.5 88t-100.5 27h-145v-230zM373 672q133 0 192.5 -51t59.5 -166q0 -58 -14.5 -99t-45 -67.5t-78.5 -39t-114 -12.5h-155v-237h-133v578q0 11 -2.5 14.5t-12.5 7.5l-36 14l11 58h328z" />
    <glyph glyph-name="uni0421" unicode="&#x421;" horiz-adv-x="612" 
d="M396 579q-118 0 -170 -57t-52 -186t52 -186t170 -57q88 0 181 26v-106q-48 -12 -98 -18.5t-104 -6.5q-89 0 -152.5 20t-104.5 62t-60 108t-19 158t19 158t60 108t104.5 62t152.5 20q73 0 129.5 -10t81.5 -18l-18 -101q-38 11 -80.5 17.5t-91.5 6.5z" />
    <glyph glyph-name="uni0422" unicode="&#x422;" horiz-adv-x="607" 
d="M237 570h-218v102h569v-102h-218v-570h-133v570z" />
    <glyph glyph-name="uni0423" unicode="&#x423;" horiz-adv-x="633" 
d="M393 161q-23 -47 -47.5 -80t-54.5 -53.5t-67.5 -30t-85.5 -9.5q-45 0 -84 9v106q19 -5 38 -7.5t36 -2.5q48 0 79.5 19.5t52.5 61.5l11 22l-259 476h144l179 -358l162 358h139z" />
    <glyph glyph-name="uni0424" unicode="&#x424;" horiz-adv-x="799" 
d="M338 43q-159 10 -233 82.5t-74 216.5t74 216.5t233 82.5v79h123v-79q159 -10 233 -82.5t74 -216.5t-74.5 -216.5t-232.5 -82.5v-91h-123v91zM156 342q0 -94 44 -141.5t138 -55.5v394q-94 -8 -138 -55.5t-44 -141.5zM643 342q0 94 -44 141.5t-138 55.5v-394q94 8 138 55.5
t44 141.5z" />
    <glyph glyph-name="uni0425" unicode="&#x425;" horiz-adv-x="665" 
d="M247 342l-227 330h149l163 -245l164 245h148l-227 -330l235 -342h-149l-171 257l-170 -257h-150z" />
    <glyph glyph-name="uni0426" unicode="&#x426;" horiz-adv-x="810" 
d="M85 578q0 11 -2.5 14.5t-12.5 7.5l-36 14l11 58h173v-570h348v570h133v-570h84v-262h-123v160h-575v578z" />
    <glyph glyph-name="uni0427" unicode="&#x427;" horiz-adv-x="703" 
d="M65 578q0 11 -2.5 14.5t-12.5 7.5l-36 14l11 58h173v-173q0 -78 36 -112t117 -34q37 0 74.5 5t75.5 13v301h133v-672h-133v271q-94 -23 -180 -23q-135 0 -195.5 57.5t-60.5 183.5v89z" />
    <glyph glyph-name="uni0428" unicode="&#x428;" horiz-adv-x="1072" 
d="M218 672v-570h260v570h133v-570h259v570h133v-672h-918v578q0 11 -2.5 14.5t-12.5 7.5l-36 14l11 58h173z" />
    <glyph glyph-name="uni0429" unicode="&#x429;" horiz-adv-x="1114" 
d="M85 578q0 11 -2.5 14.5t-12.5 7.5l-36 14l11 58h173v-570h260v570h133v-570h259v570h133v-570h84v-262h-123v160h-879v578z" />
    <glyph glyph-name="uni042A" unicode="&#x42a;" horiz-adv-x="799" 
d="M236 570h-217v102h345v-237h152q133 0 192.5 -51.5t59.5 -166.5t-59.5 -166t-192.5 -51h-280v570zM364 102h142q70 0 100.5 27t30.5 88q0 62 -30.5 88.5t-100.5 26.5h-142v-230z" />
    <glyph glyph-name="uni042B" unicode="&#x42b;" horiz-adv-x="925" 
d="M213 102h150q70 0 100.5 27t30.5 88q0 62 -30.5 88.5t-100.5 26.5h-150v-230zM213 672v-237h160q133 0 192.5 -51.5t59.5 -166.5t-59.5 -166t-192.5 -51h-288v578q0 11 -2.5 14.5t-12.5 7.5l-36 14l11 58h168zM741 578q0 11 -2.5 14.5t-12.5 7.5l-36 14l11 58h164
q9 0 9 -10v-662h-133v578z" />
    <glyph glyph-name="uni042C" unicode="&#x42c;" horiz-adv-x="656" 
d="M213 102h150q70 0 100.5 27t30.5 88q0 62 -30.5 88.5t-100.5 26.5h-150v-230zM213 672v-237h160q133 0 192.5 -51.5t59.5 -166.5t-59.5 -166t-192.5 -51h-288v578q0 11 -2.5 14.5t-12.5 7.5l-36 14l11 58h168z" />
    <glyph glyph-name="uni042D" unicode="&#x42d;" horiz-adv-x="612" 
d="M108 391h331q-11 102 -62.5 147.5t-157.5 45.5q-41 0 -83 -6t-83 -17l-17 98q47 12 96 18.5t105 6.5q88 0 151.5 -20t105 -62t61 -108t19.5 -158t-19.5 -158t-60.5 -108t-104.5 -62t-152.5 -20q-54 0 -104 6.5t-97 18.5v101q92 -26 181 -26q108 0 161.5 48t61.5 157h-332
v98z" />
    <glyph glyph-name="uni042E" unicode="&#x42e;" horiz-adv-x="1016" 
d="M451 336q0 -129 46.5 -186t151.5 -57q106 0 152 57t46 186t-46.5 186t-151.5 57t-151.5 -57t-46.5 -186zM213 672v-279h110q5 77 27 132t61.5 90.5t98.5 52t139 16.5q88 0 150 -20t102 -62t58.5 -108t18.5 -158t-18.5 -158t-58.5 -108t-102 -62t-150 -20q-82 0 -141.5 17
t-99.5 54t-61 94.5t-25 137.5h-109v-291h-128v578q0 11 -2.5 14.5t-12.5 7.5l-36 14l11 58h168z" />
    <glyph glyph-name="uni042F" unicode="&#x42f;" horiz-adv-x="655" 
d="M586 0h-128v253h-136l-149 -253h-145l165 268q-76 14 -111 61t-35 134q0 110 57 159.5t186 49.5h296v-672zM458 572h-153q-69 0 -98.5 -25t-29.5 -84q0 -60 29.5 -85t98.5 -25h153v219z" />
    <glyph glyph-name="uni0430" unicode="&#x430;" horiz-adv-x="543" 
d="M158 140q0 -32 21.5 -47t69.5 -15q58 0 84 19t26 61v28q-46 16 -102 16q-51 0 -75 -14.5t-24 -47.5zM224 -12q-100 0 -145.5 36.5t-45.5 114.5q0 75 49 110t155 35q65 0 122 -17v46q0 50 -29 71t-98 21q-75 0 -154 -24v98q81 23 169 23q124 0 179.5 -46.5t55.5 -152.5
v-208q0 -11 2 -14.5t12 -7.5l35 -14l-12 -59h-109q-15 0 -19 4t-7 17l-4 21q-50 -54 -156 -54z" />
    <glyph glyph-name="uni0431" unicode="&#x431;" horiz-adv-x="585" 
d="M44 287q0 103 17 178.5t52 126t90 77.5t132 34q55 5 97.5 10.5t71.5 11.5l-22 -113q-29 -5 -65 -8t-71 -7q-47 -5 -76.5 -16t-47.5 -30t-27 -46.5t-15 -64.5q32 24 70.5 39.5t93.5 15.5q99 0 152 -60.5t53 -194.5q0 -132 -59.5 -192t-189.5 -60q-68 0 -116.5 17
t-79.5 53.5t-45.5 93t-14.5 135.5zM300 88q63 0 91 35.5t28 116.5t-27.5 116.5t-90.5 35.5q-34 0 -66.5 -11.5t-56.5 -26.5q-1 -6 -2 -17.5t-1.5 -23t-0.5 -22v-14.5q0 -56 7 -92t22.5 -58t39.5 -30.5t57 -8.5z" />
    <glyph glyph-name="uni0432" unicode="&#x432;" horiz-adv-x="543" 
d="M188 87h128q38 0 54 14t16 46t-16 46t-54 14h-128v-120zM188 291h120q35 0 49.5 13.5t14.5 42.5q0 30 -14.5 43t-49.5 13h-120v-112zM339 490q83 0 119.5 -32.5t36.5 -105.5q0 -70 -57 -96q73 -26 73 -115q0 -75 -38.5 -108t-125.5 -33h-280v395q0 11 -2 14.5t-12 7.5
l-35 14l12 59h309z" />
    <glyph glyph-name="uni0433" unicode="&#x433;" horiz-adv-x="443" 
d="M424 490v-97h-229v-393h-128v395q0 11 -2 14.5t-12 7.5l-35 14l12 59h394z" />
    <glyph glyph-name="uni0434" unicode="&#x434;" horiz-adv-x="620" 
d="M131 395q0 11 -2 14.5t-12 7.5l-35 14l12 59h443v-393h73v-241h-118v144h-351v-144h-118v241h41q36 25 51.5 78t15.5 149v71zM254 314q0 -81 -9 -132t-32 -85h201v296h-160v-79z" />
    <glyph glyph-name="uni0435" unicode="&#x435;" horiz-adv-x="539" 
d="M34 245q0 68 14 117t43.5 80t76 45.5t111.5 14.5q120 0 173 -58.5t53 -190.5q0 -13 -0.5 -23.5t-1.5 -21.5h-344q4 -66 41.5 -94.5t118.5 -28.5q82 0 165 24v-98q-40 -12 -83 -17.5t-92 -5.5q-73 0 -125 14.5t-85.5 46t-49 80t-15.5 116.5zM279 412q-60 0 -88 -28.5
t-32 -93.5h223q-2 66 -25.5 94t-77.5 28z" />
    <glyph glyph-name="uni0436" unicode="&#x436;" horiz-adv-x="763" 
d="M323 153l-37 38l-138 -191h-138l198 266l-194 224h141l168 -197v197h118v-197l168 197h140l-193 -224l197 -266h-138l-137 191l-37 -38v-153h-118v153z" />
    <glyph glyph-name="uni0437" unicode="&#x437;" horiz-adv-x="479" 
d="M105 290h93q54 0 77.5 14t23.5 46t-24 46t-75 14q-35 0 -71.5 -5t-71.5 -16l-16 90q83 23 174 23q112 0 162 -33t50 -108q0 -43 -17.5 -69t-55.5 -37q46 -14 67.5 -42.5t21.5 -79.5q0 -76 -54 -110.5t-174 -34.5q-50 0 -95 6.5t-87 18.5v96q41 -14 82 -21.5t85 -7.5
q60 0 86 15t26 49q0 35 -27 49.5t-87 14.5h-93v82z" />
    <glyph glyph-name="uni0438" unicode="&#x438;" horiz-adv-x="597" 
d="M67 395q0 11 -2 14.5t-12 7.5l-35 14l12 59h155v-318l229 318h123v-490h-118v319l-228 -319h-124v395z" />
    <glyph glyph-name="uni0439" unicode="&#x439;" horiz-adv-x="597" 
d="M67 395q0 11 -2 14.5t-12 7.5l-35 14l12 59h155v-318l229 318h123v-490h-118v319l-228 -319h-124v395zM224 704q0 -39 18 -56.5t60 -17.5t60 17.5t18 56.5h90q0 -85 -40 -122t-128 -37t-128 37t-40 122h90z" />
    <glyph glyph-name="uni043A" unicode="&#x43a;" horiz-adv-x="526" 
d="M195 300l173 190h146l-197 -211l201 -279h-144l-136 199l-43 -46v-153h-128v395q0 11 -2 14.5t-12 7.5l-35 14l12 59h156q9 0 9 -10v-180z" />
    <glyph glyph-name="uni043B" unicode="&#x43b;" horiz-adv-x="610" 
d="M550 490v-490h-128v393h-164v-79q0 -86 -11.5 -147t-37 -100t-65.5 -57t-97 -18h-10.5t-10.5 1v102h11q51 0 74 54.5t23 174.5v71q0 11 -2 14.5t-12 7.5l-35 14l12 59h453z" />
    <glyph glyph-name="uni043C" unicode="&#x43c;" horiz-adv-x="661" 
d="M67 395q0 11 -2 14.5t-12 7.5l-35 14l12 59h161l143 -235l144 235h123v-490h-118v308l-110 -176h-78l-110 176v-308h-118v395z" />
    <glyph glyph-name="uni043D" unicode="&#x43d;" horiz-adv-x="593" 
d="M63 395q0 11 -2 14.5t-12 7.5l-35 14l12 59h165v-192h214v192h128v-490h-128v200h-214v-200h-128v395z" />
    <glyph glyph-name="uni043E" unicode="&#x43e;" horiz-adv-x="579" 
d="M33 245q0 68 14.5 117t45.5 80t79.5 45.5t116.5 14.5t116.5 -14.5t80 -45.5t46 -80t14.5 -117q0 -136 -60.5 -196.5t-196.5 -60.5q-68 0 -116.5 14.5t-79.5 46t-45.5 80t-14.5 116.5zM163 245q0 -84 29.5 -120.5t96.5 -36.5q68 0 97.5 36.5t29.5 120.5t-29.5 120.5
t-97.5 36.5q-67 0 -96.5 -36.5t-29.5 -120.5z" />
    <glyph glyph-name="uni043F" unicode="&#x43f;" horiz-adv-x="597" 
d="M537 490v-490h-128v393h-214v-393h-128v395q0 11 -2 14.5t-12 7.5l-35 14l12 59h507z" />
    <glyph glyph-name="uni0440" unicode="&#x440;" horiz-adv-x="594" 
d="M309 402q-61 0 -87.5 -28t-26.5 -93v-158q17 -12 43.5 -23.5t70.5 -11.5q64 0 92 36.5t28 120.5t-28 120.5t-92 36.5zM190 446q28 30 62 43t90 13q57 0 98.5 -14.5t67.5 -45.5t38.5 -80t12.5 -117t-12.5 -117t-38.5 -80t-67.5 -45.5t-98.5 -14.5q-96 0 -147 48v-244h-128
v603q0 11 -2 14.5t-12 7.5l-35 14l12 59h151q9 0 9 -10v-34z" />
    <glyph glyph-name="uni0441" unicode="&#x441;" horiz-adv-x="485" 
d="M313 402q-78 0 -112.5 -36.5t-34.5 -120.5t34.5 -120.5t112.5 -36.5q67 0 133 20v-101q-67 -19 -154 -19q-68 0 -116.5 14.5t-79.5 46t-45.5 80t-14.5 116.5t14.5 117t45.5 80t79.5 45.5t116.5 14.5q63 0 104.5 -8t58.5 -14l-18 -96q-18 6 -51 12t-73 6z" />
    <glyph glyph-name="uni0442" unicode="&#x442;" horiz-adv-x="473" 
d="M172 393h-153v97h435v-97h-154v-393h-128v393z" />
    <glyph glyph-name="uni0443" unicode="&#x443;" horiz-adv-x="544" 
d="M8 490h139l134 -339l114 339h133l-204 -550q-16 -42 -34.5 -72.5t-43.5 -50t-58 -28.5t-78 -9q-10 0 -22 0.5t-20 1.5v98q7 -1 17 -1.5t18 -0.5q22 0 38 4.5t28.5 15t22.5 27t19 41.5l11 29z" />
    <glyph glyph-name="uni0444" unicode="&#x444;" horiz-adv-x="713" 
d="M148 245q0 -78 35.5 -114t113.5 -41v310q-78 -5 -113.5 -41t-35.5 -114zM565 245q0 78 -35.5 114t-114.5 41v-310q79 5 114.5 41t35.5 114zM297 -9q-142 7 -205.5 68.5t-63.5 185.5t63.5 186t205.5 69v109q0 11 -2 14.5t-12 7.5l-35 14l12 59h155v-204q142 -7 206 -69
t64 -186t-64 -185.5t-206 -68.5v-104q0 -11 2 -14.5t12 -7.5l35 -14l-12 -59h-155v199z" />
    <glyph glyph-name="uni0445" unicode="&#x445;" horiz-adv-x="532" 
d="M186 249l-162 241h139l103 -162l104 162h138l-162 -241l168 -249h-139l-109 171l-108 -171h-140z" />
    <glyph glyph-name="uni0446" unicode="&#x446;" horiz-adv-x="620" 
d="M67 395q0 11 -2 14.5t-12 7.5l-35 14l12 59h165v-393h214v393h128v-393h73v-241h-118v144h-425v395z" />
    <glyph glyph-name="uni0447" unicode="&#x447;" horiz-adv-x="553" 
d="M166 490v-125q0 -50 24 -71.5t78 -21.5q27 0 51.5 3.5t47.5 10.5v204h128v-490h-128v191q-58 -19 -124 -19q-109 0 -156.5 43.5t-47.5 139.5v40q0 11 -2 14.5t-12 7.5l-35 14l12 59h164z" />
    <glyph glyph-name="uni0448" unicode="&#x448;" horiz-adv-x="869" 
d="M67 395q0 11 -2 14.5t-12 7.5l-35 14l12 59h165v-393h179v393h128v-393h179v393h128v-490h-742v395z" />
    <glyph glyph-name="uni0449" unicode="&#x449;" horiz-adv-x="892" 
d="M67 395q0 11 -2 14.5t-12 7.5l-35 14l12 59h165v-393h179v393h128v-393h179v393h128v-393h73v-241h-118v144h-697v395z" />
    <glyph glyph-name="uni044A" unicode="&#x44a;" horiz-adv-x="606" 
d="M157 393h-147v97h270v-162h119q99 0 143 -38.5t44 -125.5t-44 -125.5t-143 -38.5h-242v393zM280 92h99q43 0 62 17t19 55t-18.5 55t-62.5 17h-99v-144z" />
    <glyph glyph-name="uni044B" unicode="&#x44b;" horiz-adv-x="783" 
d="M67 395q0 11 -2 14.5t-12 7.5l-35 14l12 59h160v-162h127q99 0 142.5 -38.5t43.5 -125.5t-43.5 -125.5t-142.5 -38.5h-250v395zM190 92h106q44 0 63 17t19 55t-19 55t-63 17h-106v-144zM595 395q0 11 -2 14.5t-12 7.5l-35 14l12 59h156q9 0 9 -10v-480h-128v395z" />
    <glyph glyph-name="uni044C" unicode="&#x44c;" horiz-adv-x="523" 
d="M67 395q0 11 -2 14.5t-12 7.5l-35 14l12 59h160v-162h127q99 0 142.5 -38.5t43.5 -125.5t-43.5 -125.5t-142.5 -38.5h-250v395zM190 92h106q44 0 63 17t19 55t-19 55t-63 17h-106v-144z" />
    <glyph glyph-name="uni044D" unicode="&#x44d;" horiz-adv-x="479" 
d="M81 293h229q-9 60 -42 87t-95 27q-32 0 -62.5 -4.5t-58.5 -12.5l-19 93q67 19 153 19q68 0 116.5 -14.5t80 -45.5t46 -80t14.5 -117q0 -136 -60.5 -196.5t-196.5 -60.5q-86 0 -153 19v96q66 -20 133 -20q69 0 103.5 28.5t42.5 93.5h-231v88z" />
    <glyph glyph-name="uni044E" unicode="&#x44e;" horiz-adv-x="820" 
d="M67 395q0 11 -2 14.5t-12 7.5l-35 14l12 59h160v-192h102q10 108 68.5 156t176.5 48q131 0 190 -60.5t59 -196.5q0 -68 -14.5 -116.5t-44.5 -80t-77 -46t-113 -14.5q-120 0 -178.5 50t-67.5 162h-101v-200h-123v395zM414 245q0 -84 28.5 -120.5t94.5 -36.5t95 36.5
t29 120.5t-29 120.5t-95 36.5t-94.5 -36.5t-28.5 -120.5z" />
    <glyph glyph-name="uni044F" unicode="&#x44f;" horiz-adv-x="537" 
d="M479 0h-120v170h-102l-97 -170h-135l115 185q-96 27 -96 145q0 85 44 122.5t143 37.5h248v-490zM359 398h-112q-43 0 -62 -16t-19 -52t19 -51.5t62 -15.5h112v135z" />
    <glyph glyph-name="uni0450" unicode="&#x450;" horiz-adv-x="539" 
d="M34 245q0 68 14 117t43.5 80t76 45.5t111.5 14.5q120 0 173 -58.5t53 -190.5q0 -13 -0.5 -23.5t-1.5 -21.5h-344q4 -66 41.5 -94.5t118.5 -28.5q82 0 165 24v-98q-40 -12 -83 -17.5t-92 -5.5q-73 0 -125 14.5t-85.5 46t-49 80t-15.5 116.5zM279 412q-60 0 -88 -28.5
t-32 -93.5h223q-2 66 -25.5 94t-77.5 28zM98 704h133l123 -148h-112z" />
    <glyph glyph-name="uni0451" unicode="&#x451;" horiz-adv-x="539" 
d="M34 245q0 68 14 117t43.5 80t76 45.5t111.5 14.5q120 0 173 -58.5t53 -190.5q0 -13 -0.5 -23.5t-1.5 -21.5h-344q4 -66 41.5 -94.5t118.5 -28.5q82 0 165 24v-98q-40 -12 -83 -17.5t-92 -5.5q-73 0 -125 14.5t-85.5 46t-49 80t-15.5 116.5zM279 412q-60 0 -88 -28.5
t-32 -93.5h223q-2 66 -25.5 94t-77.5 28zM314 630q0 38 17.5 54.5t55.5 16.5q39 0 56.5 -16.5t17.5 -54.5t-17.5 -54.5t-56.5 -16.5q-38 0 -55.5 16.5t-17.5 54.5zM97 630q0 38 17.5 54.5t56.5 16.5q38 0 55.5 -16.5t17.5 -54.5t-17.5 -54.5t-55.5 -16.5q-39 0 -56.5 16.5
t-17.5 54.5z" />
    <glyph glyph-name="uni0452" unicode="&#x452;" horiz-adv-x="595" 
d="M192 0h-128v551h-54v88h54v65h128v-65h167v-88h-167v-97q29 24 64.5 36t83.5 12q97 0 145.5 -46.5t48.5 -153.5v-344q0 -95 -44 -136.5t-145 -41.5q-50 0 -92 9v100q34 -9 72 -9q44 0 62.5 19t18.5 64v334q0 55 -22.5 79t-75.5 24q-38 0 -70.5 -10t-45.5 -18v-372z" />
    <glyph glyph-name="uni0453" unicode="&#x453;" horiz-adv-x="443" 
d="M424 490v-97h-229v-393h-128v395q0 11 -2 14.5t-12 7.5l-35 14l12 59h394zM276 556h-112l123 148h133z" />
    <glyph glyph-name="uni0454" unicode="&#x454;" horiz-adv-x="479" 
d="M398 205h-231q8 -65 42.5 -93.5t103.5 -28.5q67 0 133 20v-96q-67 -19 -154 -19q-68 0 -116.5 14.5t-79.5 46t-45.5 80t-14.5 116.5t14.5 117t45.5 80t79.5 45.5t116.5 14.5q45 0 82.5 -4t71.5 -15l-19 -92q-28 8 -58 12t-56 4q-67 0 -101 -27t-43 -87h229v-88z" />
    <glyph glyph-name="uni0455" unicode="&#x455;" horiz-adv-x="467" 
d="M246 502q47 0 93.5 -6.5t80.5 -17.5l-19 -95q-35 11 -71.5 17t-74.5 6q-50 0 -72 -13.5t-22 -39.5q0 -23 20.5 -33.5t51.5 -16.5t67 -12.5t67 -22t51.5 -44.5t20.5 -80q0 -81 -51.5 -118.5t-160.5 -37.5q-100 0 -182 24v99q42 -13 85 -20t87 -7q97 0 97 57q0 24 -20.5 35
t-51.5 17.5t-67 12.5t-67 21t-51.5 43.5t-20.5 79.5q0 41 16 70t44 47t66.5 26.5t83.5 8.5z" />
    <glyph glyph-name="uni0456" unicode="&#x456;" horiz-adv-x="261" 
d="M60 630q0 38 18 55.5t58 17.5q41 0 58.5 -17.5t17.5 -55.5q0 -39 -17.5 -56.5t-58.5 -17.5q-40 0 -58 17.5t-18 56.5zM72 395q0 11 -2 14.5t-12 7.5l-35 14l12 59h156q9 0 9 -10v-480h-128v395z" />
    <glyph glyph-name="uni0457" unicode="&#x457;" horiz-adv-x="261" 
d="M72 395q0 11 -2 14.5t-12 7.5l-35 14l12 59h156q9 0 9 -10v-480h-128v395zM164 630q0 38 17.5 54.5t55.5 16.5q39 0 56.5 -16.5t17.5 -54.5t-17.5 -54.5t-56.5 -16.5q-38 0 -55.5 16.5t-17.5 54.5zM-53 630q0 38 17.5 54.5t56.5 16.5q38 0 55.5 -16.5t17.5 -54.5
t-17.5 -54.5t-55.5 -16.5q-39 0 -56.5 16.5t-17.5 54.5z" />
    <glyph glyph-name="uni0458" unicode="&#x458;" horiz-adv-x="261" 
d="M60 630q0 38 18 55.5t58 17.5q41 0 58.5 -17.5t17.5 -55.5q0 -39 -17.5 -56.5t-58.5 -17.5q-40 0 -58 17.5t-18 56.5zM200 -31q0 -46 -9.5 -81t-31.5 -58t-57 -35t-87 -12q-27 0 -51 3v95q8 -1 15.5 -1h14.5q49 0 63.5 23t14.5 69v423q0 11 -2 14.5t-12 7.5l-35 14l12 59
h156q9 0 9 -10v-511z" />
    <glyph glyph-name="uni0459" unicode="&#x459;" horiz-adv-x="862" 
d="M134 395q0 11 -2 14.5t-12 7.5l-35 14l12 59h440v-162h118q99 0 143 -38.5t44 -125.5t-44 -125.5t-143 -38.5h-241v393h-160v-79q0 -86 -11.5 -147t-36.5 -100t-64.5 -57t-94.5 -18h-10.5t-10.5 1v102h11q51 0 74 54.5t23 174.5v71zM537 92h98q44 0 62.5 17t18.5 55
t-18.5 55t-62.5 17h-98v-144z" />
    <glyph glyph-name="uni045A" unicode="&#x45a;" horiz-adv-x="849" 
d="M67 395q0 11 -2 14.5t-12 7.5l-35 14l12 59h160v-183h211v183h123v-183h131q93 0 133.5 -36.5t40.5 -117.5q0 -80 -40.5 -116.5t-133.5 -36.5h-254v209h-211v-209h-123v395zM524 87h103q41 0 58.5 15.5t17.5 50.5t-17.5 51t-58.5 16h-103v-133z" />
    <glyph glyph-name="uni045B" unicode="&#x45b;" horiz-adv-x="595" 
d="M192 0h-128v551h-54v88h54v65h128v-65h167v-88h-167v-98q49 49 142 49q107 0 153.5 -46.5t46.5 -153.5v-207q0 -11 2 -14.5t12 -7.5l35 -14l-12 -59h-156q-9 0 -9 10v287q0 55 -22.5 79t-75.5 24q-38 0 -70.5 -10t-45.5 -18v-372z" />
    <glyph glyph-name="uni045C" unicode="&#x45c;" horiz-adv-x="526" 
d="M195 300l173 190h146l-197 -211l201 -279h-144l-136 199l-43 -46v-153h-128v395q0 11 -2 14.5t-12 7.5l-35 14l12 59h156q9 0 9 -10v-180zM296 556h-112l123 148h133z" />
    <glyph glyph-name="uni045D" unicode="&#x45d;" horiz-adv-x="597" 
d="M67 395q0 11 -2 14.5t-12 7.5l-35 14l12 59h155v-318l229 318h123v-490h-118v319l-228 -319h-124v395zM121 704h133l123 -148h-112z" />
    <glyph glyph-name="uni045E" unicode="&#x45e;" horiz-adv-x="544" 
d="M8 490h139l134 -339l114 339h133l-204 -550q-16 -42 -34.5 -72.5t-43.5 -50t-58 -28.5t-78 -9q-10 0 -22 0.5t-20 1.5v98q7 -1 17 -1.5t18 -0.5q22 0 38 4.5t28.5 15t22.5 27t19 41.5l11 29zM187 704q0 -39 18 -56.5t60 -17.5t60 17.5t18 56.5h90q0 -85 -40 -122
t-128 -37t-128 37t-40 122h90z" />
    <glyph glyph-name="uni045F" unicode="&#x45f;" horiz-adv-x="597" 
d="M67 395q0 11 -2 14.5t-12 7.5l-35 14l12 59h165v-393h214v393h128v-490h-176v-144h-118v144h-176v395z" />
    <glyph glyph-name="uni0490" unicode="&#x490;" horiz-adv-x="544" 
d="M85 578q0 11 -2.5 14.5t-12.5 7.5l-36 14l11 58h357v160h123v-262h-307v-570h-133v578z" />
    <glyph glyph-name="uni0491" unicode="&#x491;" horiz-adv-x="443" 
d="M67 395q0 11 -2 14.5t-12 7.5l-35 14l12 59h276v144h118v-241h-229v-393h-128v395z" />
    <glyph glyph-name="uni0492" unicode="&#x492;" horiz-adv-x="550" 
d="M91 578q0 11 -2.5 14.5t-12.5 7.5l-36 14l11 58h480v-102h-307v-210h181v-93h-181v-267h-133v267h-73v93h73v218z" />
    <glyph glyph-name="uni0493" unicode="&#x493;" horiz-adv-x="459" 
d="M82 395q0 11 -2 14.5t-12 7.5l-35 14l12 59h394v-97h-229v-124h125v-87h-125v-182h-128v182h-70v87h70v126z" />
    <glyph glyph-name="uni049A" unicode="&#x49a;" horiz-adv-x="707" 
d="M85 578q0 11 -2.5 14.5t-12.5 7.5l-36 14l11 58h168v-293l267 293h151l-278 -309l210 -261h124v-262h-123v160h-75l-217 281l-59 -63v-218h-128v578z" />
    <glyph glyph-name="uni049B" unicode="&#x49b;" horiz-adv-x="573" 
d="M195 300l173 190h146l-196 -211l131 -182h112v-241h-118v144h-69l-136 199l-43 -46v-153h-128v395q0 11 -2 14.5t-12 7.5l-35 14l12 59h156q9 0 9 -10v-180z" />
    <glyph glyph-name="uni04A2" unicode="&#x4a2;" horiz-adv-x="810" 
d="M85 578q0 11 -2.5 14.5t-12.5 7.5l-36 14l11 58h173v-279h348v279h133v-570h84v-262h-123v160h-94v291h-348v-291h-133v578z" />
    <glyph glyph-name="uni04A3" unicode="&#x4a3;" horiz-adv-x="620" 
d="M67 395q0 11 -2 14.5t-12 7.5l-35 14l12 59h165v-192h214v192h128v-393h73v-241h-118v144h-83v200h-214v-200h-128v395z" />
    <glyph glyph-name="uni04AE" unicode="&#x4ae;" horiz-adv-x="617" 
d="M242 273l-246 399h150l162 -281l163 281h149l-245 -399v-273h-133v273z" />
    <glyph glyph-name="uni04AF" unicode="&#x4af;" horiz-adv-x="528" 
d="M200 -17l-192 507h134l122 -361l123 361h133l-192 -507v-191h-128v191z" />
    <glyph glyph-name="uni04B0" unicode="&#x4b0;" horiz-adv-x="629" 
d="M248 240h-156v92h121l-211 340h150l162 -281l163 281h149l-211 -340h122v-92h-156v-240h-133v240z" />
    <glyph glyph-name="uni04B1" unicode="&#x4b1;" horiz-adv-x="540" 
d="M206 -22h-136v87h109l-165 425h134l122 -361l123 361h133l-164 -425h115v-87h-143v-186h-128v186z" />
    <glyph glyph-name="uni04BA" unicode="&#x4ba;" horiz-adv-x="687" 
d="M68 578q0 11 -2.5 14.5t-12.5 7.5l-36 14l11 58h173v-271q95 23 181 23q134 0 194.5 -57.5t60.5 -183.5v-183h-133v173q0 78 -36 112t-117 34q-37 0 -74.5 -5t-75.5 -13v-301h-133v578z" />
    <glyph glyph-name="uni04BB" unicode="&#x4bb;" horiz-adv-x="595" 
d="M534 95q0 -11 2 -14.5t12 -7.5l35 -14l-12 -59h-156q-9 0 -9 10v287q0 55 -22.5 79t-75.5 24q-38 0 -70.5 -10t-45.5 -18v-372h-128v609q0 11 -2 14.5t-12 7.5l-35 14l12 59h156q9 0 9 -10v-240q57 48 148 48q97 0 145.5 -46.5t48.5 -153.5v-207z" />
    <glyph glyph-name="uni04D8" unicode="&#x4d8;" horiz-adv-x="692" 
d="M654 336q0 -92 -18 -158t-56.5 -108t-99 -62t-145.5 -20q-78 0 -134 19t-92 60t-53 104.5t-17 152.5v26t2 26h480q-5 112 -59 160t-168 48q-54 0 -105.5 -8t-103.5 -22l-17 97q56 16 111.5 24.5t111.5 8.5q95 0 163.5 -20t113 -62t65.5 -108t21 -158zM335 83q96 0 139 47
t47 154h-352q2 -107 41 -154t125 -47z" />
    <glyph glyph-name="uni04D9" unicode="&#x4d9;" horiz-adv-x="537" 
d="M503 245q0 -136 -58 -196.5t-187 -60.5q-120 0 -173 59t-53 190v24t2 21h343q-4 66 -41 94.5t-119 28.5q-70 0 -145 -20l-19 94q80 23 174 23q145 0 210.5 -60.5t65.5 -196.5zM258 78q60 0 88 29t31 93h-223q2 -66 26 -94t78 -28z" />
    <glyph glyph-name="uni04E8" unicode="&#x4e8;" horiz-adv-x="751" 
d="M39 336q0 92 19 158t59.5 108t104.5 62t153 20t153 -20t105 -62t60 -108t19 -158t-19 -158t-60 -108t-105 -62t-153 -20t-153 20t-104.5 62t-59.5 108t-19 158zM375 88q103 0 152.5 48t57.5 157h-420q8 -109 57.5 -157t152.5 -48zM375 584q-100 0 -149.5 -45.5
t-59.5 -147.5h418q-9 102 -59 147.5t-150 45.5z" />
    <glyph glyph-name="uni04E9" unicode="&#x4e9;" horiz-adv-x="579" 
d="M33 245q0 68 14.5 117t45.5 80t79.5 45.5t116.5 14.5t116.5 -14.5t80 -45.5t46 -80t14.5 -117q0 -136 -60.5 -196.5t-196.5 -60.5q-68 0 -116.5 14.5t-79.5 46t-45.5 80t-14.5 116.5zM289 78q66 0 99 29.5t41 95.5h-279q7 -66 40 -95.5t99 -29.5zM289 412
q-65 0 -98 -28.5t-41 -92.5h278q-8 64 -41 92.5t-98 28.5z" />
    <glyph glyph-name="Wgrave" unicode="&#x1e80;" horiz-adv-x="1017" 
d="M508 475q-4 -27 -10.5 -61t-15.5 -72t-20.5 -78t-23.5 -77q-14 -41 -32 -91t-37 -96h-152q-27 66 -56 153t-57 178.5t-51.5 180.5t-38.5 160h130q9 -42 25.5 -107.5t40.5 -156.5q9 -36 20 -74t22.5 -75.5t22.5 -72t21 -62.5h1q10 28 21 62.5t22 72t22 75.5t20 74
q23 85 38 146.5t25 103.5h127q10 -42 25 -103.5t38 -146.5q9 -36 20 -74t22 -75.5t22 -72t21 -62.5h1q10 28 21 62.5t22.5 72t22.5 75.5t20 74q24 91 40.5 156.5t25.5 107.5h130q-15 -71 -38.5 -160t-51.5 -180.5t-57 -178.5t-56 -153h-152q-19 46 -37 96t-32 91
q-12 37 -23.5 77t-20.5 78t-15.5 72t-10.5 61h-1zM325 880h133l123 -148h-112z" />
    <glyph glyph-name="wgrave" unicode="&#x1e81;" horiz-adv-x="838" 
d="M418 305q-20 -79 -45 -159t-52 -146h-138q-26 62 -49 126.5t-44 127.5t-38.5 123t-30.5 113h126q9 -38 22 -85t25 -89q14 -48 29 -96.5t32 -95.5h1q14 41 30 89.5t31 102.5q11 38 22 80t20 78h120q9 -36 20 -78t22 -80q15 -54 31 -102.5t30 -89.5h1q17 47 32 95.5
t29 96.5q12 42 25 89t22 85h126q-14 -53 -31 -113t-38 -123t-44.5 -127.5t-48.5 -126.5h-138q-27 66 -52 146t-45 159h-2zM240 704h133l123 -148h-112z" />
    <glyph glyph-name="Wacute" unicode="&#x1e82;" horiz-adv-x="1017" 
d="M508 475q-4 -27 -10.5 -61t-15.5 -72t-20.5 -78t-23.5 -77q-14 -41 -32 -91t-37 -96h-152q-27 66 -56 153t-57 178.5t-51.5 180.5t-38.5 160h130q9 -42 25.5 -107.5t40.5 -156.5q9 -36 20 -74t22.5 -75.5t22.5 -72t21 -62.5h1q10 28 21 62.5t22 72t22 75.5t20 74
q23 85 38 146.5t25 103.5h127q10 -42 25 -103.5t38 -146.5q9 -36 20 -74t22 -75.5t22 -72t21 -62.5h1q10 28 21 62.5t22.5 72t22.5 75.5t20 74q24 91 40.5 156.5t25.5 107.5h130q-15 -71 -38.5 -160t-51.5 -180.5t-57 -178.5t-56 -153h-152q-19 46 -37 96t-32 91
q-12 37 -23.5 77t-20.5 78t-15.5 72t-10.5 61h-1zM543 732h-112l123 148h133z" />
    <glyph glyph-name="wacute" unicode="&#x1e83;" horiz-adv-x="838" 
d="M418 305q-20 -79 -45 -159t-52 -146h-138q-26 62 -49 126.5t-44 127.5t-38.5 123t-30.5 113h126q9 -38 22 -85t25 -89q14 -48 29 -96.5t32 -95.5h1q14 41 30 89.5t31 102.5q11 38 22 80t20 78h120q9 -36 20 -78t22 -80q15 -54 31 -102.5t30 -89.5h1q17 47 32 95.5
t29 96.5q12 42 25 89t22 85h126q-14 -53 -31 -113t-38 -123t-44.5 -127.5t-48.5 -126.5h-138q-27 66 -52 146t-45 159h-2zM458 556h-112l123 148h133z" />
    <glyph glyph-name="Wdieresis" unicode="&#x1e84;" horiz-adv-x="1017" 
d="M508 475q-4 -27 -10.5 -61t-15.5 -72t-20.5 -78t-23.5 -77q-14 -41 -32 -91t-37 -96h-152q-27 66 -56 153t-57 178.5t-51.5 180.5t-38.5 160h130q9 -42 25.5 -107.5t40.5 -156.5q9 -36 20 -74t22.5 -75.5t22.5 -72t21 -62.5h1q10 28 21 62.5t22 72t22 75.5t20 74
q23 85 38 146.5t25 103.5h127q10 -42 25 -103.5t38 -146.5q9 -36 20 -74t22 -75.5t22 -72t21 -62.5h1q10 28 21 62.5t22.5 72t22.5 75.5t20 74q24 91 40.5 156.5t25.5 107.5h130q-15 -71 -38.5 -160t-51.5 -180.5t-57 -178.5t-56 -153h-152q-19 46 -37 96t-32 91
q-12 37 -23.5 77t-20.5 78t-15.5 72t-10.5 61h-1zM544 806q0 38 17.5 54.5t55.5 16.5q39 0 56.5 -16.5t17.5 -54.5t-17.5 -54.5t-56.5 -16.5q-38 0 -55.5 16.5t-17.5 54.5zM327 806q0 38 17.5 54.5t56.5 16.5q38 0 55.5 -16.5t17.5 -54.5t-17.5 -54.5t-55.5 -16.5
q-39 0 -56.5 16.5t-17.5 54.5z" />
    <glyph glyph-name="wdieresis" unicode="&#x1e85;" horiz-adv-x="838" 
d="M418 305q-20 -79 -45 -159t-52 -146h-138q-26 62 -49 126.5t-44 127.5t-38.5 123t-30.5 113h126q9 -38 22 -85t25 -89q14 -48 29 -96.5t32 -95.5h1q14 41 30 89.5t31 102.5q11 38 22 80t20 78h120q9 -36 20 -78t22 -80q15 -54 31 -102.5t30 -89.5h1q17 47 32 95.5
t29 96.5q12 42 25 89t22 85h126q-14 -53 -31 -113t-38 -123t-44.5 -127.5t-48.5 -126.5h-138q-27 66 -52 146t-45 159h-2zM456 630q0 38 17.5 54.5t55.5 16.5q39 0 56.5 -16.5t17.5 -54.5t-17.5 -54.5t-56.5 -16.5q-38 0 -55.5 16.5t-17.5 54.5zM239 630q0 38 17.5 54.5
t56.5 16.5q38 0 55.5 -16.5t17.5 -54.5t-17.5 -54.5t-55.5 -16.5q-39 0 -56.5 16.5t-17.5 54.5z" />
    <glyph glyph-name="uni1E9E" unicode="&#x1e9e;" horiz-adv-x="751" 
d="M68 396q0 76 19.5 130.5t60.5 89.5t105 51.5t154 16.5q71 0 139 -7t134 -18v-83l-137 -188q85 -11 127 -58t42 -135q0 -55 -15 -94t-47.5 -64t-82.5 -37t-120 -12q-90 0 -166 18v101q76 -19 155 -19q78 0 111.5 25.5t33.5 84.5q0 58 -35.5 83t-116.5 25h-26v82l135 186
q-31 5 -62.5 7.5t-63.5 2.5q-115 0 -165.5 -46.5t-50.5 -152.5v-385h-128v396z" />
    <glyph glyph-name="Ygrave" unicode="&#x1ef2;" horiz-adv-x="617" 
d="M242 273l-246 399h150l162 -281l163 281h149l-245 -399v-273h-133v273zM127 880h133l123 -148h-112z" />
    <glyph glyph-name="ygrave" unicode="&#x1ef3;" horiz-adv-x="544" 
d="M8 490h139l134 -339l114 339h133l-204 -550q-16 -42 -34.5 -72.5t-43.5 -50t-58 -28.5t-78 -9q-10 0 -22 0.5t-20 1.5v98q7 -1 17 -1.5t18 -0.5q22 0 38 4.5t28.5 15t22.5 27t19 41.5l11 29zM91 704h133l123 -148h-112z" />
    <glyph glyph-name="endash" unicode="&#x2013;" 
d="M22 298h532v-98h-532v98z" />
    <glyph glyph-name="emdash" unicode="&#x2014;" horiz-adv-x="864" 
d="M22 298h820v-98h-820v98z" />
    <glyph glyph-name="quoteleft" unicode="&#x2018;" horiz-adv-x="249" 
d="M113 672h102l-56 -253h-131z" />
    <glyph glyph-name="quoteright" unicode="&#x2019;" horiz-adv-x="249" 
d="M136 419h-103l57 253h130z" />
    <glyph glyph-name="quotesinglbase" unicode="&#x201a;" horiz-adv-x="249" 
d="M120 -144h-103l57 253h130z" />
    <glyph glyph-name="quotedblleft" unicode="&#x201c;" horiz-adv-x="465" 
d="M113 672h102l-56 -253h-131zM330 672h102l-56 -253h-131z" />
    <glyph glyph-name="quotedblright" unicode="&#x201d;" horiz-adv-x="465" 
d="M136 419h-103l57 253h130zM353 419h-103l57 253h130z" />
    <glyph glyph-name="quotedblbase" unicode="&#x201e;" horiz-adv-x="465" 
d="M120 -144h-103l57 253h130zM337 -144h-103l57 253h130z" />
    <glyph glyph-name="dagger" unicode="&#x2020;" horiz-adv-x="489" 
d="M191 419h-161v97h161v156h107v-156h161v-97h-161v-419h-107v419z" />
    <glyph glyph-name="daggerdbl" unicode="&#x2021;" horiz-adv-x="489" 
d="M191 156h-161v97h161v166h-161v97h161v156h107v-156h161v-97h-161v-166h161v-97h-161v-156h-107v156z" />
    <glyph glyph-name="bullet" unicode="&#x2022;" horiz-adv-x="480" 
d="M96 288q0 30 11 56t30.5 45.5t46 31t56.5 11.5t56 -11.5t45.5 -31t31 -45.5t11.5 -56t-11.5 -56.5t-31 -46t-45.5 -30.5t-56 -11t-56.5 11t-46 30.5t-30.5 46t-11 56.5z" />
    <glyph glyph-name="ellipsis" unicode="&#x2026;" horiz-adv-x="864" 
d="M65 66q0 41 18.5 59t60.5 18t61 -18t19 -59t-19 -59t-61 -18t-60.5 18t-18.5 59zM353 66q0 41 18.5 59t60.5 18t61 -18t19 -59t-19 -59t-61 -18t-60.5 18t-18.5 59zM641 66q0 41 18.5 59t60.5 18t61 -18t19 -59t-19 -59t-61 -18t-60.5 18t-18.5 59z" />
    <glyph glyph-name="perthousand" unicode="&#x2030;" horiz-adv-x="1248" 
d="M36 504q0 96 40.5 138t131.5 42t131.5 -42t40.5 -138t-40.5 -138t-131.5 -42t-131.5 42t-40.5 138zM128 504q0 -57 18.5 -82t61.5 -25t61.5 25t18.5 82t-18.5 82t-61.5 25t-61.5 -25t-18.5 -82zM484 168q0 96 40.5 138t131.5 42t131.5 -42t40.5 -138t-40.5 -138
t-131.5 -42t-131.5 42t-40.5 138zM576 168q0 -57 18.5 -82t61.5 -25t61.5 25t18.5 82t-18.5 82t-61.5 25t-61.5 -25t-18.5 -82zM868 168q0 96 40.5 138t131.5 42t131.5 -42t40.5 -138t-40.5 -138t-131.5 -42t-131.5 42t-40.5 138zM960 168q0 -57 18.5 -82t61.5 -25t61.5 25
t18.5 82t-18.5 82t-61.5 25t-61.5 -25t-18.5 -82zM543 672h80l-302 -672h-80z" />
    <glyph glyph-name="guilsinglleft" unicode="&#x2039;" horiz-adv-x="297" 
d="M148 245l126 -199h-118l-139 199l139 199h118z" />
    <glyph glyph-name="guilsinglright" unicode="&#x203a;" horiz-adv-x="297" 
d="M149 245l-126 199h118l138 -199l-138 -199h-118z" />
    <glyph glyph-name="fraction" unicode="&#x2044;" horiz-adv-x="128" 
d="M175 672h80l-302 -672h-80z" />
    <glyph glyph-name="Euro" unicode="&#x20ac;" 
d="M41 303h56v33v22.5t1 22.5h-57v77h65q21 119 92 172.5t202 53.5q40 0 78 -5t73 -14v-96q-71 20 -136 20q-76 0 -118 -30.5t-58 -100.5h226v-77h-236q-1 -11 -1 -22v-23v-33h237v-77h-229q15 -78 57 -110.5t122 -32.5q36 0 68.5 5t67.5 15v-96q-35 -9 -73 -14t-78 -5
q-134 0 -205.5 56.5t-90.5 181.5h-63v77z" />
    <glyph glyph-name="afii61248" unicode="&#x2105;" horiz-adv-x="864" 
d="M36 510q0 90 41 130t133 40q28 0 54 -3.5t50 -9.5v-76q-44 15 -89 15q-50 0 -71.5 -22.5t-21.5 -73.5q0 -52 21.5 -74t71.5 -22q44 0 89 14v-76q-24 -6 -49.5 -9.5t-54.5 -3.5q-93 0 -133.5 40t-40.5 131zM481 163q0 90 41 130t133 40q91 0 132.5 -40t41.5 -130
q0 -91 -41 -131t-133 -40q-93 0 -133.5 40t-40.5 131zM577 163q0 -52 18 -74t60 -22t60 22t18 74q0 51 -18 73.5t-60 22.5t-60 -22.5t-18 -73.5zM527 672h80l-302 -672h-80z" />
    <glyph glyph-name="litre" unicode="&#x2113;" horiz-adv-x="403" 
d="M375 545q0 -88 -51 -164t-149 -140v-70q0 -45 20 -64t67 -19q36 0 77 9v-100q-44 -9 -92 -9q-101 0 -145.5 41.5t-44.5 136.5v369q0 96 38.5 138.5t124.5 42.5q79 0 117 -40t38 -131zM275 540q0 41 -10.5 58.5t-36.5 17.5q-28 0 -40.5 -20t-12.5 -67v-169q51 40 75.5 83
t24.5 97z" />
    <glyph glyph-name="numero" unicode="&#x2116;" horiz-adv-x="1164" 
d="M788 288h338v-74h-338v74zM68 672h129l362 -490v490h123v-672h-129l-362 490v-490h-123v672zM783 509q0 91 41 131t133 40q93 0 133.5 -40t40.5 -131q0 -90 -41 -130t-133 -40t-133 40t-41 130zM879 509q0 -51 18 -73.5t60 -22.5t60 22.5t18 73.5q0 52 -18 74t-60 22
t-60 -22t-18 -74z" />
    <glyph glyph-name="uni2117" unicode="&#x2117;" horiz-adv-x="832" 
d="M38 336q0 95 21.5 164.5t67.5 114.5t117.5 67t171.5 22t171.5 -22t117.5 -67t67.5 -114.5t21.5 -164.5t-21.5 -164.5t-67.5 -114.5t-117.5 -67t-171.5 -22t-171.5 22t-117.5 67t-67.5 114.5t-21.5 164.5zM112 336q0 -161 75 -232.5t229 -71.5t229 71.5t75 232.5
q0 81 -17.5 138.5t-54 94t-94 54t-138.5 17.5t-138.5 -17.5t-94 -54t-54 -94t-17.5 -138.5zM263 544h186q85 0 122.5 -32t37.5 -106q0 -73 -37.5 -105.5t-122.5 -32.5h-95v-140h-91v416zM354 343h90q38 0 55.5 14t17.5 49q0 34 -17.5 48.5t-55.5 14.5h-90v-126z" />
    <glyph glyph-name="uni2120" unicode="&#x2120;" horiz-adv-x="940" 
d="M35 555q0 66 39.5 95.5t129.5 29.5q71 0 136 -17v-78q-32 10 -64.5 14.5t-63.5 4.5q-41 0 -59 -10.5t-18 -36.5q0 -20 17 -29.5t43 -15t55.5 -11.5t55.5 -19.5t43 -38t17 -66.5q0 -68 -41 -98.5t-133 -30.5q-40 0 -78 5.5t-73 15.5v78q75 -23 144 -23q43 0 62 12t19 39
q0 21 -17 31t-43 16.5t-55.5 12.5t-55.5 19t-43 36.5t-17 64.5zM447 672h91l129 -217l131 217h92v-416h-90v274l-101 -166h-63l-100 166v-274h-89v416z" />
    <glyph glyph-name="trademark" unicode="&#x2122;" horiz-adv-x="947" 
d="M454 672h92l129 -217l131 217h91v-416h-89v274l-101 -166h-64l-99 166v-274h-90v416zM153 596h-131v76h360v-76h-131v-340h-98v340z" />
    <glyph glyph-name="Ohm" unicode="&#x2126;" horiz-adv-x="751" 
d="M22 102h155q-66 54 -97 120.5t-31 155.5q0 81 18.5 138.5t58 95t101.5 55t148 17.5t148 -17.5t101.5 -55t58.5 -95t19 -138.5q0 -89 -31 -155.5t-97 -120.5h155v-102h-299v97q71 45 105 108.5t34 152.5q0 118 -45.5 169.5t-148.5 51.5t-148 -51.5t-45 -169.5
q0 -89 33.5 -152.5t105.5 -108.5v-97h-299v102z" />
    <glyph glyph-name="estimated" unicode="&#x212e;" horiz-adv-x="960" 
d="M480 16q73 0 135.5 30t107.5 82h66q-53 -66 -133 -105t-176 -39q-80 0 -149.5 27.5t-122 75.5t-82.5 112t-30 137t30 137t82.5 112t122 75.5t149.5 27.5q79 0 149 -27.5t122.5 -75.5t82.5 -112t30 -137q0 -11 -1 -16h-623v-196q44 -51 106 -79.5t134 -28.5zM240 352h480
v196q-45 50 -106.5 79t-133.5 29t-134 -29t-106 -79v-196z" />
    <glyph glyph-name="onethird" unicode="&#x2153;" horiz-adv-x="864" 
d="M171 588l-101 -42v76l120 50h74v-416h-93v332zM543 672h80l-302 -672h-80zM803 354l-95 -111q115 -16 115 -120q0 -69 -43 -100t-139 -31q-61 0 -113 15v74q28 -8 54 -12t51 -4q51 0 72.5 14t21.5 46t-23 45t-77 13h-21v55l89 106h-161v72h269v-62z" />
    <glyph glyph-name="twothirds" unicode="&#x2154;" horiz-adv-x="864" 
d="M32 322l148 139q45 42 45 80q0 33 -16.5 47.5t-54.5 14.5q-53 0 -110 -18v78q60 17 125 17q81 0 116.5 -30.5t35.5 -97.5q0 -32 -16 -62.5t-45 -57.5l-104 -100h167v-76h-291v66zM543 672h80l-302 -672h-80zM803 354l-95 -111q115 -16 115 -120q0 -69 -43 -100t-139 -31
q-61 0 -113 15v74q28 -8 54 -12t51 -4q51 0 72.5 14t21.5 46t-23 45t-77 13h-21v55l89 106h-161v72h269v-62z" />
    <glyph glyph-name="uni2155" unicode="&#x2155;" horiz-adv-x="864" 
d="M809 344h-174v-89q6 0 15.5 0.5t20.5 0.5q83 0 120 -31t37 -100q0 -71 -42 -102t-137 -31q-61 0 -112 15v74q27 -8 53 -12t52 -4q48 0 69 14.5t21 47.5t-22.5 47t-74.5 14q-29 0 -53.5 -1t-32.5 -2v231h260v-72zM171 588l-101 -42v76l120 50h74v-416h-93v332zM543 672h80
l-302 -672h-80z" />
    <glyph glyph-name="uni2156" unicode="&#x2156;" horiz-adv-x="864" 
d="M809 344h-174v-89q6 0 15.5 0.5t20.5 0.5q83 0 120 -31t37 -100q0 -71 -42 -102t-137 -31q-61 0 -112 15v74q27 -8 53 -12t52 -4q48 0 69 14.5t21 47.5t-22.5 47t-74.5 14q-29 0 -53.5 -1t-32.5 -2v231h260v-72zM32 322l148 139q45 42 45 80q0 33 -16.5 47.5t-54.5 14.5
q-53 0 -110 -18v78q60 17 125 17q81 0 116.5 -30.5t35.5 -97.5q0 -32 -16 -62.5t-45 -57.5l-104 -100h167v-76h-291v66zM543 672h80l-302 -672h-80z" />
    <glyph glyph-name="uni2157" unicode="&#x2157;" horiz-adv-x="864" 
d="M809 344h-174v-89q6 0 15.5 0.5t20.5 0.5q83 0 120 -31t37 -100q0 -71 -42 -102t-137 -31q-61 0 -112 15v74q27 -8 53 -12t52 -4q48 0 69 14.5t21 47.5t-22.5 47t-74.5 14q-29 0 -53.5 -1t-32.5 -2v231h260v-72zM307 610l-95 -111q115 -16 115 -120q0 -69 -43 -100
t-139 -31q-61 0 -113 15v74q28 -8 54 -12t51 -4q51 0 72.5 14t21.5 46t-23 45t-77 13h-21v55l89 106h-161v72h269v-62zM543 672h80l-302 -672h-80z" />
    <glyph glyph-name="uni2158" unicode="&#x2158;" horiz-adv-x="864" 
d="M216 340h-206v67l194 265h97v-263h55v-69h-55v-84h-85v84zM216 409v164l-119 -164h119zM809 344h-174v-89q6 0 15.5 0.5t20.5 0.5q83 0 120 -31t37 -100q0 -71 -42 -102t-137 -31q-61 0 -112 15v74q27 -8 53 -12t52 -4q48 0 69 14.5t21 47.5t-22.5 47t-74.5 14
q-29 0 -53.5 -1t-32.5 -2v231h260v-72zM543 672h80l-302 -672h-80z" />
    <glyph glyph-name="uni2159" unicode="&#x2159;" horiz-adv-x="864" 
d="M522 188q0 125 45.5 180.5t152.5 55.5q26 0 51 -3.5t48 -9.5v-73q-24 7 -47 10.5t-46 3.5q-60 0 -85.5 -26t-28.5 -83q26 32 87 32q75 0 110.5 -32.5t35.5 -104.5q0 -76 -37.5 -111t-121.5 -35q-87 0 -125.5 46t-38.5 150zM614 139q0 -76 69 -76q39 0 56 17t17 55t-16 55
t-51 17q-75 0 -75 -68zM171 588l-101 -42v76l120 50h74v-416h-93v332zM543 672h80l-302 -672h-80z" />
    <glyph glyph-name="uni215A" unicode="&#x215a;" horiz-adv-x="864" 
d="M313 600h-174v-89q6 0 15.5 0.5t20.5 0.5q83 0 120 -31t37 -100q0 -71 -42 -102t-137 -31q-61 0 -112 15v74q27 -8 53 -12t52 -4q48 0 69 14.5t21 47.5t-22.5 47t-74.5 14q-29 0 -53.5 -1t-32.5 -2v231h260v-72zM522 188q0 125 45.5 180.5t152.5 55.5q26 0 51 -3.5
t48 -9.5v-73q-24 7 -47 10.5t-46 3.5q-60 0 -85.5 -26t-28.5 -83q26 32 87 32q75 0 110.5 -32.5t35.5 -104.5q0 -76 -37.5 -111t-121.5 -35q-87 0 -125.5 46t-38.5 150zM614 139q0 -76 69 -76q39 0 56 17t17 55t-16 55t-51 17q-75 0 -75 -68zM543 672h80l-302 -672h-80z" />
    <glyph glyph-name="oneeighth" unicode="&#x215b;" horiz-adv-x="864" 
d="M680 247q37 6 52.5 19t15.5 38q0 26 -15.5 39t-52.5 13q-36 0 -51.5 -13t-15.5 -39q0 -25 15 -38t52 -19zM514 113q0 42 18 65t61 34q-37 11 -53 33.5t-16 62.5q0 61 37 88.5t119 27.5q83 0 120 -27.5t37 -88.5q0 -40 -16 -62.5t-53 -33.5q43 -11 61 -34t18 -65
q0 -64 -39.5 -92.5t-127.5 -28.5t-127 28.5t-39 92.5zM680 179q-41 -6 -58.5 -20t-17.5 -42q0 -57 76 -57q77 0 77 57q0 28 -17.5 42t-59.5 20zM171 588l-101 -42v76l120 50h74v-416h-93v332zM543 672h80l-302 -672h-80z" />
    <glyph glyph-name="threeeighths" unicode="&#x215c;" horiz-adv-x="864" 
d="M680 247q37 6 52.5 19t15.5 38q0 26 -15.5 39t-52.5 13q-36 0 -51.5 -13t-15.5 -39q0 -25 15 -38t52 -19zM514 113q0 42 18 65t61 34q-37 11 -53 33.5t-16 62.5q0 61 37 88.5t119 27.5q83 0 120 -27.5t37 -88.5q0 -40 -16 -62.5t-53 -33.5q43 -11 61 -34t18 -65
q0 -64 -39.5 -92.5t-127.5 -28.5t-127 28.5t-39 92.5zM680 179q-41 -6 -58.5 -20t-17.5 -42q0 -57 76 -57q77 0 77 57q0 28 -17.5 42t-59.5 20zM307 610l-95 -111q115 -16 115 -120q0 -69 -43 -100t-139 -31q-61 0 -113 15v74q28 -8 54 -12t51 -4q51 0 72.5 14t21.5 46
t-23 45t-77 13h-21v55l89 106h-161v72h269v-62zM543 672h80l-302 -672h-80z" />
    <glyph glyph-name="fiveeighths" unicode="&#x215d;" horiz-adv-x="864" 
d="M313 600h-174v-89q6 0 15.5 0.5t20.5 0.5q83 0 120 -31t37 -100q0 -71 -42 -102t-137 -31q-61 0 -112 15v74q27 -8 53 -12t52 -4q48 0 69 14.5t21 47.5t-22.5 47t-74.5 14q-29 0 -53.5 -1t-32.5 -2v231h260v-72zM680 247q37 6 52.5 19t15.5 38q0 26 -15.5 39t-52.5 13
q-36 0 -51.5 -13t-15.5 -39q0 -25 15 -38t52 -19zM514 113q0 42 18 65t61 34q-37 11 -53 33.5t-16 62.5q0 61 37 88.5t119 27.5q83 0 120 -27.5t37 -88.5q0 -40 -16 -62.5t-53 -33.5q43 -11 61 -34t18 -65q0 -64 -39.5 -92.5t-127.5 -28.5t-127 28.5t-39 92.5zM680 179
q-41 -6 -58.5 -20t-17.5 -42q0 -57 76 -57q77 0 77 57q0 28 -17.5 42t-59.5 20zM543 672h80l-302 -672h-80z" />
    <glyph glyph-name="seveneighths" unicode="&#x215e;" horiz-adv-x="864" 
d="M331 608l-157 -352h-94l154 340h-199v76h296v-64zM680 247q37 6 52.5 19t15.5 38q0 26 -15.5 39t-52.5 13q-36 0 -51.5 -13t-15.5 -39q0 -25 15 -38t52 -19zM514 113q0 42 18 65t61 34q-37 11 -53 33.5t-16 62.5q0 61 37 88.5t119 27.5q83 0 120 -27.5t37 -88.5
q0 -40 -16 -62.5t-53 -33.5q43 -11 61 -34t18 -65q0 -64 -39.5 -92.5t-127.5 -28.5t-127 28.5t-39 92.5zM680 179q-41 -6 -58.5 -20t-17.5 -42q0 -57 76 -57q77 0 77 57q0 28 -17.5 42t-59.5 20zM543 672h80l-302 -672h-80z" />
    <glyph glyph-name="uni215F" unicode="&#x215f;" horiz-adv-x="496" 
d="M171 588l-101 -42v76l120 50h74v-416h-93v332zM543 672h80l-302 -672h-80z" />
    <glyph glyph-name="arrowleft" unicode="&#x2190;" horiz-adv-x="864" 
d="M248 229l221 -217h-169l-277 276l277 276h169l-221 -217h572v-118h-572z" />
    <glyph glyph-name="arrowup" unicode="&#x2191;" horiz-adv-x="864" 
d="M373 472l-217 -221v169l276 277l276 -277v-169l-217 221v-572h-118v572z" />
    <glyph glyph-name="arrowright" unicode="&#x2192;" horiz-adv-x="864" 
d="M616 347l-221 217h169l277 -276l-277 -276h-169l221 217h-572v118h572z" />
    <glyph glyph-name="arrowdown" unicode="&#x2193;" horiz-adv-x="864" 
d="M491 104l217 221v-169l-276 -277l-276 277v169l217 -221v572h118v-572z" />
    <glyph glyph-name="uni2196" unicode="&#x2196;" horiz-adv-x="864" 
d="M261 376l1 -309l-119 119v391h391l119 -119l-309 1l404 -404l-83 -83z" />
    <glyph glyph-name="uni2197" unicode="&#x2197;" horiz-adv-x="864" 
d="M520 459l-309 -2l119 120h391v-391l-120 -119l2 309l-404 -404l-83 83z" />
    <glyph glyph-name="uni2198" unicode="&#x2198;" horiz-adv-x="864" 
d="M603 200l-1 309l119 -119v-391h-391l-119 119l309 -1l-404 404l83 83z" />
    <glyph glyph-name="uni2199" unicode="&#x2199;" horiz-adv-x="864" 
d="M344 117l309 1l-119 -119h-391v391l119 119l-1 -309l404 404l83 -83z" />
    <glyph glyph-name="partialdiff" unicode="&#x2202;" horiz-adv-x="585" 
d="M36 245q0 136 52 196.5t168 60.5q101 0 151 -52q-9 90 -46.5 129.5t-110.5 39.5q-39 0 -80.5 -6.5t-80.5 -19.5v98q41 12 83.5 18.5t87.5 6.5q75 0 128 -22.5t87 -71t50 -125t16 -184.5q0 -166 -61 -245.5t-196 -79.5q-130 0 -189 61t-59 196zM166 245q0 -84 28 -120.5
t90 -36.5q68 0 97.5 41.5t29.5 126.5q0 75 -30 110.5t-97 35.5q-62 0 -90 -36.5t-28 -120.5z" />
    <glyph glyph-name="Delta" unicode="&#x2206;" horiz-adv-x="697" 
d="M33 86l240 586h150l241 -586v-86h-631v86zM167 102h362l-181 452z" />
    <glyph glyph-name="product" unicode="&#x220f;" horiz-adv-x="799" 
d="M68 704h662v-912h-133v810h-396v-810h-133v912z" />
    <glyph glyph-name="summation" unicode="&#x2211;" horiz-adv-x="660" 
d="M31 -121l302 377l-286 361v87h581v-102h-416l249 -314v-64l-265 -330h448v-102h-613v87z" />
    <glyph glyph-name="minus" unicode="&#x2212;" 
d="M70 342h436v-108h-436v108z" />
    <glyph glyph-name="uni2215" unicode="&#x2215;" horiz-adv-x="128" 
d="M175 672h80l-302 -672h-80z" />
    <glyph glyph-name="radical" unicode="&#x221a;" horiz-adv-x="697" 
d="M431 -208h-134l-103 306l-183 -63v113l253 85l97 -290l206 729h112z" />
    <glyph glyph-name="infinity" unicode="&#x221e;" horiz-adv-x="799" 
d="M28 288q0 107 44 155.5t143 48.5q33 0 59.5 -6t48 -19.5t40 -36t36.5 -55.5q18 33 36.5 55.5t40.5 36t48 19.5t59 6q99 0 143.5 -48.5t44.5 -155.5t-44.5 -155.5t-143.5 -48.5q-33 0 -59 6t-48 19.5t-40.5 36t-36.5 55.5q-18 -33 -36.5 -55.5t-40 -36t-48 -19.5t-59.5 -6
q-99 0 -143 48.5t-44 155.5zM145 288q0 -57 20 -80.5t66 -23.5q18 0 32.5 5t27 17t24.5 32t25 50q-13 30 -25 50t-24.5 32t-27 17t-32.5 5q-46 0 -66 -24t-20 -80zM653 288q0 57 -20 80.5t-65 23.5q-18 0 -32.5 -5t-27.5 -17t-24.5 -32t-24.5 -50q13 -30 24.5 -50t24.5 -32
t27.5 -17t32.5 -5q45 0 65 24t20 80z" />
    <glyph glyph-name="integral" unicode="&#x222b;" horiz-adv-x="415" 
d="M68 531q0 98 44 141.5t143 43.5q21 0 41.5 -2t39.5 -5v-102q-14 3 -28.5 5t-27.5 2q-49 0 -70 -22t-21 -71q0 -28 11.5 -70t29 -91t38 -102t38 -105.5t29 -101t11.5 -86.5q0 -98 -43.5 -141.5t-142.5 -43.5q-22 0 -42.5 2t-38.5 5v102q14 -3 28.5 -5t27.5 -2
q48 0 69.5 22t21.5 71q0 28 -11.5 70t-29.5 91t-38 102t-38 105.5t-29.5 100.5t-11.5 87z" />
    <glyph glyph-name="approxequal" unicode="&#x2248;" 
d="M70 223q48 45 122 45q36 0 62 -11t48 -23.5t43.5 -23.5t48.5 -11q33 0 59.5 12.5t52.5 37.5v-113q-48 -45 -122 -45q-36 0 -62 11t-48 24t-43.5 24t-48.5 11q-33 0 -59.5 -12.5t-52.5 -38.5v113zM70 440q48 45 122 45q36 0 62 -11t48 -24t43.5 -24t48.5 -11
q33 0 59.5 12.5t52.5 38.5v-113q-48 -45 -122 -45q-36 0 -62 11t-48 23.5t-43.5 23.5t-48.5 11q-33 0 -59.5 -12.5t-52.5 -37.5v113z" />
    <glyph glyph-name="notequal" unicode="&#x2260;" 
d="M70 233h143l36 110h-179v107h215l42 126h114l-43 -126h108v-107h-144l-35 -110h179v-107h-216l-41 -126h-114l42 126h-107v107z" />
    <glyph glyph-name="lessequal" unicode="&#x2264;" 
d="M70 108h436v-108h-436v108zM70 333v119l436 163v-113l-308 -109l308 -109v-114z" />
    <glyph glyph-name="greaterequal" unicode="&#x2265;" 
d="M70 108h436v-108h-436v108zM506 452v-119l-436 -163v114l308 109l-308 109v113z" />
    <glyph glyph-name="uni22C5" unicode="&#x22c5;" horiz-adv-x="249" 
d="M45 249q0 41 18.5 59t60.5 18t61 -18t19 -59t-19 -59t-61 -18t-60.5 18t-18.5 59z" />
    <glyph glyph-name="lozenge" unicode="&#x25ca;" 
d="M23 336l201 336h128l201 -336l-201 -336h-128zM152 336l136 -228l136 228l-136 228z" />
    <glyph glyph-name="zero.lprop" unicode="&#xe010;" horiz-adv-x="644" 
d="M47 336q0 92 15.5 158t49 108t85.5 62t125 20t125 -20t85.5 -62t49.5 -108t16 -158t-16 -158t-49.5 -108t-85.5 -62t-125 -20t-125 20t-85.5 62t-49 108t-15.5 158zM177 336q0 -129 34 -186t111 -57t111 57t34 186t-34 186t-111 57t-111 -57t-34 -186z" />
    <glyph glyph-name="one.lprop" unicode="&#xe011;" horiz-adv-x="409" 
d="M196 559l-166 -70v103l193 80h101v-672h-128v559z" />
    <glyph glyph-name="two.lprop" unicode="&#xe012;" horiz-adv-x="522" 
d="M22 92l243 233q40 38 60 73t20 70q0 60 -30 85.5t-98 25.5q-86 0 -176 -30v106q46 15 95 22t101 7q125 0 182 -47.5t57 -152.5q0 -54 -24.5 -103.5t-74.5 -97.5l-188 -181h289v-102h-456v92z" />
    <glyph glyph-name="three.lprop" unicode="&#xe013;" horiz-adv-x="522" 
d="M452 585l-167 -197q102 -9 150.5 -56.5t48.5 -136.5q0 -55 -16.5 -94t-51.5 -64t-89 -37t-130 -12q-94 0 -175 25v102q81 -27 165 -27q89 0 127.5 25.5t38.5 84.5q0 58 -41 83t-136 25h-31v75l163 194h-278v97h422v-87z" />
    <glyph glyph-name="four.lprop" unicode="&#xe014;" horiz-adv-x="607" 
d="M364 140h-334v92l318 440h134v-435h92v-97h-92v-140h-118v140zM364 237v298l-214 -298h214z" />
    <glyph glyph-name="five.lprop" unicode="&#xe015;" horiz-adv-x="538" 
d="M470 575h-290v-171q36 3 72 3q132 0 191 -49.5t59 -158.5q0 -111 -66.5 -161t-216.5 -50q-94 0 -175 25v102q79 -27 165 -27q87 0 125 26.5t38 87.5q0 60 -40 86t-131 26q-34 0 -68.5 -1.5t-70.5 -5.5v365h408v-97z" />
    <glyph glyph-name="six.lprop" unicode="&#xe016;" horiz-adv-x="586" 
d="M46 304q0 100 17.5 172t55 118.5t96.5 68t142 21.5q84 0 156 -21v-101q-37 11 -74 16.5t-72 5.5q-101 0 -146 -49t-49 -155q38 59 150 59q121 0 174.5 -52t53.5 -168q0 -61 -14 -104.5t-44.5 -71.5t-77.5 -41.5t-113 -13.5q-68 0 -116 18t-79 56t-45.5 98t-14.5 144z
M176 224q0 -136 122 -136q69 0 99.5 30t30.5 99q0 65 -28 94.5t-93 29.5q-69 0 -100 -28.5t-31 -88.5z" />
    <glyph glyph-name="seven.lprop" unicode="&#xe017;" horiz-adv-x="495" 
d="M480 585l-262 -585h-129l258 570h-336v102h469v-87z" />
    <glyph glyph-name="eight.lprop" unicode="&#xe018;" horiz-adv-x="596" 
d="M298 393q66 9 93.5 32.5t27.5 70.5q0 48 -28 69.5t-93 21.5t-93 -21.5t-28 -69.5q0 -47 27.5 -70.5t93.5 -32.5zM39 179q0 70 31.5 109t103.5 56q-62 16 -90.5 53.5t-28.5 103.5q0 97 57 140t186 43t186.5 -43t57.5 -140q0 -66 -28.5 -103.5t-91.5 -53.5q72 -17 104 -56
t32 -109q0 -101 -61.5 -146t-198.5 -45q-69 0 -118 11t-80.5 34t-46 59.5t-14.5 86.5zM298 295q-37 -5 -62.5 -13.5t-41.5 -21.5t-23 -32t-7 -44q0 -53 31 -76t103 -23t103 23t31 76q0 51 -30.5 76t-103.5 35z" />
    <glyph glyph-name="nine.lprop" unicode="&#xe019;" horiz-adv-x="586" 
d="M540 368q0 -101 -17.5 -172.5t-55 -118t-96.5 -68t-142 -21.5q-84 0 -156 21v101q37 -11 74 -16.5t72 -5.5q51 0 87 12t59 37t35 63.5t14 91.5q-38 -59 -150 -59q-121 0 -174.5 52t-53.5 168q0 121 58.5 176t190.5 55q67 0 115.5 -18t79.5 -56t45.5 -98t14.5 -144z
M410 448q0 136 -122 136q-69 0 -99.5 -30t-30.5 -99q0 -65 28 -94.5t93 -29.5q69 0 100 28.5t31 88.5z" />
    <glyph glyph-name="dollar.lprop" unicode="&#xe01a;" horiz-adv-x="559" 
d="M220 21q-90 6 -168 30v102q105 -33 209 -33q68 0 95 19.5t27 63.5q0 33 -25 49t-63 26t-82 18.5t-82 27.5t-63 53t-25 94q0 82 42 124.5t135 53.5v167h118v-166q75 -4 148 -23v-102q-96 27 -189 27q-66 0 -92 -18t-26 -61q0 -32 25 -46.5t63 -23.5t82 -18t82 -28.5
t63 -54.5t25 -97q0 -85 -43.5 -128t-137.5 -54v-167h-118v165z" />
    <glyph glyph-name="cent.lprop" unicode="&#xe01b;" horiz-adv-x="495" 
d="M43 336q0 115 42.5 175.5t137.5 75.5v170h118v-165q31 -2 59 -6t54 -12v-101q-32 10 -65 15t-69 5q-78 0 -112 -36.5t-34 -120.5t34 -120.5t112 -36.5q36 0 69 5t65 15v-101q-53 -15 -113 -18v-165h-118v169q-95 16 -137.5 76.5t-42.5 175.5z" />
    <glyph glyph-name="Euro.lprop" unicode="&#xe01c;" horiz-adv-x="564" 
d="M35 303h56v33v22.5t1 22.5h-57v77h65q21 119 92 172.5t202 53.5q40 0 78 -5t73 -14v-96q-71 20 -136 20q-76 0 -118 -30.5t-58 -100.5h226v-77h-236q-1 -11 -1 -22v-23v-33h237v-77h-229q15 -78 57 -110.5t122 -32.5q36 0 68.5 5t67.5 15v-96q-35 -9 -73 -14t-78 -5
q-134 0 -205.5 56.5t-90.5 181.5h-63v77z" />
    <glyph glyph-name="sterling.lprop" unicode="&#xe01d;" horiz-adv-x="511" 
d="M32 100h86v193h-70v98h70v66q0 118 57 172.5t181 54.5q67 0 124 -15v-102q-53 15 -104 15q-67 0 -96 -30.5t-29 -99.5v-61h179v-98h-179v-193h237v-100h-456v100z" />
    <glyph glyph-name="yen.lprop" unicode="&#xe01e;" horiz-adv-x="585" 
d="M225 119h-145v77h145v77h-145v78h110l-202 321h145l159 -268l159 268h145l-202 -321h110v-78h-145v-77h145v-77h-145v-119h-134v119z" />
    <glyph glyph-name="zero.otab" unicode="&#xe020;" 
d="M39 261q0 143 58.5 208t190.5 65t190.5 -65t58.5 -208t-58.5 -208t-190.5 -65t-190.5 65t-58.5 208zM159 261q0 -91 30 -132t99 -41t99 41t30 132t-30 132t-99 41t-99 -41t-30 -132z" />
    <glyph glyph-name="one.otab" unicode="&#xe021;" 
d="M280 409l-175 -70v103l201 80h102v-522h-128v409z" />
    <glyph glyph-name="two.otab" unicode="&#xe022;" 
d="M65 92l213 150q78 54 78 109q0 45 -26 64t-86 19q-79 0 -160 -28v101q82 27 180 27q118 0 170.5 -39.5t52.5 -128.5q0 -52 -26.5 -93.5t-83.5 -80.5l-133 -95h245v-97h-424v92z" />
    <glyph glyph-name="three.otab" unicode="&#xe023;" 
d="M479 436l-167 -195q102 -9 150.5 -56t48.5 -135q0 -54 -16.5 -93t-51.5 -64t-89 -37t-130 -12q-93 0 -175 27v101q41 -14 82 -21t83 -7q89 0 127.5 25.5t38.5 82.5t-41 82t-136 25h-31v75l163 191h-278v97h422v-86z" />
    <glyph glyph-name="four.otab" unicode="&#xe024;" 
d="M349 0h-318v87l307 435h129v-425h76v-97h-76v-144h-118v144zM349 97v293l-204 -293h204z" />
    <glyph glyph-name="five.otab" unicode="&#xe025;" 
d="M489 425h-290v-168q36 3 72 3q132 0 191 -48.5t59 -157.5q0 -111 -66.5 -160.5t-216.5 -49.5q-94 0 -175 25v102q79 -27 165 -27q87 0 125 26t38 86t-40 85.5t-131 25.5q-34 0 -68.5 -1.5t-70.5 -5.5v362h408v-97z" />
    <glyph glyph-name="six.otab" unicode="&#xe026;" 
d="M41 303q0 99 17.5 170t55 116.5t96.5 67t142 21.5q84 0 156 -21v-101q-37 11 -74 16.5t-72 5.5q-101 0 -146 -47t-49 -153q38 58 150 58q121 0 174.5 -51.5t53.5 -166.5q0 -121 -58.5 -175.5t-190.5 -54.5q-68 0 -116 18t-79 56t-45.5 97.5t-14.5 143.5zM171 223
q0 -69 30 -102t92 -33q69 0 99.5 30t30.5 97q0 64 -28 94t-93 30q-69 0 -100 -28t-31 -88z" />
    <glyph glyph-name="seven.otab" unicode="&#xe027;" 
d="M521 435l-262 -579h-129l258 564h-336v102h469v-87z" />
    <glyph glyph-name="eight.otab" unicode="&#xe028;" 
d="M288 391q63 8 89.5 31.5t26.5 68.5q0 48 -27 69t-89 21t-89 -21t-27 -69q0 -45 26.5 -68.5t89.5 -31.5zM33 178q0 69 32 107.5t104 55.5q-63 16 -91.5 53t-28.5 102q0 97 56.5 139.5t182.5 42.5t182.5 -42.5t56.5 -139.5q0 -65 -28.5 -102t-91.5 -53q72 -17 104 -55.5
t32 -107.5q0 -101 -60.5 -145.5t-194.5 -44.5t-194.5 44.5t-60.5 145.5zM288 292q-71 -10 -100 -34.5t-29 -74.5q0 -52 30 -75t99 -23t99 23t30 75q0 50 -29 74.5t-100 34.5z" />
    <glyph glyph-name="nine.otab" unicode="&#xe029;" 
d="M535 220q0 -100 -17.5 -171t-55 -116.5t-96.5 -67t-142 -21.5q-84 0 -156 21v101q37 -11 74 -16.5t72 -5.5q51 0 87 11.5t59 35.5t35 62t14 91q-38 -58 -150 -58q-121 0 -174.5 51.5t-53.5 166.5q0 121 58.5 175.5t190.5 54.5q67 0 115.5 -18t79.5 -56t45.5 -97.5
t14.5 -142.5zM405 300q0 134 -122 134q-69 0 -99.5 -30t-30.5 -97q0 -64 28 -93.5t93 -29.5q69 0 100 28t31 88z" />
    <glyph glyph-name="dollar.otab" unicode="&#xe02a;" 
d="M229 -10q-72 4 -138 23v100q46 -14 90.5 -21t88.5 -7q52 0 75 15.5t23 48.5q0 25 -21 37t-53 20t-69 15.5t-69 24.5t-53 46.5t-21 81.5q0 71 34.5 108t112.5 48v152h118v-150q30 -2 60 -6.5t60 -12.5v-100q-81 24 -161 24q-50 0 -72 -14t-22 -46q0 -24 21 -35t53 -18.5
t69 -15t69 -24.5t53 -48t21 -84q0 -72 -35.5 -110.5t-115.5 -49.5v-152h-118v150z" />
    <glyph glyph-name="cent.otab" unicode="&#xe02b;" 
d="M84 261q0 115 42.5 175.5t137.5 75.5v170h118v-165q31 -2 59 -6t54 -12v-101q-32 10 -65 15t-69 5q-78 0 -112 -36.5t-34 -120.5t34 -120.5t112 -36.5q36 0 69 5t65 15v-101q-53 -15 -113 -18v-165h-118v169q-95 16 -137.5 76.5t-42.5 175.5z" />
    <glyph glyph-name="Euro.otab" unicode="&#xe02c;" 
d="M68 236h45v55h-45v65h53q19 93 82.5 135.5t182.5 42.5q76 0 138 -17v-89q-29 9 -60 14t-63 5q-61 0 -96.5 -21.5t-49.5 -69.5h194v-65h-204q-1 -8 -1 -15v-15v-13t1 -12h204v-64h-196q14 -52 49.5 -74.5t98.5 -22.5q66 0 123 18v-88q-62 -17 -138 -17q-121 0 -185 43.5
t-81 140.5h-52v64z" />
    <glyph glyph-name="sterling.otab" unicode="&#xe02d;" 
d="M84 92h77v128h-61v90h61v37q0 95 49.5 141t156.5 46q61 0 117 -17v-94q-25 8 -49 12t-47 4q-54 0 -76.5 -21.5t-22.5 -72.5v-35h144v-90h-144v-128h203v-92h-408v92z" />
    <glyph glyph-name="yen.otab" unicode="&#xe02e;" 
d="M224 89h-127v67h127v56h-127v67h95l-152 243h140l108 -189l108 189h140l-152 -243h95v-67h-127v-56h127v-67h-127v-89h-128v89z" />
    <glyph glyph-name="zero.oprop" unicode="&#xe030;" horiz-adv-x="607" 
d="M44 261q0 72 14.5 124t46 85t80.5 48.5t118 15.5t118 -15.5t80.5 -48.5t46.5 -85t15 -124t-15 -124t-46.5 -85t-80.5 -48.5t-118 -15.5t-118 15.5t-80.5 48.5t-46 85t-14.5 124zM169 261q0 -93 31 -133t103 -40t103 40t31 133t-31 133t-103 40t-103 -40t-31 -133z" />
    <glyph glyph-name="one.oprop" unicode="&#xe031;" horiz-adv-x="393" 
d="M188 409l-166 -70v103l193 80h101v-522h-128v409z" />
    <glyph glyph-name="two.oprop" unicode="&#xe032;" horiz-adv-x="490" 
d="M22 92l213 150q78 54 78 109q0 45 -26 64t-86 19q-79 0 -160 -28v101q82 27 180 27q118 0 170.5 -39.5t52.5 -128.5q0 -52 -26.5 -93.5t-83.5 -80.5l-133 -95h245v-97h-424v92z" />
    <glyph glyph-name="three.oprop" unicode="&#xe033;" horiz-adv-x="490" 
d="M436 436l-167 -195q102 -9 150.5 -56t48.5 -135q0 -54 -16.5 -93t-51.5 -64t-89 -37t-130 -12q-93 0 -175 27v101q41 -14 82 -21t83 -7q89 0 127.5 25.5t38.5 82.5t-41 82t-136 25h-31v75l163 191h-278v97h422v-86z" />
    <glyph glyph-name="four.oprop" unicode="&#xe034;" horiz-adv-x="543" 
d="M332 0h-318v87l307 435h129v-425h76v-97h-76v-144h-118v144zM332 97v293l-204 -293h204z" />
    <glyph glyph-name="five.oprop" unicode="&#xe035;" horiz-adv-x="522" 
d="M470 425h-290v-168q36 3 72 3q132 0 191 -48.5t59 -157.5q0 -111 -66.5 -160.5t-216.5 -49.5q-94 0 -175 25v102q79 -27 165 -27q87 0 125 26t38 86t-40 85.5t-131 25.5q-34 0 -68.5 -1.5t-70.5 -5.5v362h408v-97z" />
    <glyph glyph-name="six.oprop" unicode="&#xe036;" horiz-adv-x="596" 
d="M51 303q0 99 17.5 170t55 116.5t96.5 67t142 21.5q84 0 156 -21v-101q-37 11 -74 16.5t-72 5.5q-101 0 -146 -47t-49 -153q38 58 150 58q121 0 174.5 -51.5t53.5 -166.5q0 -121 -58.5 -175.5t-190.5 -54.5q-68 0 -116 18t-79 56t-45.5 97.5t-14.5 143.5zM181 223
q0 -69 30 -102t92 -33q69 0 99.5 30t30.5 97q0 64 -28 94t-93 30q-69 0 -100 -28t-31 -88z" />
    <glyph glyph-name="seven.oprop" unicode="&#xe037;" horiz-adv-x="495" 
d="M480 435l-262 -579h-129l258 564h-336v102h469v-87z" />
    <glyph glyph-name="eight.oprop" unicode="&#xe038;" horiz-adv-x="580" 
d="M290 391q63 8 89.5 31.5t26.5 68.5q0 48 -27 69t-89 21t-89 -21t-27 -69q0 -45 26.5 -68.5t89.5 -31.5zM35 178q0 69 32 107.5t104 55.5q-63 16 -91.5 53t-28.5 102q0 97 56.5 139.5t182.5 42.5t182.5 -42.5t56.5 -139.5q0 -65 -28.5 -102t-91.5 -53q72 -17 104 -55.5
t32 -107.5q0 -101 -60.5 -145.5t-194.5 -44.5t-194.5 44.5t-60.5 145.5zM290 292q-71 -10 -100 -34.5t-29 -74.5q0 -52 30 -75t99 -23t99 23t30 75q0 50 -29 74.5t-100 34.5z" />
    <glyph glyph-name="nine.oprop" unicode="&#xe039;" horiz-adv-x="596" 
d="M545 220q0 -100 -17.5 -171t-55 -116.5t-96.5 -67t-142 -21.5q-84 0 -156 21v101q37 -11 74 -16.5t72 -5.5q51 0 87 11.5t59 35.5t35 62t14 91q-38 -58 -150 -58q-121 0 -174.5 51.5t-53.5 166.5q0 121 58.5 175.5t190.5 54.5q67 0 115.5 -18t79.5 -56t45.5 -97.5
t14.5 -142.5zM415 300q0 134 -122 134q-69 0 -99.5 -30t-30.5 -97q0 -64 28 -93.5t93 -29.5q69 0 100 28t31 88z" />
    <glyph glyph-name="dollar.oprop" unicode="&#xe03a;" horiz-adv-x="511" 
d="M196 -10q-72 4 -138 23v100q46 -14 90.5 -21t88.5 -7q52 0 75 15.5t23 48.5q0 25 -21 37t-53 20t-69 15.5t-69 24.5t-53 46.5t-21 81.5q0 71 34.5 108t112.5 48v152h118v-150q30 -2 60 -6.5t60 -12.5v-100q-81 24 -161 24q-50 0 -72 -14t-22 -46q0 -24 21 -35t53 -18.5
t69 -15t69 -24.5t53 -48t21 -84q0 -72 -35.5 -110.5t-115.5 -49.5v-152h-118v150z" />
    <glyph glyph-name="cent.oprop" unicode="&#xe03b;" horiz-adv-x="495" 
d="M43 261q0 115 42.5 175.5t137.5 75.5v170h118v-165q31 -2 59 -6t54 -12v-101q-32 10 -65 15t-69 5q-78 0 -112 -36.5t-34 -120.5t34 -120.5t112 -36.5q36 0 69 5t65 15v-101q-53 -15 -113 -18v-165h-118v169q-95 16 -137.5 76.5t-42.5 175.5z" />
    <glyph glyph-name="Euro.oprop" unicode="&#xe03c;" horiz-adv-x="532" 
d="M46 236h45v55h-45v65h53q19 93 82.5 135.5t182.5 42.5q76 0 138 -17v-89q-29 9 -60 14t-63 5q-61 0 -96.5 -21.5t-49.5 -69.5h194v-65h-204q-1 -8 -1 -15v-15v-13t1 -12h204v-64h-196q14 -52 49.5 -74.5t98.5 -22.5q66 0 123 18v-88q-62 -17 -138 -17q-121 0 -185 43.5
t-81 140.5h-52v64z" />
    <glyph glyph-name="sterling.oprop" unicode="&#xe03d;" horiz-adv-x="463" 
d="M27 92h77v128h-61v90h61v37q0 95 49.5 141t156.5 46q61 0 117 -17v-94q-25 8 -49 12t-47 4q-54 0 -76.5 -21.5t-22.5 -72.5v-35h144v-90h-144v-128h203v-92h-408v92z" />
    <glyph glyph-name="yen.oprop" unicode="&#xe03e;" horiz-adv-x="499" 
d="M185 89h-127v67h127v56h-127v67h95l-152 243h140l108 -189l108 189h140l-152 -243h95v-67h-127v-56h127v-67h-127v-89h-128v89z" />
    <glyph glyph-name="hyphen.cap" unicode="&#xe800;" horiz-adv-x="336" 
d="M22 391h276v-98h-276v98z" />
    <glyph glyph-name="uni00AD.cap" unicode="&#xe801;" horiz-adv-x="336" 
d="M22 391h276v-98h-276v98z" />
    <glyph glyph-name="endash.cap" unicode="&#xe802;" 
d="M22 391h532v-98h-532v98z" />
    <glyph glyph-name="emdash.cap" unicode="&#xe803;" horiz-adv-x="864" 
d="M22 391h820v-98h-820v98z" />
    <glyph glyph-name="periodcentered.cap" unicode="&#xe805;" horiz-adv-x="249" 
d="M45 342q0 41 18.5 59t60.5 18t61 -18t19 -59t-19 -59t-61 -18t-60.5 18t-18.5 59z" />
    <glyph glyph-name="slash.cap" unicode="&#xe806;" horiz-adv-x="384" 
d="M280 752h113l-289 -832h-113z" />
    <glyph glyph-name="backslash.cap" unicode="&#xe807;" horiz-adv-x="384" 
d="M-9 752h113l289 -832h-113z" />
    <glyph glyph-name="parenleft.cap" unicode="&#xe808;" horiz-adv-x="329" 
d="M63 336q0 242 127 416h124q-66 -88 -98.5 -193t-32.5 -223t32.5 -223t98.5 -193h-124q-127 174 -127 416z" />
    <glyph glyph-name="parenright.cap" unicode="&#xe809;" horiz-adv-x="329" 
d="M266 336q0 -242 -127 -416h-124q66 88 98.5 193t32.5 223t-32.5 223t-98.5 193h124q127 -174 127 -416z" />
    <glyph glyph-name="bracketleft.cap" unicode="&#xe80a;" horiz-adv-x="329" 
d="M81 752h226v-97h-108v-638h108v-97h-226v832z" />
    <glyph glyph-name="bracketright.cap" unicode="&#xe80b;" horiz-adv-x="329" 
d="M247 -80h-225v97h107v638h-107v97h225v-832z" />
    <glyph glyph-name="braceleft.cap" unicode="&#xe80c;" horiz-adv-x="329" 
d="M6 385h13q42 0 60 18t18 60v118q0 91 41.5 131t134.5 40h34v-97h-13q-42 0 -60.5 -18.5t-18.5 -60.5v-123q0 -95 -72 -117q72 -22 72 -117v-123q0 -43 18.5 -61t60.5 -18h13v-97h-34q-93 0 -134.5 40t-41.5 131v118q0 42 -18 60t-60 18h-13v98z" />
    <glyph glyph-name="braceright.cap" unicode="&#xe80d;" horiz-adv-x="329" 
d="M323 287h-13q-42 0 -60.5 -18t-18.5 -60v-118q0 -91 -41 -131t-135 -40h-33v97h13q42 0 60 18.5t18 60.5v123q0 95 73 117q-73 22 -73 117v123q0 43 -18 61t-60 18h-13v97h33q94 0 135 -40t41 -131v-118q0 -42 18.5 -60t60.5 -18h13v-98z" />
    <glyph glyph-name="guilsinglleft.cap" unicode="&#xe80e;" horiz-adv-x="297" 
d="M148 338l126 -199h-118l-139 199l139 199h118z" />
    <glyph glyph-name="guilsinglright.cap" unicode="&#xe80f;" horiz-adv-x="297" 
d="M149 338l-126 199h118l138 -199l-138 -199h-118z" />
    <glyph glyph-name="guillemotleft.cap" unicode="&#xe810;" horiz-adv-x="550" 
d="M148 338l126 -199h-118l-139 199l139 199h118zM401 338l126 -199h-118l-139 199l139 199h118z" />
    <glyph glyph-name="guillemotright.cap" unicode="&#xe811;" horiz-adv-x="550" 
d="M149 338l-126 199h118l138 -199l-138 -199h-118zM402 338l-126 199h118l138 -199l-138 -199h-118z" />
    <glyph glyph-name="exclamdown.cap" unicode="&#xe812;" horiz-adv-x="265" 
d="M197 0h-129l6 460h117zM210 607q0 -40 -18 -57.5t-60 -17.5t-60 17.5t-18 57.5q0 41 18 58.5t60 17.5t60 -17.5t18 -58.5z" />
    <glyph glyph-name="questiondown.cap" unicode="&#xe813;" horiz-adv-x="452" 
d="M320 460v-18q0 -43 -12 -72.5t-29.5 -51.5t-38 -38t-38 -31.5t-29.5 -32.5t-12 -41q0 -47 26 -67t86 -20q36 0 74.5 7t80.5 21v-101q-81 -27 -170 -27q-121 0 -174 41.5t-53 135.5q0 42 13.5 72t33.5 52t43.5 39.5t43.5 35.5t33.5 38.5t13.5 49.5v8h108zM344 607
q0 -40 -18 -57.5t-60 -17.5t-60 17.5t-18 57.5q0 41 18 58.5t60 17.5t60 -17.5t18 -58.5z" />
    <glyph glyph-name="at.cap" unicode="&#xe814;" horiz-adv-x="991" 
d="M47 336q0 119 26.5 204t82.5 139.5t143 80t209 25.5q115 0 197.5 -22.5t135.5 -70.5t78 -123t25 -180q0 -142 -49 -207.5t-159 -65.5q-42 0 -74 14t-50 40q-53 -54 -153 -54q-99 0 -143 52t-44 168t44 168t143 52q92 0 137 -48l8 36h100v-279q0 -54 52 -54q42 0 60 40
t18 128q0 82 -19 141t-59 97t-102.5 55.5t-150.5 17.5q-92 0 -157.5 -20t-107.5 -63t-61.5 -110t-19.5 -161t21 -161t66 -110t115.5 -63t169.5 -20q72 0 141 11t137 33v-98q-67 -21 -137.5 -31t-145.5 -10q-126 0 -216.5 25.5t-148.5 80t-85 139.5t-27 204zM397 336
q0 -64 22 -92t73 -28q48 0 68.5 21.5t20.5 71.5v54q0 50 -20.5 71.5t-68.5 21.5q-51 0 -73 -28t-22 -92z" />
    <glyph glyph-name="bullet.cap" unicode="&#xe815;" horiz-adv-x="480" 
d="M96 336q0 30 11 56t30.5 45.5t46 31t56.5 11.5t56 -11.5t45.5 -31t31 -45.5t11.5 -56t-11.5 -56.5t-31 -46t-45.5 -30.5t-56 -11t-56.5 11t-46 30.5t-30.5 46t-11 56.5z" />
    <glyph glyph-name="grave.cap" unicode="&#xe840;" horiz-adv-x="240" 
d="M-61 880h133l123 -148h-112z" />
    <glyph glyph-name="acute.cap" unicode="&#xe841;" horiz-adv-x="240" 
d="M157 732h-112l123 148h133z" />
    <glyph glyph-name="circumflex.cap" unicode="&#xe842;" horiz-adv-x="240" 
d="M58 880h124l123 -148h-109l-76 81l-76 -81h-109z" />
    <glyph glyph-name="caron.cap" unicode="&#xe843;" horiz-adv-x="240" 
d="M182 732h-124l-123 148h109l76 -81l76 81h109z" />
    <glyph glyph-name="tilde.cap" unicode="&#xe844;" horiz-adv-x="240" 
d="M-49 751q0 63 24 90.5t80 27.5q21 0 37 -6.5t29 -14t24.5 -14t22.5 -6.5q17 0 24 9t7 32v5h90v-13q0 -63 -24 -90.5t-80 -27.5q-21 0 -37 6.5t-29 14t-24.5 14t-22.5 6.5q-17 0 -24 -9t-7 -32v-6h-90v14z" />
    <glyph glyph-name="dieresis.cap" unicode="&#xe845;" horiz-adv-x="240" 
d="M155 806q0 38 17.5 54.5t55.5 16.5q39 0 56.5 -16.5t17.5 -54.5t-17.5 -54.5t-56.5 -16.5q-38 0 -55.5 16.5t-17.5 54.5zM-62 806q0 38 17.5 54.5t56.5 16.5q38 0 55.5 -16.5t17.5 -54.5t-17.5 -54.5t-55.5 -16.5q-39 0 -56.5 16.5t-17.5 54.5z" />
    <glyph glyph-name="macron.cap" unicode="&#xe846;" horiz-adv-x="240" 
d="M-41 849h322v-87h-322v87z" />
    <glyph glyph-name="breve.cap" unicode="&#xe847;" horiz-adv-x="240" 
d="M42 880q0 -39 18 -56.5t60 -17.5t60 17.5t18 56.5h90q0 -85 -40 -122t-128 -37t-128 37t-40 122h90z" />
    <glyph glyph-name="ring.cap" unicode="&#xe848;" horiz-adv-x="240" 
d="M3 806q0 54 27.5 78t89.5 24t89.5 -24t27.5 -78t-27.5 -78t-89.5 -24t-89.5 24t-27.5 78zM72 806q0 -26 11 -37t37 -11q25 0 36.5 11t11.5 37t-11 36.5t-37 10.5t-37 -10.5t-11 -36.5z" />
    <glyph glyph-name="hungarumlaut.cap" unicode="&#xe849;" horiz-adv-x="240" 
d="M268 732h-115l123 148h133zM52 732h-115l122 148h134z" />
    <glyph glyph-name="dotaccent.cap" unicode="&#xe84a;" horiz-adv-x="240" 
d="M47 806q0 38 17 54.5t56 16.5t56 -16.5t17 -54.5t-17 -54.5t-56 -16.5t-56 16.5t-17 54.5z" />
    <glyph glyph-name="arrowleft.cap" unicode="&#xe880;" horiz-adv-x="864" 
d="M248 277l221 -217h-169l-277 276l277 276h169l-221 -217h572v-118h-572z" />
    <glyph glyph-name="arrowup.cap" unicode="&#xe881;" horiz-adv-x="864" 
d="M373 520l-217 -221v169l276 277l276 -277v-169l-217 221v-572h-118v572z" />
    <glyph glyph-name="arrowright.cap" unicode="&#xe882;" horiz-adv-x="864" 
d="M616 395l-221 217h169l277 -276l-277 -276h-169l221 217h-572v118h572z" />
    <glyph glyph-name="arrowdown.cap" unicode="&#xe883;" horiz-adv-x="864" 
d="M491 152l217 221v-169l-276 -277l-276 277v169l217 -221v572h118v-572z" />
    <glyph glyph-name="uni2196.cap" unicode="&#xe884;" horiz-adv-x="864" 
d="M261 424l1 -309l-119 119v391h391l119 -119l-309 1l404 -404l-83 -83z" />
    <glyph glyph-name="uni2197.cap" unicode="&#xe885;" horiz-adv-x="864" 
d="M520 507l-309 -2l119 120h391v-391l-120 -119l2 309l-404 -404l-83 83z" />
    <glyph glyph-name="uni2198.cap" unicode="&#xe886;" horiz-adv-x="864" 
d="M603 248l-1 309l119 -119v-391h-391l-119 119l309 -1l-404 404l83 83z" />
    <glyph glyph-name="uni2199.cap" unicode="&#xe887;" horiz-adv-x="864" 
d="M344 165l309 1l-119 -119h-391v391l119 119l-1 -309l404 404l83 -83z" />
    <glyph glyph-name="commaaccent.alt" unicode="&#xea01;" horiz-adv-x="240" 
d="M116 746h88l-50 -196h-109z" />
    <glyph glyph-name="caron.alt" unicode="&#xea02;" horiz-adv-x="240" 
d="M143 550h-88l50 196h109z" />
    <glyph glyph-name="ringacute" unicode="&#xea03;" horiz-adv-x="240" 
d="M191 719q46 -22 46 -89q0 -54 -27.5 -78t-89.5 -24t-89.5 24t-27.5 78q0 45 18.5 68.5t60.5 30.5l86 103h133zM72 630q0 -26 11 -37t37 -11q25 0 36.5 11t11.5 37t-11 36.5t-37 10.5t-37 -10.5t-11 -36.5z" />
    <glyph glyph-name="registered.alt" unicode="&#xec00;" horiz-adv-x="528" 
d="M34 464q0 118 54 171t176 53t176 -53t54 -171q0 -59 -13 -101.5t-41 -69.5t-71.5 -40t-104.5 -13t-104.5 13t-71.5 40t-41 69.5t-13 101.5zM84 464q0 -98 42 -140.5t138 -42.5t138 42.5t42 140.5q0 97 -42 140t-138 43t-138 -43t-42 -140zM173 584h106q48 0 69 -18
t21 -58q0 -60 -52 -70l58 -94h-57l-51 89h-45v-89h-49v240zM222 472h53q23 0 33 8t10 28t-10 28.5t-33 8.5h-53v-73z" />
    <glyph glyph-name="commaaccent" unicode="&#xf6c3;" horiz-adv-x="240" 
d="M124 -256h-88l50 196h109z" />
    <glyph glyph-name="apple" unicode="&#xf8ff;" horiz-adv-x="591" 
d="M230 202v65h196v66h-196v195h261v-65h-196v-65h196v-196h-261zM165 594v-529h73v-65h-138v659h391v-65h-326z" />
    <glyph glyph-name="idotaccent" horiz-adv-x="261" 
d="M60 630q0 38 18 55.5t58 17.5q41 0 58.5 -17.5t17.5 -55.5q0 -39 -17.5 -56.5t-58.5 -17.5q-40 0 -58 17.5t-18 56.5zM72 395q0 11 -2 14.5t-12 7.5l-35 14l12 59h156q9 0 9 -10v-480h-128v395z" />
    <glyph glyph-name="uni0431.locl" horiz-adv-x="553" 
d="M28 210q0 143 146 226q-45 29 -63.5 57.5t-18.5 68.5q0 67 47.5 101t152.5 41q57 4 104 9t84 12l-20 -105q-30 -5 -64 -8t-72 -5q-61 -4 -85.5 -16.5t-24.5 -38.5q0 -11 6 -20t21 -19t39 -21.5t60 -27.5q98 -42 141.5 -101.5t43.5 -152.5q0 -118 -58.5 -170t-190.5 -52
q-66 0 -113 12.5t-77 39.5t-44 69t-14 101zM153 215q0 -68 28.5 -97.5t94.5 -29.5t95 29.5t29 97.5q0 57 -29 95.5t-95 72.5q-66 -33 -94.5 -72.5t-28.5 -95.5z" />
    <glyph glyph-name="uni0433.locl" horiz-adv-x="479" 
d="M439 350q0 -50 -20 -78.5t-50.5 -43.5t-66 -21t-66 -12.5t-50.5 -17.5t-20 -36q0 -57 91 -57q44 0 87 7t86 20v-99q-83 -24 -183 -24q-111 0 -161 37.5t-50 118.5q0 51 20 80t50.5 44.5t65.5 21.5t65.5 12t50.5 16.5t20 34.5q0 26 -21 39.5t-66 13.5q-30 0 -66 -4.5
t-71 -13.5l-19 94q80 20 166 20q109 0 158.5 -36.5t49.5 -115.5z" />
    <glyph glyph-name="uni0434.locl" horiz-adv-x="584" 
d="M399 37q-49 -49 -148 -49q-57 0 -98 14.5t-67 45.5t-38.5 80t-12.5 117q0 136 51 196.5t165 60.5q113 0 168 -59l10 47h97v-487q0 -63 -16.5 -105.5t-48.5 -68.5t-79 -37.5t-108 -11.5q-29 0 -55.5 2t-40.5 4v98q20 -3 43 -4.5t43 -1.5q72 0 103.5 26t31.5 81v52zM284 88
q61 0 87.5 28t26.5 93v158q-17 12 -43.5 23.5t-70.5 11.5q-64 0 -91.5 -36.5t-27.5 -120.5t27.5 -120.5t91.5 -36.5z" />
    <glyph glyph-name="uni043F.salt" horiz-adv-x="598" 
d="M343 502q97 0 145.5 -46.5t48.5 -153.5v-207q0 -11 2 -14.5t12 -7.5l35 -14l-12 -59h-156q-9 0 -9 10v287q0 55 -22.5 79t-75.5 24q-38 0 -70.5 -10t-45.5 -18v-372h-128v395q0 11 -2 14.5t-12 7.5l-35 14l12 59h151q9 0 9 -10v-29q33 27 70 39t83 12z" />
    <glyph glyph-name="uni0442.locl" horiz-adv-x="902" 
d="M190 451q33 27 67.5 39t78.5 12q54 0 91.5 -16.5t56.5 -45.5q32 29 72 45.5t95 16.5q102 0 146 -48.5t44 -142.5v-216q0 -11 2 -14.5t12 -7.5l35 -14l-12 -59h-156q-9 0 -9 10v293q0 52 -19 74.5t-70 22.5q-33 0 -62 -9t-50 -23q2 -5 4 -23t2 -43v-302h-128v303
q0 52 -19 74.5t-70 22.5q-36 0 -65 -10t-41 -18v-372h-128v395q0 11 -2 14.5t-12 7.5l-35 14l12 59h151q9 0 9 -10v-29z" />
    </font>
</defs>
</svg>
