<?xml version="1.0" standalone="no"?>
<!DOCTYPE svg PUBLIC "-//W3C//DTD SVG 1.1//EN" "http://www.w3.org/Graphics/SVG/1.1/DTD/svg11.dtd" >
<svg xmlns="http://www.w3.org/2000/svg" xmlns:xlink="http://www.w3.org/1999/xlink" version="1.1">
<metadata>
Created by FontForge 20170731 at Thu Feb  5 19:21:23 2015
 By Aleksey,,,
Copyright (c) 2015 by Fontsmith Ltd. All rights reserved.
</metadata>
<defs>
<font id="RenaultLife-BoldItalic" horiz-adv-x="576" >
  <font-face 
    font-family="Renault Life"
    font-weight="700"
    font-style="italic"
    font-stretch="normal"
    units-per-em="1000"
    panose-1="2 0 8 3 5 0 0 9 0 4"
    ascent="745"
    descent="-255"
    x-height="490"
    cap-height="672"
    bbox="-170 -256 1203 1008"
    underline-thickness="128"
    underline-position="-256"
    slope="-11"
    unicode-range="U+000D-FB04"
  />
<missing-glyph horiz-adv-x="500" 
d="M28 672h476v-672h-476v672zM266 380l162 244h-324zM76 92l162 244l-162 244v-488zM294 336l162 -244v488zM266 292l-162 -244h324z" />
    <glyph glyph-name="f_f" unicode="ff" horiz-adv-x="724" 
d="M230 393l-50 -285q-13 -74 -31.5 -126.5t-46.5 -89.5t-67 -60.5t-92 -39.5l-35 79q34 17 57 36.5t39.5 47.5t27.5 67t21 96l46 257q3 15 1.5 19t-9.5 6l-63 17l28 73h63l10 57q8 46 24 77t41 50t59 27t79 8q32 0 65 -5.5t50 -14.5l-36 -94q-16 6 -33.5 10t-34.5 4
q-41 0 -61.5 -18.5t-26.5 -53.5l-8 -47h232l11 64q8 46 24 77t41 50t59 27t79 8q32 0 65 -5.5t50 -14.5l-36 -94q-16 6 -33.5 10t-34.5 4q-41 0 -61.5 -18.5t-26.5 -53.5l-9 -54h133l-17 -97h-133l-47 -271q-13 -74 -31.5 -126.5t-46.5 -89.5t-67 -60.5t-92 -39.5l-35 79
q34 17 57 36.5t39.5 47.5t27.5 67t21 96l46 261h-232z" />
    <glyph glyph-name="fi" unicode="fi" horiz-adv-x="627" 
d="M180 108q-13 -74 -31.5 -126.5t-46.5 -89.5t-67 -60.5t-92 -39.5l-35 79q34 17 57 36.5t39.5 47.5t27.5 67t21 96l46 257q3 15 1.5 19t-9.5 6l-63 17l28 73h63l11 64q8 46 24 77t41 50t59 27t79 8q32 0 65 -5.5t50 -14.5l-36 -94q-16 6 -33.5 10t-34.5 4
q-41 0 -61.5 -18.5t-26.5 -53.5l-9 -54h346q6 0 10 -1.5t2 -10.5l-85 -478h-128l69 393h-231zM489 614q0 43 22.5 66t64.5 23q65 0 65 -57q0 -44 -22.5 -67t-64.5 -23q-65 0 -65 58z" />
    <glyph glyph-name="fl" unicode="fl" horiz-adv-x="629" 
d="M28 417l28 73h63l4 22q10 54 27.5 88t43.5 57q39 34 95 46.5t119 12.5q25 0 52.5 -2t54.5 -6t51.5 -9t43.5 -11q13 -4 16.5 -9.5t1.5 -19.5l-99 -564q-2 -11 -0.5 -14.5t10.5 -7.5l33 -14l-22 -59h-156q-9 0 -8 10l104 596q-22 5 -45.5 7.5t-45.5 2.5q-31 0 -58.5 -6
t-47.5 -20q-16 -11 -26.5 -29.5t-15.5 -45.5l-4 -25h133l-17 -97h-133l-50 -285q-13 -74 -31.5 -126.5t-46.5 -89.5t-67 -60.5t-92 -39.5l-35 79q34 17 57 36.5t39.5 47.5t27.5 67t21 96l46 257q3 15 1.5 19t-9.5 6z" />
    <glyph glyph-name="f_f_i" unicode="ffi" horiz-adv-x="987" 
d="M543 122q-13 -74 -31.5 -126.5t-46.5 -89.5t-67 -60.5t-92 -39.5l-35 79q34 17 57 36.5t39.5 47.5t27.5 67t21 96l46 261h-232l-50 -285q-13 -74 -31.5 -126.5t-46.5 -89.5t-67 -60.5t-92 -39.5l-35 79q34 17 57 36.5t39.5 47.5t27.5 67t21 96l46 257q3 15 1.5 19t-9.5 6
l-63 17l28 73h63l11 64q8 46 24 77t41 50t59 27t79 8q32 0 65 -5.5t50 -14.5l-36 -94q-16 6 -33.5 10t-34.5 4q-41 0 -61.5 -18.5t-26.5 -53.5l-9 -54h232l11 64q8 46 24 77t41 50t59 27t79 8q32 0 65 -5.5t50 -14.5l-36 -94q-16 6 -33.5 10t-34.5 4q-41 0 -61.5 -18.5
t-26.5 -53.5l-9 -54h346q6 0 10 -1.5t2 -10.5l-85 -478h-128l69 393h-231zM849 614q0 43 22.5 66t64.5 23q65 0 65 -57q0 -44 -22.5 -67t-64.5 -23q-65 0 -65 58z" />
    <glyph glyph-name="f_f_l" unicode="ffl" horiz-adv-x="989" 
d="M28 417l28 73h63l9 50q15 84 61 123q28 24 67 35t88 11q31 0 62 -4.5t63 -17.5l-36 -94q-16 6 -35 11t-43 5q-42 0 -67 -16q-27 -18 -34 -63l-7 -40h232l4 22q10 54 27.5 88t43.5 57q39 34 95 46.5t119 12.5q25 0 52.5 -2t54.5 -6t51.5 -9t43.5 -11q13 -4 16.5 -9.5
t1.5 -19.5l-99 -564q-2 -11 -0.5 -14.5t10.5 -7.5l33 -14l-22 -59h-156q-9 0 -8 10l104 596q-22 5 -45.5 7.5t-45.5 2.5q-31 0 -58.5 -6t-47.5 -20q-16 -11 -26.5 -29.5t-15.5 -45.5l-4 -25h133l-17 -97h-133l-47 -271q-13 -74 -31.5 -126.5t-46.5 -89.5t-67 -60.5
t-92 -39.5l-35 79q34 17 57 36.5t39.5 47.5t27.5 67t21 96l46 261h-232l-50 -285q-13 -74 -31.5 -126.5t-46.5 -89.5t-67 -60.5t-92 -39.5l-35 79q34 17 57 36.5t39.5 47.5t27.5 67t21 96l46 257q3 15 1.5 19t-9.5 6z" />
    <glyph glyph-name="f_t" unicode="ft" horiz-adv-x="754" 
d="M180 108q-13 -74 -31.5 -126.5t-46.5 -89.5t-67 -60.5t-92 -39.5l-35 79q34 17 57 36.5t39.5 47.5t27.5 67t21 96l46 257q3 15 1.5 19t-9.5 6l-63 17l28 73h63l11 64q8 46 24 77t41 50t59 27t79 8q32 0 65 -5.5t50 -14.5l-36 -94q-16 6 -33.5 10t-34.5 4
q-41 0 -61.5 -18.5t-26.5 -53.5l-9 -54h230l25 141h128l-25 -141h153l-17 -97h-154l-37 -211q-3 -17 -3 -33q0 -61 75 -61q32 0 66 7l-18 -100q-19 -3 -38.5 -5t-40.5 -2q-89 0 -131.5 34.5t-42.5 101.5q0 13 1.5 26t3.5 27l37 216h-229z" />
    <glyph glyph-name="t_t" unicode="tt" horiz-adv-x="761" 
d="M467 393h-242l-37 -211q-3 -17 -3 -33q0 -61 75 -61q32 0 66 7l-18 -100q-19 -3 -38.5 -5t-40.5 -2q-89 0 -131.5 34.5t-42.5 101.5q0 13 1.5 26t3.5 27l34 198q3 15 1.5 19t-9.5 6l-62 17l28 73h63l25 141h128l-25 -141h241l25 141h128l-25 -141h153l-17 -97h-154
l-37 -211q-3 -17 -3 -33q0 -61 75 -61q32 0 66 7l-18 -100q-19 -3 -38.5 -5t-40.5 -2q-89 0 -131.5 34.5t-42.5 101.5q0 13 1.5 26t3.5 27z" />
    <glyph glyph-name=".notdef" horiz-adv-x="500" 
d="M28 672h476v-672h-476v672zM266 380l162 244h-324zM76 92l162 244l-162 244v-488zM294 336l162 -244v488zM266 292l-162 -244h324z" />
    <glyph glyph-name=".null" horiz-adv-x="0" 
 />
    <glyph glyph-name=".null" horiz-adv-x="0" 
 />
    <glyph glyph-name="nonmarkingreturn" unicode="&#xd;" horiz-adv-x="224" 
 />
    <glyph glyph-name="space" unicode=" " horiz-adv-x="224" 
 />
    <glyph glyph-name="exclam" unicode="!" horiz-adv-x="265" 
d="M143 672h128l-86 -460h-117zM24 49q0 44 23 67.5t66 23.5q67 0 67 -59q0 -44 -23 -68t-66 -24q-67 0 -67 60z" />
    <glyph glyph-name="quotedbl" unicode="&#x22;" horiz-adv-x="465" 
d="M208 419h-108l45 253h108zM409 419h-108l45 253h108z" />
    <glyph glyph-name="numbersign" unicode="#" horiz-adv-x="660" 
d="M108 159h-103l15 88h115l53 178h-103l15 88h114l48 159h97l-47 -159h173l47 159h98l-48 -159h103l-15 -88h-114l-53 -178h103l-15 -88h-115l-47 -159h-98l48 159h-173l-48 -159h-97zM232 247h173l53 178h-173z" />
    <glyph glyph-name="dollar" unicode="$" 
d="M189 23q-42 4 -82 12.5t-77 21.5l18 104q50 -19 99.5 -29t103.5 -10q62 0 95 22.5t33 68.5q0 31 -21 45.5t-52.5 23.5t-68.5 17t-68.5 24.5t-52.5 46.5t-21 83q0 84 52 135t152 62l30 166h118l-30 -168q73 -8 137 -27l-19 -104q-45 14 -89 23.5t-92 9.5q-60 0 -92 -22
t-32 -65q0 -30 21 -43.5t53 -22t68.5 -16t68.5 -24.5t53 -48t21 -86q0 -87 -52.5 -139t-155.5 -62l-29 -166h-118z" />
    <glyph glyph-name="percent" unicode="%" horiz-adv-x="864" 
d="M466 113q0 111 53 173t148 62q81 0 116.5 -29.5t35.5 -95.5q0 -111 -53 -173t-147 -62q-81 0 -117 29.5t-36 95.5zM559 125q0 -33 15.5 -48t50.5 -15q48 0 75 40.5t27 110.5q0 33 -16 47.5t-51 14.5q-48 0 -74.5 -40.5t-26.5 -109.5zM613 672h84l-414 -672h-85zM76 449
q0 111 53 173t148 62q81 0 116.5 -29.5t35.5 -95.5q0 -111 -53 -173t-147 -62q-81 0 -117 29.5t-36 95.5zM169 461q0 -33 15.5 -48t50.5 -15q48 0 75 40.5t27 110.5q0 33 -16 47.5t-51 14.5q-48 0 -74.5 -40.5t-26.5 -109.5z" />
    <glyph glyph-name="ampersand" unicode="&#x26;" horiz-adv-x="671" 
d="M443 56q-41 -35 -92.5 -51.5t-109.5 -16.5q-106 0 -159.5 44t-53.5 130q0 75 42 126t134 91q-54 66 -54 132q0 79 56.5 126t153.5 47q89 0 133 -34.5t44 -100.5q0 -70 -41 -118.5t-132 -86.5l98 -124q31 46 39 110h115q-20 -123 -87 -201l95 -129h-135zM148 177
q0 -45 28.5 -68.5t82.5 -23.5q71 0 126 55l-130 168q-57 -25 -82 -55.5t-25 -75.5zM353 589q-41 0 -63 -21.5t-22 -58.5q0 -41 42 -89q57 21 83.5 47t26.5 64q0 58 -67 58z" />
    <glyph glyph-name="quotesingle" unicode="'" horiz-adv-x="249" 
d="M208 419h-108l45 253h108z" />
    <glyph glyph-name="parenleft" unicode="(" horiz-adv-x="329" 
d="M63 192q0 147 50.5 279t147.5 233h136q-106 -100 -160 -228t-54 -274q0 -88 17 -171.5t52 -158.5h-119q-35 66 -52.5 147.5t-17.5 172.5z" />
    <glyph glyph-name="parenright" unicode=")" horiz-adv-x="329" 
d="M280 384q0 -147 -51 -279t-148 -233h-136q106 100 160 228t54 274q0 88 -17 171.5t-52 158.5h119q35 -66 53 -147.5t18 -172.5z" />
    <glyph glyph-name="asterisk" unicode="*" horiz-adv-x="489" 
d="M343 426l43 -135l-83 -27l-44 135l-115 -83l-51 71l115 83l-115 83l51 71l115 -83l44 135l83 -27l-43 -136h142v-87h-142z" />
    <glyph glyph-name="plus" unicode="+" 
d="M77 342h164v164h108v-164h164v-108h-164v-164h-108v164h-164v108z" />
    <glyph glyph-name="comma" unicode="," horiz-adv-x="249" 
d="M55 -144h-106l97 253h133z" />
    <glyph glyph-name="hyphen" unicode="-" horiz-adv-x="320" 
d="M31 298h276l-17 -98h-276z" />
    <glyph glyph-name="period" unicode="." horiz-adv-x="249" 
d="M14 50q0 45 23.5 69t67.5 24q67 0 67 -61q0 -45 -23 -69t-67 -24q-68 0 -68 61z" />
    <glyph glyph-name="slash" unicode="/" horiz-adv-x="384" 
d="M355 704h122l-434 -832h-121z" />
    <glyph glyph-name="zero" unicode="0" 
d="M37 202q0 104 21 192.5t61.5 153t99.5 100.5t134 36q114 0 165.5 -51t51.5 -163q0 -104 -21.5 -192.5t-62 -153t-99 -100.5t-133.5 -36q-113 0 -165 51t-52 163zM160 212q0 -63 24.5 -91t78.5 -28q39 0 73 27.5t58.5 76.5t38.5 116.5t14 146.5q0 63 -24 91t-78 28
q-40 0 -74 -27.5t-58.5 -76.5t-38.5 -116.5t-14 -146.5z" />
    <glyph glyph-name="one" unicode="1" 
d="M335 555l-188 -70l19 107l215 80h102l-118 -672h-128z" />
    <glyph glyph-name="two" unicode="2" 
d="M22 95l288 233q55 45 80.5 83.5t25.5 78.5q0 89 -122 89q-77 0 -173 -24l18 104q48 14 94.5 19.5t95.5 5.5q112 0 165 -38.5t53 -119.5q0 -140 -134 -249l-214 -175h281l-18 -102h-457z" />
    <glyph glyph-name="three" unicode="3" 
d="M537 577l-196 -186q82 -9 123 -48t41 -104q0 -251 -313 -251q-49 0 -95 8t-88 23l17 101q88 -32 166 -32q94 0 138.5 33t44.5 103q0 42 -36.5 62t-116.5 20h-40l15 82l196 187h-279l17 97h422z" />
    <glyph glyph-name="four" unicode="4" 
d="M331 140h-329l17 98l387 434h137l-77 -435h87l-17 -97h-87l-24 -140h-118zM348 237l52 296l-264 -296h212z" />
    <glyph glyph-name="five" unicode="5" 
d="M547 575h-290l-30 -170q14 1 28.5 1.5t28.5 0.5q115 0 173.5 -42t58.5 -123q0 -254 -310 -254q-51 0 -96 8.5t-87 22.5l17 101q42 -15 83.5 -23.5t82.5 -8.5q93 0 136.5 33.5t43.5 105.5q0 87 -163 87q-31 0 -63 -1t-67 -4l63 363h408z" />
    <glyph glyph-name="six" unicode="6" 
d="M47 192q0 116 25 207.5t72.5 154.5t115 96.5t152.5 33.5q45 0 86.5 -7t81.5 -20l-17 -99q-38 12 -77 19t-79 7q-85 0 -142.5 -52t-75.5 -151q30 30 69 44t89 14q94 0 145 -44.5t51 -123.5q0 -134 -72 -208.5t-203 -74.5q-111 0 -166 52t-55 152zM166 196q0 -50 27.5 -79
t83.5 -29q66 0 105 41.5t39 116.5q0 95 -106 95q-71 0 -110 -38t-39 -107z" />
    <glyph glyph-name="seven" unicode="7" 
d="M579 574l-352 -574h-139l352 570h-331l17 102h470z" />
    <glyph glyph-name="eight" unicode="8" 
d="M314 393q135 21 135 118q0 39 -25.5 57.5t-81.5 18.5q-60 0 -93 -28.5t-33 -78.5q0 -36 22.5 -57.5t75.5 -29.5zM20 151q0 78 42 127.5t123 69.5q-45 14 -68.5 45.5t-23.5 79.5q0 102 67 156.5t193 54.5q113 0 165.5 -37.5t52.5 -117.5q0 -72 -37.5 -120t-109.5 -69
q107 -32 107 -133q0 -108 -70 -163.5t-207 -55.5q-122 0 -178 38.5t-56 124.5zM295 295q-150 -19 -150 -126q0 -84 120 -84q67 0 103.5 30.5t36.5 84.5q0 39 -24 62.5t-86 32.5z" />
    <glyph glyph-name="nine" unicode="9" 
d="M560 480q0 -116 -25 -207.5t-72 -154.5t-114.5 -96.5t-152.5 -33.5q-45 0 -87.5 7t-81.5 20l17 99q37 -12 76.5 -19t80.5 -7q85 0 142 52t76 151q-58 -58 -158 -58q-95 0 -146 44.5t-51 123.5q0 134 72.5 208.5t203.5 74.5q110 0 165 -52t55 -152zM442 476q0 50 -27.5 79
t-83.5 29q-66 0 -105 -41.5t-39 -116.5q0 -95 106 -95q71 0 110 38t39 107z" />
    <glyph glyph-name="colon" unicode=":" horiz-adv-x="265" 
d="M22 50q0 45 23.5 69t67.5 24q67 0 67 -61q0 -45 -23 -69t-67 -24q-68 0 -68 61zM84 408q0 45 23.5 69t67.5 24q67 0 67 -61q0 -45 -23 -69t-67 -24q-68 0 -68 61z" />
    <glyph glyph-name="semicolon" unicode=";" horiz-adv-x="265" 
d="M63 -144h-106l97 253h133zM84 408q0 45 23.5 69t67.5 24q67 0 67 -61q0 -45 -23 -69t-67 -24q-68 0 -68 61z" />
    <glyph glyph-name="less" unicode="&#x3c;" 
d="M77 228v120l436 173v-114l-308 -119l308 -119v-114z" />
    <glyph glyph-name="equal" unicode="=" 
d="M77 233h436v-107h-436v107zM77 450h436v-107h-436v107z" />
    <glyph glyph-name="greater" unicode="&#x3e;" 
d="M513 348v-120l-436 -173v114l307 119l-307 119v114z" />
    <glyph glyph-name="question" unicode="?" horiz-adv-x="452" 
d="M130 236q6 47 24 78t41 53t48.5 37.5t46.5 31t34.5 34t13.5 46.5q0 35 -24.5 51.5t-77.5 16.5q-35 0 -73.5 -6t-82.5 -17l17 100q41 12 81.5 17.5t82.5 5.5q107 0 157 -36t50 -111q0 -50 -15.5 -84.5t-39.5 -58.5t-53 -41.5t-54.5 -35t-44.5 -38t-24 -50.5l-3 -17h-108z
M78 49q0 44 23 67.5t66 23.5q67 0 67 -59q0 -44 -23 -68t-66 -24q-67 0 -67 60z" />
    <glyph glyph-name="at" unicode="@" horiz-adv-x="975" 
d="M39 130q0 131 34.5 235.5t101 177.5t163.5 112t221 39q187 0 284.5 -78.5t97.5 -225.5q0 -82 -17.5 -149.5t-50.5 -115.5t-80.5 -74t-107.5 -26q-38 0 -66.5 14t-45.5 40q-57 -54 -148 -54q-78 0 -119 39.5t-41 112.5q0 67 14.5 120t42 90.5t66.5 57.5t88 20
q42 0 75.5 -13.5t53.5 -38.5l18 40h100l-47 -266q-3 -14 -3 -26q0 -41 40 -41q26 0 48 18.5t38.5 52t25.5 79t9 99.5q0 113 -70 171.5t-213 58.5q-97 0 -172 -31t-126 -89.5t-77.5 -142.5t-26.5 -191q0 -128 76 -191t240 -63q69 0 137.5 12.5t134.5 34.5l-18 -99
q-60 -22 -126 -32.5t-135 -10.5q-419 0 -419 334zM390 200q0 -38 18.5 -56.5t53.5 -18.5q79 0 95 83l9 58q2 11 3 21t1 19q0 26 -19.5 42.5t-51.5 16.5q-48 0 -78.5 -44.5t-30.5 -120.5z" />
    <glyph glyph-name="A" unicode="A" horiz-adv-x="659" 
d="M473 672q14 -36 28 -86.5t28 -109.5t26.5 -123t23 -127t18 -121t11.5 -105h-132q-4 41 -8.5 80t-9.5 77h-296q-19 -38 -37 -77t-37 -80h-133q20 47 48.5 105t61 121t67.5 127t69.5 123t67 109.5t58.5 86.5h146zM380 555q-45 -73 -86.5 -147.5t-82.5 -152.5h232
q-13 78 -28.5 152.5t-34.5 147.5z" />
    <glyph glyph-name="B" unicode="B" horiz-adv-x="652" 
d="M131 578q2 11 0 14.5t-11 7.5l-33 14l21 58h338q188 0 188 -138q0 -69 -26.5 -118t-81.5 -72q79 -25 79 -123q0 -109 -61 -165t-178 -56h-336zM175 97h174q125 0 125 124q0 38 -24 56t-76 18h-165zM226 389h162q118 0 118 117q0 35 -22.5 52t-70.5 17h-154z" />
    <glyph glyph-name="C" unicode="C" horiz-adv-x="604" 
d="M47 233q0 111 27 195.5t76.5 141t120.5 85.5t160 29q65 0 115.5 -10t91.5 -27l-37 -103q-29 11 -73.5 23t-92.5 12q-120 0 -186 -83.5t-66 -239.5q0 -163 180 -163q48 0 92 6t90 17l-19 -107q-45 -11 -93.5 -16t-97.5 -5q-143 0 -215.5 62t-72.5 183z" />
    <glyph glyph-name="D" unicode="D" horiz-adv-x="708" 
d="M131 578q2 11 0 14.5t-11 7.5l-33 14l21 58h274q160 0 235 -60.5t75 -188.5q0 -102 -26.5 -180.5t-77 -132.5t-124 -82t-168.5 -28h-266zM180 102h121q124 0 189.5 81t65.5 230q0 81 -46 119t-148 38h-99z" />
    <glyph glyph-name="E" unicode="E" horiz-adv-x="593" 
d="M624 672l-17 -102h-343l-32 -179h271l-18 -98h-270l-34 -191h351l-18 -102h-484l101 578q2 11 0 14.5t-11 7.5l-33 14l21 58h516z" />
    <glyph glyph-name="F" unicode="F" horiz-adv-x="577" 
d="M624 672l-18 -102h-343l-37 -206h272l-18 -100h-271l-46 -264h-133l101 578q2 11 0 14.5t-11 7.5l-33 14l21 58h516z" />
    <glyph glyph-name="G" unicode="G" horiz-adv-x="671" 
d="M370 369h272l-63 -358q-58 -11 -116 -17t-120 -6q-145 0 -220.5 63.5t-75.5 184.5q0 110 28 194t79.5 140.5t126 85t167.5 28.5q29 0 60.5 -3t61 -8t54.5 -11.5t42 -14.5l-37 -102q-32 14 -81 25.5t-97 11.5q-133 0 -203 -83t-70 -240q0 -85 45.5 -127t142.5 -42
q25 0 53 3.5t55 8.5l31 174h-151z" />
    <glyph glyph-name="H" unicode="H" horiz-adv-x="732" 
d="M233 394h323l49 278h133l-118 -672h-133l51 291h-323l-52 -291h-133l101 578q2 11 0 14.5t-11 7.5l-33 14l21 58h159q6 0 10 -1.5t2 -10.5z" />
    <glyph glyph-name="I" unicode="I" horiz-adv-x="275" 
d="M163 0h-133l101 578q2 11 0 14.5t-11 7.5l-33 14l21 58h159q6 0 10 -1.5t2 -10.5z" />
    <glyph glyph-name="J" unicode="J" horiz-adv-x="457" 
d="M376 182q-17 -102 -75 -148t-168 -46q-40 0 -77 4.5t-72 12.5l19 104q30 -8 58.5 -12t55.5 -4q60 0 90 25t40 84l83 470h133z" />
    <glyph glyph-name="K" unicode="K" horiz-adv-x="624" 
d="M225 382l317 290h151l-334 -310l218 -362h-137l-170 284l-74 -67l-38 -217h-128l101 578q2 11 0 14.5t-11 7.5l-33 14l21 58h154q6 0 10 -1.5t2 -10.5z" />
    <glyph glyph-name="L" unicode="L" horiz-adv-x="524" 
d="M488 102l-19 -102h-439l101 578q2 11 0 14.5t-11 7.5l-33 14l21 58h159q6 0 10 -1.5t2 -10.5l-98 -558h307z" />
    <glyph glyph-name="M" unicode="M" horiz-adv-x="820" 
d="M417 308l274 364h135l-118 -672h-123l84 479l-225 -296h-51q-13 0 -20.5 0.5t-11.5 3t-7 8t-7 15.5l-110 270l-84 -480h-123l101 578q2 11 0 14.5t-11 7.5l-33 14l21 58h142q16 0 20.5 -4t10.5 -19z" />
    <glyph glyph-name="N" unicode="N" horiz-adv-x="732" 
d="M131 578q2 11 0 14.5t-11 7.5l-33 14l21 58h151q15 0 19 -3t13 -20l238 -467l86 490h123l-118 -672h-131l-249 490l-87 -490h-123z" />
    <glyph glyph-name="O" unicode="O" horiz-adv-x="727" 
d="M47 233q0 106 25.5 190t74 142t118 88.5t158.5 30.5q143 0 215.5 -62t72.5 -183q0 -107 -25.5 -190.5t-74 -141.5t-118.5 -88.5t-158 -30.5q-143 0 -215.5 62t-72.5 183zM183 248q0 -155 160 -155q54 0 97 22.5t73 65.5t46 104t16 139q0 155 -160 155q-54 0 -97 -22.5
t-73 -65.5t-46 -104t-16 -139z" />
    <glyph glyph-name="P" unicode="P" horiz-adv-x="636" 
d="M131 578q2 11 0 14.5t-11 7.5l-33 14l21 58h309q120 0 174.5 -39.5t54.5 -124.5q0 -133 -73.5 -202t-213.5 -69h-159l-42 -237h-128zM218 340h146q151 0 151 146q0 43 -28 63.5t-90 20.5h-139z" />
    <glyph glyph-name="Q" unicode="Q" horiz-adv-x="727" 
d="M411 -6q-36 -6 -76 -6q-143 0 -215.5 62t-72.5 183q0 107 25.5 191t73.5 141.5t118 88t159 30.5q143 0 215.5 -62t72.5 -183q0 -154 -50.5 -258t-145.5 -153l64 -146h-119zM178 246q0 -158 165 -158h13t13 1l-44 101h119l26 -61q52 39 81 113t29 179q0 158 -165 158
q-54 0 -98 -22.5t-75 -65.5t-47.5 -105t-16.5 -140z" />
    <glyph glyph-name="R" unicode="R" horiz-adv-x="652" 
d="M220 353h152q143 0 143 140q0 79 -110 79h-147zM425 672q113 0 167 -39.5t54 -121.5q0 -103 -47.5 -164.5t-137.5 -78.5l116 -268h-129l-108 253h-138l-44 -253h-128l101 578q2 11 0 14.5t-11 7.5l-33 14l21 58h317z" />
    <glyph glyph-name="S" unicode="S" horiz-adv-x="588" 
d="M546 546q-36 14 -81.5 25t-98.5 11q-70 0 -111 -22.5t-41 -75.5q0 -33 24 -50.5t60 -29t78.5 -22.5t78.5 -30.5t60 -53.5t24 -91q0 -52 -19 -93t-55 -69t-87.5 -42.5t-115.5 -14.5q-66 0 -129.5 10t-120.5 29l19 103q108 -40 224 -40q72 0 113.5 27t41.5 81
q0 35 -24 53.5t-60 30.5t-78 22t-78 29t-60 52t-24 90q0 51 20.5 90t56.5 65.5t86 40t109 13.5q37 0 72 -4t65 -9.5t52.5 -12.5t34.5 -13l-36 -99v0z" />
    <glyph glyph-name="T" unicode="T" horiz-adv-x="599" 
d="M289 570h-214l19 102h560l-18 -102h-214l-99 -570h-134z" />
    <glyph glyph-name="U" unicode="U" horiz-adv-x="732" 
d="M211 271q-3 -16 -5 -32.5t-2 -32.5q0 -52 37 -82.5t100 -30.5q85 0 130.5 37.5t59.5 118.5l74 423h133l-76 -433q-11 -66 -36 -113t-66 -78t-98.5 -45.5t-133.5 -14.5q-60 0 -107.5 13.5t-81.5 39t-52 61.5t-18 81q0 21 2.5 43.5t6.5 44.5l53 307q2 11 0 14.5t-11 7.5
l-33 14l21 58h159q6 0 10 -1.5t2 -10.5z" />
    <glyph glyph-name="V" unicode="V" horiz-adv-x="657" 
d="M215 0q-14 36 -28 86.5t-28 109.5t-26.5 123t-23 127t-18 121t-11.5 105h132q16 -157 39 -292t57 -262q79 127 150 262t142 292h134q-21 -47 -49 -105t-61 -121t-68 -127t-69.5 -123t-67 -109.5t-58.5 -86.5h-146z" />
    <glyph glyph-name="W" unicode="W" horiz-adv-x="1010" 
d="M594 0q-49 226 -63 469q-42 -121 -98.5 -237t-120.5 -232h-151q-15 66 -29 153t-25.5 178.5t-19 180.5t-10.5 160h128q7 -137 19.5 -273t35.5 -275h1q66 129 125.5 262.5t116.5 271.5h127q6 -127 19 -263t35 -271h1q63 118 123 252t126 296h130q-27 -71 -66.5 -160
t-83.5 -180.5t-89 -178.5t-83 -153h-148v0z" />
    <glyph glyph-name="X" unicode="X" horiz-adv-x="657" 
d="M260 353l-161 319h138l119 -247l202 247h154l-286 -341l167 -331h-139l-123 259l-211 -259h-156z" />
    <glyph glyph-name="Y" unicode="Y" horiz-adv-x="609" 
d="M243 279l-169 393h140l110 -281l207 281h154l-311 -404l-46 -268h-133z" />
    <glyph glyph-name="Z" unicode="Z" horiz-adv-x="620" 
d="M9 97l453 473h-362l18 102h533l-17 -97l-452 -473h378l-19 -102h-549z" />
    <glyph glyph-name="bracketleft" unicode="[" horiz-adv-x="329" 
d="M162 704h226l-17 -97h-108l-112 -638h108l-17 -97h-226z" />
    <glyph glyph-name="backslash" unicode="\" horiz-adv-x="384" 
d="M75 704h107l141 -832h-108z" />
    <glyph glyph-name="bracketright" unicode="]" horiz-adv-x="329" 
d="M182 -128h-225l17 97h107l112 638h-107l17 97h225z" />
    <glyph glyph-name="asciicircum" unicode="^" 
d="M250 672h130l194 -436h-124l-135 307l-135 -307h-124z" />
    <glyph glyph-name="underscore" unicode="_" horiz-adv-x="480" 
d="M-57 -79h480l-18 -98h-480z" />
    <glyph glyph-name="grave" unicode="`" horiz-adv-x="240" 
d="M25 704h125l97 -148h-104z" />
    <glyph glyph-name="a" unicode="a" horiz-adv-x="581" 
d="M158 183q0 -48 23.5 -71.5t67.5 -23.5q102 0 122 110l30 168q-13 11 -37.5 23.5t-65.5 12.5q-66 0 -103 -59.5t-37 -159.5zM370 60q-69 -72 -162 -72q-88 0 -134 45t-46 129q0 78 17 141t49 107t77 68t101 24q49 0 90 -16t66 -45l20 49h103l-70 -395q-2 -11 -0.5 -14.5
t10.5 -7.5l33 -14l-22 -59h-124q-5 0 -6.5 1.5t-1.5 8.5v50z" />
    <glyph glyph-name="b" unicode="b" horiz-adv-x="570" 
d="M412 308q0 47 -23.5 70.5t-67.5 23.5q-105 0 -123 -110l-29 -169q17 -12 44 -23.5t59 -11.5t58 15.5t44 44t28 69.5t10 91zM226 452q25 24 59.5 37t75.5 13q88 0 134.5 -44.5t46.5 -129.5q0 -78 -17 -141t-49 -107t-77.5 -68t-101.5 -24q-50 0 -92 17.5t-63 52.5l-20 -58
h-103l107 609q2 11 0.5 14.5t-10.5 7.5l-33 14l23 59h151q6 0 10 -1.5t2 -10.5z" />
    <glyph glyph-name="c" unicode="c" horiz-adv-x="467" 
d="M28 170q0 82 21 144.5t59.5 104t93 62.5t121.5 21q42 0 83 -7t70 -19l-36 -96q-20 8 -50.5 15t-64.5 7q-81 0 -124 -55t-43 -156q0 -103 118 -103q68 0 133 16l-17 -101q-69 -15 -144 -15q-110 0 -165 46t-55 136z" />
    <glyph glyph-name="d" unicode="d" horiz-adv-x="580" 
d="M158 183q0 -48 23.5 -71.5t67.5 -23.5q30 0 59 9.5t49 25.5l28 153q5 28 5 53q0 33 -25.5 53t-66.5 20q-64 0 -102 -59.5t-38 -159.5zM370 52q-30 -34 -71.5 -49t-90.5 -15q-88 0 -134 45t-46 129q0 78 17 141t49 107t77 68t101 24q45 0 82 -13.5t61 -38.5l45 254h128
l-107 -609q-2 -11 -0.5 -14.5t10.5 -7.5l33 -14l-22 -59h-124q-5 0 -6.5 1.5t-1.5 8.5v42z" />
    <glyph glyph-name="e" unicode="e" horiz-adv-x="536" 
d="M28 170q0 78 18.5 139.5t53.5 104.5t85.5 65.5t115.5 22.5q103 0 153 -43.5t50 -135.5q0 -56 -17 -115h-335q-2 -17 0 -38q9 -85 131 -85q40 0 81.5 5.5t84.5 14.5l-17 -98q-39 -9 -80 -14t-85 -5q-119 0 -179 46t-60 136zM294 412q-51 0 -84 -31.5t-44 -90.5h214
q3 16 3 38q0 42 -21 63t-68 21z" />
    <glyph glyph-name="f" unicode="f" horiz-adv-x="364" 
d="M180 108q-13 -74 -31.5 -126.5t-46.5 -89.5t-67 -60.5t-92 -39.5l-35 79q34 17 57 36.5t39.5 47.5t27.5 67t21 96l46 257q3 15 1.5 19t-9.5 6l-63 17l28 73h63l11 64q8 46 24 77t41 50t59 27t79 8q32 0 65 -5.5t50 -14.5l-36 -94q-16 6 -33.5 10t-34.5 4
q-41 0 -61.5 -18.5t-26.5 -53.5l-9 -54h133l-17 -97h-133z" />
    <glyph glyph-name="g" unicode="g" horiz-adv-x="569" 
d="M464 -1q-9 -53 -28 -94t-52 -69t-81.5 -42t-116.5 -14q-32 0 -60.5 2t-44.5 7l18 97q20 -5 43.5 -7t43.5 -2q41 0 68 9.5t43.5 24.5t24.5 35t12 41l9 50q-23 -26 -58 -37.5t-77 -11.5q-88 0 -134 45t-46 129q0 78 17 141t49 107t77 68t101 24q49 0 90 -16t66 -45l20 49
h103zM158 183q0 -48 23.5 -71.5t67.5 -23.5q102 0 122 110l30 168q-13 11 -37.5 23.5t-65.5 12.5q-66 0 -103 -59.5t-37 -159.5z" />
    <glyph glyph-name="h" unicode="h" horiz-adv-x="580" 
d="M400 327q0 73 -82 73q-31 0 -59.5 -10t-45.5 -19l-66 -371h-128l107 609q2 11 0.5 14.5t-10.5 7.5l-33 14l23 59h151q6 0 10 -1.5t2 -10.5l-43 -240q26 23 60 36.5t75 13.5q81 0 125 -40t44 -112q0 -34 -6 -64l-34 -191q-2 -11 -0.5 -14.5t10.5 -7.5l33 -14l-22 -59h-156
q-9 0 -8 10l49 276q4 23 4 41z" />
    <glyph glyph-name="i" unicode="i" horiz-adv-x="263" 
d="M28 0l70 395q2 11 0.5 14.5t-10.5 7.5l-34 14l23 59h152q6 0 10 -1.5t2 -10.5l-85 -478h-128zM125 614q0 43 22.5 66t64.5 23q65 0 65 -57q0 -44 -22.5 -67t-64.5 -23q-65 0 -65 58z" />
    <glyph glyph-name="j" unicode="j" horiz-adv-x="263" 
d="M153 -18q-11 -58 -26 -93t-39 -58q-51 -48 -154 -48q-12 0 -26.5 0.5t-23.5 2.5l16 94q5 -1 13 -1h15q44 0 65 20q11 11 18.5 29t12.5 49l74 418q2 11 0.5 14.5t-10.5 7.5l-34 14l23 59h152q6 0 10 -1.5t2 -10.5zM125 614q0 43 22.5 66t64.5 23q65 0 65 -57
q0 -44 -22.5 -67t-64.5 -23q-65 0 -65 58z" />
    <glyph glyph-name="k" unicode="k" horiz-adv-x="506" 
d="M196 305l194 185h146l-230 -217l144 -273h-132l-98 197l-52 -49l-26 -148h-123l107 609q2 11 0.5 14.5t-10.5 7.5l-33 14l23 59h146q6 0 10 -1.5t2 -10.5z" />
    <glyph glyph-name="l" unicode="l" horiz-adv-x="265" 
d="M165 95q-2 -11 -0.5 -14.5t10.5 -7.5l33 -14l-22 -59h-156q-9 0 -8 10l105 599q2 11 0.5 14.5t-10.5 7.5l-33 14l23 59h151q6 0 10 -1.5t2 -10.5z" />
    <glyph glyph-name="m" unicode="m" horiz-adv-x="889" 
d="M228 449q25 23 59.5 38t75.5 15q52 0 87.5 -18.5t50.5 -44.5q31 32 73 47.5t102 15.5q78 0 120.5 -39t42.5 -108q0 -33 -6 -64l-34 -196q-2 -11 -0.5 -14.5t10.5 -7.5l33 -14l-22 -59h-156q-9 0 -8 10l50 281q2 11 3 21.5t1 19.5q0 68 -77 68q-40 0 -65 -7.5t-45 -20.5
q2 -7 2 -26.5t-5 -43.5l-53 -302h-128l52 291q5 23 5 41q0 68 -78 68q-33 0 -56.5 -8t-43.5 -21l-66 -371h-128l70 395q2 11 0.5 14.5t-10.5 7.5l-33 14l23 59h147q6 0 10 -2t2 -10z" />
    <glyph glyph-name="n" unicode="n" horiz-adv-x="585" 
d="M228 449q28 26 63.5 39.5t74.5 13.5q81 0 125 -40t44 -112q0 -34 -6 -64l-34 -191q-2 -11 -0.5 -14.5t10.5 -7.5l33 -14l-22 -59h-156q-9 0 -8 10l49 276q4 23 4 41q0 73 -82 73q-31 0 -59.5 -10t-45.5 -19l-66 -371h-128l70 395q2 11 0.5 14.5t-10.5 7.5l-33 14l23 59
h147q6 0 10 -2t2 -10z" />
    <glyph glyph-name="o" unicode="o" horiz-adv-x="561" 
d="M28 170q0 78 19.5 139.5t56 104t89 65.5t119.5 23q221 0 221 -182q0 -78 -19.5 -139.5t-56 -104t-89.5 -65.5t-120 -23q-110 0 -165 46t-55 136zM158 185q0 -97 98 -97q34 0 61 15.5t46 43.5t29.5 68t10.5 90q0 97 -98 97q-34 0 -61 -15.5t-46 -43.5t-29.5 -68.5
t-10.5 -89.5z" />
    <glyph glyph-name="p" unicode="p" horiz-adv-x="575" 
d="M417 308q0 47 -23.5 70.5t-67.5 23.5q-105 0 -123 -110l-29 -169q17 -12 44 -23.5t59 -11.5t58 15.5t44 44t28 69.5t10 91zM226 449q25 23 62 38t78 15q88 0 134.5 -44.5t46.5 -129.5q0 -78 -17 -141t-49 -107t-77.5 -68t-101.5 -24q-43 0 -80.5 13.5t-61.5 39.5
l-44 -249h-128l106 603q2 11 0.5 14.5t-10.5 7.5l-33 14l23 59h145q6 0 10 -1.5t2 -10.5z" />
    <glyph glyph-name="q" unicode="q" horiz-adv-x="569" 
d="M430 -197l-133 -22l46 256q-26 -26 -59.5 -37.5t-75.5 -11.5q-88 0 -134 45t-46 129q0 78 17 141t49 107t77 68t101 24q49 0 90 -16t66 -45l20 49h103zM158 183q0 -48 23.5 -71.5t67.5 -23.5q30 0 59 9.5t49 25.5l28 153q5 28 5 53q0 33 -25.5 53t-66.5 20
q-64 0 -102 -59.5t-38 -159.5z" />
    <glyph glyph-name="r" unicode="r" horiz-adv-x="397" 
d="M404 393q-6 2 -21.5 4.5t-33.5 2.5q-43 0 -73 -13t-61 -35l-63 -352h-128l70 395q2 11 0.5 14.5t-10.5 7.5l-33 14l23 59h147q6 0 10 -2t2 -10l-8 -48q32 40 68.5 56t73.5 16q16 0 31.5 -1.5t23.5 -3.5z" />
    <glyph glyph-name="s" unicode="s" horiz-adv-x="459" 
d="M407 378q-25 12 -60 20.5t-72 8.5q-45 0 -71.5 -14t-26.5 -44q0 -19 17.5 -29t43.5 -17t56.5 -14.5t56.5 -22.5t43.5 -40t17.5 -66q0 -81 -55.5 -126.5t-161.5 -45.5q-51 0 -98.5 7t-91.5 21l17 100q84 -33 166 -33q48 0 74.5 17t26.5 50q0 22 -17.5 32.5t-43.5 18
t-56.5 15.5t-56.5 22.5t-43.5 40t-17.5 69.5q0 72 56 113t157 41q52 0 98 -8t78 -21l-36 -95v0z" />
    <glyph glyph-name="t" unicode="t" horiz-adv-x="392" 
d="M94 375q3 15 1.5 19t-9.5 6l-62 17l28 73h63l25 141h128l-25 -141h153l-17 -97h-154l-37 -211q-3 -17 -3 -33q0 -61 75 -61q32 0 66 7l-18 -100q-19 -3 -38.5 -5t-40.5 -2q-89 0 -131.5 34.5t-42.5 101.5q0 13 1.5 26t3.5 27z" />
    <glyph glyph-name="u" unicode="u" horiz-adv-x="571" 
d="M87 395q2 11 0.5 14.5t-10.5 7.5l-34 14l23 59h152q6 0 10 -1.5t2 -10.5l-50 -279q-2 -10 -3 -20.5t-1 -20.5q0 -32 22.5 -51t62.5 -19q51 0 78.5 23t36.5 74l54 305h128l-56 -315q-17 -98 -78 -142.5t-177 -44.5q-94 0 -147 39t-53 108q0 17 1.5 33t3.5 31z" />
    <glyph glyph-name="v" unicode="v" horiz-adv-x="523" 
d="M182 490q8 -88 22 -182t34 -185q52 91 99 185t88 182h134q-14 -31 -34 -71.5t-44 -85t-50.5 -90.5t-52.5 -90t-51 -83.5t-46 -69.5h-128q-15 45 -31.5 109.5t-31 133.5t-25.5 134.5t-15 112.5h132v0z" />
    <glyph glyph-name="w" unicode="w" horiz-adv-x="824" 
d="M414 305q-34 -79 -74 -159t-79 -146h-133q-15 62 -27 126.5t-22 127.5t-17 123t-11 113h125q6 -94 16.5 -184.5t26.5 -181.5h1q48 91 88 177t78 173h118q6 -91 16.5 -177t25.5 -173h1q49 92 91.5 182.5t81.5 183.5h124q-23 -53 -51.5 -113t-60.5 -123t-67.5 -127.5
t-71.5 -126.5h-128q-15 66 -28.5 146t-20.5 159h-2z" />
    <glyph glyph-name="x" unicode="x" horiz-adv-x="523" 
d="M183 256l-119 234h129l78 -161l130 161h144l-207 -248l123 -242h-130l-81 169l-136 -169h-145z" />
    <glyph glyph-name="y" unicode="y" 
d="M471 -1q-9 -53 -28 -94t-52 -69t-81.5 -42t-116.5 -14q-32 0 -60.5 2t-44.5 7l18 97q20 -5 43.5 -7t43.5 -2q41 0 68 9.5t43.5 24.5t24.5 35t12 41l9 50q-23 -24 -58.5 -36.5t-72.5 -12.5q-38 0 -69.5 10t-54.5 29t-35.5 46t-12.5 62q0 17 1.5 33t3.5 31l35 196
q2 11 0.5 14.5t-10.5 7.5l-34 14l23 59h152q6 0 10 -1.5t2 -10.5l-50 -279q-2 -10 -3 -20.5t-1 -20.5q0 -32 22.5 -51t62.5 -19q52 0 79.5 27.5t37.5 82.5l52 292h128z" />
    <glyph glyph-name="z" unicode="z" horiz-adv-x="479" 
d="M11 92l307 301h-247l17 97h399l-16 -92l-307 -301h263l-17 -97h-416z" />
    <glyph glyph-name="braceleft" unicode="{" horiz-adv-x="329" 
d="M22 337h10q43 0 65.5 20t30.5 63l22 124q7 43 21.5 73.5t38 49.5t57.5 28t81 9h40l-18 -97h-16q-76 0 -89 -79l-22 -128q-9 -49 -33 -79.5t-63 -40.5q57 -15 57 -83q0 -10 -1 -20t-3 -21l-19 -100q-3 -17 -3 -33q0 -29 17.5 -41.5t50.5 -12.5h12l-17 -97h-33
q-152 0 -152 116q0 13 1 25t4 27l21 116q3 15 3 31q0 52 -64 52h-16z" />
    <glyph glyph-name="bar" unicode="|" horiz-adv-x="240" 
d="M66 736h108v-960h-108v960z" />
    <glyph glyph-name="braceright" unicode="}" horiz-adv-x="329" 
d="M321 239h-10q-43 0 -65.5 -20t-30.5 -63l-22 -124q-8 -43 -22 -73.5t-37.5 -49.5t-57.5 -28t-81 -9h-40l18 97h15q77 0 90 79l22 128q9 49 33 79.5t63 40.5q-57 15 -57 83q0 22 4 41l18 100q3 16 3 33q0 29 -17 41.5t-51 12.5h-11l17 97h33q152 0 152 -116
q0 -13 -1.5 -25t-3.5 -27l-21 -116q-3 -15 -3 -31q0 -52 64 -52h16z" />
    <glyph glyph-name="asciitilde" unicode="~" 
d="M193 389q41 0 68 -14.5t47.5 -31.5t38 -31.5t39.5 -14.5q32 0 46 20.5t15 65.5h107q0 -103 -37.5 -149.5t-119.5 -46.5q-41 0 -68.5 14.5t-48 31.5t-38 31.5t-39.5 14.5q-32 0 -46 -20.5t-14 -65.5h-108q1 103 38.5 149.5t119.5 46.5z" />
    <glyph glyph-name="nonbreakingspace" unicode="&#xa0;" horiz-adv-x="224" 
 />
    <glyph glyph-name="exclamdown" unicode="&#xa1;" horiz-adv-x="265" 
d="M120 -182h-128l86 460h117zM239 441q0 -44 -23 -67.5t-66 -23.5q-67 0 -67 59q0 44 23 68t66 24q67 0 67 -60z" />
    <glyph glyph-name="cent" unicode="&#xa2;" 
d="M100 261q0 138 58 222.5t166 104.5l30 169h118l-30 -167q27 -3 53 -7.5t52 -12.5l-17 -101q-32 11 -65.5 17.5t-67.5 6.5q-81 0 -124 -54.5t-43 -157.5q0 -102 119 -102q66 0 133 16l-18 -101q-56 -12 -112 -15l-29 -164h-118l30 173q-135 31 -135 173z" />
    <glyph glyph-name="sterling" unicode="&#xa3;" 
d="M40 100h86l33 193h-70l17 98h70l16 90q19 104 80 153.5t170 49.5q34 0 70.5 -5.5t74.5 -14.5l-17 -100q-30 8 -58.5 13t-54.5 5q-59 0 -91 -27.5t-43 -88.5l-14 -75h178l-17 -98h-178l-33 -193h237l-18 -100h-456z" />
    <glyph glyph-name="currency" unicode="&#xa4;" 
d="M92 336q0 67 20 107l-73 73l76 76l73 -74q42 21 107 21t106 -21l74 74l76 -76l-74 -73q20 -40 20 -107t-20 -107l74 -73l-76 -76l-74 74q-20 -11 -46.5 -16t-59.5 -5t-59.5 5t-47.5 16l-73 -74l-76 76l73 73q-20 40 -20 107zM192 336q0 -55 24 -79t79 -24t78.5 24
t23.5 79t-23.5 79t-78.5 24t-79 -24t-24 -79z" />
    <glyph glyph-name="yen" unicode="&#xa5;" 
d="M199 119h-146l14 77h145l14 77h-146l13 78h114l-142 321h139l107 -268l197 268h153l-250 -321h107l-13 -78h-146l-14 -77h146l-14 -77h-145l-21 -119h-133z" />
    <glyph glyph-name="brokenbar" unicode="&#xa6;" horiz-adv-x="240" 
d="M174 688v-384h-108v384h108zM66 -176v384h108v-384h-108z" />
    <glyph glyph-name="section" unicode="&#xa7;" horiz-adv-x="564" 
d="M106 485q0 94 63.5 146.5t184.5 52.5q55 0 105.5 -8.5t97.5 -22.5l-18 -104q-44 15 -86.5 24t-90.5 9q-58 0 -89 -22t-31 -65q0 -29 20.5 -43t51 -22.5t66.5 -16.5t66.5 -24.5t51 -47.5t20.5 -86q0 -45 -16.5 -82t-47.5 -64q12 -27 12 -62q0 -97 -63.5 -150t-188.5 -53
q-60 0 -117 10t-108 27l18 104q49 -19 97 -29t102 -10q60 0 92 22.5t32 68.5q0 30 -20.5 45t-51 24t-66.5 17t-66.5 24.5t-51 46.5t-20.5 83q0 44 17.5 80.5t46.5 62.5q-12 27 -12 65zM185 287q0 -31 18.5 -45.5t46 -22.5t58 -15t54.5 -22q25 25 25 63q0 31 -18 46.5t-45 24
t-57.5 15.5t-54.5 22q-12 -13 -19.5 -30.5t-7.5 -35.5z" />
    <glyph glyph-name="dieresis" unicode="&#xa8;" horiz-adv-x="240" 
d="M4 614q0 42 21 64.5t63 22.5q63 0 63 -55q0 -42 -21.5 -64.5t-63.5 -22.5q-62 0 -62 55zM220 614q0 42 21.5 64.5t63.5 22.5q62 0 62 -55q0 -42 -21 -64.5t-63 -22.5q-63 0 -63 55z" />
    <glyph glyph-name="copyright" unicode="&#xa9;" horiz-adv-x="832" 
d="M54 336q0 95 21.5 164.5t67.5 114.5t117.5 67t171.5 22t171.5 -22t117.5 -67t67.5 -114.5t21.5 -164.5t-21.5 -164.5t-67.5 -114.5t-117.5 -67t-171.5 -22t-171.5 22t-117.5 67t-67.5 114.5t-21.5 164.5zM128 336q0 -161 75 -232.5t229 -71.5t229 71.5t75 232.5
q0 81 -17.5 138.5t-54 94t-94 54t-138.5 17.5t-138.5 -17.5t-94 -54t-54 -94t-17.5 -138.5zM236 336q0 114 50 165t164 51q34 0 65.5 -4t62.5 -12v-78q-29 8 -56 12.5t-56 4.5q-72 0 -102 -32.5t-30 -106.5t30 -106.5t102 -32.5q29 0 56 4.5t56 12.5v-78q-31 -8 -62.5 -12
t-65.5 -4q-114 0 -164 51t-50 165z" />
    <glyph glyph-name="ordfeminine" unicode="&#xaa;" horiz-adv-x="380" 
d="M49 288h304l-13 -74h-304zM159 436q0 -33 50 -33q61 0 69 46l4 21q-24 10 -60 10q-63 0 -63 -44zM68 423q0 56 36 85.5t105 29.5q47 0 82 -12l4 21q3 10 3 22q0 42 -74 42q-47 0 -99 -12l12 69q55 12 111 12q66 0 102.5 -27t36.5 -75q0 -21 -3 -39l-34 -192h-64l-4 24
q-20 -15 -45 -23.5t-57 -8.5q-112 0 -112 84z" />
    <glyph glyph-name="guillemotleft" unicode="&#xab;" horiz-adv-x="529" 
d="M143 239l99 -193h-113l-112 199l170 199h119zM375 239l100 -193h-113l-112 199l170 199h119z" />
    <glyph glyph-name="logicalnot" unicode="&#xac;" 
d="M77 342h436v-272h-108v164h-328v108z" />
    <glyph glyph-name="uni00AD" unicode="&#xad;" horiz-adv-x="336" 
d="M31 298h276l-17 -98h-276z" />
    <glyph glyph-name="registered" unicode="&#xae;" horiz-adv-x="832" 
d="M54 336q0 95 21.5 164.5t67.5 114.5t117.5 67t171.5 22t171.5 -22t117.5 -67t67.5 -114.5t21.5 -164.5t-21.5 -164.5t-67.5 -114.5t-117.5 -67t-171.5 -22t-171.5 22t-117.5 67t-67.5 114.5t-21.5 164.5zM128 336q0 -161 75 -232.5t229 -71.5t229 71.5t75 232.5
q0 81 -17.5 138.5t-54 94t-94 54t-138.5 17.5t-138.5 -17.5t-94 -54t-54 -94t-17.5 -138.5zM268 544h191q83 0 119.5 -31t36.5 -102q0 -103 -86 -122l97 -161h-102l-87 151h-78v-151h-91v416zM359 352h92q37 0 52.5 14t15.5 46t-15.5 45.5t-52.5 13.5h-92v-119z" />
    <glyph glyph-name="macron" unicode="&#xaf;" horiz-adv-x="240" 
d="M32 673h323l-15 -87h-323z" />
    <glyph glyph-name="degree" unicode="&#xb0;" horiz-adv-x="361" 
d="M92 519q0 78 42 121t119 43q121 0 121 -111q0 -78 -42 -121t-119 -43q-121 0 -121 111zM164 531q0 -53 58 -53q38 0 59 21.5t21 60.5q0 53 -58 53q-38 0 -59 -21.5t-21 -60.5z" />
    <glyph glyph-name="plusminus" unicode="&#xb1;" 
d="M77 108h436v-108h-436v108zM77 446h164v165h108v-165h164v-107h-164v-164h-108v164h-164v107z" />
    <glyph glyph-name="twosuperior" unicode="&#xb2;" horiz-adv-x="352" 
d="M60 453l171 135q32 26 48.5 48.5t16.5 45.5q0 49 -70 49q-23 0 -51 -4t-57 -10l13 76q58 15 120 15q140 0 140 -100q0 -45 -21.5 -82.5t-64.5 -72.5l-115 -93h162l-13 -76h-291z" />
    <glyph glyph-name="threesuperior" unicode="&#xb3;" horiz-adv-x="352" 
d="M385 731l-111 -102q45 -7 69.5 -32t24.5 -64q0 -157 -199 -157q-61 0 -116 19l12 75q27 -10 53 -15.5t51 -5.5q103 0 103 74q0 22 -21 33t-66 11h-27l10 60l111 101h-163l12 72h270z" />
    <glyph glyph-name="acute" unicode="&#xb4;" horiz-adv-x="240" 
d="M220 556h-120l141 148h142z" />
    <glyph glyph-name="uni00B5" unicode="&#xb5;" horiz-adv-x="569" 
d="M101 490h128l-50 -283q-2 -11 -4 -21.5t-2 -20.5q0 -36 22.5 -55.5t64.5 -19.5q96 0 114 103l53 297h128l-87 -490h-92l-6 47q-51 -56 -134 -56q-30 0 -54 8.5t-35 24.5l-41 -232h-128z" />
    <glyph glyph-name="paragraph" unicode="&#xb6;" horiz-adv-x="607" 
d="M488 575h-103l-60 -338h-50q-113 0 -163 40.5t-50 129.5q0 60 19 109t54.5 83.5t85.5 53.5t112 19h280l-144 -816h-108z" />
    <glyph glyph-name="periodcentered" unicode="&#xb7;" horiz-adv-x="249" 
d="M45 233q0 45 23.5 69t67.5 24q67 0 67 -61q0 -45 -23 -69t-67 -24q-68 0 -68 61z" />
    <glyph glyph-name="cedilla" unicode="&#xb8;" horiz-adv-x="240" 
d="M33 0h87l-7 -44q61 -12 61 -73q0 -57 -39 -88.5t-110 -31.5q-23 0 -47.5 4t-48.5 10l12 69q18 -6 37 -9.5t38 -3.5q58 0 58 42q0 14 -11.5 21.5t-40.5 7.5h-6z" />
    <glyph glyph-name="onesuperior" unicode="&#xb9;" horiz-adv-x="284" 
d="M211 713l-107 -36l14 79l129 44h73l-73 -416h-94z" />
    <glyph glyph-name="ordmasculine" unicode="&#xba;" horiz-adv-x="403" 
d="M49 288h328l-13 -74h-328zM77 461q0 103 50.5 161t141.5 58q150 0 150 -122q0 -103 -50.5 -161t-141.5 -58q-150 0 -150 122zM173 472q0 -58 60 -58q42 0 66 36t24 97q0 59 -60 59q-42 0 -66 -36.5t-24 -97.5z" />
    <glyph glyph-name="guillemotright" unicode="&#xbb;" horiz-adv-x="529" 
d="M154 251l-99 193h113l111 -199l-169 -199h-119zM387 251l-100 193h113l112 -199l-170 -199h-119z" />
    <glyph glyph-name="onequarter" unicode="&#xbc;" horiz-adv-x="864" 
d="M683 84h-206l13 72l236 260h100l-46 -263h55l-12 -69h-56l-14 -84h-85zM695 153l29 164l-149 -164h120zM231 585l-107 -36l14 79l129 44h73l-73 -416h-94zM613 672h84l-414 -672h-85z" />
    <glyph glyph-name="onehalf" unicode="&#xbd;" horiz-adv-x="864" 
d="M231 585l-107 -36l14 79l129 44h73l-73 -416h-94zM613 672h84l-414 -672h-85zM496 69l171 135q32 26 48.5 48.5t16.5 45.5q0 49 -70 49q-23 0 -51 -4t-57 -10l13 76q58 15 120 15q140 0 140 -100q0 -45 -21.5 -82.5t-64.5 -72.5l-115 -93h162l-13 -76h-291z" />
    <glyph glyph-name="threequarters" unicode="&#xbe;" horiz-adv-x="864" 
d="M683 84h-206l13 72l236 260h100l-46 -263h55l-12 -69h-56l-14 -84h-85zM695 153l29 164l-149 -164h120zM371 603l-111 -102q45 -7 69.5 -32t24.5 -64q0 -157 -199 -157q-61 0 -116 19l12 75q27 -10 53 -15.5t51 -5.5q103 0 103 74q0 22 -21 33t-66 11h-27l10 60l111 101
h-163l12 72h270zM613 672h84l-414 -672h-85z" />
    <glyph glyph-name="questiondown" unicode="&#xbf;" horiz-adv-x="420" 
d="M321 254q-6 -46 -24 -77.5t-41 -53t-48.5 -37t-46.5 -31.5t-34.5 -34.5t-13.5 -46.5q0 -35 24.5 -51.5t77.5 -16.5q68 0 157 23l-18 -100q-40 -12 -81 -17.5t-83 -5.5q-107 0 -157 36t-50 111q0 51 15.5 85t39.5 58t53 41.5t54.5 35t44.5 38t24 50.5l3 17h108zM373 441
q0 -44 -23 -67.5t-66 -23.5q-67 0 -67 59q0 44 23 68t66 24q67 0 67 -60z" />
    <glyph glyph-name="Agrave" unicode="&#xc0;" horiz-adv-x="659" 
d="M473 672q14 -36 28 -86.5t28 -109.5t26.5 -123t23 -127t18 -121t11.5 -105h-132q-4 41 -8.5 80t-9.5 77h-296q-19 -38 -37 -77t-37 -80h-133q20 47 48.5 105t61 121t67.5 127t69.5 123t67 109.5t58.5 86.5h146zM380 555q-45 -73 -86.5 -147.5t-82.5 -152.5h232
q-13 78 -28.5 152.5t-34.5 147.5zM264 880h125l97 -148h-104z" />
    <glyph glyph-name="Aacute" unicode="&#xc1;" horiz-adv-x="659" 
d="M473 672q14 -36 28 -86.5t28 -109.5t26.5 -123t23 -127t18 -121t11.5 -105h-132q-4 41 -8.5 80t-9.5 77h-296q-19 -38 -37 -77t-37 -80h-133q20 47 48.5 105t61 121t67.5 127t69.5 123t67 109.5t58.5 86.5h146zM380 555q-45 -73 -86.5 -147.5t-82.5 -152.5h232
q-13 78 -28.5 152.5t-34.5 147.5zM459 732h-120l141 148h142z" />
    <glyph glyph-name="Acircumflex" unicode="&#xc2;" horiz-adv-x="659" 
d="M473 672q14 -36 28 -86.5t28 -109.5t26.5 -123t23 -127t18 -121t11.5 -105h-132q-4 41 -8.5 80t-9.5 77h-296q-19 -38 -37 -77t-37 -80h-133q20 47 48.5 105t61 121t67.5 127t69.5 123t67 109.5t58.5 86.5h146zM380 555q-45 -73 -86.5 -147.5t-82.5 -152.5h232
q-13 78 -28.5 152.5t-34.5 147.5zM371 880h124l98 -148h-104l-61 81l-90 -81h-115z" />
    <glyph glyph-name="Atilde" unicode="&#xc3;" horiz-adv-x="659" 
d="M473 672q14 -36 28 -86.5t28 -109.5t26.5 -123t23 -127t18 -121t11.5 -105h-132q-4 41 -8.5 80t-9.5 77h-296q-19 -38 -37 -77t-37 -80h-133q20 47 48.5 105t61 121t67.5 127t69.5 123t67 109.5t58.5 86.5h146zM380 555q-45 -73 -86.5 -147.5t-82.5 -152.5h232
q-13 78 -28.5 152.5t-34.5 147.5zM246 753q8 63 34 89.5t80 26.5q19 0 35.5 -6.5t30.5 -14t26 -14t23 -6.5q32 0 39 38l1 8h91l-2 -16q-8 -62 -34.5 -88.5t-80.5 -26.5q-20 0 -36 6.5t-30 14t-26 14t-23 6.5q-32 0 -38 -38l-2 -9h-90z" />
    <glyph glyph-name="Adieresis" unicode="&#xc4;" horiz-adv-x="659" 
d="M473 672q14 -36 28 -86.5t28 -109.5t26.5 -123t23 -127t18 -121t11.5 -105h-132q-4 41 -8.5 80t-9.5 77h-296q-19 -38 -37 -77t-37 -80h-133q20 47 48.5 105t61 121t67.5 127t69.5 123t67 109.5t58.5 86.5h146zM380 555q-45 -73 -86.5 -147.5t-82.5 -152.5h232
q-13 78 -28.5 152.5t-34.5 147.5zM243 790q0 42 21 64.5t63 22.5q63 0 63 -55q0 -42 -21.5 -64.5t-63.5 -22.5q-62 0 -62 55zM459 790q0 42 21.5 64.5t63.5 22.5q62 0 62 -55q0 -42 -21 -64.5t-63 -22.5q-63 0 -63 55z" />
    <glyph glyph-name="Aring" unicode="&#xc5;" horiz-adv-x="659" 
d="M473 672q14 -36 28 -86.5t28 -109.5t26.5 -123t23 -127t18 -121t11.5 -105h-132q-4 41 -8.5 80t-9.5 77h-296q-19 -38 -37 -77t-37 -80h-133q20 47 48.5 105t61 121t67.5 127t69.5 123t67 109.5t58.5 86.5h146zM380 555q-45 -73 -86.5 -147.5t-82.5 -152.5h232
q-13 78 -28.5 152.5t-34.5 147.5zM305 784q0 58 35.5 91t98.5 33q105 0 105 -80q0 -59 -36 -91.5t-98 -32.5q-105 0 -105 80zM375 793q0 -35 41 -35q26 0 42 16.5t16 44.5q0 34 -41 34q-26 0 -42 -16t-16 -44z" />
    <glyph glyph-name="AE" unicode="&#xc6;" horiz-adv-x="1015" 
d="M1046 672l-18 -102h-343l-32 -179h271l-17 -98h-271l-34 -191h351l-18 -102h-484l28 157h-276q-32 -42 -62 -81.5t-56 -75.5h-139q69 96 146 195t151.5 188.5t141 164.5t115.5 124h546zM553 578q-27 -29 -59 -65t-67 -78t-73 -87.5t-75 -92.5h217z" />
    <glyph glyph-name="Ccedilla" unicode="&#xc7;" horiz-adv-x="604" 
d="M269 -8q-110 14 -166 74.5t-56 166.5q0 111 27 195.5t76.5 141t120.5 85.5t160 29q65 0 115.5 -10t91.5 -27l-37 -103q-29 11 -73.5 23t-92.5 12q-120 0 -186 -83.5t-66 -239.5q0 -163 180 -163q48 0 92 6t90 17l-19 -107q-81 -18 -170 -21l-5 -32q61 -12 61 -73
q0 -57 -39 -88.5t-110 -31.5q-23 0 -47.5 4t-48.5 10l12 69q18 -6 37 -9.5t38 -3.5q58 0 58 42q0 14 -11.5 21.5t-40.5 7.5h-6z" />
    <glyph glyph-name="Egrave" unicode="&#xc8;" horiz-adv-x="593" 
d="M624 672l-17 -102h-343l-32 -179h271l-18 -98h-270l-34 -191h351l-18 -102h-484l101 578q2 11 0 14.5t-11 7.5l-33 14l21 58h516zM245 880h125l97 -148h-104z" />
    <glyph glyph-name="Eacute" unicode="&#xc9;" horiz-adv-x="593" 
d="M624 672l-17 -102h-343l-32 -179h271l-18 -98h-270l-34 -191h351l-18 -102h-484l101 578q2 11 0 14.5t-11 7.5l-33 14l21 58h516zM440 732h-120l141 148h142z" />
    <glyph glyph-name="Ecircumflex" unicode="&#xca;" horiz-adv-x="593" 
d="M624 672l-17 -102h-343l-32 -179h271l-18 -98h-270l-34 -191h351l-18 -102h-484l101 578q2 11 0 14.5t-11 7.5l-33 14l21 58h516zM352 880h124l98 -148h-104l-61 81l-90 -81h-115z" />
    <glyph glyph-name="Edieresis" unicode="&#xcb;" horiz-adv-x="593" 
d="M624 672l-17 -102h-343l-32 -179h271l-18 -98h-270l-34 -191h351l-18 -102h-484l101 578q2 11 0 14.5t-11 7.5l-33 14l21 58h516zM224 790q0 42 21 64.5t63 22.5q63 0 63 -55q0 -42 -21.5 -64.5t-63.5 -22.5q-62 0 -62 55zM440 790q0 42 21.5 64.5t63.5 22.5q62 0 62 -55
q0 -42 -21 -64.5t-63 -22.5q-63 0 -63 55z" />
    <glyph glyph-name="Igrave" unicode="&#xcc;" horiz-adv-x="275" 
d="M163 0h-133l101 578q2 11 0 14.5t-11 7.5l-33 14l21 58h159q6 0 10 -1.5t2 -10.5zM80 880h125l97 -148h-104z" />
    <glyph glyph-name="Iacute" unicode="&#xcd;" horiz-adv-x="275" 
d="M163 0h-133l101 578q2 11 0 14.5t-11 7.5l-33 14l21 58h159q6 0 10 -1.5t2 -10.5zM275 732h-120l141 148h142z" />
    <glyph glyph-name="Icircumflex" unicode="&#xce;" horiz-adv-x="275" 
d="M163 0h-133l101 578q2 11 0 14.5t-11 7.5l-33 14l21 58h159q6 0 10 -1.5t2 -10.5zM187 880h124l98 -148h-104l-61 81l-90 -81h-115z" />
    <glyph glyph-name="Idieresis" unicode="&#xcf;" horiz-adv-x="275" 
d="M163 0h-133l101 578q2 11 0 14.5t-11 7.5l-33 14l21 58h159q6 0 10 -1.5t2 -10.5zM59 790q0 42 21 64.5t63 22.5q63 0 63 -55q0 -42 -21.5 -64.5t-63.5 -22.5q-62 0 -62 55zM275 790q0 42 21.5 64.5t63.5 22.5q62 0 62 -55q0 -42 -21 -64.5t-63 -22.5q-63 0 -63 55z" />
    <glyph glyph-name="Eth" unicode="&#xd0;" horiz-adv-x="724" 
d="M98 296h-66l17 92h65l33 190q2 11 0 14.5t-11 7.5l-33 14l21 58h274q160 0 235 -60.5t75 -188.5q0 -102 -26.5 -180.5t-77 -132.5t-124 -82t-168.5 -28h-266zM247 388h162l-17 -92h-162l-34 -194h121q124 0 189.5 81t65.5 230q0 81 -46 119t-148 38h-99z" />
    <glyph glyph-name="Ntilde" unicode="&#xd1;" horiz-adv-x="732" 
d="M131 578q2 11 0 14.5t-11 7.5l-33 14l21 58h151q15 0 19 -3t13 -20l238 -467l86 490h123l-118 -672h-131l-249 490l-87 -490h-123zM285 753q8 63 34 89.5t80 26.5q19 0 35.5 -6.5t30.5 -14t26 -14t23 -6.5q32 0 39 38l1 8h91l-2 -16q-8 -62 -34.5 -88.5t-80.5 -26.5
q-20 0 -36 6.5t-30 14t-26 14t-23 6.5q-32 0 -38 -38l-2 -9h-90z" />
    <glyph glyph-name="Ograve" unicode="&#xd2;" horiz-adv-x="727" 
d="M47 233q0 106 25.5 190t74 142t118 88.5t158.5 30.5q143 0 215.5 -62t72.5 -183q0 -107 -25.5 -190.5t-74 -141.5t-118.5 -88.5t-158 -30.5q-143 0 -215.5 62t-72.5 183zM183 248q0 -155 160 -155q54 0 97 22.5t73 65.5t46 104t16 139q0 155 -160 155q-54 0 -97 -22.5
t-73 -65.5t-46 -104t-16 -139zM298 880h125l97 -148h-104z" />
    <glyph glyph-name="Oacute" unicode="&#xd3;" horiz-adv-x="727" 
d="M47 233q0 106 25.5 190t74 142t118 88.5t158.5 30.5q143 0 215.5 -62t72.5 -183q0 -107 -25.5 -190.5t-74 -141.5t-118.5 -88.5t-158 -30.5q-143 0 -215.5 62t-72.5 183zM183 248q0 -155 160 -155q54 0 97 22.5t73 65.5t46 104t16 139q0 155 -160 155q-54 0 -97 -22.5
t-73 -65.5t-46 -104t-16 -139zM493 732h-120l141 148h142z" />
    <glyph glyph-name="Ocircumflex" unicode="&#xd4;" horiz-adv-x="727" 
d="M47 233q0 106 25.5 190t74 142t118 88.5t158.5 30.5q143 0 215.5 -62t72.5 -183q0 -107 -25.5 -190.5t-74 -141.5t-118.5 -88.5t-158 -30.5q-143 0 -215.5 62t-72.5 183zM183 248q0 -155 160 -155q54 0 97 22.5t73 65.5t46 104t16 139q0 155 -160 155q-54 0 -97 -22.5
t-73 -65.5t-46 -104t-16 -139zM405 880h124l98 -148h-104l-61 81l-90 -81h-115z" />
    <glyph glyph-name="Otilde" unicode="&#xd5;" horiz-adv-x="727" 
d="M47 233q0 106 25.5 190t74 142t118 88.5t158.5 30.5q143 0 215.5 -62t72.5 -183q0 -107 -25.5 -190.5t-74 -141.5t-118.5 -88.5t-158 -30.5q-143 0 -215.5 62t-72.5 183zM183 248q0 -155 160 -155q54 0 97 22.5t73 65.5t46 104t16 139q0 155 -160 155q-54 0 -97 -22.5
t-73 -65.5t-46 -104t-16 -139zM280 753q8 63 34 89.5t80 26.5q19 0 35.5 -6.5t30.5 -14t26 -14t23 -6.5q32 0 39 38l1 8h91l-2 -16q-8 -62 -34.5 -88.5t-80.5 -26.5q-20 0 -36 6.5t-30 14t-26 14t-23 6.5q-32 0 -38 -38l-2 -9h-90z" />
    <glyph glyph-name="Odieresis" unicode="&#xd6;" horiz-adv-x="727" 
d="M47 233q0 106 25.5 190t74 142t118 88.5t158.5 30.5q143 0 215.5 -62t72.5 -183q0 -107 -25.5 -190.5t-74 -141.5t-118.5 -88.5t-158 -30.5q-143 0 -215.5 62t-72.5 183zM183 248q0 -155 160 -155q54 0 97 22.5t73 65.5t46 104t16 139q0 155 -160 155q-54 0 -97 -22.5
t-73 -65.5t-46 -104t-16 -139zM277 790q0 42 21 64.5t63 22.5q63 0 63 -55q0 -42 -21.5 -64.5t-63.5 -22.5q-62 0 -62 55zM493 790q0 42 21.5 64.5t63.5 22.5q62 0 62 -55q0 -42 -21 -64.5t-63 -22.5q-63 0 -63 55z" />
    <glyph glyph-name="multiply" unicode="&#xd7;" 
d="M80 149l139 139l-139 139l76 76l139 -139l139 139l76 -76l-139 -139l139 -139l-76 -76l-139 139l-139 -139z" />
    <glyph glyph-name="Oslash" unicode="&#xd8;" horiz-adv-x="727" 
d="M47 233q0 106 25.5 190t74 142t118 88.5t158.5 30.5q111 0 180 -39l52 59h104l-96 -108q48 -62 48 -157q0 -107 -25.5 -190.5t-74 -141.5t-118.5 -88.5t-158 -30.5q-110 0 -180 38l-52 -58h-104l96 108q-48 58 -48 157zM585 426q0 39 -11 70l-341 -382q39 -26 109 -26
q56 0 101 23.5t76.5 67t48.5 106.5t17 141zM173 246q0 -20 2.5 -37.5t8.5 -32.5l341 382q-41 26 -109 26q-56 0 -101 -23.5t-76.5 -67t-48.5 -106.5t-17 -141z" />
    <glyph glyph-name="Ugrave" unicode="&#xd9;" horiz-adv-x="732" 
d="M211 271q-3 -16 -5 -32.5t-2 -32.5q0 -52 37 -82.5t100 -30.5q85 0 130.5 37.5t59.5 118.5l74 423h133l-76 -433q-11 -66 -36 -113t-66 -78t-98.5 -45.5t-133.5 -14.5q-60 0 -107.5 13.5t-81.5 39t-52 61.5t-18 81q0 21 2.5 43.5t6.5 44.5l53 307q2 11 0 14.5t-11 7.5
l-33 14l21 58h159q6 0 10 -1.5t2 -10.5zM303 880h125l97 -148h-104z" />
    <glyph glyph-name="Uacute" unicode="&#xda;" horiz-adv-x="732" 
d="M211 271q-3 -16 -5 -32.5t-2 -32.5q0 -52 37 -82.5t100 -30.5q85 0 130.5 37.5t59.5 118.5l74 423h133l-76 -433q-11 -66 -36 -113t-66 -78t-98.5 -45.5t-133.5 -14.5q-60 0 -107.5 13.5t-81.5 39t-52 61.5t-18 81q0 21 2.5 43.5t6.5 44.5l53 307q2 11 0 14.5t-11 7.5
l-33 14l21 58h159q6 0 10 -1.5t2 -10.5zM498 732h-120l141 148h142z" />
    <glyph glyph-name="Ucircumflex" unicode="&#xdb;" horiz-adv-x="732" 
d="M211 271q-3 -16 -5 -32.5t-2 -32.5q0 -52 37 -82.5t100 -30.5q85 0 130.5 37.5t59.5 118.5l74 423h133l-76 -433q-11 -66 -36 -113t-66 -78t-98.5 -45.5t-133.5 -14.5q-60 0 -107.5 13.5t-81.5 39t-52 61.5t-18 81q0 21 2.5 43.5t6.5 44.5l53 307q2 11 0 14.5t-11 7.5
l-33 14l21 58h159q6 0 10 -1.5t2 -10.5zM410 880h124l98 -148h-104l-61 81l-90 -81h-115z" />
    <glyph glyph-name="Udieresis" unicode="&#xdc;" horiz-adv-x="732" 
d="M211 271q-3 -16 -5 -32.5t-2 -32.5q0 -52 37 -82.5t100 -30.5q85 0 130.5 37.5t59.5 118.5l74 423h133l-76 -433q-11 -66 -36 -113t-66 -78t-98.5 -45.5t-133.5 -14.5q-60 0 -107.5 13.5t-81.5 39t-52 61.5t-18 81q0 21 2.5 43.5t6.5 44.5l53 307q2 11 0 14.5t-11 7.5
l-33 14l21 58h159q6 0 10 -1.5t2 -10.5zM282 790q0 42 21 64.5t63 22.5q63 0 63 -55q0 -42 -21.5 -64.5t-63.5 -22.5q-62 0 -62 55zM498 790q0 42 21.5 64.5t63.5 22.5q62 0 62 -55q0 -42 -21 -64.5t-63 -22.5q-63 0 -63 55z" />
    <glyph glyph-name="Yacute" unicode="&#xdd;" horiz-adv-x="609" 
d="M243 279l-169 393h140l110 -281l207 281h154l-311 -404l-46 -268h-133zM434 732h-120l141 148h142z" />
    <glyph glyph-name="Thorn" unicode="&#xde;" horiz-adv-x="636" 
d="M131 578q2 11 0 14.5t-11 7.5l-33 14l21 58h154q6 0 10 -1.5t2 -10.5l-18 -101h142q119 0 173.5 -39t54.5 -125q0 -132 -73 -201t-213 -69h-160l-22 -125h-128zM198 227h142q156 0 156 148q0 82 -119 82h-139z" />
    <glyph glyph-name="germandbls" unicode="&#xdf;" horiz-adv-x="569" 
d="M105 515q18 101 81 151t176 50q97 0 147.5 -38.5t50.5 -116.5q0 -66 -28.5 -115.5t-81.5 -71.5q87 -29 87 -139q0 -116 -65.5 -181.5t-182.5 -65.5q-23 0 -47.5 2.5t-50.5 7.5l17 96q33 -6 65 -6q65 0 102 38t37 104q0 47 -26.5 68t-84.5 21h-25l17 98h27q55 0 86 35
t31 91q0 73 -86 73q-105 0 -126 -116l-88 -500h-123z" />
    <glyph glyph-name="agrave" unicode="&#xe0;" horiz-adv-x="581" 
d="M158 183q0 -48 23.5 -71.5t67.5 -23.5q102 0 122 110l30 168q-13 11 -37.5 23.5t-65.5 12.5q-66 0 -103 -59.5t-37 -159.5zM370 60q-69 -72 -162 -72q-88 0 -134 45t-46 129q0 78 17 141t49 107t77 68t101 24q49 0 90 -16t66 -45l20 49h103l-70 -395q-2 -11 -0.5 -14.5
t10.5 -7.5l33 -14l-22 -59h-124q-5 0 -6.5 1.5t-1.5 8.5v50zM188 704h125l97 -148h-104z" />
    <glyph glyph-name="aacute" unicode="&#xe1;" horiz-adv-x="581" 
d="M158 183q0 -48 23.5 -71.5t67.5 -23.5q102 0 122 110l30 168q-13 11 -37.5 23.5t-65.5 12.5q-66 0 -103 -59.5t-37 -159.5zM370 60q-69 -72 -162 -72q-88 0 -134 45t-46 129q0 78 17 141t49 107t77 68t101 24q49 0 90 -16t66 -45l20 49h103l-70 -395q-2 -11 -0.5 -14.5
t10.5 -7.5l33 -14l-22 -59h-124q-5 0 -6.5 1.5t-1.5 8.5v50zM363 556h-120l141 148h142z" />
    <glyph glyph-name="acircumflex" unicode="&#xe2;" horiz-adv-x="581" 
d="M158 183q0 -48 23.5 -71.5t67.5 -23.5q102 0 122 110l30 168q-13 11 -37.5 23.5t-65.5 12.5q-66 0 -103 -59.5t-37 -159.5zM370 60q-69 -72 -162 -72q-88 0 -134 45t-46 129q0 78 17 141t49 107t77 68t101 24q49 0 90 -16t66 -45l20 49h103l-70 -395q-2 -11 -0.5 -14.5
t10.5 -7.5l33 -14l-22 -59h-124q-5 0 -6.5 1.5t-1.5 8.5v50zM285 704h124l98 -148h-104l-61 81l-90 -81h-115z" />
    <glyph glyph-name="atilde" unicode="&#xe3;" horiz-adv-x="581" 
d="M158 183q0 -48 23.5 -71.5t67.5 -23.5q102 0 122 110l30 168q-13 11 -37.5 23.5t-65.5 12.5q-66 0 -103 -59.5t-37 -159.5zM370 60q-69 -72 -162 -72q-88 0 -134 45t-46 129q0 78 17 141t49 107t77 68t101 24q49 0 90 -16t66 -45l20 49h103l-70 -395q-2 -11 -0.5 -14.5
t10.5 -7.5l33 -14l-22 -59h-124q-5 0 -6.5 1.5t-1.5 8.5v50zM170 577q8 63 34 89.5t80 26.5q19 0 35.5 -6.5t30.5 -14t26 -14t23 -6.5q32 0 39 38l1 8h91l-2 -16q-8 -62 -34.5 -88.5t-80.5 -26.5q-20 0 -36 6.5t-30 14t-26 14t-23 6.5q-32 0 -38 -38l-2 -9h-90z" />
    <glyph glyph-name="adieresis" unicode="&#xe4;" horiz-adv-x="581" 
d="M158 183q0 -48 23.5 -71.5t67.5 -23.5q102 0 122 110l30 168q-13 11 -37.5 23.5t-65.5 12.5q-66 0 -103 -59.5t-37 -159.5zM370 60q-69 -72 -162 -72q-88 0 -134 45t-46 129q0 78 17 141t49 107t77 68t101 24q49 0 90 -16t66 -45l20 49h103l-70 -395q-2 -11 -0.5 -14.5
t10.5 -7.5l33 -14l-22 -59h-124q-5 0 -6.5 1.5t-1.5 8.5v50zM157 614q0 42 21 64.5t63 22.5q63 0 63 -55q0 -42 -21.5 -64.5t-63.5 -22.5q-62 0 -62 55zM373 614q0 42 21.5 64.5t63.5 22.5q62 0 62 -55q0 -42 -21 -64.5t-63 -22.5q-63 0 -63 55z" />
    <glyph glyph-name="aring" unicode="&#xe5;" horiz-adv-x="581" 
d="M158 183q0 -48 23.5 -71.5t67.5 -23.5q102 0 122 110l30 168q-13 11 -37.5 23.5t-65.5 12.5q-66 0 -103 -59.5t-37 -159.5zM370 60q-69 -72 -162 -72q-88 0 -134 45t-46 129q0 78 17 141t49 107t77 68t101 24q49 0 90 -16t66 -45l20 49h103l-70 -395q-2 -11 -0.5 -14.5
t10.5 -7.5l33 -14l-22 -59h-124q-5 0 -6.5 1.5t-1.5 8.5v50zM219 608q0 58 35.5 91t98.5 33q105 0 105 -80q0 -59 -36 -91.5t-98 -32.5q-105 0 -105 80zM289 617q0 -35 41 -35q26 0 42 16.5t16 44.5q0 34 -41 34q-26 0 -42 -16t-16 -44z" />
    <glyph glyph-name="ae" unicode="&#xe6;" horiz-adv-x="849" 
d="M12 113q0 85 53 128t158 43q37 0 70 -5t61 -14l6 33q2 8 2.5 17t0.5 17q0 73 -115 73q-72 0 -148 -19l17 97q79 19 161 19q126 0 167 -66q66 66 169 66t153 -43.5t50 -135.5q0 -56 -17 -115h-335q-2 -20 1 -39q4 -41 37 -62.5t93 -21.5q80 0 166 20l-17 -98
q-39 -9 -79.5 -14t-84.5 -5q-73 0 -124 20.5t-77 58.5q-30 -38 -79 -58.5t-112 -20.5q-177 0 -177 125zM138 131q0 -53 82 -53q48 0 77 20t36 55l6 31q-41 18 -98 18q-103 0 -103 -71zM608 412q-51 0 -84 -31.5t-45 -90.5h214q2 8 3 18t1 20q0 84 -89 84z" />
    <glyph glyph-name="ccedilla" unicode="&#xe7;" horiz-adv-x="467" 
d="M178 -6q-150 27 -150 176q0 82 21 144.5t59.5 104t93 62.5t121.5 21q42 0 83 -7t70 -19l-36 -96q-20 8 -50.5 15t-64.5 7q-81 0 -124 -55t-43 -156q0 -103 118 -103q68 0 133 16l-17 -101q-62 -14 -128 -15l-5 -32q61 -12 61 -73q0 -57 -39 -88.5t-110 -31.5
q-23 0 -47.5 4t-48.5 10l12 69q18 -6 37 -9.5t38 -3.5q58 0 58 42q0 14 -11.5 21.5t-40.5 7.5h-6z" />
    <glyph glyph-name="egrave" unicode="&#xe8;" horiz-adv-x="536" 
d="M28 170q0 78 18.5 139.5t53.5 104.5t85.5 65.5t115.5 22.5q103 0 153 -43.5t50 -135.5q0 -56 -17 -115h-335q-2 -17 0 -38q9 -85 131 -85q40 0 81.5 5.5t84.5 14.5l-17 -98q-39 -9 -80 -14t-85 -5q-119 0 -179 46t-60 136zM294 412q-51 0 -84 -31.5t-44 -90.5h214
q3 16 3 38q0 42 -21 63t-68 21zM168 704h125l97 -148h-104z" />
    <glyph glyph-name="eacute" unicode="&#xe9;" horiz-adv-x="536" 
d="M28 170q0 78 18.5 139.5t53.5 104.5t85.5 65.5t115.5 22.5q103 0 153 -43.5t50 -135.5q0 -56 -17 -115h-335q-2 -17 0 -38q9 -85 131 -85q40 0 81.5 5.5t84.5 14.5l-17 -98q-39 -9 -80 -14t-85 -5q-119 0 -179 46t-60 136zM294 412q-51 0 -84 -31.5t-44 -90.5h214
q3 16 3 38q0 42 -21 63t-68 21zM363 556h-120l141 148h142z" />
    <glyph glyph-name="ecircumflex" unicode="&#xea;" horiz-adv-x="536" 
d="M28 170q0 78 18.5 139.5t53.5 104.5t85.5 65.5t115.5 22.5q103 0 153 -43.5t50 -135.5q0 -56 -17 -115h-335q-2 -17 0 -38q9 -85 131 -85q40 0 81.5 5.5t84.5 14.5l-17 -98q-39 -9 -80 -14t-85 -5q-119 0 -179 46t-60 136zM294 412q-51 0 -84 -31.5t-44 -90.5h214
q3 16 3 38q0 42 -21 63t-68 21zM275 704h124l98 -148h-104l-61 81l-90 -81h-115z" />
    <glyph glyph-name="edieresis" unicode="&#xeb;" horiz-adv-x="536" 
d="M28 170q0 78 18.5 139.5t53.5 104.5t85.5 65.5t115.5 22.5q103 0 153 -43.5t50 -135.5q0 -56 -17 -115h-335q-2 -17 0 -38q9 -85 131 -85q40 0 81.5 5.5t84.5 14.5l-17 -98q-39 -9 -80 -14t-85 -5q-119 0 -179 46t-60 136zM294 412q-51 0 -84 -31.5t-44 -90.5h214
q3 16 3 38q0 42 -21 63t-68 21zM147 614q0 42 21 64.5t63 22.5q63 0 63 -55q0 -42 -21.5 -64.5t-63.5 -22.5q-62 0 -62 55zM363 614q0 42 21.5 64.5t63.5 22.5q62 0 62 -55q0 -42 -21 -64.5t-63 -22.5q-63 0 -63 55z" />
    <glyph glyph-name="igrave" unicode="&#xec;" horiz-adv-x="263" 
d="M28 0l70 395q2 11 0.5 14.5t-10.5 7.5l-34 14l23 59h152q6 0 10 -1.5t2 -10.5l-85 -478h-128zM37 704h125l97 -148h-104z" />
    <glyph glyph-name="iacute" unicode="&#xed;" horiz-adv-x="263" 
d="M28 0l70 395q2 11 0.5 14.5t-10.5 7.5l-34 14l23 59h152q6 0 10 -1.5t2 -10.5l-85 -478h-128zM232 556h-120l141 148h142z" />
    <glyph glyph-name="icircumflex" unicode="&#xee;" horiz-adv-x="263" 
d="M28 0l70 395q2 11 0.5 14.5t-10.5 7.5l-34 14l23 59h152q6 0 10 -1.5t2 -10.5l-85 -478h-128zM144 704h124l98 -148h-104l-61 81l-90 -81h-115z" />
    <glyph glyph-name="idieresis" unicode="&#xef;" horiz-adv-x="263" 
d="M28 0l70 395q2 11 0.5 14.5t-10.5 7.5l-34 14l23 59h152q6 0 10 -1.5t2 -10.5l-85 -478h-128zM16 614q0 42 21 64.5t63 22.5q63 0 63 -55q0 -42 -21.5 -64.5t-63.5 -22.5q-62 0 -62 55zM232 614q0 42 21.5 64.5t63.5 22.5q62 0 62 -55q0 -42 -21 -64.5t-63 -22.5
q-63 0 -63 55z" />
    <glyph glyph-name="eth" unicode="&#xf0;" horiz-adv-x="569" 
d="M32 170q0 71 17.5 129t50 98.5t78.5 62.5t103 22q41 0 76.5 -14t56.5 -39q0 46 -12 80.5t-39 58.5l-36 -39h-116l74 79q-20 5 -43.5 9.5t-50.5 6.5l17 92q89 -4 154 -26l38 40h116l-76 -81q51 -39 75 -102.5t24 -156.5q0 -97 -20 -172t-58 -126t-92.5 -77.5t-124.5 -26.5
q-108 0 -160 47t-52 135zM160 180q0 -97 92 -97q67 0 106.5 56.5t39.5 152.5q0 95 -97 95q-65 0 -103 -56t-38 -151z" />
    <glyph glyph-name="ntilde" unicode="&#xf1;" horiz-adv-x="585" 
d="M228 449q28 26 63.5 39.5t74.5 13.5q81 0 125 -40t44 -112q0 -34 -6 -64l-34 -191q-2 -11 -0.5 -14.5t10.5 -7.5l33 -14l-22 -59h-156q-9 0 -8 10l49 276q4 23 4 41q0 73 -82 73q-31 0 -59.5 -10t-45.5 -19l-66 -371h-128l70 395q2 11 0.5 14.5t-10.5 7.5l-33 14l23 59
h147q6 0 10 -2t2 -10zM181 577q8 63 34 89.5t80 26.5q19 0 35.5 -6.5t30.5 -14t26 -14t23 -6.5q32 0 39 38l1 8h91l-2 -16q-8 -62 -34.5 -88.5t-80.5 -26.5q-20 0 -36 6.5t-30 14t-26 14t-23 6.5q-32 0 -38 -38l-2 -9h-90z" />
    <glyph glyph-name="ograve" unicode="&#xf2;" horiz-adv-x="561" 
d="M28 170q0 78 19.5 139.5t56 104t89 65.5t119.5 23q221 0 221 -182q0 -78 -19.5 -139.5t-56 -104t-89.5 -65.5t-120 -23q-110 0 -165 46t-55 136zM158 185q0 -97 98 -97q34 0 61 15.5t46 43.5t29.5 68t10.5 90q0 97 -98 97q-34 0 -61 -15.5t-46 -43.5t-29.5 -68.5
t-10.5 -89.5zM183 704h125l97 -148h-104z" />
    <glyph glyph-name="oacute" unicode="&#xf3;" horiz-adv-x="561" 
d="M28 170q0 78 19.5 139.5t56 104t89 65.5t119.5 23q221 0 221 -182q0 -78 -19.5 -139.5t-56 -104t-89.5 -65.5t-120 -23q-110 0 -165 46t-55 136zM158 185q0 -97 98 -97q34 0 61 15.5t46 43.5t29.5 68t10.5 90q0 97 -98 97q-34 0 -61 -15.5t-46 -43.5t-29.5 -68.5
t-10.5 -89.5zM378 556h-120l141 148h142z" />
    <glyph glyph-name="ocircumflex" unicode="&#xf4;" horiz-adv-x="561" 
d="M28 170q0 78 19.5 139.5t56 104t89 65.5t119.5 23q221 0 221 -182q0 -78 -19.5 -139.5t-56 -104t-89.5 -65.5t-120 -23q-110 0 -165 46t-55 136zM158 185q0 -97 98 -97q34 0 61 15.5t46 43.5t29.5 68t10.5 90q0 97 -98 97q-34 0 -61 -15.5t-46 -43.5t-29.5 -68.5
t-10.5 -89.5zM290 704h124l98 -148h-104l-61 81l-90 -81h-115z" />
    <glyph glyph-name="otilde" unicode="&#xf5;" horiz-adv-x="561" 
d="M28 170q0 78 19.5 139.5t56 104t89 65.5t119.5 23q221 0 221 -182q0 -78 -19.5 -139.5t-56 -104t-89.5 -65.5t-120 -23q-110 0 -165 46t-55 136zM158 185q0 -97 98 -97q34 0 61 15.5t46 43.5t29.5 68t10.5 90q0 97 -98 97q-34 0 -61 -15.5t-46 -43.5t-29.5 -68.5
t-10.5 -89.5zM165 577q8 63 34 89.5t80 26.5q19 0 35.5 -6.5t30.5 -14t26 -14t23 -6.5q32 0 39 38l1 8h91l-2 -16q-8 -62 -34.5 -88.5t-80.5 -26.5q-20 0 -36 6.5t-30 14t-26 14t-23 6.5q-32 0 -38 -38l-2 -9h-90z" />
    <glyph glyph-name="odieresis" unicode="&#xf6;" horiz-adv-x="561" 
d="M28 170q0 78 19.5 139.5t56 104t89 65.5t119.5 23q221 0 221 -182q0 -78 -19.5 -139.5t-56 -104t-89.5 -65.5t-120 -23q-110 0 -165 46t-55 136zM158 185q0 -97 98 -97q34 0 61 15.5t46 43.5t29.5 68t10.5 90q0 97 -98 97q-34 0 -61 -15.5t-46 -43.5t-29.5 -68.5
t-10.5 -89.5zM162 614q0 42 21 64.5t63 22.5q63 0 63 -55q0 -42 -21.5 -64.5t-63.5 -22.5q-62 0 -62 55zM378 614q0 42 21.5 64.5t63.5 22.5q62 0 62 -55q0 -42 -21 -64.5t-63 -22.5q-63 0 -63 55z" />
    <glyph glyph-name="divide" unicode="&#xf7;" 
d="M77 337h436v-98h-436v98zM226 464q0 35 16 50.5t53 15.5q36 0 52 -15.5t16 -50.5t-16 -50.5t-52 -15.5q-37 0 -53 15.5t-16 50.5zM226 112q0 35 16 50.5t53 15.5q36 0 52 -15.5t16 -50.5t-16 -50.5t-52 -15.5q-37 0 -53 15.5t-16 50.5z" />
    <glyph glyph-name="oslash" unicode="&#xf8;" horiz-adv-x="561" 
d="M28 170q0 78 19.5 139.5t56 104t89 65.5t119.5 23q79 0 130 -24l39 44h90l-75 -85q37 -45 37 -117q0 -78 -19.5 -139.5t-56 -104t-89.5 -65.5t-120 -23q-80 0 -129 24l-39 -44h-90l75 84q-37 44 -37 118zM143 188q0 -12 1 -22.5t4 -19.5l223 252q-26 14 -65 14
q-37 0 -67 -16.5t-51.5 -46t-33 -70.5t-11.5 -91zM418 302q0 12 -1.5 22t-3.5 20l-224 -253q25 -13 66 -13q37 0 67 16.5t51.5 46t33 70.5t11.5 91z" />
    <glyph glyph-name="ugrave" unicode="&#xf9;" horiz-adv-x="571" 
d="M87 395q2 11 0.5 14.5t-10.5 7.5l-34 14l23 59h152q6 0 10 -1.5t2 -10.5l-50 -279q-2 -10 -3 -20.5t-1 -20.5q0 -32 22.5 -51t62.5 -19q51 0 78.5 23t36.5 74l54 305h128l-56 -315q-17 -98 -78 -142.5t-177 -44.5q-94 0 -147 39t-53 108q0 17 1.5 33t3.5 31zM192 704h125
l97 -148h-104z" />
    <glyph glyph-name="uacute" unicode="&#xfa;" horiz-adv-x="571" 
d="M87 395q2 11 0.5 14.5t-10.5 7.5l-34 14l23 59h152q6 0 10 -1.5t2 -10.5l-50 -279q-2 -10 -3 -20.5t-1 -20.5q0 -32 22.5 -51t62.5 -19q51 0 78.5 23t36.5 74l54 305h128l-56 -315q-17 -98 -78 -142.5t-177 -44.5q-94 0 -147 39t-53 108q0 17 1.5 33t3.5 31zM387 556
h-120l141 148h142z" />
    <glyph glyph-name="ucircumflex" unicode="&#xfb;" horiz-adv-x="571" 
d="M87 395q2 11 0.5 14.5t-10.5 7.5l-34 14l23 59h152q6 0 10 -1.5t2 -10.5l-50 -279q-2 -10 -3 -20.5t-1 -20.5q0 -32 22.5 -51t62.5 -19q51 0 78.5 23t36.5 74l54 305h128l-56 -315q-17 -98 -78 -142.5t-177 -44.5q-94 0 -147 39t-53 108q0 17 1.5 33t3.5 31zM299 704h124
l98 -148h-104l-61 81l-90 -81h-115z" />
    <glyph glyph-name="udieresis" unicode="&#xfc;" horiz-adv-x="571" 
d="M87 395q2 11 0.5 14.5t-10.5 7.5l-34 14l23 59h152q6 0 10 -1.5t2 -10.5l-50 -279q-2 -10 -3 -20.5t-1 -20.5q0 -32 22.5 -51t62.5 -19q51 0 78.5 23t36.5 74l54 305h128l-56 -315q-17 -98 -78 -142.5t-177 -44.5q-94 0 -147 39t-53 108q0 17 1.5 33t3.5 31zM171 614
q0 42 21 64.5t63 22.5q63 0 63 -55q0 -42 -21.5 -64.5t-63.5 -22.5q-62 0 -62 55zM387 614q0 42 21.5 64.5t63.5 22.5q62 0 62 -55q0 -42 -21 -64.5t-63 -22.5q-63 0 -63 55z" />
    <glyph glyph-name="yacute" unicode="&#xfd;" 
d="M471 -1q-9 -53 -28 -94t-52 -69t-81.5 -42t-116.5 -14q-32 0 -60.5 2t-44.5 7l18 97q20 -5 43.5 -7t43.5 -2q41 0 68 9.5t43.5 24.5t24.5 35t12 41l9 50q-23 -24 -58.5 -36.5t-72.5 -12.5q-38 0 -69.5 10t-54.5 29t-35.5 46t-12.5 62q0 17 1.5 33t3.5 31l35 196
q2 11 0.5 14.5t-10.5 7.5l-34 14l23 59h152q6 0 10 -1.5t2 -10.5l-50 -279q-2 -10 -3 -20.5t-1 -20.5q0 -32 22.5 -51t62.5 -19q52 0 79.5 27.5t37.5 82.5l52 292h128zM361 556h-120l141 148h142z" />
    <glyph glyph-name="thorn" unicode="&#xfe;" horiz-adv-x="571" 
d="M413 308q0 47 -23.5 70.5t-67.5 23.5q-105 0 -123 -110l-29 -169q17 -12 44 -23.5t59 -11.5t58 15.5t44 44t28 69.5t10 91zM228 454q22 20 57.5 34t76.5 14q88 0 134.5 -44.5t46.5 -129.5q0 -78 -17 -141t-49 -107t-77.5 -68t-101.5 -24q-43 0 -80.5 13.5t-61.5 39.5
l-44 -249h-128l143 817q2 11 0.5 14.5t-10.5 7.5l-33 14l23 59h151q6 0 10 -1.5t2 -10.5z" />
    <glyph glyph-name="ydieresis" unicode="&#xff;" 
d="M471 -1q-9 -53 -28 -94t-52 -69t-81.5 -42t-116.5 -14q-32 0 -60.5 2t-44.5 7l18 97q20 -5 43.5 -7t43.5 -2q41 0 68 9.5t43.5 24.5t24.5 35t12 41l9 50q-23 -24 -58.5 -36.5t-72.5 -12.5q-38 0 -69.5 10t-54.5 29t-35.5 46t-12.5 62q0 17 1.5 33t3.5 31l35 196
q2 11 0.5 14.5t-10.5 7.5l-34 14l23 59h152q6 0 10 -1.5t2 -10.5l-50 -279q-2 -10 -3 -20.5t-1 -20.5q0 -32 22.5 -51t62.5 -19q52 0 79.5 27.5t37.5 82.5l52 292h128zM168 614q0 42 21 64.5t63 22.5q63 0 63 -55q0 -42 -21.5 -64.5t-63.5 -22.5q-62 0 -62 55zM384 614
q0 42 21.5 64.5t63.5 22.5q62 0 62 -55q0 -42 -21 -64.5t-63 -22.5q-63 0 -63 55z" />
    <glyph glyph-name="Amacron" unicode="&#x100;" horiz-adv-x="659" 
d="M473 672q14 -36 28 -86.5t28 -109.5t26.5 -123t23 -127t18 -121t11.5 -105h-132q-4 41 -8.5 80t-9.5 77h-296q-19 -38 -37 -77t-37 -80h-133q20 47 48.5 105t61 121t67.5 127t69.5 123t67 109.5t58.5 86.5h146zM380 555q-45 -73 -86.5 -147.5t-82.5 -152.5h232
q-13 78 -28.5 152.5t-34.5 147.5zM271 849h323l-15 -87h-323z" />
    <glyph glyph-name="amacron" unicode="&#x101;" horiz-adv-x="581" 
d="M158 183q0 -48 23.5 -71.5t67.5 -23.5q102 0 122 110l30 168q-13 11 -37.5 23.5t-65.5 12.5q-66 0 -103 -59.5t-37 -159.5zM370 60q-69 -72 -162 -72q-88 0 -134 45t-46 129q0 78 17 141t49 107t77 68t101 24q49 0 90 -16t66 -45l20 49h103l-70 -395q-2 -11 -0.5 -14.5
t10.5 -7.5l33 -14l-22 -59h-124q-5 0 -6.5 1.5t-1.5 8.5v50zM185 673h323l-15 -87h-323z" />
    <glyph glyph-name="Abreve" unicode="&#x102;" horiz-adv-x="659" 
d="M473 672q14 -36 28 -86.5t28 -109.5t26.5 -123t23 -127t18 -121t11.5 -105h-132q-4 41 -8.5 80t-9.5 77h-296q-19 -38 -37 -77t-37 -80h-133q20 47 48.5 105t61 121t67.5 127t69.5 123t67 109.5t58.5 86.5h146zM380 555q-45 -73 -86.5 -147.5t-82.5 -152.5h232
q-13 78 -28.5 152.5t-34.5 147.5zM354 880q-12 -74 66 -74q42 0 63 17t27 57h91q-12 -84 -57 -121.5t-133 -37.5q-150 0 -150 114q0 11 1 22t3 23h89z" />
    <glyph glyph-name="abreve" unicode="&#x103;" horiz-adv-x="581" 
d="M158 183q0 -48 23.5 -71.5t67.5 -23.5q102 0 122 110l30 168q-13 11 -37.5 23.5t-65.5 12.5q-66 0 -103 -59.5t-37 -159.5zM370 60q-69 -72 -162 -72q-88 0 -134 45t-46 129q0 78 17 141t49 107t77 68t101 24q49 0 90 -16t66 -45l20 49h103l-70 -395q-2 -11 -0.5 -14.5
t10.5 -7.5l33 -14l-22 -59h-124q-5 0 -6.5 1.5t-1.5 8.5v50zM274 704q-12 -74 66 -74q42 0 63 17t27 57h91q-12 -84 -57 -121.5t-133 -37.5q-150 0 -150 114q0 11 1 22t3 23h89z" />
    <glyph glyph-name="Aogonek" unicode="&#x104;" horiz-adv-x="659" 
d="M380 555q-45 -73 -86.5 -147.5t-82.5 -152.5h232q-13 78 -28.5 152.5t-34.5 147.5zM476 0q-4 41 -8.5 80t-9.5 77h-296q-19 -38 -37 -77t-37 -80h-133q20 47 48.5 105t61 121t67.5 127t69.5 123t67 109.5t58.5 86.5h146q14 -36 28 -86.5t28 -109.5t26.5 -123t23 -127
t18 -121t11.5 -105q-60 -43 -85 -72.5t-25 -53.5q0 -35 47 -35q9 0 17.5 0.5t16.5 1.5l-12 -72q-27 -6 -60 -6q-59 0 -85.5 21.5t-26.5 63.5q0 74 108 152h-27z" />
    <glyph glyph-name="aogonek" unicode="&#x105;" horiz-adv-x="581" 
d="M158 183q0 -48 23.5 -71.5t67.5 -23.5q102 0 122 110l30 168q-13 11 -37.5 23.5t-65.5 12.5q-66 0 -103 -59.5t-37 -159.5zM370 60q-69 -72 -162 -72q-88 0 -134 45t-46 129q0 78 17 141t49 107t77 68t101 24q49 0 90 -16t66 -45l20 49h103l-70 -395q-2 -11 -0.5 -14.5
t10.5 -7.5l33 -14l-22 -59h-38q-60 -43 -85 -72.5t-25 -53.5q0 -35 47 -35q9 0 17.5 0.5t16.5 1.5l-12 -72q-27 -6 -60 -6q-59 0 -85.5 21.5t-26.5 63.5q0 38 32 80t86 79z" />
    <glyph glyph-name="Cacute" unicode="&#x106;" horiz-adv-x="604" 
d="M47 233q0 111 27 195.5t76.5 141t120.5 85.5t160 29q65 0 115.5 -10t91.5 -27l-37 -103q-29 11 -73.5 23t-92.5 12q-120 0 -186 -83.5t-66 -239.5q0 -163 180 -163q48 0 92 6t90 17l-19 -107q-45 -11 -93.5 -16t-97.5 -5q-143 0 -215.5 62t-72.5 183zM488 732h-120
l141 148h142z" />
    <glyph glyph-name="cacute" unicode="&#x107;" horiz-adv-x="467" 
d="M28 170q0 82 21 144.5t59.5 104t93 62.5t121.5 21q42 0 83 -7t70 -19l-36 -96q-20 8 -50.5 15t-64.5 7q-81 0 -124 -55t-43 -156q0 -103 118 -103q68 0 133 16l-17 -101q-69 -15 -144 -15q-110 0 -165 46t-55 136zM364 556h-120l141 148h142z" />
    <glyph glyph-name="Ccircumflex" unicode="&#x108;" horiz-adv-x="604" 
d="M47 233q0 111 27 195.5t76.5 141t120.5 85.5t160 29q65 0 115.5 -10t91.5 -27l-37 -103q-29 11 -73.5 23t-92.5 12q-120 0 -186 -83.5t-66 -239.5q0 -163 180 -163q48 0 92 6t90 17l-19 -107q-45 -11 -93.5 -16t-97.5 -5q-143 0 -215.5 62t-72.5 183zM400 880h124
l98 -148h-104l-61 81l-90 -81h-115z" />
    <glyph glyph-name="ccircumflex" unicode="&#x109;" horiz-adv-x="467" 
d="M28 170q0 82 21 144.5t59.5 104t93 62.5t121.5 21q42 0 83 -7t70 -19l-36 -96q-20 8 -50.5 15t-64.5 7q-81 0 -124 -55t-43 -156q0 -103 118 -103q68 0 133 16l-17 -101q-69 -15 -144 -15q-110 0 -165 46t-55 136zM276 704h124l98 -148h-104l-61 81l-90 -81h-115z" />
    <glyph glyph-name="Cdotaccent" unicode="&#x10a;" horiz-adv-x="604" 
d="M47 233q0 111 27 195.5t76.5 141t120.5 85.5t160 29q65 0 115.5 -10t91.5 -27l-37 -103q-29 11 -73.5 23t-92.5 12q-120 0 -186 -83.5t-66 -239.5q0 -163 180 -163q48 0 92 6t90 17l-19 -107q-45 -11 -93.5 -16t-97.5 -5q-143 0 -215.5 62t-72.5 183zM380 790
q0 42 21.5 64.5t63.5 22.5q62 0 62 -55q0 -42 -21.5 -64.5t-63.5 -22.5q-62 0 -62 55z" />
    <glyph glyph-name="cdotaccent" unicode="&#x10b;" horiz-adv-x="467" 
d="M28 170q0 82 21 144.5t59.5 104t93 62.5t121.5 21q42 0 83 -7t70 -19l-36 -96q-20 8 -50.5 15t-64.5 7q-81 0 -124 -55t-43 -156q0 -103 118 -103q68 0 133 16l-17 -101q-69 -15 -144 -15q-110 0 -165 46t-55 136zM256 614q0 42 21.5 64.5t63.5 22.5q62 0 62 -55
q0 -42 -21.5 -64.5t-63.5 -22.5q-62 0 -62 55z" />
    <glyph glyph-name="Ccaron" unicode="&#x10c;" horiz-adv-x="604" 
d="M47 233q0 111 27 195.5t76.5 141t120.5 85.5t160 29q65 0 115.5 -10t91.5 -27l-37 -103q-29 11 -73.5 23t-92.5 12q-120 0 -186 -83.5t-66 -239.5q0 -163 180 -163q48 0 92 6t90 17l-19 -107q-45 -11 -93.5 -16t-97.5 -5q-143 0 -215.5 62t-72.5 183zM507 732h-124
l-98 148h104l61 -81l90 81h115z" />
    <glyph glyph-name="ccaron" unicode="&#x10d;" horiz-adv-x="467" 
d="M28 170q0 82 21 144.5t59.5 104t93 62.5t121.5 21q42 0 83 -7t70 -19l-36 -96q-20 8 -50.5 15t-64.5 7q-81 0 -124 -55t-43 -156q0 -103 118 -103q68 0 133 16l-17 -101q-69 -15 -144 -15q-110 0 -165 46t-55 136zM383 556h-124l-98 148h104l61 -81l90 81h115z" />
    <glyph glyph-name="Dcaron" unicode="&#x10e;" horiz-adv-x="708" 
d="M131 578q2 11 0 14.5t-11 7.5l-33 14l21 58h274q160 0 235 -60.5t75 -188.5q0 -102 -26.5 -180.5t-77 -132.5t-124 -82t-168.5 -28h-266zM180 102h121q124 0 189.5 81t65.5 230q0 81 -46 119t-148 38h-99zM489 732h-124l-98 148h104l61 -81l90 81h115z" />
    <glyph glyph-name="dcaron" unicode="&#x10f;" horiz-adv-x="704" 
d="M158 183q0 -48 23.5 -71.5t67.5 -23.5q30 0 59 9.5t49 25.5l28 153q5 28 5 53q0 33 -25.5 53t-66.5 20q-64 0 -102 -59.5t-38 -159.5zM370 52q-30 -34 -71.5 -49t-90.5 -15q-88 0 -134 45t-46 129q0 78 17 141t49 107t77 68t101 24q45 0 82 -13.5t61 -38.5l45 254h128
l-107 -609q-2 -11 -0.5 -14.5t10.5 -7.5l33 -14l-22 -59h-124q-5 0 -6.5 1.5t-1.5 8.5v42zM689 550h-91l82 196h114z" />
    <glyph glyph-name="Dcroat" unicode="&#x110;" horiz-adv-x="724" 
d="M98 296h-66l17 92h65l33 190q2 11 0 14.5t-11 7.5l-33 14l21 58h274q160 0 235 -60.5t75 -188.5q0 -102 -26.5 -180.5t-77 -132.5t-124 -82t-168.5 -28h-266zM247 388h162l-17 -92h-162l-34 -194h121q124 0 189.5 81t65.5 230q0 81 -46 119t-148 38h-99z" />
    <glyph glyph-name="dcroat" unicode="&#x111;" horiz-adv-x="580" 
d="M370 52q-30 -34 -71.5 -49t-90.5 -15q-88 0 -134 45t-46 129q0 78 17 141t49 107t77 68t101 24q45 0 82 -13.5t61 -38.5l18 101h-167l16 88h166l12 65h128l-12 -65h55l-15 -88h-55l-80 -456q-2 -11 -0.5 -14.5t10.5 -7.5l33 -14l-22 -59h-125q-5 0 -6.5 1.5t-1.5 8.5z
M158 183q0 -48 23.5 -71.5t67.5 -23.5q30 0 59 9.5t49 25.5l28 153q5 28 5 53q0 33 -25.5 53t-66.5 20q-64 0 -102 -59.5t-38 -159.5z" />
    <glyph glyph-name="Emacron" unicode="&#x112;" horiz-adv-x="593" 
d="M624 672l-17 -102h-343l-32 -179h271l-18 -98h-270l-34 -191h351l-18 -102h-484l101 578q2 11 0 14.5t-11 7.5l-33 14l21 58h516zM252 849h323l-15 -87h-323z" />
    <glyph glyph-name="emacron" unicode="&#x113;" horiz-adv-x="536" 
d="M28 170q0 78 18.5 139.5t53.5 104.5t85.5 65.5t115.5 22.5q103 0 153 -43.5t50 -135.5q0 -56 -17 -115h-335q-2 -17 0 -38q9 -85 131 -85q40 0 81.5 5.5t84.5 14.5l-17 -98q-39 -9 -80 -14t-85 -5q-119 0 -179 46t-60 136zM294 412q-51 0 -84 -31.5t-44 -90.5h214
q3 16 3 38q0 42 -21 63t-68 21zM175 673h323l-15 -87h-323z" />
    <glyph glyph-name="Ebreve" unicode="&#x114;" horiz-adv-x="593" 
d="M624 672l-17 -102h-343l-32 -179h271l-18 -98h-270l-34 -191h351l-18 -102h-484l101 578q2 11 0 14.5t-11 7.5l-33 14l21 58h516zM341 880q-12 -74 66 -74q42 0 63 17t27 57h91q-12 -84 -57 -121.5t-133 -37.5q-150 0 -150 114q0 11 1 22t3 23h89z" />
    <glyph glyph-name="ebreve" unicode="&#x115;" horiz-adv-x="536" 
d="M28 170q0 78 18.5 139.5t53.5 104.5t85.5 65.5t115.5 22.5q103 0 153 -43.5t50 -135.5q0 -56 -17 -115h-335q-2 -17 0 -38q9 -85 131 -85q40 0 81.5 5.5t84.5 14.5l-17 -98q-39 -9 -80 -14t-85 -5q-119 0 -179 46t-60 136zM294 412q-51 0 -84 -31.5t-44 -90.5h214
q3 16 3 38q0 42 -21 63t-68 21zM264 704q-12 -74 66 -74q42 0 63 17t27 57h91q-12 -84 -57 -121.5t-133 -37.5q-150 0 -150 114q0 11 1 22t3 23h89z" />
    <glyph glyph-name="Edotaccent" unicode="&#x116;" horiz-adv-x="593" 
d="M624 672l-17 -102h-343l-32 -179h271l-18 -98h-270l-34 -191h351l-18 -102h-484l101 578q2 11 0 14.5t-11 7.5l-33 14l21 58h516zM332 790q0 42 21.5 64.5t63.5 22.5q62 0 62 -55q0 -42 -21.5 -64.5t-63.5 -22.5q-62 0 -62 55z" />
    <glyph glyph-name="edotaccent" unicode="&#x117;" horiz-adv-x="536" 
d="M28 170q0 78 18.5 139.5t53.5 104.5t85.5 65.5t115.5 22.5q103 0 153 -43.5t50 -135.5q0 -56 -17 -115h-335q-2 -17 0 -38q9 -85 131 -85q40 0 81.5 5.5t84.5 14.5l-17 -98q-39 -9 -80 -14t-85 -5q-119 0 -179 46t-60 136zM294 412q-51 0 -84 -31.5t-44 -90.5h214
q3 16 3 38q0 42 -21 63t-68 21zM255 614q0 42 21.5 64.5t63.5 22.5q62 0 62 -55q0 -42 -21.5 -64.5t-63.5 -22.5q-62 0 -62 55z" />
    <glyph glyph-name="Eogonek" unicode="&#x118;" horiz-adv-x="593" 
d="M131 578q2 11 0 14.5t-11 7.5l-33 14l21 58h516l-17 -102h-343l-32 -179h271l-18 -98h-270l-34 -191h351l-18 -102q-60 -43 -85 -72.5t-25 -53.5q0 -35 47 -35q9 0 17.5 0.5t16.5 1.5l-12 -72q-27 -6 -60 -6q-59 0 -85.5 21.5t-26.5 63.5q0 74 108 152h-379z" />
    <glyph glyph-name="eogonek" unicode="&#x119;" horiz-adv-x="536" 
d="M28 170q0 78 18.5 139.5t53.5 104.5t85.5 65.5t115.5 22.5q103 0 153 -43.5t50 -135.5q0 -56 -17 -115h-335q-2 -17 0 -38q9 -85 131 -85q40 0 81.5 5.5t84.5 14.5l-17 -98q-60 -45 -85.5 -77t-25.5 -56q0 -35 47 -35q9 0 17.5 0.5t16.5 1.5l-12 -72q-27 -6 -60 -6
q-60 0 -86 21.5t-26 63.5q0 66 87 141q-9 0 -18.5 -0.5t-19.5 -0.5q-119 0 -179 46t-60 136zM294 412q-51 0 -84 -31.5t-44 -90.5h214q3 16 3 38q0 42 -21 63t-68 21z" />
    <glyph glyph-name="Ecaron" unicode="&#x11a;" horiz-adv-x="593" 
d="M624 672l-17 -102h-343l-32 -179h271l-18 -98h-270l-34 -191h351l-18 -102h-484l101 578q2 11 0 14.5t-11 7.5l-33 14l21 58h516zM459 732h-124l-98 148h104l61 -81l90 81h115z" />
    <glyph glyph-name="ecaron" unicode="&#x11b;" horiz-adv-x="536" 
d="M28 170q0 78 18.5 139.5t53.5 104.5t85.5 65.5t115.5 22.5q103 0 153 -43.5t50 -135.5q0 -56 -17 -115h-335q-2 -17 0 -38q9 -85 131 -85q40 0 81.5 5.5t84.5 14.5l-17 -98q-39 -9 -80 -14t-85 -5q-119 0 -179 46t-60 136zM294 412q-51 0 -84 -31.5t-44 -90.5h214
q3 16 3 38q0 42 -21 63t-68 21zM382 556h-124l-98 148h104l61 -81l90 81h115z" />
    <glyph glyph-name="Gcircumflex" unicode="&#x11c;" horiz-adv-x="671" 
d="M370 369h272l-63 -358q-58 -11 -116 -17t-120 -6q-145 0 -220.5 63.5t-75.5 184.5q0 110 28 194t79.5 140.5t126 85t167.5 28.5q29 0 60.5 -3t61 -8t54.5 -11.5t42 -14.5l-37 -102q-32 14 -81 25.5t-97 11.5q-133 0 -203 -83t-70 -240q0 -85 45.5 -127t142.5 -42
q25 0 53 3.5t55 8.5l31 174h-151zM417 880h124l98 -148h-104l-61 81l-90 -81h-115z" />
    <glyph glyph-name="gcircumflex" unicode="&#x11d;" horiz-adv-x="569" 
d="M464 -1q-9 -53 -28 -94t-52 -69t-81.5 -42t-116.5 -14q-32 0 -60.5 2t-44.5 7l18 97q20 -5 43.5 -7t43.5 -2q41 0 68 9.5t43.5 24.5t24.5 35t12 41l9 50q-23 -26 -58 -37.5t-77 -11.5q-88 0 -134 45t-46 129q0 78 17 141t49 107t77 68t101 24q49 0 90 -16t66 -45l20 49
h103zM158 183q0 -48 23.5 -71.5t67.5 -23.5q102 0 122 110l30 168q-13 11 -37.5 23.5t-65.5 12.5q-66 0 -103 -59.5t-37 -159.5zM292 704h124l98 -148h-104l-61 81l-90 -81h-115z" />
    <glyph glyph-name="Gbreve" unicode="&#x11e;" horiz-adv-x="671" 
d="M370 369h272l-63 -358q-58 -11 -116 -17t-120 -6q-145 0 -220.5 63.5t-75.5 184.5q0 110 28 194t79.5 140.5t126 85t167.5 28.5q29 0 60.5 -3t61 -8t54.5 -11.5t42 -14.5l-37 -102q-32 14 -81 25.5t-97 11.5q-133 0 -203 -83t-70 -240q0 -85 45.5 -127t142.5 -42
q25 0 53 3.5t55 8.5l31 174h-151zM406 880q-12 -74 66 -74q42 0 63 17t27 57h91q-12 -84 -57 -121.5t-133 -37.5q-150 0 -150 114q0 11 1 22t3 23h89z" />
    <glyph glyph-name="gbreve" unicode="&#x11f;" horiz-adv-x="569" 
d="M464 -1q-9 -53 -28 -94t-52 -69t-81.5 -42t-116.5 -14q-32 0 -60.5 2t-44.5 7l18 97q20 -5 43.5 -7t43.5 -2q41 0 68 9.5t43.5 24.5t24.5 35t12 41l9 50q-23 -26 -58 -37.5t-77 -11.5q-88 0 -134 45t-46 129q0 78 17 141t49 107t77 68t101 24q49 0 90 -16t66 -45l20 49
h103zM158 183q0 -48 23.5 -71.5t67.5 -23.5q102 0 122 110l30 168q-13 11 -37.5 23.5t-65.5 12.5q-66 0 -103 -59.5t-37 -159.5zM281 704q-12 -74 66 -74q42 0 63 17t27 57h91q-12 -84 -57 -121.5t-133 -37.5q-150 0 -150 114q0 11 1 22t3 23h89z" />
    <glyph glyph-name="Gdotaccent" unicode="&#x120;" horiz-adv-x="671" 
d="M370 369h272l-63 -358q-58 -11 -116 -17t-120 -6q-145 0 -220.5 63.5t-75.5 184.5q0 110 28 194t79.5 140.5t126 85t167.5 28.5q29 0 60.5 -3t61 -8t54.5 -11.5t42 -14.5l-37 -102q-32 14 -81 25.5t-97 11.5q-133 0 -203 -83t-70 -240q0 -85 45.5 -127t142.5 -42
q25 0 53 3.5t55 8.5l31 174h-151zM397 790q0 42 21.5 64.5t63.5 22.5q62 0 62 -55q0 -42 -21.5 -64.5t-63.5 -22.5q-62 0 -62 55z" />
    <glyph glyph-name="gdotaccent" unicode="&#x121;" horiz-adv-x="569" 
d="M464 -1q-9 -53 -28 -94t-52 -69t-81.5 -42t-116.5 -14q-32 0 -60.5 2t-44.5 7l18 97q20 -5 43.5 -7t43.5 -2q41 0 68 9.5t43.5 24.5t24.5 35t12 41l9 50q-23 -26 -58 -37.5t-77 -11.5q-88 0 -134 45t-46 129q0 78 17 141t49 107t77 68t101 24q49 0 90 -16t66 -45l20 49
h103zM158 183q0 -48 23.5 -71.5t67.5 -23.5q102 0 122 110l30 168q-13 11 -37.5 23.5t-65.5 12.5q-66 0 -103 -59.5t-37 -159.5zM272 614q0 42 21.5 64.5t63.5 22.5q62 0 62 -55q0 -42 -21.5 -64.5t-63.5 -22.5q-62 0 -62 55z" />
    <glyph glyph-name="Gcommaaccent" unicode="&#x122;" horiz-adv-x="671" 
d="M370 369h272l-63 -358q-58 -11 -116 -17t-120 -6q-145 0 -220.5 63.5t-75.5 184.5q0 110 28 194t79.5 140.5t126 85t167.5 28.5q29 0 60.5 -3t61 -8t54.5 -11.5t42 -14.5l-37 -102q-32 14 -81 25.5t-97 11.5q-133 0 -203 -83t-70 -240q0 -85 45.5 -127t142.5 -42
q25 0 53 3.5t55 8.5l31 174h-151zM293 -256h-91l82 196h114z" />
    <glyph glyph-name="gcommaaccent" unicode="&#x123;" horiz-adv-x="569" 
d="M464 -1q-9 -53 -28 -94t-52 -69t-81.5 -42t-116.5 -14q-32 0 -60.5 2t-44.5 7l18 97q20 -5 43.5 -7t43.5 -2q41 0 68 9.5t43.5 24.5t24.5 35t12 41l9 50q-23 -26 -58 -37.5t-77 -11.5q-88 0 -134 45t-46 129q0 78 17 141t49 107t77 68t101 24q49 0 90 -16t66 -45l20 49
h103zM158 183q0 -48 23.5 -71.5t67.5 -23.5q102 0 122 110l30 168q-13 11 -37.5 23.5t-65.5 12.5q-66 0 -103 -59.5t-37 -159.5zM362 746h91l-82 -196h-114z" />
    <glyph glyph-name="Hcircumflex" unicode="&#x124;" horiz-adv-x="732" 
d="M233 394h323l49 278h133l-118 -672h-133l51 291h-323l-52 -291h-133l101 578q2 11 0 14.5t-11 7.5l-33 14l21 58h159q6 0 10 -1.5t2 -10.5zM410 880h124l98 -148h-104l-61 81l-90 -81h-115z" />
    <glyph glyph-name="hcircumflex" unicode="&#x125;" horiz-adv-x="580" 
d="M174 880h125l98 -138h-104l-62 76l-89 -76h-115zM400 327q0 73 -82 73q-31 0 -59.5 -10t-45.5 -19l-66 -371h-128l107 609q2 11 0.5 14.5t-10.5 7.5l-33 14l23 59h151q6 0 10 -1.5t2 -10.5l-43 -240q26 23 60 36.5t75 13.5q81 0 125 -40t44 -112q0 -34 -6 -64l-34 -191
q-2 -11 -0.5 -14.5t10.5 -7.5l33 -14l-22 -59h-156q-9 0 -8 10l49 276q4 23 4 41z" />
    <glyph glyph-name="Hbar" unicode="&#x126;" horiz-adv-x="727" 
d="M113 503h-57l15 88h58l14 81h133l-14 -81h324l14 81h133l-14 -81h57l-16 -88h-57l-88 -503h-133l50 286h-324l-50 -286h-133zM550 388l20 115h-324l-20 -115h324z" />
    <glyph glyph-name="hbar" unicode="&#x127;" horiz-adv-x="580" 
d="M226 452q26 23 60 36.5t75 13.5q81 0 125 -40t44 -112q0 -34 -6 -64l-34 -191q-2 -11 -0.5 -14.5t10.5 -7.5l33 -14l-22 -59h-156q-9 0 -8 10l49 276q4 23 4 41q0 73 -82 73q-31 0 -59.5 -10t-45.5 -19l-66 -371h-128l97 551h-54l15 88h54l12 65h128l-12 -65h167l-15 -88
h-167z" />
    <glyph glyph-name="Itilde" unicode="&#x128;" horiz-adv-x="275" 
d="M163 0h-133l101 578q2 11 0 14.5t-11 7.5l-33 14l21 58h159q6 0 10 -1.5t2 -10.5zM62 753q8 63 34 89.5t80 26.5q19 0 35.5 -6.5t30.5 -14t26 -14t23 -6.5q32 0 39 38l1 8h91l-2 -16q-8 -62 -34.5 -88.5t-80.5 -26.5q-20 0 -36 6.5t-30 14t-26 14t-23 6.5q-32 0 -38 -38
l-2 -9h-90z" />
    <glyph glyph-name="itilde" unicode="&#x129;" horiz-adv-x="263" 
d="M28 0l70 395q2 11 0.5 14.5t-10.5 7.5l-34 14l23 59h152q6 0 10 -1.5t2 -10.5l-85 -478h-128zM19 577q8 63 34 89.5t80 26.5q19 0 35.5 -6.5t30.5 -14t26 -14t23 -6.5q32 0 39 38l1 8h91l-2 -16q-8 -62 -34.5 -88.5t-80.5 -26.5q-20 0 -36 6.5t-30 14t-26 14t-23 6.5
q-32 0 -38 -38l-2 -9h-90z" />
    <glyph glyph-name="Imacron" unicode="&#x12a;" horiz-adv-x="275" 
d="M163 0h-133l101 578q2 11 0 14.5t-11 7.5l-33 14l21 58h159q6 0 10 -1.5t2 -10.5zM87 849h323l-15 -87h-323z" />
    <glyph glyph-name="imacron" unicode="&#x12b;" horiz-adv-x="263" 
d="M28 0l70 395q2 11 0.5 14.5t-10.5 7.5l-34 14l23 59h152q6 0 10 -1.5t2 -10.5l-85 -478h-128zM44 673h323l-15 -87h-323z" />
    <glyph glyph-name="Ibreve" unicode="&#x12c;" horiz-adv-x="275" 
d="M163 0h-133l101 578q2 11 0 14.5t-11 7.5l-33 14l21 58h159q6 0 10 -1.5t2 -10.5zM176 880q-12 -74 66 -74q42 0 63 17t27 57h91q-12 -84 -57 -121.5t-133 -37.5q-150 0 -150 114q0 11 1 22t3 23h89z" />
    <glyph glyph-name="ibreve" unicode="&#x12d;" horiz-adv-x="263" 
d="M28 0l70 395q2 11 0.5 14.5t-10.5 7.5l-34 14l23 59h152q6 0 10 -1.5t2 -10.5l-85 -478h-128zM133 704q-12 -74 66 -74q42 0 63 17t27 57h91q-12 -84 -57 -121.5t-133 -37.5q-150 0 -150 114q0 11 1 22t3 23h89z" />
    <glyph glyph-name="Iogonek" unicode="&#x12e;" horiz-adv-x="275" 
d="M131 578q2 11 0 14.5t-11 7.5l-33 14l21 58h159q6 0 10 -1.5t2 -10.5l-116 -660q-60 -43 -85 -72.5t-25 -53.5q0 -35 47 -35q9 0 17.5 0.5t16.5 1.5l-12 -72q-27 -6 -60 -6q-59 0 -85.5 21.5t-26.5 63.5q0 74 108 152h-28z" />
    <glyph glyph-name="iogonek" unicode="&#x12f;" horiz-adv-x="263" 
d="M28 0l70 395q2 11 0.5 14.5t-10.5 7.5l-34 14l23 59h152q6 0 10 -1.5t2 -10.5l-85 -478q-60 -43 -85 -72.5t-25 -53.5q0 -35 47 -35q9 0 17.5 0.5t16.5 1.5l-12 -72q-27 -6 -60 -6q-59 0 -85.5 21.5t-26.5 63.5q0 74 108 152h-23zM125 614q0 43 22.5 66t64.5 23
q65 0 65 -57q0 -44 -22.5 -67t-64.5 -23q-65 0 -65 58z" />
    <glyph glyph-name="Idotaccent" unicode="&#x130;" horiz-adv-x="275" 
d="M163 0h-133l101 578q2 11 0 14.5t-11 7.5l-33 14l21 58h159q6 0 10 -1.5t2 -10.5zM167 790q0 42 21.5 64.5t63.5 22.5q62 0 62 -55q0 -42 -21.5 -64.5t-63.5 -22.5q-62 0 -62 55z" />
    <glyph glyph-name="dotlessi" unicode="&#x131;" horiz-adv-x="263" 
d="M28 0l70 395q2 11 0.5 14.5t-10.5 7.5l-34 14l23 59h152q6 0 10 -1.5t2 -10.5l-85 -478h-128z" />
    <glyph glyph-name="IJ" unicode="&#x132;" horiz-adv-x="731" 
d="M158 0h-133l101 578q2 11 0 14.5t-11 7.5l-33 14l21 58h159q6 0 10 -1.5t2 -10.5zM651 182q-17 -102 -75 -148t-168 -46q-40 0 -77 4.5t-72 12.5l19 104q30 -8 58.5 -12t55.5 -4q60 0 90 25t40 84l83 470h133z" />
    <glyph glyph-name="ij" unicode="&#x133;" horiz-adv-x="510" 
d="M28 0l70 395q2 11 0.5 14.5t-10.5 7.5l-34 14l23 59h152q6 0 10 -1.5t2 -10.5l-85 -478h-128zM125 614q0 43 22.5 66t64.5 23q65 0 65 -57q0 -44 -22.5 -67t-64.5 -23q-65 0 -65 58zM400 -18q-11 -58 -26 -93t-39 -58q-51 -48 -154 -48q-12 0 -26.5 0.5t-23.5 2.5l16 94
q5 -1 13 -1h15q44 0 65 20q11 11 18.5 29t12.5 49l74 418q2 11 0.5 14.5t-10.5 7.5l-34 14l23 59h152q6 0 10 -1.5t2 -10.5zM372 614q0 43 22.5 66t64.5 23q65 0 65 -57q0 -44 -22.5 -67t-64.5 -23q-65 0 -65 58z" />
    <glyph glyph-name="Jcircumflex" unicode="&#x134;" horiz-adv-x="457" 
d="M376 182q-17 -102 -75 -148t-168 -46q-40 0 -77 4.5t-72 12.5l19 104q30 -8 58.5 -12t55.5 -4q60 0 90 25t40 84l83 470h133zM364 880h124l98 -148h-104l-61 81l-90 -81h-115z" />
    <glyph glyph-name="jcircumflex" unicode="&#x135;" horiz-adv-x="263" 
d="M153 -18q-11 -58 -26 -93t-39 -58q-51 -48 -154 -48q-12 0 -26.5 0.5t-23.5 2.5l16 94q5 -1 13 -1h15q44 0 65 20q11 11 18.5 29t12.5 49l74 418q2 11 0.5 14.5t-10.5 7.5l-34 14l23 59h152q6 0 10 -1.5t2 -10.5zM147 704h124l98 -148h-104l-61 81l-90 -81h-115z" />
    <glyph glyph-name="Kcommaaccent" unicode="&#x136;" horiz-adv-x="624" 
d="M225 382l317 290h151l-334 -310l218 -362h-137l-170 284l-74 -67l-38 -217h-128l101 578q2 11 0 14.5t-11 7.5l-33 14l21 58h154q6 0 10 -1.5t2 -10.5zM227 -256h-91l82 196h114z" />
    <glyph glyph-name="kcommaaccent" unicode="&#x137;" horiz-adv-x="506" 
d="M196 305l194 185h146l-230 -217l144 -273h-132l-98 197l-52 -49l-26 -148h-123l107 609q2 11 0.5 14.5t-10.5 7.5l-33 14l23 59h146q6 0 10 -1.5t2 -10.5zM168 -256h-91l82 196h114z" />
    <glyph glyph-name="kgreenlandic" unicode="&#x138;" horiz-adv-x="511" 
d="M201 305l194 185h146l-237 -224l151 -266h-132l-105 190l-45 -42l-26 -148h-123l70 395q2 11 0.5 14.5t-10.5 7.5l-34 14l23 59h147q6 0 10 -1.5t2 -10.5z" />
    <glyph glyph-name="Lacute" unicode="&#x139;" horiz-adv-x="524" 
d="M488 102l-19 -102h-439l101 578q2 11 0 14.5t-11 7.5l-33 14l21 58h159q6 0 10 -1.5t2 -10.5l-98 -558h307zM270 732h-120l141 148h142z" />
    <glyph glyph-name="lacute" unicode="&#x13a;" horiz-adv-x="265" 
d="M259 742h-120l140 138h142zM165 95q-2 -11 -0.5 -14.5t10.5 -7.5l33 -14l-22 -59h-156q-9 0 -8 10l105 599q2 11 0.5 14.5t-10.5 7.5l-33 14l23 59h151q6 0 10 -1.5t2 -10.5z" />
    <glyph glyph-name="Lcommaaccent" unicode="&#x13b;" horiz-adv-x="524" 
d="M488 102l-19 -102h-439l101 578q2 11 0 14.5t-11 7.5l-33 14l21 58h159q6 0 10 -1.5t2 -10.5l-98 -558h307zM212 -256h-91l82 196h114z" />
    <glyph glyph-name="lcommaaccent" unicode="&#x13c;" horiz-adv-x="265" 
d="M165 95q-2 -11 -0.5 -14.5t10.5 -7.5l33 -14l-22 -59h-156q-9 0 -8 10l105 599q2 11 0.5 14.5t-10.5 7.5l-33 14l23 59h151q6 0 10 -1.5t2 -10.5zM45 -256h-91l82 196h114z" />
    <glyph glyph-name="Lcaron" unicode="&#x13d;" horiz-adv-x="524" 
d="M488 102l-19 -102h-439l101 578q2 11 0 14.5t-11 7.5l-33 14l21 58h159q6 0 10 -1.5t2 -10.5l-98 -558h307zM393 518h-91l82 196h114z" />
    <glyph glyph-name="lcaron" unicode="&#x13e;" horiz-adv-x="388" 
d="M165 95q-2 -11 -0.5 -14.5t10.5 -7.5l33 -14l-22 -59h-156q-9 0 -8 10l105 599q2 11 0.5 14.5t-10.5 7.5l-33 14l23 59h151q6 0 10 -1.5t2 -10.5zM373 550h-91l82 196h114z" />
    <glyph glyph-name="Ldot" unicode="&#x13f;" horiz-adv-x="524" 
d="M488 102l-19 -102h-439l101 578q2 11 0 14.5t-11 7.5l-33 14l21 58h159q6 0 10 -1.5t2 -10.5l-98 -558h307zM346 343q0 42 21.5 64.5t63.5 22.5q62 0 62 -55q0 -42 -21.5 -64.5t-63.5 -22.5q-62 0 -62 55z" />
    <glyph glyph-name="ldot" unicode="&#x140;" horiz-adv-x="374" 
d="M258 343q0 39 20 60t59 21q57 0 57 -51q0 -39 -20 -60t-59 -21q-57 0 -57 51zM165 95q-2 -11 -0.5 -14.5t10.5 -7.5l33 -14l-22 -59h-156q-9 0 -8 10l105 599q2 11 0.5 14.5t-10.5 7.5l-33 14l23 59h151q6 0 10 -1.5t2 -10.5z" />
    <glyph glyph-name="Lslash" unicode="&#x141;" horiz-adv-x="535" 
d="M192 102h307l-19 -102h-439l46 264l-71 -29l18 101l71 29l37 213q2 11 0 14.5t-11 7.5l-33 14l21 58h159q6 0 10 -1.5t2 -10.5l-42 -238l158 64l-17 -101l-158 -62z" />
    <glyph glyph-name="lslash" unicode="&#x142;" horiz-adv-x="307" 
d="M251 435l93 38l-18 -101l-93 -37l-42 -240q-2 -11 -0.5 -14.5t10.5 -7.5l33 -14l-22 -59h-156q-9 0 -8 10l47 270l-93 -37l18 100l93 37l40 229q2 11 0.5 14.5t-10.5 7.5l-33 14l23 59h151q6 0 10 -1.5t2 -10.5z" />
    <glyph glyph-name="Nacute" unicode="&#x143;" horiz-adv-x="732" 
d="M131 578q2 11 0 14.5t-11 7.5l-33 14l21 58h151q15 0 19 -3t13 -20l238 -467l86 490h123l-118 -672h-131l-249 490l-87 -490h-123zM498 732h-120l141 148h142z" />
    <glyph glyph-name="nacute" unicode="&#x144;" horiz-adv-x="585" 
d="M228 449q28 26 63.5 39.5t74.5 13.5q81 0 125 -40t44 -112q0 -34 -6 -64l-34 -191q-2 -11 -0.5 -14.5t10.5 -7.5l33 -14l-22 -59h-156q-9 0 -8 10l49 276q4 23 4 41q0 73 -82 73q-31 0 -59.5 -10t-45.5 -19l-66 -371h-128l70 395q2 11 0.5 14.5t-10.5 7.5l-33 14l23 59
h147q6 0 10 -2t2 -10zM394 556h-120l141 148h142z" />
    <glyph glyph-name="Ncommaaccent" unicode="&#x145;" horiz-adv-x="732" 
d="M131 578q2 11 0 14.5t-11 7.5l-33 14l21 58h151q15 0 19 -3t13 -20l238 -467l86 490h123l-118 -672h-131l-249 490l-87 -490h-123zM286 -256h-91l82 196h114z" />
    <glyph glyph-name="ncommaaccent" unicode="&#x146;" horiz-adv-x="585" 
d="M228 449q28 26 63.5 39.5t74.5 13.5q81 0 125 -40t44 -112q0 -34 -6 -64l-34 -191q-2 -11 -0.5 -14.5t10.5 -7.5l33 -14l-22 -59h-156q-9 0 -8 10l49 276q4 23 4 41q0 73 -82 73q-31 0 -59.5 -10t-45.5 -19l-66 -371h-128l70 395q2 11 0.5 14.5t-10.5 7.5l-33 14l23 59
h147q6 0 10 -2t2 -10zM212 -256h-91l82 196h114z" />
    <glyph glyph-name="Ncaron" unicode="&#x147;" horiz-adv-x="732" 
d="M131 578q2 11 0 14.5t-11 7.5l-33 14l21 58h151q15 0 19 -3t13 -20l238 -467l86 490h123l-118 -672h-131l-249 490l-87 -490h-123zM517 732h-124l-98 148h104l61 -81l90 81h115z" />
    <glyph glyph-name="ncaron" unicode="&#x148;" horiz-adv-x="585" 
d="M228 449q28 26 63.5 39.5t74.5 13.5q81 0 125 -40t44 -112q0 -34 -6 -64l-34 -191q-2 -11 -0.5 -14.5t10.5 -7.5l33 -14l-22 -59h-156q-9 0 -8 10l49 276q4 23 4 41q0 73 -82 73q-31 0 -59.5 -10t-45.5 -19l-66 -371h-128l70 395q2 11 0.5 14.5t-10.5 7.5l-33 14l23 59
h147q6 0 10 -2t2 -10zM413 556h-124l-98 148h104l61 -81l90 81h115z" />
    <glyph glyph-name="napostrophe" unicode="&#x149;" horiz-adv-x="640" 
d="M283 449q28 26 63.5 39.5t74.5 13.5q81 0 125 -40t44 -112q0 -34 -6 -64l-34 -191q-2 -11 -0.5 -14.5t10.5 -7.5l33 -14l-22 -59h-156q-9 0 -8 10l49 276q4 23 4 41q0 73 -82 73q-31 0 -59.5 -10t-45.5 -19l-66 -371h-128l70 395q2 11 0.5 14.5t-10.5 7.5l-33 14l23 59
h147q6 0 10 -2t2 -10zM86 476h-91l82 196h114z" />
    <glyph glyph-name="Eng" unicode="&#x14a;" horiz-adv-x="732" 
d="M738 672l-123 -698q-17 -101 -75 -147.5t-168 -46.5q-41 0 -77.5 4.5t-71.5 12.5l18 104q30 -8 59 -12t56 -4q61 0 91 20t39 63l5 28l-251 494l-87 -490h-123l101 578q2 11 0 14.5t-11 7.5l-33 14l21 58h151q15 0 19 -3t13 -20l238 -467l86 490h123z" />
    <glyph glyph-name="eng" unicode="&#x14b;" horiz-adv-x="585" 
d="M366 502q81 0 125 -40t44 -112q0 -34 -6 -64l-63 -352q-14 -82 -60 -118t-137 -36q-27 0 -54 3.5t-54 9.5l17 98q42 -11 76 -11q40 0 60.5 17t27.5 57l59 332q4 19 4 41q0 73 -82 73q-31 0 -59.5 -10t-45.5 -19l-66 -371h-128l70 395q2 11 0.5 14.5t-10.5 7.5l-33 14
l23 59h147q6 0 10 -2t2 -10l-5 -29q28 26 63.5 39.5t74.5 13.5z" />
    <glyph glyph-name="Omacron" unicode="&#x14c;" horiz-adv-x="727" 
d="M47 233q0 106 25.5 190t74 142t118 88.5t158.5 30.5q143 0 215.5 -62t72.5 -183q0 -107 -25.5 -190.5t-74 -141.5t-118.5 -88.5t-158 -30.5q-143 0 -215.5 62t-72.5 183zM183 248q0 -155 160 -155q54 0 97 22.5t73 65.5t46 104t16 139q0 155 -160 155q-54 0 -97 -22.5
t-73 -65.5t-46 -104t-16 -139zM305 849h323l-15 -87h-323z" />
    <glyph glyph-name="omacron" unicode="&#x14d;" horiz-adv-x="561" 
d="M28 170q0 78 19.5 139.5t56 104t89 65.5t119.5 23q221 0 221 -182q0 -78 -19.5 -139.5t-56 -104t-89.5 -65.5t-120 -23q-110 0 -165 46t-55 136zM158 185q0 -97 98 -97q34 0 61 15.5t46 43.5t29.5 68t10.5 90q0 97 -98 97q-34 0 -61 -15.5t-46 -43.5t-29.5 -68.5
t-10.5 -89.5zM190 673h323l-15 -87h-323z" />
    <glyph glyph-name="Obreve" unicode="&#x14e;" horiz-adv-x="727" 
d="M47 233q0 106 25.5 190t74 142t118 88.5t158.5 30.5q143 0 215.5 -62t72.5 -183q0 -107 -25.5 -190.5t-74 -141.5t-118.5 -88.5t-158 -30.5q-143 0 -215.5 62t-72.5 183zM183 248q0 -155 160 -155q54 0 97 22.5t73 65.5t46 104t16 139q0 155 -160 155q-54 0 -97 -22.5
t-73 -65.5t-46 -104t-16 -139zM394 880q-12 -74 66 -74q42 0 63 17t27 57h91q-12 -84 -57 -121.5t-133 -37.5q-150 0 -150 114q0 11 1 22t3 23h89z" />
    <glyph glyph-name="obreve" unicode="&#x14f;" horiz-adv-x="561" 
d="M28 170q0 78 19.5 139.5t56 104t89 65.5t119.5 23q221 0 221 -182q0 -78 -19.5 -139.5t-56 -104t-89.5 -65.5t-120 -23q-110 0 -165 46t-55 136zM158 185q0 -97 98 -97q34 0 61 15.5t46 43.5t29.5 68t10.5 90q0 97 -98 97q-34 0 -61 -15.5t-46 -43.5t-29.5 -68.5
t-10.5 -89.5zM279 704q-12 -74 66 -74q42 0 63 17t27 57h91q-12 -84 -57 -121.5t-133 -37.5q-150 0 -150 114q0 11 1 22t3 23h89z" />
    <glyph glyph-name="Ohungarumlaut" unicode="&#x150;" horiz-adv-x="727" 
d="M47 233q0 106 25.5 190t74 142t118 88.5t158.5 30.5q143 0 215.5 -62t72.5 -183q0 -107 -25.5 -190.5t-74 -141.5t-118.5 -88.5t-158 -30.5q-143 0 -215.5 62t-72.5 183zM183 248q0 -155 160 -155q54 0 97 22.5t73 65.5t46 104t16 139q0 155 -160 155q-54 0 -97 -22.5
t-73 -65.5t-46 -104t-16 -139zM601 732h-120l141 148h142zM385 732h-120l140 148h142z" />
    <glyph glyph-name="ohungarumlaut" unicode="&#x151;" horiz-adv-x="561" 
d="M28 170q0 78 19.5 139.5t56 104t89 65.5t119.5 23q221 0 221 -182q0 -78 -19.5 -139.5t-56 -104t-89.5 -65.5t-120 -23q-110 0 -165 46t-55 136zM158 185q0 -97 98 -97q34 0 61 15.5t46 43.5t29.5 68t10.5 90q0 97 -98 97q-34 0 -61 -15.5t-46 -43.5t-29.5 -68.5
t-10.5 -89.5zM486 556h-120l141 148h142zM270 556h-120l140 148h142z" />
    <glyph glyph-name="OE" unicode="&#x152;" horiz-adv-x="1010" 
d="M1024 572h-338l-31 -181h265l-18 -98h-265l-33 -193h345l-18 -100h-574q-160 0 -235 60.5t-75 188.5q0 102 26.5 180.5t77 132.5t124 82t168.5 28h598zM553 570h-115q-124 0 -189.5 -81t-65.5 -230q0 -81 46 -119t148 -38h94z" />
    <glyph glyph-name="oe" unicode="&#x153;" horiz-adv-x="904" 
d="M28 170q0 78 19 139.5t55.5 104.5t89.5 65.5t120 22.5q137 0 178 -84q31 41 76 62.5t104 21.5q103 0 152.5 -43.5t49.5 -135.5q0 -56 -17 -115h-334q-2 -21 0 -38q9 -85 131 -85q40 0 82 5.5t85 14.5l-17 -98q-39 -9 -80 -14t-85 -5q-75 0 -125.5 22.5t-71.5 64.5
q-32 -42 -80.5 -64.5t-111.5 -22.5q-110 0 -165 46t-55 136zM158 185q0 -97 98 -97q69 0 108 58t39 159q0 97 -98 97q-69 0 -108 -58t-39 -159zM663 412q-51 0 -83.5 -31.5t-44.5 -90.5h213q3 16 3 38q0 42 -21 63t-67 21z" />
    <glyph glyph-name="Racute" unicode="&#x154;" horiz-adv-x="652" 
d="M220 353h152q143 0 143 140q0 79 -110 79h-147zM425 672q113 0 167 -39.5t54 -121.5q0 -103 -47.5 -164.5t-137.5 -78.5l116 -268h-129l-108 253h-138l-44 -253h-128l101 578q2 11 0 14.5t-11 7.5l-33 14l21 58h317zM458 732h-120l141 148h142z" />
    <glyph glyph-name="racute" unicode="&#x155;" horiz-adv-x="397" 
d="M404 393q-6 2 -21.5 4.5t-33.5 2.5q-43 0 -73 -13t-61 -35l-63 -352h-128l70 395q2 11 0.5 14.5t-10.5 7.5l-33 14l23 59h147q6 0 10 -2t2 -10l-8 -48q32 40 68.5 56t73.5 16q16 0 31.5 -1.5t23.5 -3.5zM319 556h-120l141 148h142z" />
    <glyph glyph-name="Rcommaaccent" unicode="&#x156;" horiz-adv-x="652" 
d="M220 353h152q143 0 143 140q0 79 -110 79h-147zM425 672q113 0 167 -39.5t54 -121.5q0 -103 -47.5 -164.5t-137.5 -78.5l116 -268h-129l-108 253h-138l-44 -253h-128l101 578q2 11 0 14.5t-11 7.5l-33 14l21 58h317zM246 -256h-91l82 196h114z" />
    <glyph glyph-name="rcommaaccent" unicode="&#x157;" horiz-adv-x="397" 
d="M404 393q-6 2 -21.5 4.5t-33.5 2.5q-43 0 -73 -13t-61 -35l-63 -352h-128l70 395q2 11 0.5 14.5t-10.5 7.5l-33 14l23 59h147q6 0 10 -2t2 -10l-8 -48q32 40 68.5 56t73.5 16q16 0 31.5 -1.5t23.5 -3.5zM49 -256h-91l82 196h114z" />
    <glyph glyph-name="Rcaron" unicode="&#x158;" horiz-adv-x="652" 
d="M220 353h152q143 0 143 140q0 79 -110 79h-147zM425 672q113 0 167 -39.5t54 -121.5q0 -103 -47.5 -164.5t-137.5 -78.5l116 -268h-129l-108 253h-138l-44 -253h-128l101 578q2 11 0 14.5t-11 7.5l-33 14l21 58h317zM477 732h-124l-98 148h104l61 -81l90 81h115z" />
    <glyph glyph-name="rcaron" unicode="&#x159;" horiz-adv-x="397" 
d="M404 393q-6 2 -21.5 4.5t-33.5 2.5q-43 0 -73 -13t-61 -35l-63 -352h-128l70 395q2 11 0.5 14.5t-10.5 7.5l-33 14l23 59h147q6 0 10 -2t2 -10l-8 -48q32 40 68.5 56t73.5 16q16 0 31.5 -1.5t23.5 -3.5zM338 556h-124l-98 148h104l61 -81l90 81h115z" />
    <glyph glyph-name="Sacute" unicode="&#x15a;" horiz-adv-x="588" 
d="M546 546q-36 14 -81.5 25t-98.5 11q-70 0 -111 -22.5t-41 -75.5q0 -33 24 -50.5t60 -29t78.5 -22.5t78.5 -30.5t60 -53.5t24 -91q0 -52 -19 -93t-55 -69t-87.5 -42.5t-115.5 -14.5q-66 0 -129.5 10t-120.5 29l19 103q108 -40 224 -40q72 0 113.5 27t41.5 81
q0 35 -24 53.5t-60 30.5t-78 22t-78 29t-60 52t-24 90q0 51 20.5 90t56.5 65.5t86 40t109 13.5q37 0 72 -4t65 -9.5t52.5 -12.5t34.5 -13l-36 -99v0zM424 732h-120l141 148h142z" />
    <glyph glyph-name="sacute" unicode="&#x15b;" horiz-adv-x="459" 
d="M407 378q-25 12 -60 20.5t-72 8.5q-45 0 -71.5 -14t-26.5 -44q0 -19 17.5 -29t43.5 -17t56.5 -14.5t56.5 -22.5t43.5 -40t17.5 -66q0 -81 -55.5 -126.5t-161.5 -45.5q-51 0 -98.5 7t-91.5 21l17 100q84 -33 166 -33q48 0 74.5 17t26.5 50q0 22 -17.5 32.5t-43.5 18
t-56.5 15.5t-56.5 22.5t-43.5 40t-17.5 69.5q0 72 56 113t157 41q52 0 98 -8t78 -21l-36 -95v0zM328 556h-120l141 148h142z" />
    <glyph glyph-name="Scircumflex" unicode="&#x15c;" horiz-adv-x="588" 
d="M546 546q-36 14 -81.5 25t-98.5 11q-70 0 -111 -22.5t-41 -75.5q0 -33 24 -50.5t60 -29t78.5 -22.5t78.5 -30.5t60 -53.5t24 -91q0 -52 -19 -93t-55 -69t-87.5 -42.5t-115.5 -14.5q-66 0 -129.5 10t-120.5 29l19 103q108 -40 224 -40q72 0 113.5 27t41.5 81
q0 35 -24 53.5t-60 30.5t-78 22t-78 29t-60 52t-24 90q0 51 20.5 90t56.5 65.5t86 40t109 13.5q37 0 72 -4t65 -9.5t52.5 -12.5t34.5 -13l-36 -99v0zM336 880h124l98 -148h-104l-61 81l-90 -81h-115z" />
    <glyph glyph-name="scircumflex" unicode="&#x15d;" horiz-adv-x="459" 
d="M407 378q-25 12 -60 20.5t-72 8.5q-45 0 -71.5 -14t-26.5 -44q0 -19 17.5 -29t43.5 -17t56.5 -14.5t56.5 -22.5t43.5 -40t17.5 -66q0 -81 -55.5 -126.5t-161.5 -45.5q-51 0 -98.5 7t-91.5 21l17 100q84 -33 166 -33q48 0 74.5 17t26.5 50q0 22 -17.5 32.5t-43.5 18
t-56.5 15.5t-56.5 22.5t-43.5 40t-17.5 69.5q0 72 56 113t157 41q52 0 98 -8t78 -21l-36 -95v0zM240 704h124l98 -148h-104l-61 81l-90 -81h-115z" />
    <glyph glyph-name="Scedilla" unicode="&#x15e;" horiz-adv-x="588" 
d="M208 -10q-52 3 -101.5 12.5t-94.5 24.5l19 103q108 -40 224 -40q72 0 113.5 27t41.5 81q0 35 -24 53.5t-60 30.5t-78 22t-78 29t-60 52t-24 90q0 51 20.5 90t56.5 65.5t86 40t109 13.5q37 0 72 -4t65 -9.5t52.5 -12.5t34.5 -13l-36 -99q-36 14 -81.5 25t-98.5 11
q-70 0 -111 -22.5t-41 -75.5q0 -33 24 -50.5t60 -29t78.5 -22.5t78.5 -30.5t60 -53.5t24 -91q0 -98 -64.5 -154t-179.5 -64l-5 -33q61 -12 61 -73q0 -57 -39 -88.5t-110 -31.5q-23 0 -47.5 4t-48.5 10l12 69q18 -6 37 -9.5t38 -3.5q58 0 58 42q0 14 -11.5 21.5t-40.5 7.5h-6
z" />
    <glyph glyph-name="scedilla" unicode="&#x15f;" horiz-adv-x="459" 
d="M142 -10q-73 6 -137 26l17 100q84 -33 166 -33q48 0 74.5 17t26.5 50q0 22 -17.5 32.5t-43.5 18t-56.5 15.5t-56.5 22.5t-43.5 40t-17.5 69.5q0 72 56 113t157 41q52 0 98 -8t78 -21l-36 -95q-25 12 -60 20.5t-72 8.5q-45 0 -71.5 -14t-26.5 -44q0 -19 17.5 -29t43.5 -17
t56.5 -14.5t56.5 -22.5t43.5 -40t17.5 -66q0 -74 -46.5 -118t-136.5 -52l-5 -34q61 -12 61 -73q0 -57 -39 -88.5t-110 -31.5q-23 0 -47.5 4t-48.5 10l12 69q18 -6 37 -9.5t38 -3.5q58 0 58 42q0 14 -11.5 21.5t-40.5 7.5h-6z" />
    <glyph glyph-name="Scaron" unicode="&#x160;" horiz-adv-x="588" 
d="M546 546q-36 14 -81.5 25t-98.5 11q-70 0 -111 -22.5t-41 -75.5q0 -33 24 -50.5t60 -29t78.5 -22.5t78.5 -30.5t60 -53.5t24 -91q0 -52 -19 -93t-55 -69t-87.5 -42.5t-115.5 -14.5q-66 0 -129.5 10t-120.5 29l19 103q108 -40 224 -40q72 0 113.5 27t41.5 81
q0 35 -24 53.5t-60 30.5t-78 22t-78 29t-60 52t-24 90q0 51 20.5 90t56.5 65.5t86 40t109 13.5q37 0 72 -4t65 -9.5t52.5 -12.5t34.5 -13l-36 -99v0zM443 732h-124l-98 148h104l61 -81l90 81h115z" />
    <glyph glyph-name="scaron" unicode="&#x161;" horiz-adv-x="459" 
d="M407 378q-25 12 -60 20.5t-72 8.5q-45 0 -71.5 -14t-26.5 -44q0 -19 17.5 -29t43.5 -17t56.5 -14.5t56.5 -22.5t43.5 -40t17.5 -66q0 -81 -55.5 -126.5t-161.5 -45.5q-51 0 -98.5 7t-91.5 21l17 100q84 -33 166 -33q48 0 74.5 17t26.5 50q0 22 -17.5 32.5t-43.5 18
t-56.5 15.5t-56.5 22.5t-43.5 40t-17.5 69.5q0 72 56 113t157 41q52 0 98 -8t78 -21l-36 -95v0zM347 556h-124l-98 148h104l61 -81l90 81h115z" />
    <glyph glyph-name="Tcommaaccent" unicode="&#x162;" horiz-adv-x="599" 
d="M289 570h-214l19 102h560l-18 -102h-214l-99 -570h-134zM217 -256h-91l82 196h114z" />
    <glyph glyph-name="tcommaaccent" unicode="&#x163;" horiz-adv-x="392" 
d="M94 375q3 15 1.5 19t-9.5 6l-62 17l28 73h63l25 141h128l-25 -141h153l-17 -97h-154l-37 -211q-3 -17 -3 -33q0 -61 75 -61q32 0 66 7l-18 -100q-19 -3 -38.5 -5t-40.5 -2q-89 0 -131.5 34.5t-42.5 101.5q0 13 1.5 26t3.5 27zM131 -256h-91l82 196h114z" />
    <glyph glyph-name="Tcaron" unicode="&#x164;" horiz-adv-x="599" 
d="M289 570h-214l19 102h560l-18 -102h-214l-99 -570h-134zM448 732h-124l-98 148h104l61 -81l90 81h115z" />
    <glyph glyph-name="tcaron" unicode="&#x165;" horiz-adv-x="392" 
d="M94 375q3 15 1.5 19t-9.5 6l-62 17l28 73h63l25 141h128l-25 -141h153l-17 -97h-154l-37 -211q-3 -17 -3 -33q0 -61 75 -61q32 0 66 7l-18 -100q-19 -3 -38.5 -5t-40.5 -2q-89 0 -131.5 34.5t-42.5 101.5q0 13 1.5 26t3.5 27zM381 550h-91l82 196h114z" />
    <glyph glyph-name="Tbar" unicode="&#x166;" horiz-adv-x="599" 
d="M113 360h140l36 210h-214l19 102h560l-18 -102h-214l-36 -210h139l-16 -93h-140l-46 -267h-134l47 267h-140z" />
    <glyph glyph-name="tbar" unicode="&#x167;" horiz-adv-x="409" 
d="M83 205h-83l13 83h84l15 87q3 15 1.5 19t-9.5 6l-62 17l28 73h63l25 141h128l-25 -141h153l-17 -92h-154l-19 -110h138l-15 -83h-137l-4 -23q-3 -17 -3 -33q0 -61 75 -61q32 0 66 7l-18 -100q-19 -3 -38.5 -5t-40.5 -2q-89 0 -131.5 34.5t-42.5 101.5q0 13 1.5 26t3.5 27
z" />
    <glyph glyph-name="Utilde" unicode="&#x168;" horiz-adv-x="732" 
d="M211 271q-3 -16 -5 -32.5t-2 -32.5q0 -52 37 -82.5t100 -30.5q85 0 130.5 37.5t59.5 118.5l74 423h133l-76 -433q-11 -66 -36 -113t-66 -78t-98.5 -45.5t-133.5 -14.5q-60 0 -107.5 13.5t-81.5 39t-52 61.5t-18 81q0 21 2.5 43.5t6.5 44.5l53 307q2 11 0 14.5t-11 7.5
l-33 14l21 58h159q6 0 10 -1.5t2 -10.5zM285 753q8 63 34 89.5t80 26.5q19 0 35.5 -6.5t30.5 -14t26 -14t23 -6.5q32 0 39 38l1 8h91l-2 -16q-8 -62 -34.5 -88.5t-80.5 -26.5q-20 0 -36 6.5t-30 14t-26 14t-23 6.5q-32 0 -38 -38l-2 -9h-90z" />
    <glyph glyph-name="utilde" unicode="&#x169;" horiz-adv-x="571" 
d="M87 395q2 11 0.5 14.5t-10.5 7.5l-34 14l23 59h152q6 0 10 -1.5t2 -10.5l-50 -279q-2 -10 -3 -20.5t-1 -20.5q0 -32 22.5 -51t62.5 -19q51 0 78.5 23t36.5 74l54 305h128l-56 -315q-17 -98 -78 -142.5t-177 -44.5q-94 0 -147 39t-53 108q0 17 1.5 33t3.5 31zM174 577
q8 63 34 89.5t80 26.5q19 0 35.5 -6.5t30.5 -14t26 -14t23 -6.5q32 0 39 38l1 8h91l-2 -16q-8 -62 -34.5 -88.5t-80.5 -26.5q-20 0 -36 6.5t-30 14t-26 14t-23 6.5q-32 0 -38 -38l-2 -9h-90z" />
    <glyph glyph-name="Umacron" unicode="&#x16a;" horiz-adv-x="732" 
d="M211 271q-3 -16 -5 -32.5t-2 -32.5q0 -52 37 -82.5t100 -30.5q85 0 130.5 37.5t59.5 118.5l74 423h133l-76 -433q-11 -66 -36 -113t-66 -78t-98.5 -45.5t-133.5 -14.5q-60 0 -107.5 13.5t-81.5 39t-52 61.5t-18 81q0 21 2.5 43.5t6.5 44.5l53 307q2 11 0 14.5t-11 7.5
l-33 14l21 58h159q6 0 10 -1.5t2 -10.5zM310 849h323l-15 -87h-323z" />
    <glyph glyph-name="umacron" unicode="&#x16b;" horiz-adv-x="571" 
d="M87 395q2 11 0.5 14.5t-10.5 7.5l-34 14l23 59h152q6 0 10 -1.5t2 -10.5l-50 -279q-2 -10 -3 -20.5t-1 -20.5q0 -32 22.5 -51t62.5 -19q51 0 78.5 23t36.5 74l54 305h128l-56 -315q-17 -98 -78 -142.5t-177 -44.5q-94 0 -147 39t-53 108q0 17 1.5 33t3.5 31zM199 673h323
l-15 -87h-323z" />
    <glyph glyph-name="Ubreve" unicode="&#x16c;" horiz-adv-x="732" 
d="M211 271q-3 -16 -5 -32.5t-2 -32.5q0 -52 37 -82.5t100 -30.5q85 0 130.5 37.5t59.5 118.5l74 423h133l-76 -433q-11 -66 -36 -113t-66 -78t-98.5 -45.5t-133.5 -14.5q-60 0 -107.5 13.5t-81.5 39t-52 61.5t-18 81q0 21 2.5 43.5t6.5 44.5l53 307q2 11 0 14.5t-11 7.5
l-33 14l21 58h159q6 0 10 -1.5t2 -10.5zM399 880q-12 -74 66 -74q42 0 63 17t27 57h91q-12 -84 -57 -121.5t-133 -37.5q-150 0 -150 114q0 11 1 22t3 23h89z" />
    <glyph glyph-name="ubreve" unicode="&#x16d;" horiz-adv-x="571" 
d="M87 395q2 11 0.5 14.5t-10.5 7.5l-34 14l23 59h152q6 0 10 -1.5t2 -10.5l-50 -279q-2 -10 -3 -20.5t-1 -20.5q0 -32 22.5 -51t62.5 -19q51 0 78.5 23t36.5 74l54 305h128l-56 -315q-17 -98 -78 -142.5t-177 -44.5q-94 0 -147 39t-53 108q0 17 1.5 33t3.5 31zM288 704
q-12 -74 66 -74q42 0 63 17t27 57h91q-12 -84 -57 -121.5t-133 -37.5q-150 0 -150 114q0 11 1 22t3 23h89z" />
    <glyph glyph-name="Uring" unicode="&#x16e;" horiz-adv-x="732" 
d="M211 271q-3 -16 -5 -32.5t-2 -32.5q0 -52 37 -82.5t100 -30.5q85 0 130.5 37.5t59.5 118.5l74 423h133l-76 -433q-11 -66 -36 -113t-66 -78t-98.5 -45.5t-133.5 -14.5q-60 0 -107.5 13.5t-81.5 39t-52 61.5t-18 81q0 21 2.5 43.5t6.5 44.5l53 307q2 11 0 14.5t-11 7.5
l-33 14l21 58h159q6 0 10 -1.5t2 -10.5zM344 784q0 58 35.5 91t98.5 33q105 0 105 -80q0 -59 -36 -91.5t-98 -32.5q-105 0 -105 80zM414 793q0 -35 41 -35q26 0 42 16.5t16 44.5q0 34 -41 34q-26 0 -42 -16t-16 -44z" />
    <glyph glyph-name="uring" unicode="&#x16f;" horiz-adv-x="571" 
d="M87 395q2 11 0.5 14.5t-10.5 7.5l-34 14l23 59h152q6 0 10 -1.5t2 -10.5l-50 -279q-2 -10 -3 -20.5t-1 -20.5q0 -32 22.5 -51t62.5 -19q51 0 78.5 23t36.5 74l54 305h128l-56 -315q-17 -98 -78 -142.5t-177 -44.5q-94 0 -147 39t-53 108q0 17 1.5 33t3.5 31zM233 608
q0 58 35.5 91t98.5 33q105 0 105 -80q0 -59 -36 -91.5t-98 -32.5q-105 0 -105 80zM303 617q0 -35 41 -35q26 0 42 16.5t16 44.5q0 34 -41 34q-26 0 -42 -16t-16 -44z" />
    <glyph glyph-name="Uhungarumlaut" unicode="&#x170;" horiz-adv-x="732" 
d="M211 271q-3 -16 -5 -32.5t-2 -32.5q0 -52 37 -82.5t100 -30.5q85 0 130.5 37.5t59.5 118.5l74 423h133l-76 -433q-11 -66 -36 -113t-66 -78t-98.5 -45.5t-133.5 -14.5q-60 0 -107.5 13.5t-81.5 39t-52 61.5t-18 81q0 21 2.5 43.5t6.5 44.5l53 307q2 11 0 14.5t-11 7.5
l-33 14l21 58h159q6 0 10 -1.5t2 -10.5zM606 732h-120l141 148h142zM390 732h-120l140 148h142z" />
    <glyph glyph-name="uhungarumlaut" unicode="&#x171;" horiz-adv-x="571" 
d="M87 395q2 11 0.5 14.5t-10.5 7.5l-34 14l23 59h152q6 0 10 -1.5t2 -10.5l-50 -279q-2 -10 -3 -20.5t-1 -20.5q0 -32 22.5 -51t62.5 -19q51 0 78.5 23t36.5 74l54 305h128l-56 -315q-17 -98 -78 -142.5t-177 -44.5q-94 0 -147 39t-53 108q0 17 1.5 33t3.5 31zM495 556
h-120l141 148h142zM279 556h-120l140 148h142z" />
    <glyph glyph-name="Uogonek" unicode="&#x172;" horiz-adv-x="732" 
d="M131 578q2 11 0 14.5t-11 7.5l-33 14l21 58h159q6 0 10 -1.5t2 -10.5l-68 -389q-3 -16 -5 -32.5t-2 -32.5q0 -52 37 -82.5t100 -30.5q85 0 130.5 37.5t59.5 118.5l74 423h133l-76 -433q-8 -48 -23 -84.5t-38.5 -65t-57 -50.5t-78.5 -40q-71 -29 -112 -62.5t-41 -62.5
q0 -35 48 -35q9 0 17.5 0.5t16.5 1.5l-12 -72q-27 -6 -60 -6q-60 0 -86 21.5t-26 63.5q0 38 29.5 75t79.5 67q-11 0 -25 0.5t-26 2.5q-94 11 -146.5 61t-52.5 129q0 21 2.5 43.5t6.5 44.5z" />
    <glyph glyph-name="uogonek" unicode="&#x173;" horiz-adv-x="571" 
d="M87 395q2 11 0.5 14.5t-10.5 7.5l-34 14l23 59h152q6 0 10 -1.5t2 -10.5l-50 -279q-2 -10 -3 -20.5t-1 -20.5q0 -32 22.5 -51t62.5 -19q51 0 78.5 23t36.5 74l54 305h128l-56 -315q-6 -33 -16.5 -59.5t-27.5 -47.5t-40.5 -38.5t-56.5 -32.5q-137 -64 -137 -123
q0 -35 47 -35q9 0 17.5 0.5t16.5 1.5l-12 -72q-14 -2 -28.5 -4t-31.5 -2q-60 0 -86 21.5t-26 63.5q0 36 29 74.5t77 68.5q-9 0 -18 0.5t-18 1.5q-67 8 -105.5 46t-38.5 96q0 17 1.5 33t3.5 31z" />
    <glyph glyph-name="Wcircumflex" unicode="&#x174;" horiz-adv-x="1010" 
d="M594 0q-49 226 -63 469q-42 -121 -98.5 -237t-120.5 -232h-151q-15 66 -29 153t-25.5 178.5t-19 180.5t-10.5 160h128q7 -137 19.5 -273t35.5 -275h1q66 129 125.5 262.5t116.5 271.5h127q6 -127 19 -263t35 -271h1q63 118 123 252t126 296h130q-27 -71 -66.5 -160
t-83.5 -180.5t-89 -178.5t-83 -153h-148v0zM537 880h124l98 -148h-104l-61 81l-90 -81h-115z" />
    <glyph glyph-name="wcircumflex" unicode="&#x175;" horiz-adv-x="824" 
d="M414 305q-34 -79 -74 -159t-79 -146h-133q-15 62 -27 126.5t-22 127.5t-17 123t-11 113h125q6 -94 16.5 -184.5t26.5 -181.5h1q48 91 88 177t78 173h118q6 -91 16.5 -177t25.5 -173h1q49 92 91.5 182.5t81.5 183.5h124q-23 -53 -51.5 -113t-60.5 -123t-67.5 -127.5
t-71.5 -126.5h-128q-15 66 -28.5 146t-20.5 159h-2zM418 704h124l98 -148h-104l-61 81l-90 -81h-115z" />
    <glyph glyph-name="Ycircumflex" unicode="&#x176;" horiz-adv-x="609" 
d="M243 279l-169 393h140l110 -281l207 281h154l-311 -404l-46 -268h-133zM346 880h124l98 -148h-104l-61 81l-90 -81h-115z" />
    <glyph glyph-name="ycircumflex" unicode="&#x177;" 
d="M471 -1q-9 -53 -28 -94t-52 -69t-81.5 -42t-116.5 -14q-32 0 -60.5 2t-44.5 7l18 97q20 -5 43.5 -7t43.5 -2q41 0 68 9.5t43.5 24.5t24.5 35t12 41l9 50q-23 -24 -58.5 -36.5t-72.5 -12.5q-38 0 -69.5 10t-54.5 29t-35.5 46t-12.5 62q0 17 1.5 33t3.5 31l35 196
q2 11 0.5 14.5t-10.5 7.5l-34 14l23 59h152q6 0 10 -1.5t2 -10.5l-50 -279q-2 -10 -3 -20.5t-1 -20.5q0 -32 22.5 -51t62.5 -19q52 0 79.5 27.5t37.5 82.5l52 292h128zM291 704h124l98 -148h-104l-61 81l-90 -81h-115z" />
    <glyph glyph-name="Ydieresis" unicode="&#x178;" horiz-adv-x="609" 
d="M243 279l-169 393h140l110 -281l207 281h154l-311 -404l-46 -268h-133zM218 790q0 42 21 64.5t63 22.5q63 0 63 -55q0 -42 -21.5 -64.5t-63.5 -22.5q-62 0 -62 55zM434 790q0 42 21.5 64.5t63.5 22.5q62 0 62 -55q0 -42 -21 -64.5t-63 -22.5q-63 0 -63 55z" />
    <glyph glyph-name="Zacute" unicode="&#x179;" horiz-adv-x="620" 
d="M9 97l453 473h-362l18 102h533l-17 -97l-452 -473h378l-19 -102h-549zM440 732h-120l141 148h142z" />
    <glyph glyph-name="zacute" unicode="&#x17a;" horiz-adv-x="487" 
d="M9 92l307 301h-247l17 97h399l-16 -92l-307 -301h263l-17 -97h-416zM343 556h-120l141 148h142z" />
    <glyph glyph-name="Zdotaccent" unicode="&#x17b;" horiz-adv-x="620" 
d="M9 97l453 473h-362l18 102h533l-17 -97l-452 -473h378l-19 -102h-549zM332 790q0 42 21.5 64.5t63.5 22.5q62 0 62 -55q0 -42 -21.5 -64.5t-63.5 -22.5q-62 0 -62 55z" />
    <glyph glyph-name="zdotaccent" unicode="&#x17c;" horiz-adv-x="487" 
d="M9 92l307 301h-247l17 97h399l-16 -92l-307 -301h263l-17 -97h-416zM235 614q0 42 21.5 64.5t63.5 22.5q62 0 62 -55q0 -42 -21.5 -64.5t-63.5 -22.5q-62 0 -62 55z" />
    <glyph glyph-name="Zcaron" unicode="&#x17d;" horiz-adv-x="620" 
d="M9 97l453 473h-362l18 102h533l-17 -97l-452 -473h378l-19 -102h-549zM459 732h-124l-98 148h104l61 -81l90 81h115z" />
    <glyph glyph-name="zcaron" unicode="&#x17e;" horiz-adv-x="487" 
d="M9 92l307 301h-247l17 97h399l-16 -92l-307 -301h263l-17 -97h-416zM362 556h-124l-98 148h104l61 -81l90 81h115z" />
    <glyph glyph-name="florin" unicode="&#x192;" 
d="M469 329h-114l-33 -187q-14 -78 -59 -116t-127 -38q-24 0 -48.5 3t-48.5 8l18 97q17 -4 31.5 -6t29.5 -2q68 0 78 64l31 177h-105l17 97h106l18 101q14 78 59.5 117.5t129.5 39.5q26 0 52.5 -3t49.5 -8l-17 -97q-35 8 -67 8q-69 0 -81 -67l-16 -91h113z" />
    <glyph glyph-name="Acaron" unicode="&#x1cd;" horiz-adv-x="659" 
d="M473 672q14 -36 28 -86.5t28 -109.5t26.5 -123t23 -127t18 -121t11.5 -105h-132q-4 41 -8.5 80t-9.5 77h-296q-19 -38 -37 -77t-37 -80h-133q20 47 48.5 105t61 121t67.5 127t69.5 123t67 109.5t58.5 86.5h146zM380 555q-45 -73 -86.5 -147.5t-82.5 -152.5h232
q-13 78 -28.5 152.5t-34.5 147.5zM468 732h-124l-98 148h104l61 -81l90 81h115z" />
    <glyph glyph-name="acaron" unicode="&#x1ce;" horiz-adv-x="581" 
d="M158 183q0 -48 23.5 -71.5t67.5 -23.5q102 0 122 110l30 168q-13 11 -37.5 23.5t-65.5 12.5q-66 0 -103 -59.5t-37 -159.5zM370 60q-69 -72 -162 -72q-88 0 -134 45t-46 129q0 78 17 141t49 107t77 68t101 24q49 0 90 -16t66 -45l20 49h103l-70 -395q-2 -11 -0.5 -14.5
t10.5 -7.5l33 -14l-22 -59h-124q-5 0 -6.5 1.5t-1.5 8.5v50zM392 556h-124l-98 148h104l61 -81l90 81h115z" />
    <glyph glyph-name="Aringacute" unicode="&#x1fa;" horiz-adv-x="659" 
d="M473 672q14 -36 28 -86.5t28 -109.5t26.5 -123t23 -127t18 -121t11.5 -105h-132q-4 41 -8.5 80t-9.5 77h-296q-19 -38 -37 -77t-37 -80h-133q20 47 48.5 105t61 121t67.5 127t69.5 123t67 109.5t58.5 86.5h146zM380 555q-45 -73 -86.5 -147.5t-82.5 -152.5h232
q-13 78 -28.5 152.5t-34.5 147.5zM514 891q30 -20 30 -63q0 -59 -36 -91.5t-98 -32.5q-105 0 -105 80q0 49 25.5 80.5t72.5 40.5l99 103h142zM375 793q0 -35 41 -35q26 0 42 16.5t16 44.5q0 34 -41 34q-26 0 -42 -16t-16 -44z" />
    <glyph glyph-name="aringacute" unicode="&#x1fb;" horiz-adv-x="581" 
d="M158 183q0 -48 23.5 -71.5t67.5 -23.5q102 0 122 110l30 168q-13 11 -37.5 23.5t-65.5 12.5q-66 0 -103 -59.5t-37 -159.5zM370 60q-69 -72 -162 -72q-88 0 -134 45t-46 129q0 78 17 141t49 107t77 68t101 24q49 0 90 -16t66 -45l20 49h103l-70 -395q-2 -11 -0.5 -14.5
t10.5 -7.5l33 -14l-22 -59h-124q-5 0 -6.5 1.5t-1.5 8.5v50zM428 715q30 -20 30 -63q0 -59 -36 -91.5t-98 -32.5q-105 0 -105 80q0 49 25.5 80.5t72.5 40.5l99 103h142zM289 617q0 -35 41 -35q26 0 42 16.5t16 44.5q0 34 -41 34q-26 0 -42 -16t-16 -44z" />
    <glyph glyph-name="AEacute" unicode="&#x1fc;" horiz-adv-x="1015" 
d="M1046 672l-18 -102h-343l-32 -179h271l-17 -98h-271l-34 -191h351l-18 -102h-484l28 157h-276q-32 -42 -62 -81.5t-56 -75.5h-139q69 96 146 195t151.5 188.5t141 164.5t115.5 124h546zM553 578q-27 -29 -59 -65t-67 -78t-73 -87.5t-75 -92.5h217zM667 732h-120l141 148
h142z" />
    <glyph glyph-name="aeacute" unicode="&#x1fd;" horiz-adv-x="849" 
d="M12 113q0 85 53 128t158 43q37 0 70 -5t61 -14l6 33q2 8 2.5 17t0.5 17q0 73 -115 73q-72 0 -148 -19l17 97q79 19 161 19q126 0 167 -66q66 66 169 66t153 -43.5t50 -135.5q0 -56 -17 -115h-335q-2 -20 1 -39q4 -41 37 -62.5t93 -21.5q80 0 166 20l-17 -98
q-39 -9 -79.5 -14t-84.5 -5q-73 0 -124 20.5t-77 58.5q-30 -38 -79 -58.5t-112 -20.5q-177 0 -177 125zM138 131q0 -53 82 -53q48 0 77 20t36 55l6 31q-41 18 -98 18q-103 0 -103 -71zM608 412q-51 0 -84 -31.5t-45 -90.5h214q2 8 3 18t1 20q0 84 -89 84zM520 556h-120
l141 148h142z" />
    <glyph glyph-name="Oslashacute" unicode="&#x1fe;" horiz-adv-x="727" 
d="M47 233q0 106 25.5 190t74 142t118 88.5t158.5 30.5q111 0 180 -39l52 59h104l-96 -108q48 -62 48 -157q0 -107 -25.5 -190.5t-74 -141.5t-118.5 -88.5t-158 -30.5q-110 0 -180 38l-52 -58h-104l96 108q-48 58 -48 157zM585 426q0 39 -11 70l-341 -382q39 -26 109 -26
q56 0 101 23.5t76.5 67t48.5 106.5t17 141zM173 246q0 -20 2.5 -37.5t8.5 -32.5l341 382q-41 26 -109 26q-56 0 -101 -23.5t-76.5 -67t-48.5 -106.5t-17 -141zM493 732h-120l141 148h142z" />
    <glyph glyph-name="oslashacute" unicode="&#x1ff;" horiz-adv-x="561" 
d="M28 170q0 78 19.5 139.5t56 104t89 65.5t119.5 23q79 0 130 -24l39 44h90l-75 -85q37 -45 37 -117q0 -78 -19.5 -139.5t-56 -104t-89.5 -65.5t-120 -23q-80 0 -129 24l-39 -44h-90l75 84q-37 44 -37 118zM143 188q0 -12 1 -22.5t4 -19.5l223 252q-26 14 -65 14
q-37 0 -67 -16.5t-51.5 -46t-33 -70.5t-11.5 -91zM418 302q0 12 -1.5 22t-3.5 20l-224 -253q25 -13 66 -13q37 0 67 16.5t51.5 46t33 70.5t11.5 91zM380 556h-120l141 148h142z" />
    <glyph glyph-name="Scommaaccent" unicode="&#x218;" horiz-adv-x="588" 
d="M546 546q-36 14 -81.5 25t-98.5 11q-70 0 -111 -22.5t-41 -75.5q0 -33 24 -50.5t60 -29t78.5 -22.5t78.5 -30.5t60 -53.5t24 -91q0 -52 -19 -93t-55 -69t-87.5 -42.5t-115.5 -14.5q-66 0 -129.5 10t-120.5 29l19 103q108 -40 224 -40q72 0 113.5 27t41.5 81
q0 35 -24 53.5t-60 30.5t-78 22t-78 29t-60 52t-24 90q0 51 20.5 90t56.5 65.5t86 40t109 13.5q37 0 72 -4t65 -9.5t52.5 -12.5t34.5 -13l-36 -99v0zM212 -256h-91l82 196h114z" />
    <glyph glyph-name="scommaaccent" unicode="&#x219;" horiz-adv-x="459" 
d="M407 378q-25 12 -60 20.5t-72 8.5q-45 0 -71.5 -14t-26.5 -44q0 -19 17.5 -29t43.5 -17t56.5 -14.5t56.5 -22.5t43.5 -40t17.5 -66q0 -81 -55.5 -126.5t-161.5 -45.5q-51 0 -98.5 7t-91.5 21l17 100q84 -33 166 -33q48 0 74.5 17t26.5 50q0 22 -17.5 32.5t-43.5 18
t-56.5 15.5t-56.5 22.5t-43.5 40t-17.5 69.5q0 72 56 113t157 41q52 0 98 -8t78 -21l-36 -95v0zM146 -256h-91l82 196h114z" />
    <glyph glyph-name="uni021A" unicode="&#x21a;" horiz-adv-x="599" 
d="M289 570h-214l19 102h560l-18 -102h-214l-99 -570h-134zM217 -256h-91l82 196h114z" />
    <glyph glyph-name="uni021B" unicode="&#x21b;" horiz-adv-x="392" 
d="M94 375q3 15 1.5 19t-9.5 6l-62 17l28 73h63l25 141h128l-25 -141h153l-17 -97h-154l-37 -211q-3 -17 -3 -33q0 -61 75 -61q32 0 66 7l-18 -100q-19 -3 -38.5 -5t-40.5 -2q-89 0 -131.5 34.5t-42.5 101.5q0 13 1.5 26t3.5 27zM131 -256h-91l82 196h114z" />
    <glyph glyph-name="circumflex" unicode="&#x2c6;" horiz-adv-x="240" 
d="M132 704h124l98 -148h-104l-61 81l-90 -81h-115z" />
    <glyph glyph-name="caron" unicode="&#x2c7;" horiz-adv-x="240" 
d="M239 556h-124l-98 148h104l61 -81l90 81h115z" />
    <glyph glyph-name="breve" unicode="&#x2d8;" horiz-adv-x="240" 
d="M121 704q-12 -74 66 -74q42 0 63 17t27 57h91q-12 -84 -57 -121.5t-133 -37.5q-150 0 -150 114q0 11 1 22t3 23h89z" />
    <glyph glyph-name="dotaccent" unicode="&#x2d9;" horiz-adv-x="240" 
d="M112 614q0 42 21.5 64.5t63.5 22.5q62 0 62 -55q0 -42 -21.5 -64.5t-63.5 -22.5q-62 0 -62 55z" />
    <glyph glyph-name="ring" unicode="&#x2da;" horiz-adv-x="240" 
d="M66 608q0 58 35.5 91t98.5 33q105 0 105 -80q0 -59 -36 -91.5t-98 -32.5q-105 0 -105 80zM136 617q0 -35 41 -35q26 0 42 16.5t16 44.5q0 34 -41 34q-26 0 -42 -16t-16 -44z" />
    <glyph glyph-name="ogonek" unicode="&#x2db;" horiz-adv-x="240" 
d="M141 0q-60 -43 -85 -72.5t-25 -53.5q0 -35 47 -35q9 0 17.5 0.5t16.5 1.5l-12 -72q-27 -6 -60 -6q-59 0 -85.5 21.5t-26.5 63.5q0 40 33.5 83t99.5 86z" />
    <glyph glyph-name="tilde" unicode="&#x2dc;" horiz-adv-x="240" 
d="M7 577q8 63 34 89.5t80 26.5q19 0 35.5 -6.5t30.5 -14t26 -14t23 -6.5q32 0 39 38l1 8h91l-2 -16q-8 -62 -34.5 -88.5t-80.5 -26.5q-20 0 -36 6.5t-30 14t-26 14t-23 6.5q-32 0 -38 -38l-2 -9h-90z" />
    <glyph glyph-name="hungarumlaut" unicode="&#x2dd;" horiz-adv-x="240" 
d="M328 556h-120l141 148h142zM112 556h-120l140 148h142z" />
    <glyph glyph-name="uni0394" unicode="&#x394;" horiz-adv-x="689" 
d="M5 89l339 583h145l138 -589l-14 -83h-624zM145 102h355l-100 452z" />
    <glyph glyph-name="Omega" unicode="&#x3a9;" horiz-adv-x="727" 
d="M-3 102h159q-83 101 -83 231q0 82 22.5 147t66 110.5t108.5 69.5t151 24q143 0 214 -62t71 -174q0 -116 -45.5 -198.5t-135.5 -147.5h155l-19 -102h-297l17 99q94 58 141.5 141.5t47.5 187.5q0 76 -39 113.5t-120 37.5q-103 0 -158 -66.5t-55 -189.5q0 -69 22.5 -126
t65.5 -102l-18 -95h-289z" />
    <glyph glyph-name="mu" unicode="&#x3bc;" horiz-adv-x="569" 
d="M101 490h128l-50 -283q-2 -11 -4 -21.5t-2 -20.5q0 -36 22.5 -55.5t64.5 -19.5q96 0 114 103l53 297h128l-87 -490h-92l-6 47q-51 -56 -134 -56q-30 0 -54 8.5t-35 24.5l-41 -232h-128z" />
    <glyph glyph-name="pi" unicode="&#x3c0;" horiz-adv-x="601" 
d="M116 393h-60l17 97h541l-17 -97h-59l-70 -393h-123l70 393h-176l-70 -393h-123z" />
    <glyph glyph-name="uni0400" unicode="&#x400;" horiz-adv-x="593" 
d="M624 672l-17 -102h-343l-32 -179h271l-18 -98h-270l-34 -191h351l-18 -102h-484l101 578q2 11 0 14.5t-11 7.5l-33 14l21 58h516zM240 880h125l97 -148h-104z" />
    <glyph glyph-name="uni0401" unicode="&#x401;" horiz-adv-x="593" 
d="M624 672l-17 -102h-343l-32 -179h271l-18 -98h-270l-34 -191h351l-18 -102h-484l101 578q2 11 0 14.5t-11 7.5l-33 14l21 58h516zM219 790q0 42 21 64.5t63 22.5q63 0 63 -55q0 -42 -21.5 -64.5t-63.5 -22.5q-62 0 -62 55zM435 790q0 42 21.5 64.5t63.5 22.5q62 0 62 -55
q0 -42 -21 -64.5t-63 -22.5q-63 0 -63 55z" />
    <glyph glyph-name="uni0402" unicode="&#x402;" horiz-adv-x="840" 
d="M289 570h-214l19 102h560l-18 -102h-214l-32 -183q91 21 178 21q123 0 178.5 -39.5t55.5 -127.5q0 -57 -17.5 -104t-51 -80t-83.5 -51t-115 -18q-67 0 -128 13l18 103q53 -11 99 -11q70 0 106 32.5t36 93.5q0 44 -31 64t-99 20q-41 0 -82 -4t-81 -12l-50 -287h-134z" />
    <glyph glyph-name="uni0403" unicode="&#x403;" horiz-adv-x="519" 
d="M132 578q2 11 0 14.5t-11 7.5l-33 14l21 58h470l-18 -102h-298l-100 -570h-133zM419 732h-120l141 148h142z" />
    <glyph glyph-name="uni0404" unicode="&#x404;" horiz-adv-x="604" 
d="M504 293h-324q-1 -11 -1.5 -21t-0.5 -21q0 -79 47.5 -121t137.5 -42q48 0 92 6t90 17l-19 -102q-45 -11 -93.5 -16t-97.5 -5q-143 0 -215.5 62t-72.5 183q0 116 29.5 204t86.5 146q48 50 116 75.5t165 25.5q46 0 97.5 -8t107.5 -28l-32 -95q-43 16 -85.5 23.5t-82.5 7.5
q-60 0 -102.5 -15t-74.5 -44q-54 -49 -76 -134h325z" />
    <glyph glyph-name="uni0405" unicode="&#x405;" horiz-adv-x="588" 
d="M546 546q-36 14 -81.5 25t-98.5 11q-70 0 -111 -22.5t-41 -75.5q0 -33 24 -50.5t60 -29t78.5 -22.5t78.5 -30.5t60 -53.5t24 -91q0 -52 -19 -93t-55 -69t-87.5 -42.5t-115.5 -14.5q-66 0 -129.5 10t-120.5 29l19 103q108 -40 224 -40q72 0 113.5 27t41.5 81
q0 35 -24 53.5t-60 30.5t-78 22t-78 29t-60 52t-24 90q0 51 20.5 90t56.5 65.5t86 40t109 13.5q37 0 72 -4t65 -9.5t52.5 -12.5t34.5 -13l-36 -99v0z" />
    <glyph glyph-name="uni0406" unicode="&#x406;" horiz-adv-x="270" 
d="M163 0h-133l101 578q2 11 0 14.5t-11 7.5l-33 14l21 58h159q6 0 10 -1.5t2 -10.5z" />
    <glyph glyph-name="uni0407" unicode="&#x407;" horiz-adv-x="270" 
d="M163 0h-133l101 578q2 11 0 14.5t-11 7.5l-33 14l21 58h159q6 0 10 -1.5t2 -10.5zM49 790q0 42 21 64.5t63 22.5q63 0 63 -55q0 -42 -21.5 -64.5t-63.5 -22.5q-62 0 -62 55zM265 790q0 42 21.5 64.5t63.5 22.5q62 0 62 -55q0 -42 -21 -64.5t-63 -22.5q-63 0 -63 55z" />
    <glyph glyph-name="uni0408" unicode="&#x408;" horiz-adv-x="457" 
d="M376 182q-17 -102 -75 -148t-168 -46q-40 0 -77 4.5t-72 12.5l19 104q30 -8 58.5 -12t55.5 -4q60 0 90 25t40 84l83 470h133z" />
    <glyph glyph-name="uni0409" unicode="&#x409;" horiz-adv-x="1103" 
d="M236 578q2 11 0 14.5t-11 7.5l-33 14l21 58h539l-42 -237h133q111 0 170 -41.5t59 -138.5q0 -121 -73.5 -188t-213.5 -67h-279l100 570h-246l-28 -162q-20 -116 -45.5 -195.5t-61 -128.5t-83 -70.5t-111.5 -21.5q-14 0 -28 1.5t-28 3.5l19 108q13 -3 27 -3q37 0 65 15.5
t50 52.5t39 97.5t33 150.5zM651 102h139q151 0 151 147q0 43 -28 63t-90 20h-132z" />
    <glyph glyph-name="uni040A" unicode="&#x40a;" horiz-adv-x="1092" 
d="M131 578q2 11 0 14.5t-11 7.5l-33 14l21 58h168l-47 -269h337l47 269h128l-47 -269h154q107 0 158 -38t52 -116q0 -119 -67.5 -184t-190.5 -65h-305l52 300h-336l-53 -300h-128zM640 102h154q66 0 100 32t33 95q-1 36 -23.5 53.5t-76.5 17.5h-152z" />
    <glyph glyph-name="uni040B" unicode="&#x40b;" horiz-adv-x="840" 
d="M289 570h-214l19 102h560l-18 -102h-214l-32 -183q85 21 161 21q230 0 230 -193q0 -16 -2 -32.5t-5 -33.5l-26 -149h-133l25 144q2 12 3.5 23.5t1.5 22.5q0 113 -139 113q-32 0 -65.5 -4t-67.5 -12l-50 -287h-134z" />
    <glyph glyph-name="uni040C" unicode="&#x40c;" horiz-adv-x="619" 
d="M225 382l317 290h151l-334 -310l218 -362h-137l-170 284l-74 -67l-38 -217h-128l101 578q2 11 0 14.5t-11 7.5l-33 14l21 58h154q6 0 10 -1.5t2 -10.5zM434 732h-120l141 148h142z" />
    <glyph glyph-name="uni040D" unicode="&#x40d;" horiz-adv-x="732" 
d="M132 578q2 11 0 14.5t-11 7.5l-33 14l21 58h162l-84 -479l425 479h126l-118 -672h-123l84 479l-425 -479h-126zM303 880h125l97 -148h-104z" />
    <glyph glyph-name="uni040E" unicode="&#x40e;" horiz-adv-x="625" 
d="M370 148q-28 -45 -55.5 -75.5t-58.5 -49t-66.5 -27t-80.5 -8.5q-24 0 -49 3.5t-49 9.5l18 104q43 -12 80 -12q47 0 78 18t59 61l16 24l-175 476h134l122 -358l215 358h145zM351 880q-12 -74 66 -74q42 0 63 17t27 57h91q-12 -84 -57 -121.5t-133 -37.5q-150 0 -150 114
q0 11 1 22t3 23h89z" />
    <glyph glyph-name="uni040F" unicode="&#x40f;" horiz-adv-x="732" 
d="M132 578q2 11 0 14.5t-11 7.5l-33 14l21 58h172l-100 -570h324l100 570h133l-118 -672h-234l-28 -160h-122l28 160h-234z" />
    <glyph glyph-name="uni0410" unicode="&#x410;" horiz-adv-x="659" 
d="M473 672q14 -36 28 -86.5t28 -109.5t26.5 -123t23 -127t18 -121t11.5 -105h-132q-4 41 -8.5 80t-9.5 77h-296q-19 -38 -37 -77t-37 -80h-133q20 47 48.5 105t61 121t67.5 127t69.5 123t67 109.5t58.5 86.5h146zM380 555q-45 -73 -86.5 -147.5t-82.5 -152.5h232
q-13 78 -28.5 152.5t-34.5 147.5z" />
    <glyph glyph-name="uni0411" unicode="&#x411;" horiz-adv-x="652" 
d="M132 578q2 11 0 14.5t-11 7.5l-33 14l21 58h531l-18 -100h-364l-30 -173h164q109 0 161 -38.5t52 -119.5q0 -118 -64.5 -179.5t-189.5 -61.5h-321zM175 97h169q131 0 131 130q0 74 -103 74h-161z" />
    <glyph glyph-name="uni0412" unicode="&#x412;" horiz-adv-x="652" 
d="M131 578q2 11 0 14.5t-11 7.5l-33 14l21 58h338q188 0 188 -138q0 -69 -26.5 -118t-81.5 -72q79 -25 79 -123q0 -109 -61 -165t-178 -56h-336zM175 97h174q125 0 125 124q0 38 -24 56t-76 18h-165zM226 389h162q118 0 118 117q0 35 -22.5 52t-70.5 17h-154z" />
    <glyph glyph-name="uni0413" unicode="&#x413;" horiz-adv-x="524" 
d="M132 578q2 11 0 14.5t-11 7.5l-33 14l21 58h470l-18 -102h-298l-100 -570h-133z" />
    <glyph glyph-name="uni0414" unicode="&#x414;" horiz-adv-x="791" 
d="M236 578q2 11 0 14.5t-11 7.5l-33 14l21 58h542l-101 -570h84l-47 -262h-123l29 160h-499l-29 -160h-121l45 262h54q32 18 56.5 43.5t43.5 62.5t33.5 88.5t27.5 121.5zM335 408q-11 -63 -22.5 -110.5t-25.5 -84t-31 -63.5t-39 -48h309l82 468h-245z" />
    <glyph glyph-name="uni0415" unicode="&#x415;" horiz-adv-x="593" 
d="M624 672l-17 -102h-343l-32 -179h271l-18 -98h-270l-34 -191h351l-18 -102h-484l101 578q2 11 0 14.5t-11 7.5l-33 14l21 58h516z" />
    <glyph glyph-name="uni0416" unicode="&#x416;" horiz-adv-x="935" 
d="M402 223l-45 64l-257 -287h-142l335 368l-204 304h133l206 -304l53 304h123l-54 -304l307 304h142l-316 -318l205 -354h-132l-164 285l-68 -67l-38 -218h-123z" />
    <glyph glyph-name="uni0417" unicode="&#x417;" horiz-adv-x="588" 
d="M159 391h98q89 0 134.5 27.5t45.5 82.5q0 45 -33.5 64t-108.5 19q-42 0 -89 -7t-98 -19v97q58 16 109 22.5t99 6.5q136 0 195 -39t59 -121q0 -71 -35 -117t-101 -64q104 -26 104 -142q0 -102 -80 -157.5t-232 -55.5q-118 0 -229 41l18 103q51 -21 99.5 -32.5t101.5 -11.5
q92 0 139 30t47 87q0 46 -37 67t-118 21h-105z" />
    <glyph glyph-name="uni0418" unicode="&#x418;" horiz-adv-x="732" 
d="M132 578q2 11 0 14.5t-11 7.5l-33 14l21 58h162l-84 -479l425 479h126l-118 -672h-123l84 479l-425 -479h-126z" />
    <glyph glyph-name="uni0419" unicode="&#x419;" horiz-adv-x="732" 
d="M132 578q2 11 0 14.5t-11 7.5l-33 14l21 58h162l-84 -479l425 479h126l-118 -672h-123l84 479l-425 -479h-126zM399 880q-12 -74 66 -74q42 0 63 17t27 57h91q-12 -84 -57 -121.5t-133 -37.5q-150 0 -150 114q0 11 1 22t3 23h89z" />
    <glyph glyph-name="uni041A" unicode="&#x41a;" horiz-adv-x="619" 
d="M225 382l317 290h151l-334 -310l218 -362h-137l-170 284l-74 -67l-38 -217h-128l101 578q2 11 0 14.5t-11 7.5l-33 14l21 58h154q6 0 10 -1.5t2 -10.5z" />
    <glyph glyph-name="uni041B" unicode="&#x41b;" horiz-adv-x="759" 
d="M236 578q2 11 0 14.5t-11 7.5l-33 14l21 58h552l-118 -672h-133l100 570h-249l-28 -162q-20 -116 -46 -195.5t-62 -128.5t-84 -70.5t-114 -21.5q-14 0 -28 1.5t-28 3.5l19 108q13 -3 27 -3q37 0 65 15.5t50 52.5t39 97.5t33 150.5z" />
    <glyph glyph-name="uni041C" unicode="&#x41c;" horiz-adv-x="820" 
d="M417 308l274 364h135l-118 -672h-123l84 479l-225 -296h-51q-13 0 -20.5 0.5t-11.5 3t-7 8t-7 15.5l-110 270l-84 -480h-123l101 578q2 11 0 14.5t-11 7.5l-33 14l21 58h142q16 0 20.5 -4t10.5 -19z" />
    <glyph glyph-name="uni041D" unicode="&#x41d;" horiz-adv-x="732" 
d="M233 394h323l49 278h133l-118 -672h-133l51 291h-323l-52 -291h-133l101 578q2 11 0 14.5t-11 7.5l-33 14l21 58h159q6 0 10 -1.5t2 -10.5z" />
    <glyph glyph-name="uni041E" unicode="&#x41e;" horiz-adv-x="727" 
d="M47 233q0 106 25.5 190t74 142t118 88.5t158.5 30.5q143 0 215.5 -62t72.5 -183q0 -107 -25.5 -190.5t-74 -141.5t-118.5 -88.5t-158 -30.5q-143 0 -215.5 62t-72.5 183zM183 248q0 -155 160 -155q54 0 97 22.5t73 65.5t46 104t16 139q0 155 -160 155q-54 0 -97 -22.5
t-73 -65.5t-46 -104t-16 -139z" />
    <glyph glyph-name="uni041F" unicode="&#x41f;" horiz-adv-x="732" 
d="M132 578q2 11 0 14.5t-11 7.5l-33 14l21 58h629l-118 -672h-133l100 570h-324l-100 -570h-133z" />
    <glyph glyph-name="uni0420" unicode="&#x420;" horiz-adv-x="636" 
d="M131 578q2 11 0 14.5t-11 7.5l-33 14l21 58h309q120 0 174.5 -39.5t54.5 -124.5q0 -133 -73.5 -202t-213.5 -69h-159l-42 -237h-128zM218 340h146q151 0 151 146q0 43 -28 63.5t-90 20.5h-139z" />
    <glyph glyph-name="uni0421" unicode="&#x421;" horiz-adv-x="604" 
d="M47 233q0 111 27 195.5t76.5 141t120.5 85.5t160 29q65 0 115.5 -10t91.5 -27l-37 -103q-29 11 -73.5 23t-92.5 12q-120 0 -186 -83.5t-66 -239.5q0 -163 180 -163q48 0 92 6t90 17l-19 -107q-45 -11 -93.5 -16t-97.5 -5q-143 0 -215.5 62t-72.5 183z" />
    <glyph glyph-name="uni0422" unicode="&#x422;" horiz-adv-x="599" 
d="M289 570h-214l19 102h560l-18 -102h-214l-99 -570h-134z" />
    <glyph glyph-name="uni0423" unicode="&#x423;" horiz-adv-x="625" 
d="M370 148q-28 -45 -55.5 -75.5t-58.5 -49t-66.5 -27t-80.5 -8.5q-24 0 -49 3.5t-49 9.5l18 104q43 -12 80 -12q47 0 78 18t59 61l16 24l-175 476h134l122 -358l215 358h145z" />
    <glyph glyph-name="uni0424" unicode="&#x424;" horiz-adv-x="799" 
d="M293 45q-253 17 -253 230q0 82 25 148t71.5 113.5t113 74.5t149.5 30l14 79h122l-13 -81q254 -17 254 -230q0 -82 -25 -148t-71.5 -113.5t-113.5 -74.5t-150 -30l-16 -91h-122zM165 285q0 -64 36 -99t111 -39l69 392q-104 -6 -160 -72.5t-56 -181.5zM650 399
q0 64 -35.5 99t-110.5 39l-70 -392q104 6 160 73t56 181z" />
    <glyph glyph-name="uni0425" unicode="&#x425;" horiz-adv-x="657" 
d="M260 353l-161 319h138l119 -247l202 247h154l-286 -341l167 -331h-139l-123 259l-211 -259h-156z" />
    <glyph glyph-name="uni0426" unicode="&#x426;" horiz-adv-x="774" 
d="M132 578q2 11 0 14.5t-11 7.5l-33 14l21 58h172l-100 -570h324l100 570h133l-100 -570h84l-47 -262h-123l29 160h-551z" />
    <glyph glyph-name="uni0427" unicode="&#x427;" horiz-adv-x="685" 
d="M114 578q2 11 -0.5 14.5t-10.5 7.5l-33 14l21 58h172l-28 -160q-2 -12 -3.5 -23.5t-1.5 -22.5q0 -113 139 -113q32 0 66 4t69 12l54 303h133l-118 -672h-133l47 269q-83 -21 -164 -21q-229 0 -229 193q0 16 2 32.5t5 33.5z" />
    <glyph glyph-name="uni0428" unicode="&#x428;" horiz-adv-x="1036" 
d="M131 578q2 11 -0.5 14.5t-10.5 7.5l-33 14l21 58h173l-100 -570h248l99 570h134l-100 -570h247l100 570h133l-118 -672h-894z" />
    <glyph glyph-name="uni0429" unicode="&#x429;" horiz-adv-x="1078" 
d="M131 578q2 11 -0.5 14.5t-10.5 7.5l-33 14l21 58h173l-100 -570h249l100 570h133l-100 -570h246l100 570h133l-100 -570h84l-46 -262h-123l28 160h-855z" />
    <glyph glyph-name="uni042A" unicode="&#x42a;" horiz-adv-x="783" 
d="M284 570h-209l19 102h341l-42 -237h124q118 0 178 -40.5t62 -131.5q-2 -127 -75 -195t-213 -68h-285zM335 102h139q151 0 151 147q0 43 -28 63t-90 20h-132z" />
    <glyph glyph-name="uni042B" unicode="&#x42b;" horiz-adv-x="905" 
d="M132 578q2 11 -0.5 14.5t-10.5 7.5l-33 14l21 58h167l-42 -237h134q114 0 175 -41.5t61 -136.5q0 -122 -73 -189.5t-213 -67.5h-288zM176 102h147q151 0 151 147q0 43 -28 63t-90 20h-140zM799 0h-133l101 578q2 11 0 14.5t-11 7.5l-33 14l21 58h159q6 0 10 -1.5t2 -10.5
z" />
    <glyph glyph-name="uni042C" unicode="&#x42c;" horiz-adv-x="636" 
d="M132 578q2 11 -0.5 14.5t-10.5 7.5l-33 14l21 58h167l-42 -237h134q114 0 175 -41.5t61 -136.5q0 -122 -73 -189.5t-213 -67.5h-288zM176 102h147q151 0 151 147q0 43 -28 63t-90 20h-140z" />
    <glyph glyph-name="uni042D" unicode="&#x42d;" horiz-adv-x="604" 
d="M132 391h324q1 9 1 18v20q0 75 -48 115t-136 40q-48 0 -91.5 -6t-89.5 -17v98q58 15 108.5 20t100.5 5q141 0 214.5 -62t73.5 -183q0 -107 -25.5 -190.5t-74 -141.5t-118.5 -88.5t-158 -30.5q-114 0 -217 33l18 99q91 -32 186 -32t157.5 52.5t85.5 152.5h-328z" />
    <glyph glyph-name="uni042E" unicode="&#x42e;" horiz-adv-x="980" 
d="M132 578q2 11 0 14.5t-11 7.5l-33 14l21 58h167l-49 -279h109q32 140 121.5 215.5t226.5 75.5q140 0 210 -62t70 -183q0 -107 -25 -190.5t-72 -141.5t-115 -88.5t-155 -30.5q-139 0 -209.5 62t-70.5 183q0 15 0.5 29.5t1.5 28.5h-111l-50 -291h-128zM447 248
q0 -78 40 -116.5t118 -38.5q52 0 94.5 22.5t72.5 65.5t46 104t16 139t-40 116.5t-117 38.5q-53 0 -95.5 -22.5t-72.5 -65.5t-46 -104t-16 -139z" />
    <glyph glyph-name="uni042F" unicode="&#x42f;" horiz-adv-x="647" 
d="M535 0h-128l44 253h-132l-188 -253h-146l210 270q-56 14 -85 50t-29 95q0 125 71.5 191t207.5 66h293zM507 572h-152q-143 0 -143 -140q0 -79 110 -79h147z" />
    <glyph glyph-name="uni0430" unicode="&#x430;" horiz-adv-x="581" 
d="M158 183q0 -48 23.5 -71.5t67.5 -23.5q102 0 122 110l30 168q-13 11 -37.5 23.5t-65.5 12.5q-66 0 -103 -59.5t-37 -159.5zM370 60q-69 -72 -162 -72q-88 0 -134 45t-46 129q0 78 17 141t49 107t77 68t101 24q49 0 90 -16t66 -45l20 49h103l-70 -395q-2 -11 -0.5 -14.5
t10.5 -7.5l33 -14l-22 -59h-124q-5 0 -6.5 1.5t-1.5 8.5v50z" />
    <glyph glyph-name="uni0431" unicode="&#x431;" horiz-adv-x="569" 
d="M537 310q0 -72 -18.5 -131.5t-54 -102t-87 -65.5t-116.5 -23q-112 0 -165 52.5t-52 164.5q0 69 14 147t44 150q19 46 45 80.5t60.5 58t79 38t101.5 20.5q54 6 104 11t90 13l-38 -112q-19 -3 -53 -6.5t-79 -8.5q-87 -9 -136 -45t-68 -117q36 28 80 44.5t80 16.5
q88 0 128.5 -44.5t40.5 -140.5zM172 199q0 -54 24.5 -82.5t71.5 -28.5q64 0 101.5 55.5t37.5 151.5q0 97 -90 97q-16 0 -34 -3.5t-34.5 -9.5t-30.5 -13t-23 -14q-11 -37 -17 -77.5t-6 -75.5z" />
    <glyph glyph-name="uni0432" unicode="&#x432;" horiz-adv-x="533" 
d="M94 395q2 11 0.5 14.5t-10.5 7.5l-33 14l23 59h296q139 0 139 -105q0 -96 -75 -133q53 -20 53 -90q0 -79 -46.5 -120.5t-135.5 -41.5h-281zM160 87h122q82 0 82 74q0 24 -15 35t-50 11h-118zM196 291h116q37 0 57 18.5t20 53.5q0 40 -59 40h-115z" />
    <glyph glyph-name="uni0433" unicode="&#x433;" horiz-adv-x="435" 
d="M94 395q2 11 0.5 14.5t-10.5 7.5l-33 14l23 59h385l-17 -97h-220l-70 -393h-128z" />
    <glyph glyph-name="uni0434" unicode="&#x434;" horiz-adv-x="629" 
d="M173 395q2 11 0.5 14.5t-10.5 7.5l-33 14l23 59h434l-69 -393h73l-43 -241h-118l26 144h-344l-26 -144h-116l42 241h40q41 25 65 75t40 136zM278 298q-14 -74 -30.5 -121t-43.5 -80h191l52 296h-152z" />
    <glyph glyph-name="uni0435" unicode="&#x435;" horiz-adv-x="536" 
d="M28 170q0 78 18.5 139.5t53.5 104.5t85.5 65.5t115.5 22.5q103 0 153 -43.5t50 -135.5q0 -56 -17 -115h-335q-2 -17 0 -38q9 -85 131 -85q40 0 81.5 5.5t84.5 14.5l-17 -98q-39 -9 -80 -14t-85 -5q-119 0 -179 46t-60 136zM294 412q-51 0 -84 -31.5t-44 -90.5h214
q3 16 3 38q0 42 -21 63t-68 21z" />
    <glyph glyph-name="uni0436" unicode="&#x436;" horiz-adv-x="737" 
d="M293 154l-29 42l-169 -196h-131l239 273l-146 217h124l137 -201l35 201h118l-36 -201l201 201h134l-230 -231l145 -259h-122l-110 193l-42 -42l-27 -151h-117z" />
    <glyph glyph-name="uni0437" unicode="&#x437;" horiz-adv-x="471" 
d="M112 290h80q58 0 89 17.5t31 52.5q0 26 -22 38t-70 12q-65 0 -147 -20v91q48 11 92 16t76 5q102 0 150.5 -29t48.5 -92q0 -50 -24 -83t-72 -47q34 -9 52.5 -36t18.5 -65q1 -78 -62 -120t-178 -42q-48 0 -92.5 7t-90.5 22l17 96q40 -16 79 -24.5t78 -8.5q57 0 87.5 19
t30.5 54q0 28 -24 41.5t-78 13.5h-84z" />
    <glyph glyph-name="uni0438" unicode="&#x438;" horiz-adv-x="583" 
d="M94 395q2 11 0.5 14.5t-10.5 7.5l-33 14l23 59h155l-55 -307l269 307h122l-87 -490h-118l54 307l-269 -307h-121z" />
    <glyph glyph-name="uni0439" unicode="&#x439;" horiz-adv-x="583" 
d="M94 395q2 11 0.5 14.5t-10.5 7.5l-33 14l23 59h155l-55 -307l269 307h122l-87 -490h-118l54 307l-269 -307h-121zM295 704q-12 -74 66 -74q42 0 63 17t27 57h91q-12 -84 -57 -121.5t-133 -37.5q-150 0 -150 114q0 11 1 22t3 23h89z" />
    <glyph glyph-name="uni043A" unicode="&#x43a;" horiz-adv-x="511" 
d="M201 305l194 185h146l-237 -224l151 -266h-132l-105 190l-45 -42l-26 -148h-123l70 395q2 11 0.5 14.5t-10.5 7.5l-34 14l23 59h147q6 0 10 -1.5t2 -10.5z" />
    <glyph glyph-name="uni043B" unicode="&#x43b;" horiz-adv-x="606" 
d="M163 395q2 11 0.5 14.5t-10.5 7.5l-33 14l23 59h445l-87 -490h-128l70 393h-155l-17 -95q-15 -84 -35.5 -142.5t-49 -94.5t-66 -52.5t-88.5 -16.5q-11 0 -23.5 1t-24.5 3l19 103q5 -1 9.5 -1.5t9.5 -0.5q25 0 43.5 10.5t33 35.5t26 65t22.5 100z" />
    <glyph glyph-name="uni043C" unicode="&#x43c;" horiz-adv-x="647" 
d="M94 395q2 11 0.5 14.5t-10.5 7.5l-33 14l23 59h155l91 -235l178 235h131l-87 -490h-118l54 308l-134 -176h-76l-71 176l-55 -308h-118z" />
    <glyph glyph-name="uni043D" unicode="&#x43d;" horiz-adv-x="583" 
d="M94 395q2 11 0.5 14.5t-10.5 7.5l-33 14l23 59h165l-35 -192h198l35 192h128l-87 -490h-128l35 200h-198l-35 -200h-128z" />
    <glyph glyph-name="uni043E" unicode="&#x43e;" horiz-adv-x="561" 
d="M28 170q0 78 19.5 139.5t56 104t89 65.5t119.5 23q221 0 221 -182q0 -78 -19.5 -139.5t-56 -104t-89.5 -65.5t-120 -23q-110 0 -165 46t-55 136zM158 185q0 -97 98 -97q34 0 61 15.5t46 43.5t29.5 68t10.5 90q0 97 -98 97q-34 0 -61 -15.5t-46 -43.5t-29.5 -68.5
t-10.5 -89.5z" />
    <glyph glyph-name="uni043F" unicode="&#x43f;" horiz-adv-x="583" 
d="M94 395q2 11 0.5 14.5t-10.5 7.5l-33 14l23 59h491l-87 -490h-128l69 393h-198l-69 -393h-128z" />
    <glyph glyph-name="uni0440" unicode="&#x440;" horiz-adv-x="575" 
d="M417 308q0 47 -23.5 70.5t-67.5 23.5q-105 0 -123 -110l-29 -169q17 -12 44 -23.5t59 -11.5t58 15.5t44 44t28 69.5t10 91zM226 449q25 23 62 38t78 15q88 0 134.5 -44.5t46.5 -129.5q0 -78 -17 -141t-49 -107t-77.5 -68t-101.5 -24q-43 0 -80.5 13.5t-61.5 39.5
l-44 -249h-128l106 603q2 11 0.5 14.5t-10.5 7.5l-33 14l23 59h145q6 0 10 -1.5t2 -10.5z" />
    <glyph glyph-name="uni0441" unicode="&#x441;" horiz-adv-x="467" 
d="M28 170q0 82 21 144.5t59.5 104t93 62.5t121.5 21q42 0 83 -7t70 -19l-36 -96q-20 8 -50.5 15t-64.5 7q-81 0 -124 -55t-43 -156q0 -103 118 -103q68 0 133 16l-17 -101q-69 -15 -144 -15q-110 0 -165 46t-55 136z" />
    <glyph glyph-name="uni0442" unicode="&#x442;" horiz-adv-x="465" 
d="M195 393h-150l17 97h427l-17 -97h-149l-70 -393h-128z" />
    <glyph glyph-name="uni0443" unicode="&#x443;" 
d="M471 -1q-9 -53 -28 -94t-52 -69t-81.5 -42t-116.5 -14q-32 0 -60.5 2t-44.5 7l18 97q20 -5 43.5 -7t43.5 -2q41 0 68 9.5t43.5 24.5t24.5 35t12 41l9 50q-23 -24 -58.5 -36.5t-72.5 -12.5q-38 0 -69.5 10t-54.5 29t-35.5 46t-12.5 62q0 17 1.5 33t3.5 31l35 196
q2 11 0.5 14.5t-10.5 7.5l-34 14l23 59h152q6 0 10 -1.5t2 -10.5l-50 -279q-2 -10 -3 -20.5t-1 -20.5q0 -32 22.5 -51t62.5 -19q52 0 79.5 27.5t37.5 82.5l52 292h128z" />
    <glyph glyph-name="uni0444" unicode="&#x444;" horiz-adv-x="697" 
d="M359 -12q-18 -82 -65 -130t-116 -73l-45 78q51 26 74.5 57t34.5 72q-113 8 -165.5 54.5t-52.5 139.5q0 72 21.5 129.5t61.5 98.5t97.5 63.5t129.5 24.5q19 84 66 132t116 73l45 -78q-51 -26 -75 -57t-34 -72q116 -9 168.5 -55.5t52.5 -140.5q0 -71 -22.5 -128t-64 -98
t-99.5 -64t-128 -26zM553 294q0 95 -118 104l-55 -308q83 3 128 56t45 148zM144 196q0 -95 118 -104l55 308q-83 -3 -128 -56t-45 -148z" />
    <glyph glyph-name="uni0445" unicode="&#x445;" horiz-adv-x="523" 
d="M183 256l-119 234h129l78 -161l130 161h144l-207 -248l123 -242h-130l-81 169l-136 -169h-145z" />
    <glyph glyph-name="uni0446" unicode="&#x446;" horiz-adv-x="606" 
d="M94 395q2 11 0.5 14.5t-10.5 7.5l-33 14l23 59h165l-69 -393h198l69 393h128l-69 -393h72l-43 -241h-118l26 144h-409z" />
    <glyph glyph-name="uni0447" unicode="&#x447;" horiz-adv-x="545" 
d="M61 395q2 11 0.5 14.5t-10.5 7.5l-33 14l23 59h165l-22 -117q-3 -15 -3 -30q1 -71 93 -71q46 0 88 12l37 206h128l-87 -490l-128 -1l33 190q-56 -17 -108 -17q-186 0 -186 146q0 22 5 50z" />
    <glyph glyph-name="uni0448" unicode="&#x448;" horiz-adv-x="855" 
d="M94 395q2 11 0.5 14.5t-10.5 7.5l-33 14l23 59h165l-69 -393h171l69 393h128l-69 -393h171l69 393h128l-87 -490h-726z" />
    <glyph glyph-name="uni0449" unicode="&#x449;" horiz-adv-x="878" 
d="M94 395q2 11 0.5 14.5t-10.5 7.5l-33 14l23 59h165l-69 -393h171l69 393h128l-69 -393h171l69 393h128l-69 -393h72l-43 -241h-118l26 144h-681z" />
    <glyph glyph-name="uni044A" unicode="&#x44a;" horiz-adv-x="597" 
d="M178 393h-142l17 97h266l-28 -162h99q93 0 133 -28.5t40 -94.5q0 -99 -56 -152t-162 -53h-235zM249 92h91q98 0 98 93q0 51 -76 51h-88z" />
    <glyph glyph-name="uni044B" unicode="&#x44b;" horiz-adv-x="770" 
d="M94 395q2 11 0.5 14.5t-10.5 7.5l-33 14l23 59h160l-29 -162h106q93 0 133 -28.5t40 -94.5q0 -99 -56 -152t-162 -53h-242zM163 92h98q98 0 98 93q0 51 -76 51h-94zM541 0l70 395q2 11 0.5 14.5t-10.5 7.5l-34 14l23 59h152q6 0 10 -1.5t2 -10.5l-85 -478h-128z" />
    <glyph glyph-name="uni044C" unicode="&#x44c;" horiz-adv-x="518" 
d="M94 395q2 11 0.5 14.5t-10.5 7.5l-33 14l23 59h160l-29 -162h106q93 0 133 -28.5t40 -94.5q0 -99 -56 -152t-162 -53h-242zM163 92h98q98 0 98 93q0 51 -76 51h-94z" />
    <glyph glyph-name="uni044D" unicode="&#x44d;" horiz-adv-x="471" 
d="M88 293h221q2 14 0 30q-12 84 -119 84q-33 0 -63 -4t-62 -11l-3 92q38 9 77.5 13.5t78.5 4.5q221 0 221 -182q0 -78 -19.5 -139.5t-56 -104t-89.5 -65.5t-120 -23q-83 0 -163 23l17 95q66 -23 133 -23q60 0 100.5 32.5t55.5 89.5h-224z" />
    <glyph glyph-name="uni044E" unicode="&#x44e;" horiz-adv-x="802" 
d="M94 395q2 11 0.5 14.5t-10.5 7.5l-33 14l23 59h160l-35 -192h103q26 97 92.5 150.5t166.5 53.5q213 0 213 -182q0 -78 -19 -139.5t-54.5 -104t-87 -65.5t-116.5 -23q-106 0 -159 46t-53 135v15.5t1 15.5h-104l-35 -200h-123zM410 185q0 -97 95 -97q66 0 105 59t39 158
q0 97 -95 97q-67 0 -105.5 -59t-38.5 -158z" />
    <glyph glyph-name="uni044F" unicode="&#x44f;" horiz-adv-x="529" 
d="M428 0h-120l29 170h-94l-121 -170h-137l146 188q-36 12 -55.5 40t-19.5 67q0 94 55.5 144.5t159.5 50.5h244zM378 398h-112q-87 0 -87 -86q0 -49 66 -49h109z" />
    <glyph glyph-name="uni0450" unicode="&#x450;" horiz-adv-x="536" 
d="M28 170q0 78 18.5 139.5t53.5 104.5t85.5 65.5t115.5 22.5q103 0 153 -43.5t50 -135.5q0 -56 -17 -115h-335q-2 -17 0 -38q9 -85 131 -85q40 0 81.5 5.5t84.5 14.5l-17 -98q-39 -9 -80 -14t-85 -5q-119 0 -179 46t-60 136zM294 412q-51 0 -84 -31.5t-44 -90.5h214
q3 16 3 38q0 42 -21 63t-68 21zM170 704h125l97 -148h-104z" />
    <glyph glyph-name="uni0451" unicode="&#x451;" horiz-adv-x="536" 
d="M28 170q0 78 18.5 139.5t53.5 104.5t85.5 65.5t115.5 22.5q103 0 153 -43.5t50 -135.5q0 -56 -17 -115h-335q-2 -17 0 -38q9 -85 131 -85q40 0 81.5 5.5t84.5 14.5l-17 -98q-39 -9 -80 -14t-85 -5q-119 0 -179 46t-60 136zM294 412q-51 0 -84 -31.5t-44 -90.5h214
q3 16 3 38q0 42 -21 63t-68 21zM149 614q0 42 21 64.5t63 22.5q63 0 63 -55q0 -42 -21.5 -64.5t-63.5 -22.5q-62 0 -62 55zM365 614q0 42 21.5 64.5t63.5 22.5q62 0 62 -55q0 -42 -21 -64.5t-63 -22.5q-63 0 -63 55z" />
    <glyph glyph-name="uni0452" unicode="&#x452;" horiz-adv-x="580" 
d="M147 0h-128l97 551h-54l15 88h54l12 65h128l-12 -65h167l-15 -88h-167l-18 -99q26 23 60 36.5t75 13.5q81 0 125 -40t44 -112q0 -34 -6 -64l-63 -352q-14 -82 -60 -118t-137 -36q-27 0 -54 3.5t-54 9.5l17 98q42 -11 76 -11q40 0 60.5 17t27.5 57l59 332q4 23 4 41
q0 73 -82 73q-31 0 -59.5 -10t-45.5 -19z" />
    <glyph glyph-name="uni0453" unicode="&#x453;" horiz-adv-x="435" 
d="M94 395q2 11 0.5 14.5t-10.5 7.5l-33 14l23 59h385l-17 -97h-220l-70 -393h-128zM335 556h-120l141 148h142z" />
    <glyph glyph-name="uni0454" unicode="&#x454;" horiz-adv-x="471" 
d="M382 205h-222q-2 -15 0 -34q4 -43 35 -65.5t85 -22.5q35 0 66.5 4t66.5 12l-17 -96q-69 -15 -144 -15q-110 0 -165 46t-55 136t25.5 157.5t73.5 110.5q72 64 196 64q44 0 81.5 -6t74.5 -18l-34 -90q-29 9 -57 14t-54 5q-64 0 -104.5 -30t-56.5 -84h221z" />
    <glyph glyph-name="uni0455" unicode="&#x455;" horiz-adv-x="459" 
d="M407 378q-25 12 -60 20.5t-72 8.5q-45 0 -71.5 -14t-26.5 -44q0 -19 17.5 -29t43.5 -17t56.5 -14.5t56.5 -22.5t43.5 -40t17.5 -66q0 -81 -55.5 -126.5t-161.5 -45.5q-51 0 -98.5 7t-91.5 21l17 100q84 -33 166 -33q48 0 74.5 17t26.5 50q0 22 -17.5 32.5t-43.5 18
t-56.5 15.5t-56.5 22.5t-43.5 40t-17.5 69.5q0 72 56 113t157 41q52 0 98 -8t78 -21l-36 -95v0z" />
    <glyph glyph-name="uni0456" unicode="&#x456;" horiz-adv-x="263" 
d="M28 0l70 395q2 11 0.5 14.5t-10.5 7.5l-34 14l23 59h152q6 0 10 -1.5t2 -10.5l-85 -478h-128zM125 614q0 43 22.5 66t64.5 23q65 0 65 -57q0 -44 -22.5 -67t-64.5 -23q-65 0 -65 58z" />
    <glyph glyph-name="uni0457" unicode="&#x457;" horiz-adv-x="263" 
d="M28 0l70 395q2 11 0.5 14.5t-10.5 7.5l-34 14l23 59h152q6 0 10 -1.5t2 -10.5l-85 -478h-128zM15 614q0 42 21 64.5t63 22.5q63 0 63 -55q0 -42 -21.5 -64.5t-63.5 -22.5q-62 0 -62 55zM231 614q0 42 21.5 64.5t63.5 22.5q62 0 62 -55q0 -42 -21 -64.5t-63 -22.5
q-63 0 -63 55z" />
    <glyph glyph-name="uni0458" unicode="&#x458;" horiz-adv-x="263" 
d="M153 -18q-11 -58 -26 -93t-39 -58q-51 -48 -154 -48q-12 0 -26.5 0.5t-23.5 2.5l16 94q5 -1 13 -1h15q44 0 65 20q11 11 18.5 29t12.5 49l74 418q2 11 0.5 14.5t-10.5 7.5l-34 14l23 59h152q6 0 10 -1.5t2 -10.5zM125 614q0 43 22.5 66t64.5 23q65 0 65 -57
q0 -44 -22.5 -67t-64.5 -23q-65 0 -65 58z" />
    <glyph glyph-name="uni0459" unicode="&#x459;" horiz-adv-x="856" 
d="M163 395q2 11 0.5 14.5t-10.5 7.5l-33 14l23 59h431l-28 -162h98q93 0 133 -28.5t40 -94.5q0 -99 -56 -152t-162 -53h-234l70 393h-153l-17 -95q-15 -84 -35 -142.5t-47.5 -94.5t-64.5 -52.5t-86 -16.5q-11 0 -23.5 1t-24.5 3l19 103q5 -1 9.5 -1.5t9.5 -0.5
q25 0 43.5 10.5t33 35.5t26 65t22.5 100zM504 92h90q98 0 98 93q0 51 -76 51h-86z" />
    <glyph glyph-name="uni045A" unicode="&#x45a;" horiz-adv-x="841" 
d="M94 395q2 11 0.5 14.5t-10.5 7.5l-33 14l23 59h159l-32 -183h203l32 183h123l-32 -183h112q83 0 121.5 -29t38.5 -91q0 -90 -54.5 -138.5t-151.5 -48.5h-243l36 209h-203l-36 -209h-123zM488 87h100q86 0 86 85q0 48 -65 48h-98z" />
    <glyph glyph-name="uni045B" unicode="&#x45b;" horiz-adv-x="580" 
d="M226 452q26 23 60 36.5t75 13.5q81 0 125 -40t44 -112q0 -34 -6 -64l-34 -191q-2 -11 -0.5 -14.5t10.5 -7.5l33 -14l-22 -59h-156q-9 0 -8 10l49 276q4 23 4 41q0 73 -82 73q-31 0 -59.5 -10t-45.5 -19l-66 -371h-128l97 551h-54l15 88h54l12 65h128l-12 -65h167l-15 -88
h-167z" />
    <glyph glyph-name="uni045C" unicode="&#x45c;" horiz-adv-x="511" 
d="M201 305l194 185h146l-237 -224l151 -266h-132l-105 190l-45 -42l-26 -148h-123l70 395q2 11 0.5 14.5t-10.5 7.5l-34 14l23 59h147q6 0 10 -1.5t2 -10.5zM352 556h-120l141 148h142z" />
    <glyph glyph-name="uni045D" unicode="&#x45d;" horiz-adv-x="583" 
d="M94 395q2 11 0.5 14.5t-10.5 7.5l-33 14l23 59h155l-55 -307l269 307h122l-87 -490h-118l54 307l-269 -307h-121zM199 704h125l97 -148h-104z" />
    <glyph glyph-name="uni045E" unicode="&#x45e;" 
d="M471 -1q-9 -53 -28 -94t-52 -69t-81.5 -42t-116.5 -14q-32 0 -60.5 2t-44.5 7l18 97q20 -5 43.5 -7t43.5 -2q41 0 68 9.5t43.5 24.5t24.5 35t12 41l9 50q-23 -24 -58.5 -36.5t-72.5 -12.5q-38 0 -69.5 10t-54.5 29t-35.5 46t-12.5 62q0 17 1.5 33t3.5 31l35 196
q2 11 0.5 14.5t-10.5 7.5l-34 14l23 59h152q6 0 10 -1.5t2 -10.5l-50 -279q-2 -10 -3 -20.5t-1 -20.5q0 -32 22.5 -51t62.5 -19q52 0 79.5 27.5t37.5 82.5l52 292h128zM272 704q-12 -74 66 -74q42 0 63 17t27 57h91q-12 -84 -57 -121.5t-133 -37.5q-150 0 -150 114
q0 11 1 22t3 23h89z" />
    <glyph glyph-name="uni045F" unicode="&#x45f;" horiz-adv-x="582" 
d="M94 395q2 11 0.5 14.5t-10.5 7.5l-33 14l23 59h165l-69 -393h198l69 393h128l-87 -490h-168l-26 -144h-118l26 144h-168z" />
    <glyph glyph-name="uni0490" unicode="&#x490;" horiz-adv-x="524" 
d="M131 578q2 11 0 14.5t-11 7.5l-33 14l21 58h348l28 160h123l-46 -262h-298l-100 -570h-133z" />
    <glyph glyph-name="uni0491" unicode="&#x491;" horiz-adv-x="435" 
d="M94 395q2 11 0.5 14.5t-10.5 7.5l-33 14l23 59h275l26 144h118l-44 -241h-228l-69 -393h-128z" />
    <glyph glyph-name="uni0492" unicode="&#x492;" horiz-adv-x="540" 
d="M147 578q2 11 0 14.5t-11 7.5l-33 14l21 58h471l-18 -102h-298l-37 -210h181l-17 -93h-180l-47 -267h-133l47 267h-74l17 93h73z" />
    <glyph glyph-name="uni0493" unicode="&#x493;" horiz-adv-x="444" 
d="M468 490l-18 -97h-220l-22 -124h125l-16 -87h-124l-32 -182h-128l32 182h-71l16 87h71l22 126q2 11 0.5 14.5t-10.5 7.5l-33 14l23 59h385z" />
    <glyph glyph-name="uni049A" unicode="&#x49a;" horiz-adv-x="678" 
d="M131 578q2 11 0 14.5t-11 7.5l-33 14l21 58h168l-51 -290l317 290h151l-334 -310l161 -260h121l-46 -262h-123l28 160h-60l-170 284l-74 -67l-38 -217h-128z" />
    <glyph glyph-name="uni049B" unicode="&#x49b;" horiz-adv-x="559" 
d="M94 395q2 11 0.5 14.5t-10.5 7.5l-33 14l23 59h159l-32 -185l194 185h146l-237 -224l101 -169h117l-43 -241h-118l26 144h-64l-105 190l-45 -42l-26 -148h-123z" />
    <glyph glyph-name="uni04A2" unicode="&#x4a2;" horiz-adv-x="774" 
d="M281 672l-49 -279h324l49 279h133l-101 -570h84l-45 -262h-123l28 160h-94l51 291h-324l-51 -291h-133l101 578q2 11 0 14.5t-11 7.5l-33 14l21 58h173z" />
    <glyph glyph-name="uni04A3" unicode="&#x4a3;" horiz-adv-x="606" 
d="M94 395q2 11 0.5 14.5t-10.5 7.5l-33 14l23 59h165l-35 -192h198l35 192h128l-70 -393h73l-43 -241h-118l26 144h-83l35 200h-198l-35 -200h-128z" />
    <glyph glyph-name="uni04AE" unicode="&#x4ae;" horiz-adv-x="609" 
d="M243 279l-169 393h140l110 -281l207 281h154l-311 -404l-46 -268h-133z" />
    <glyph glyph-name="uni04AF" unicode="&#x4af;" horiz-adv-x="523" 
d="M151 -14l-96 504h124l58 -361l183 361h134l-276 -510l-33 -188h-128z" />
    <glyph glyph-name="uni04B0" unicode="&#x4b0;" horiz-adv-x="609" 
d="M236 240h-152l17 92h120l-147 340h140l110 -281l207 281h154l-264 -340h125l-17 -92h-160l-41 -240h-133z" />
    <glyph glyph-name="uni04B1" unicode="&#x4b1;" horiz-adv-x="537" 
d="M152 -22h-132l15 87h104l-81 425h124l58 -361l183 361h134l-230 -425h116l-15 -87h-148l-32 -186h-128z" />
    <glyph glyph-name="uni04BA" unicode="&#x4ba;" horiz-adv-x="684" 
d="M131 578q2 11 0 14.5t-11 7.5l-33 14l21 58h173l-47 -269q42 10 82.5 15.5t81.5 5.5q229 0 229 -193q0 -16 -2 -32.5t-5 -33.5l-29 -165h-133l28 160q2 12 3.5 23.5t1.5 22.5q0 113 -139 113q-32 0 -66 -4t-69 -12l-54 -303h-133z" />
    <glyph glyph-name="uni04BB" unicode="&#x4bb;" horiz-adv-x="580" 
d="M400 327q0 73 -82 73q-31 0 -59.5 -10t-45.5 -19l-66 -371h-128l107 609q2 11 0.5 14.5t-10.5 7.5l-33 14l23 59h151q6 0 10 -1.5t2 -10.5l-43 -240q26 23 60 36.5t75 13.5q81 0 125 -40t44 -112q0 -34 -6 -64l-34 -191q-2 -11 -0.5 -14.5t10.5 -7.5l33 -14l-22 -59h-156
q-9 0 -8 10l49 276q4 23 4 41z" />
    <glyph glyph-name="uni04D8" unicode="&#x4d8;" horiz-adv-x="684" 
d="M669 440q0 -107 -24 -191t-70 -142t-113 -88.5t-152 -30.5q-135 0 -201 57t-66 180q0 37 5 76t15 75h475q2 15 2.5 32.5t-0.5 35.5q-5 72 -56.5 106t-146.5 34q-98 0 -203 -24v96q102 28 218 28q154 0 235.5 -61t81.5 -183zM315 83q85 0 137.5 50.5t70.5 150.5h-349
q-3 -14 -4.5 -31.5t-1.5 -32.5q0 -72 36 -104.5t111 -32.5z" />
    <glyph glyph-name="uni04D9" unicode="&#x4d9;" horiz-adv-x="535" 
d="M503 320q0 -78 -18.5 -139.5t-53.5 -104.5t-86 -65.5t-115 -22.5q-103 0 -153 43.5t-50 135.5q0 58 17 115h335q1 8 0.5 18t-1.5 21q-9 84 -130 84q-37 0 -75.5 -4.5t-77.5 -12.5l-2 93q44 11 85 16t85 5q240 0 240 -182zM236 78q51 0 84 31.5t45 90.5h-214q-2 -8 -3 -18
t-1 -20q0 -84 89 -84z" />
    <glyph glyph-name="uni04E8" unicode="&#x4e8;" horiz-adv-x="727" 
d="M47 233q0 106 25.5 190t74 142t118 88.5t158.5 30.5q143 0 215.5 -62t72.5 -183q0 -107 -25.5 -190.5t-74 -141.5t-118.5 -88.5t-158 -30.5q-143 0 -215.5 62t-72.5 183zM173 246q0 -158 169 -158q87 0 145.5 53.5t82.5 151.5h-396q-1 -11 -1 -23v-24zM416 584
q-85 0 -142 -50.5t-83 -142.5h393q0 8 0.5 17t0.5 18q0 158 -169 158z" />
    <glyph glyph-name="uni04E9" unicode="&#x4e9;" horiz-adv-x="561" 
d="M28 170q0 78 19.5 139.5t56 104t89 65.5t119.5 23q221 0 221 -182q0 -78 -19.5 -139.5t-56 -104t-89.5 -65.5t-120 -23q-110 0 -165 46t-55 136zM143 188q0 -110 112 -110q54 0 92.5 33.5t56.5 91.5h-261v-15zM306 412q-53 0 -91.5 -32.5t-56.5 -88.5h260v11
q0 110 -112 110z" />
    <glyph glyph-name="Wgrave" unicode="&#x1e80;" horiz-adv-x="1010" 
d="M594 0q-49 226 -63 469q-42 -121 -98.5 -237t-120.5 -232h-151q-15 66 -29 153t-25.5 178.5t-19 180.5t-10.5 160h128q7 -137 19.5 -273t35.5 -275h1q66 129 125.5 262.5t116.5 271.5h127q6 -127 19 -263t35 -271h1q63 118 123 252t126 296h130q-27 -71 -66.5 -160
t-83.5 -180.5t-89 -178.5t-83 -153h-148v0zM420 880h125l97 -148h-104z" />
    <glyph glyph-name="wgrave" unicode="&#x1e81;" horiz-adv-x="824" 
d="M414 305q-34 -79 -74 -159t-79 -146h-133q-15 62 -27 126.5t-22 127.5t-17 123t-11 113h125q6 -94 16.5 -184.5t26.5 -181.5h1q48 91 88 177t78 173h118q6 -91 16.5 -177t25.5 -173h1q49 92 91.5 182.5t81.5 183.5h124q-23 -53 -51.5 -113t-60.5 -123t-67.5 -127.5
t-71.5 -126.5h-128q-15 66 -28.5 146t-20.5 159h-2zM288 704h125l97 -148h-104z" />
    <glyph glyph-name="Wacute" unicode="&#x1e82;" horiz-adv-x="1010" 
d="M594 0q-49 226 -63 469q-42 -121 -98.5 -237t-120.5 -232h-151q-15 66 -29 153t-25.5 178.5t-19 180.5t-10.5 160h128q7 -137 19.5 -273t35.5 -275h1q66 129 125.5 262.5t116.5 271.5h127q6 -127 19 -263t35 -271h1q63 118 123 252t126 296h130q-27 -71 -66.5 -160
t-83.5 -180.5t-89 -178.5t-83 -153h-148v0zM615 732h-120l141 148h142z" />
    <glyph glyph-name="wacute" unicode="&#x1e83;" horiz-adv-x="824" 
d="M414 305q-34 -79 -74 -159t-79 -146h-133q-15 62 -27 126.5t-22 127.5t-17 123t-11 113h125q6 -94 16.5 -184.5t26.5 -181.5h1q48 91 88 177t78 173h118q6 -91 16.5 -177t25.5 -173h1q49 92 91.5 182.5t81.5 183.5h124q-23 -53 -51.5 -113t-60.5 -123t-67.5 -127.5
t-71.5 -126.5h-128q-15 66 -28.5 146t-20.5 159h-2zM516 556h-120l141 148h142z" />
    <glyph glyph-name="Wdieresis" unicode="&#x1e84;" horiz-adv-x="1010" 
d="M594 0q-49 226 -63 469q-42 -121 -98.5 -237t-120.5 -232h-151q-15 66 -29 153t-25.5 178.5t-19 180.5t-10.5 160h128q7 -137 19.5 -273t35.5 -275h1q66 129 125.5 262.5t116.5 271.5h127q6 -127 19 -263t35 -271h1q63 118 123 252t126 296h130q-27 -71 -66.5 -160
t-83.5 -180.5t-89 -178.5t-83 -153h-148v0zM409 790q0 42 21 64.5t63 22.5q63 0 63 -55q0 -42 -21.5 -64.5t-63.5 -22.5q-62 0 -62 55zM625 790q0 42 21.5 64.5t63.5 22.5q62 0 62 -55q0 -42 -21 -64.5t-63 -22.5q-63 0 -63 55z" />
    <glyph glyph-name="wdieresis" unicode="&#x1e85;" horiz-adv-x="824" 
d="M414 305q-34 -79 -74 -159t-79 -146h-133q-15 62 -27 126.5t-22 127.5t-17 123t-11 113h125q6 -94 16.5 -184.5t26.5 -181.5h1q48 91 88 177t78 173h118q6 -91 16.5 -177t25.5 -173h1q49 92 91.5 182.5t81.5 183.5h124q-23 -53 -51.5 -113t-60.5 -123t-67.5 -127.5
t-71.5 -126.5h-128q-15 66 -28.5 146t-20.5 159h-2zM291 614q0 42 21 64.5t63 22.5q63 0 63 -55q0 -42 -21.5 -64.5t-63.5 -22.5q-62 0 -62 55zM507 614q0 42 21.5 64.5t63.5 22.5q62 0 62 -55q0 -42 -21 -64.5t-63 -22.5q-63 0 -63 55z" />
    <glyph glyph-name="uni1E9E" unicode="&#x1e9e;" horiz-adv-x="735" 
d="M99 420q12 69 39.5 118.5t71.5 82t107 48t146 15.5q70 0 138 -7.5t134 -21.5l-17 -97l-159 -170q63 -8 97.5 -46t34.5 -103q0 -118 -75.5 -184.5t-214.5 -66.5q-41 0 -82 5.5t-79 16.5l17 100q37 -11 73 -16.5t71 -5.5q76 0 117.5 36t41.5 100q0 82 -128 82h-26l15 93
l162 172q-29 7 -62 10t-68 3q-101 0 -156.5 -41t-71.5 -134l-72 -409h-128z" />
    <glyph glyph-name="Ygrave" unicode="&#x1ef2;" horiz-adv-x="609" 
d="M243 279l-169 393h140l110 -281l207 281h154l-311 -404l-46 -268h-133zM239 880h125l97 -148h-104z" />
    <glyph glyph-name="ygrave" unicode="&#x1ef3;" 
d="M471 -1q-9 -53 -28 -94t-52 -69t-81.5 -42t-116.5 -14q-32 0 -60.5 2t-44.5 7l18 97q20 -5 43.5 -7t43.5 -2q41 0 68 9.5t43.5 24.5t24.5 35t12 41l9 50q-23 -24 -58.5 -36.5t-72.5 -12.5q-38 0 -69.5 10t-54.5 29t-35.5 46t-12.5 62q0 17 1.5 33t3.5 31l35 196
q2 11 0.5 14.5t-10.5 7.5l-34 14l23 59h152q6 0 10 -1.5t2 -10.5l-50 -279q-2 -10 -3 -20.5t-1 -20.5q0 -32 22.5 -51t62.5 -19q52 0 79.5 27.5t37.5 82.5l52 292h128zM176 704h125l97 -148h-104z" />
    <glyph glyph-name="endash" unicode="&#x2013;" 
d="M31 298h532l-17 -98h-532z" />
    <glyph glyph-name="emdash" unicode="&#x2014;" horiz-adv-x="864" 
d="M31 298h820l-17 -98h-820z" />
    <glyph glyph-name="quoteleft" unicode="&#x2018;" horiz-adv-x="249" 
d="M184 672h105l-96 -253h-133z" />
    <glyph glyph-name="quoteright" unicode="&#x2019;" horiz-adv-x="249" 
d="M170 419h-106l97 253h133z" />
    <glyph glyph-name="quotesinglbase" unicode="&#x201a;" horiz-adv-x="249" 
d="M55 -144h-106l97 253h133z" />
    <glyph glyph-name="quotedblleft" unicode="&#x201c;" horiz-adv-x="465" 
d="M184 672h105l-96 -253h-133zM401 672h105l-96 -253h-133z" />
    <glyph glyph-name="quotedblright" unicode="&#x201d;" horiz-adv-x="465" 
d="M170 419h-106l97 253h133zM387 419h-106l97 253h133z" />
    <glyph glyph-name="quotedblbase" unicode="&#x201e;" horiz-adv-x="465" 
d="M55 -144h-106l97 253h133zM272 -144h-106l97 253h133z" />
    <glyph glyph-name="dagger" unicode="&#x2020;" horiz-adv-x="489" 
d="M219 413h-160l17 98h161l28 161h108l-28 -161h160l-17 -98h-161l-72 -413h-108z" />
    <glyph glyph-name="daggerdbl" unicode="&#x2021;" horiz-adv-x="489" 
d="M176 161h-161l17 98h161l26 154h-160l17 98h161l28 161h108l-28 -161h160l-17 -98h-161l-26 -154h161l-18 -98h-161l-28 -161h-108z" />
    <glyph glyph-name="bullet" unicode="&#x2022;" horiz-adv-x="480" 
d="M104 288q0 30 11 56t30.5 45.5t46 31t56.5 11.5t56 -11.5t45.5 -31t31 -45.5t11.5 -56t-11.5 -56.5t-31 -46t-45.5 -30.5t-56 -11t-56.5 11t-46 30.5t-30.5 46t-11 56.5z" />
    <glyph glyph-name="ellipsis" unicode="&#x2026;" horiz-adv-x="864" 
d="M34 50q0 45 23.5 69t67.5 24q67 0 67 -61q0 -45 -23 -69t-67 -24q-68 0 -68 61zM322 50q0 45 23.5 69t67.5 24q67 0 67 -61q0 -45 -23 -69t-67 -24q-68 0 -68 61zM610 50q0 45 23.5 69t67.5 24q67 0 67 -61q0 -45 -23 -69t-67 -24q-68 0 -68 61z" />
    <glyph glyph-name="perthousand" unicode="&#x2030;" horiz-adv-x="1248" 
d="M850 113q0 111 53 173t148 62q81 0 116.5 -29.5t35.5 -95.5q0 -111 -53 -173t-147 -62q-81 0 -117 29.5t-36 95.5zM943 125q0 -33 15.5 -48t50.5 -15q48 0 75 40.5t27 110.5q0 33 -16 47.5t-51 14.5q-48 0 -74.5 -40.5t-26.5 -109.5zM466 113q0 111 53 173t148 62
q81 0 116.5 -29.5t35.5 -95.5q0 -111 -53 -173t-147 -62q-81 0 -117 29.5t-36 95.5zM559 125q0 -33 15.5 -48t50.5 -15q48 0 75 40.5t27 110.5q0 33 -16 47.5t-51 14.5q-48 0 -74.5 -40.5t-26.5 -109.5zM613 672h84l-414 -672h-85zM76 449q0 111 53 173t148 62
q81 0 116.5 -29.5t35.5 -95.5q0 -111 -53 -173t-147 -62q-81 0 -117 29.5t-36 95.5zM169 461q0 -33 15.5 -48t50.5 -15q48 0 75 40.5t27 110.5q0 33 -16 47.5t-51 14.5q-48 0 -74.5 -40.5t-26.5 -109.5z" />
    <glyph glyph-name="guilsinglleft" unicode="&#x2039;" horiz-adv-x="297" 
d="M143 239l99 -193h-113l-112 199l170 199h119z" />
    <glyph glyph-name="guilsinglright" unicode="&#x203a;" horiz-adv-x="297" 
d="M154 251l-99 193h113l111 -199l-169 -199h-119z" />
    <glyph glyph-name="fraction" unicode="&#x2044;" horiz-adv-x="128" 
d="M245 672h84l-414 -672h-85z" />
    <glyph glyph-name="Euro" unicode="&#x20ac;" 
d="M78 458h65q42 109 123.5 167.5t199.5 58.5q84 0 159 -23l-17 -95q-64 23 -132 23q-65 0 -114.5 -34t-80.5 -97h222l-14 -77h-237q-10 -38 -14 -78h238l-14 -77h-227q2 -76 38.5 -109.5t117.5 -33.5q35 0 68.5 4t66.5 12l-17 -96q-68 -15 -142 -15q-136 0 -199.5 55.5
t-63.5 174.5v8h-67l14 77h57q4 40 12 78h-56z" />
    <glyph glyph-name="afii61248" unicode="&#x2105;" horiz-adv-x="864" 
d="M83 461q0 103 50.5 161t141.5 58q29 0 56.5 -4t53.5 -11l-13 -74q-22 7 -43 11t-44 4q-51 0 -78.5 -34t-27.5 -97q0 -61 75 -61q45 0 88 10l-13 -75q-23 -6 -46.5 -8t-49.5 -2q-150 0 -150 122zM470 114q0 103 50.5 161t141.5 58q150 0 150 -122q0 -103 -50.5 -161
t-141.5 -58q-150 0 -150 122zM566 125q0 -58 60 -58q42 0 66 36t24 97q0 59 -60 59q-42 0 -66 -36.5t-24 -97.5zM597 672h84l-414 -672h-85z" />
    <glyph glyph-name="litre" unicode="&#x2113;" horiz-adv-x="403" 
d="M430 577q0 -92 -65 -175t-189 -150l-12 -70q-3 -17 -3 -33q0 -61 78 -61q38 0 73 7l-18 -100q-20 -5 -39 -6t-40 -1q-89 0 -131.5 34.5t-42.5 101.5q0 13 1.5 26t3.5 27l65 374q29 165 180 165q139 0 139 -139zM330 562q0 54 -42 54q-48 0 -61 -76l-30 -163
q63 42 98 89.5t35 95.5z" />
    <glyph glyph-name="numero" unicode="&#x2116;" horiz-adv-x="1130" 
d="M143 672h131l250 -490l86 490h123l-118 -672h-131l-249 490l-87 -490h-123zM804 461q0 103 50.5 161t141.5 58q150 0 150 -122q0 -103 -50.5 -161t-141.5 -58q-150 0 -150 122zM900 472q0 -59 60 -59q42 0 66 36.5t24 97.5q0 58 -60 58q-42 0 -66 -36t-24 -97zM776 288
h327l-13 -74h-328z" />
    <glyph glyph-name="uni2117" unicode="&#x2117;" horiz-adv-x="832" 
d="M54 336q0 95 21.5 164.5t67.5 114.5t117.5 67t171.5 22t171.5 -22t117.5 -67t67.5 -114.5t21.5 -164.5t-21.5 -164.5t-67.5 -114.5t-117.5 -67t-171.5 -22t-171.5 22t-117.5 67t-67.5 114.5t-21.5 164.5zM128 336q0 -161 75 -232.5t229 -71.5t229 71.5t75 232.5
q0 81 -17.5 138.5t-54 94t-94 54t-138.5 17.5t-138.5 -17.5t-94 -54t-54 -94t-17.5 -138.5zM279 544h186q85 0 122.5 -32t37.5 -106q0 -73 -37.5 -105.5t-122.5 -32.5h-95v-140h-91v416zM370 343h90q38 0 55.5 14t17.5 49q0 34 -17.5 48.5t-55.5 14.5h-90v-126z" />
    <glyph glyph-name="uni2120" unicode="&#x2120;" horiz-adv-x="940" 
d="M74 555q0 66 39.5 95.5t129.5 29.5q71 0 136 -17v-78q-64 19 -128 19q-42 0 -59.5 -10.5t-17.5 -36.5q0 -20 17 -29.5t43 -15t55.5 -11.5t55.5 -19.5t43 -38t17 -66.5q0 -68 -41 -98.5t-133 -30.5q-41 0 -79 5.5t-73 15.5v78q77 -23 144 -23q44 0 63 12t19 39
q0 21 -17 31t-43 16.5t-55.5 12.5t-55.5 19t-43 36.5t-17 64.5zM485 672h92l129 -217l131 217h92v-416h-90v274l-101 -166h-64l-99 166v-274h-90v416z" />
    <glyph glyph-name="trademark" unicode="&#x2122;" horiz-adv-x="947" 
d="M493 672h92l129 -217l130 217h92v-416h-90v274l-100 -166h-64l-99 166v-274h-90v416zM192 596h-131v76h360v-76h-131v-340h-98v340z" />
    <glyph glyph-name="Ohm" unicode="&#x2126;" horiz-adv-x="727" 
d="M-3 102h159q-83 101 -83 231q0 82 22.5 147t66 110.5t108.5 69.5t151 24q143 0 214 -62t71 -174q0 -116 -45.5 -198.5t-135.5 -147.5h155l-19 -102h-297l17 99q94 58 141.5 141.5t47.5 187.5q0 76 -39 113.5t-120 37.5q-103 0 -158 -66.5t-55 -189.5q0 -69 22.5 -126
t65.5 -102l-18 -95h-289z" />
    <glyph glyph-name="estimated" unicode="&#x212e;" horiz-adv-x="960" 
d="M496 16q73 0 135.5 30t107.5 82h66q-53 -66 -133 -105t-176 -39q-80 0 -149.5 27.5t-122 75.5t-82.5 112t-30 137t30 137t82.5 112t122 75.5t149.5 27.5q79 0 149 -27.5t122.5 -75.5t82.5 -112t30 -137q0 -11 -1 -16h-623v-196q44 -51 106 -79.5t134 -28.5zM256 352h480
v196q-45 50 -106.5 79t-133.5 29t-134 -29t-106 -79v-196z" />
    <glyph glyph-name="onethird" unicode="&#x2153;" horiz-adv-x="864" 
d="M231 585l-107 -36l14 79l129 44h73l-73 -416h-94zM613 672h84l-414 -672h-85zM821 347l-111 -102q45 -7 69.5 -32t24.5 -64q0 -157 -199 -157q-61 0 -116 19l12 75q27 -10 53 -15.5t51 -5.5q103 0 103 74q0 22 -21 33t-66 11h-27l10 60l111 101h-163l12 72h270z" />
    <glyph glyph-name="twothirds" unicode="&#x2154;" horiz-adv-x="864" 
d="M46 325l171 135q32 26 48.5 48.5t16.5 45.5q0 49 -70 49q-23 0 -51 -4t-57 -10l13 76q58 15 120 15q140 0 140 -100q0 -45 -21.5 -82.5t-64.5 -72.5l-115 -93h162l-13 -76h-291zM613 672h84l-414 -672h-85zM821 347l-111 -102q45 -7 69.5 -32t24.5 -64q0 -157 -199 -157
q-61 0 -116 19l12 75q27 -10 53 -15.5t51 -5.5q103 0 103 74q0 22 -21 33t-66 11h-27l10 60l111 101h-163l12 72h270z" />
    <glyph glyph-name="uni2155" unicode="&#x2155;" horiz-adv-x="864" 
d="M827 344h-175l-16 -88h29q71 0 108 -26.5t37 -77.5q0 -160 -198 -160q-32 0 -60.5 5t-54.5 14l12 74q26 -9 52 -14.5t51 -5.5q52 0 76.5 17.5t24.5 57.5q0 48 -92 48q-40 0 -82 -3l40 231h260zM231 585l-107 -36l14 79l129 44h73l-73 -416h-94zM613 672h84l-414 -672h-85
z" />
    <glyph glyph-name="uni2156" unicode="&#x2156;" horiz-adv-x="864" 
d="M827 344h-175l-16 -88h29q71 0 108 -26.5t37 -77.5q0 -160 -198 -160q-32 0 -60.5 5t-54.5 14l12 74q26 -9 52 -14.5t51 -5.5q52 0 76.5 17.5t24.5 57.5q0 48 -92 48q-40 0 -82 -3l40 231h260zM46 325l171 135q32 26 48.5 48.5t16.5 45.5q0 49 -70 49q-23 0 -51 -4
t-57 -10l13 76q58 15 120 15q140 0 140 -100q0 -45 -21.5 -82.5t-64.5 -72.5l-115 -93h162l-13 -76h-291zM613 672h84l-414 -672h-85z" />
    <glyph glyph-name="uni2157" unicode="&#x2157;" horiz-adv-x="864" 
d="M827 344h-175l-16 -88h29q71 0 108 -26.5t37 -77.5q0 -160 -198 -160q-32 0 -60.5 5t-54.5 14l12 74q26 -9 52 -14.5t51 -5.5q52 0 76.5 17.5t24.5 57.5q0 48 -92 48q-40 0 -82 -3l40 231h260zM371 603l-111 -102q45 -7 69.5 -32t24.5 -64q0 -157 -199 -157
q-61 0 -116 19l12 75q27 -10 53 -15.5t51 -5.5q103 0 103 74q0 22 -21 33t-66 11h-27l10 60l111 101h-163l12 72h270zM613 672h84l-414 -672h-85z" />
    <glyph glyph-name="uni2158" unicode="&#x2158;" horiz-adv-x="864" 
d="M233 340h-206l13 72l236 260h100l-46 -263h55l-12 -69h-56l-14 -84h-85zM827 344h-175l-16 -88h29q71 0 108 -26.5t37 -77.5q0 -160 -198 -160q-32 0 -60.5 5t-54.5 14l12 74q26 -9 52 -14.5t51 -5.5q52 0 76.5 17.5t24.5 57.5q0 48 -92 48q-40 0 -82 -3l40 231h260z
M245 409l29 164l-149 -164h120zM613 672h84l-414 -672h-85z" />
    <glyph glyph-name="uni2159" unicode="&#x2159;" horiz-adv-x="864" 
d="M508 120q0 144 61 224t170 80q55 0 108 -17l-13 -72q-23 8 -48.5 12.5t-50.5 4.5q-48 0 -80 -28t-43 -79q34 30 86 30q61 0 94 -27.5t33 -78.5q0 -85 -46 -131t-129 -46q-71 0 -106.5 32.5t-35.5 95.5zM594 124q0 -61 63 -61q37 0 58 23.5t21 65.5q0 55 -59 55
q-39 0 -61 -22t-22 -61zM231 585l-107 -36l14 79l129 44h73l-73 -416h-94zM613 672h84l-414 -672h-85z" />
    <glyph glyph-name="uni215A" unicode="&#x215a;" horiz-adv-x="864" 
d="M508 120q0 144 61 224t170 80q55 0 108 -17l-13 -72q-23 8 -48.5 12.5t-50.5 4.5q-48 0 -80 -28t-43 -79q34 30 86 30q61 0 94 -27.5t33 -78.5q0 -85 -46 -131t-129 -46q-71 0 -106.5 32.5t-35.5 95.5zM377 600h-175l-16 -88h29q71 0 108 -26.5t37 -77.5
q0 -160 -198 -160q-32 0 -60.5 5t-54.5 14l12 74q26 -9 52 -14.5t51 -5.5q52 0 76.5 17.5t24.5 57.5q0 48 -92 48q-40 0 -82 -3l40 231h260zM594 124q0 -61 63 -61q37 0 58 23.5t21 65.5q0 55 -59 55q-39 0 -61 -22t-22 -61zM613 672h84l-414 -672h-85z" />
    <glyph glyph-name="oneeighth" unicode="&#x215b;" horiz-adv-x="864" 
d="M681 247q38 7 57.5 22.5t19.5 42.5q0 44 -63 44q-35 0 -54 -16t-19 -43q0 -41 59 -50zM490 96q0 47 26 77.5t75 42.5q-27 9 -42 28.5t-15 47.5q0 64 43.5 98t125.5 34q73 0 108.5 -24t35.5 -75q0 -43 -23.5 -72t-66.5 -43q65 -21 65 -80q0 -68 -45 -103t-134 -35
q-80 0 -116.5 24.5t-36.5 79.5zM666 180q-86 -12 -86 -71q0 -49 71 -49q38 0 59.5 17t21.5 48q0 23 -15.5 36.5t-50.5 18.5zM231 585l-107 -36l14 79l129 44h73l-73 -416h-94zM613 672h84l-414 -672h-85z" />
    <glyph glyph-name="threeeighths" unicode="&#x215c;" horiz-adv-x="864" 
d="M681 247q38 7 57.5 22.5t19.5 42.5q0 44 -63 44q-35 0 -54 -16t-19 -43q0 -41 59 -50zM490 96q0 47 26 77.5t75 42.5q-27 9 -42 28.5t-15 47.5q0 64 43.5 98t125.5 34q73 0 108.5 -24t35.5 -75q0 -43 -23.5 -72t-66.5 -43q65 -21 65 -80q0 -68 -45 -103t-134 -35
q-80 0 -116.5 24.5t-36.5 79.5zM666 180q-86 -12 -86 -71q0 -49 71 -49q38 0 59.5 17t21.5 48q0 23 -15.5 36.5t-50.5 18.5zM371 603l-111 -102q45 -7 69.5 -32t24.5 -64q0 -157 -199 -157q-61 0 -116 19l12 75q27 -10 53 -15.5t51 -5.5q103 0 103 74q0 22 -21 33t-66 11
h-27l10 60l111 101h-163l12 72h270zM613 672h84l-414 -672h-85z" />
    <glyph glyph-name="fiveeighths" unicode="&#x215d;" horiz-adv-x="864" 
d="M490 96q0 47 26 77.5t75 42.5q-27 9 -42 28.5t-15 47.5q0 64 43.5 98t125.5 34q73 0 108.5 -24t35.5 -75q0 -43 -23.5 -72t-66.5 -43q65 -21 65 -80q0 -68 -45 -103t-134 -35q-80 0 -116.5 24.5t-36.5 79.5zM377 600h-175l-16 -88h29q71 0 108 -26.5t37 -77.5
q0 -160 -198 -160q-32 0 -60.5 5t-54.5 14l12 74q26 -9 52 -14.5t51 -5.5q52 0 76.5 17.5t24.5 57.5q0 48 -92 48q-40 0 -82 -3l40 231h260zM666 180q-86 -12 -86 -71q0 -49 71 -49q38 0 59.5 17t21.5 48q0 23 -15.5 36.5t-50.5 18.5zM681 247q38 7 57.5 22.5t19.5 42.5
q0 44 -63 44q-35 0 -54 -16t-19 -43q0 -41 59 -50zM613 672h84l-414 -672h-85z" />
    <glyph glyph-name="seveneighths" unicode="&#x215e;" horiz-adv-x="864" 
d="M395 601l-209 -345h-102l209 341h-194l13 75h295zM681 247q38 7 57.5 22.5t19.5 42.5q0 44 -63 44q-35 0 -54 -16t-19 -43q0 -41 59 -50zM490 96q0 47 26 77.5t75 42.5q-27 9 -42 28.5t-15 47.5q0 64 43.5 98t125.5 34q73 0 108.5 -24t35.5 -75q0 -43 -23.5 -72
t-66.5 -43q65 -21 65 -80q0 -68 -45 -103t-134 -35q-80 0 -116.5 24.5t-36.5 79.5zM666 180q-86 -12 -86 -71q0 -49 71 -49q38 0 59.5 17t21.5 48q0 23 -15.5 36.5t-50.5 18.5zM613 672h84l-414 -672h-85z" />
    <glyph glyph-name="uni215F" unicode="&#x215f;" horiz-adv-x="496" 
d="M231 585l-107 -36l14 79l129 44h73l-73 -416h-94zM613 672h84l-414 -672h-85z" />
    <glyph glyph-name="arrowleft" unicode="&#x2190;" horiz-adv-x="864" 
d="M255 229l220 -217h-169l-276 276l276 276h169l-220 -217h572v-118h-572z" />
    <glyph glyph-name="arrowup" unicode="&#x2191;" horiz-adv-x="864" 
d="M380 472l-218 -221v169l277 277l276 -277v-169l-217 221v-572h-118v572z" />
    <glyph glyph-name="arrowright" unicode="&#x2192;" horiz-adv-x="864" 
d="M623 347l-221 217h169l276 -276l-276 -276h-169l221 217h-573v118h573z" />
    <glyph glyph-name="arrowdown" unicode="&#x2193;" horiz-adv-x="864" 
d="M498 104l217 221v-169l-276 -277l-277 277v169l218 -221v572h118v-572z" />
    <glyph glyph-name="uni2196" unicode="&#x2196;" horiz-adv-x="864" 
d="M267 376l2 -309l-119 119v391h391l119 -119l-310 1l405 -404l-83 -83z" />
    <glyph glyph-name="uni2197" unicode="&#x2197;" horiz-adv-x="864" 
d="M527 459l-310 -2l120 120h390v-391l-119 -119l2 309l-404 -404l-84 83z" />
    <glyph glyph-name="uni2198" unicode="&#x2198;" horiz-adv-x="864" 
d="M610 200l-2 309l119 -119v-391h-390l-119 119l309 -1l-405 404l84 83z" />
    <glyph glyph-name="uni2199" unicode="&#x2199;" horiz-adv-x="864" 
d="M350 117l310 1l-119 -119h-391v391l119 119l-2 -309l405 404l83 -83z" />
    <glyph glyph-name="partialdiff" unicode="&#x2202;" horiz-adv-x="569" 
d="M32 175q0 75 17.5 135t50.5 103t80 66t106 23q47 0 83 -14.5t57 -41.5q2 25 0 51q-5 63 -38 92.5t-99 29.5q-34 0 -69 -5.5t-70 -16.5l17 99q38 11 75 15.5t72 4.5q121 0 179 -58t58 -188q0 -240 -77.5 -361t-229.5 -121q-106 0 -159 47.5t-53 139.5zM162 185
q0 -48 24.5 -72.5t69.5 -24.5q34 0 61 16.5t46 46t29 70t10 88.5q0 47 -25.5 70t-71.5 23q-33 0 -59 -15.5t-45 -44t-29 -68.5t-10 -89z" />
    <glyph glyph-name="Delta" unicode="&#x2206;" horiz-adv-x="689" 
d="M5 89l339 583h145l138 -589l-14 -83h-624zM145 102h355l-100 452z" />
    <glyph glyph-name="product" unicode="&#x220f;" horiz-adv-x="799" 
d="M149 704h662l-160 -912h-133l142 810h-396l-142 -810h-133z" />
    <glyph glyph-name="summation" unicode="&#x2211;" horiz-adv-x="660" 
d="M-34 -116l369 372l-222 367l14 81h581l-18 -102h-421l199 -319l-12 -65l-321 -324h447l-19 -102h-612z" />
    <glyph glyph-name="minus" unicode="&#x2212;" 
d="M77 342h436v-108h-436v108z" />
    <glyph glyph-name="uni2215" unicode="&#x2215;" horiz-adv-x="128" 
d="M245 672h84l-414 -672h-85z" />
    <glyph glyph-name="radical" unicode="&#x221a;" horiz-adv-x="697" 
d="M431 -208h-134l-103 306l-183 -63v113l253 85l97 -290l206 729h112z" />
    <glyph glyph-name="infinity" unicode="&#x221e;" horiz-adv-x="783" 
d="M33 230q0 58 14.5 106.5t41 83t65 53.5t86.5 19q61 0 99.5 -27.5t68.5 -88.5q42 63 87.5 89.5t109.5 26.5q158 0 158 -146q0 -59 -14.5 -107t-41 -82.5t-65 -53.5t-86.5 -19q-61 0 -99.5 27.5t-68.5 88.5q-42 -63 -87.5 -89.5t-109.5 -26.5q-158 0 -158 146zM151 255
q0 -37 15.5 -54t50.5 -17q37 0 65.5 24t55.5 83q-16 55 -34.5 78t-54.5 23q-45 0 -71.5 -36.5t-26.5 -100.5zM645 321q0 37 -15.5 54t-50.5 17q-37 0 -65.5 -24t-55.5 -83q8 -28 16 -47t18.5 -31t23.5 -17.5t31 -5.5q45 0 71.5 36.5t26.5 100.5z" />
    <glyph glyph-name="integral" unicode="&#x222b;" horiz-adv-x="415" 
d="M116 493q0 108 50 165.5t150 57.5q52 0 101 -11l-19 -102q-31 11 -62 11q-52 0 -75.5 -29.5t-23.5 -86.5q0 -48 9.5 -107.5t21.5 -124.5t21.5 -132t9.5 -131q0 -108 -50.5 -165.5t-150.5 -57.5q-52 0 -101 11l19 102q31 -11 62 -11q52 0 76.5 29.5t24.5 86.5
q0 48 -10 107.5t-21.5 124.5t-21.5 132t-10 131z" />
    <glyph glyph-name="approxequal" unicode="&#x2248;" 
d="M77 223q48 45 122 45q36 0 62 -11t48 -23.5t43.5 -23.5t48.5 -11q33 0 59.5 12.5t52.5 37.5v-113q-48 -45 -122 -45q-36 0 -62 11t-48 24t-43.5 24t-48.5 11q-33 0 -59.5 -12.5t-52.5 -38.5v113zM77 440q48 45 122 45q36 0 62 -11t48 -24t43.5 -24t48.5 -11
q33 0 59.5 12.5t52.5 38.5v-113q-48 -45 -122 -45q-36 0 -62 11t-48 23.5t-43.5 23.5t-48.5 11q-33 0 -59.5 -12.5t-52.5 -37.5v113z" />
    <glyph glyph-name="notequal" unicode="&#x2260;" 
d="M77 233h143l36 110h-179v107h215l42 126h113l-42 -126h108v-107h-144l-36 -110h180v-107h-216l-42 -126h-113l42 126h-107v107z" />
    <glyph glyph-name="lessequal" unicode="&#x2264;" 
d="M77 108h436v-108h-436v108zM77 333v119l436 163v-113l-308 -109l308 -109v-114z" />
    <glyph glyph-name="greaterequal" unicode="&#x2265;" 
d="M77 108h436v-108h-436v108zM513 452v-119l-436 -163v114l307 109l-307 109v113z" />
    <glyph glyph-name="uni22C5" unicode="&#x22c5;" horiz-adv-x="249" 
d="M45 233q0 45 23.5 69t67.5 24q67 0 67 -61q0 -45 -23 -69t-67 -24q-68 0 -68 61z" />
    <glyph glyph-name="lozenge" unicode="&#x25ca;" 
d="M23 336l201 336h128l201 -336l-201 -336h-128zM152 336l136 -228l136 228l-136 228z" />
    <glyph glyph-name="zero.lprop" unicode="&#xe010;" horiz-adv-x="644" 
d="M53 208q0 104 24.5 191.5t69 150.5t105.5 98.5t134 35.5q123 0 180 -52.5t57 -167.5q0 -104 -25 -191.5t-69 -150.5t-105 -98.5t-134 -35.5q-123 0 -180 52.5t-57 167.5zM184 218q0 -67 26 -96t87 -29q43 0 78.5 27t61.5 75.5t40.5 114.5t14.5 144q0 67 -26 96t-87 29
q-43 0 -79 -27t-61.5 -75.5t-40 -114.5t-14.5 -144z" />
    <glyph glyph-name="one.lprop" unicode="&#xe011;" horiz-adv-x="409" 
d="M250 554l-178 -61l19 107l211 72h97l-118 -672h-128z" />
    <glyph glyph-name="two.lprop" unicode="&#xe012;" horiz-adv-x="522" 
d="M-5 95l288 233q55 45 80.5 83.5t25.5 78.5q0 89 -122 89q-77 0 -173 -24l18 104q48 14 94.5 19.5t95.5 5.5q112 0 165 -38.5t53 -119.5q0 -140 -134 -249l-214 -175h281l-18 -102h-457z" />
    <glyph glyph-name="three.lprop" unicode="&#xe013;" horiz-adv-x="522" 
d="M510 577l-196 -186q82 -9 123 -48t41 -104q0 -251 -313 -251q-49 0 -95 8t-88 23l17 101q88 -32 166 -32q94 0 138.5 33t44.5 103q0 42 -36.5 62t-116.5 20h-40l15 82l196 187h-279l17 97h422z" />
    <glyph glyph-name="four.lprop" unicode="&#xe014;" horiz-adv-x="607" 
d="M347 140h-335l17 98l392 434h137l-77 -435h92l-17 -97h-92l-24 -140h-118zM364 237l52 298l-269 -298h217z" />
    <glyph glyph-name="five.lprop" unicode="&#xe015;" horiz-adv-x="538" 
d="M528 575h-290l-30 -170q14 1 28.5 1.5t28.5 0.5q115 0 173.5 -42t58.5 -123q0 -254 -310 -254q-51 0 -96 8.5t-87 22.5l17 101q42 -15 83.5 -23.5t82.5 -8.5q93 0 136.5 33.5t43.5 105.5q0 87 -163 87q-31 0 -63 -1t-67 -4l63 363h408z" />
    <glyph glyph-name="six.lprop" unicode="&#xe016;" horiz-adv-x="586" 
d="M52 192q0 116 25 207.5t72.5 154.5t115 96.5t152.5 33.5q45 0 86.5 -7t81.5 -20l-17 -99q-38 12 -77 19t-79 7q-85 0 -142.5 -52t-75.5 -151q30 30 69 44t89 14q94 0 145 -44.5t51 -123.5q0 -134 -72 -208.5t-203 -74.5q-111 0 -166 52t-55 152zM171 196q0 -50 27.5 -79
t83.5 -29q66 0 105 41.5t39 116.5q0 95 -106 95q-71 0 -110 -38t-39 -107z" />
    <glyph glyph-name="seven.lprop" unicode="&#xe017;" horiz-adv-x="495" 
d="M538 574l-352 -574h-139l352 570h-331l17 102h470z" />
    <glyph glyph-name="eight.lprop" unicode="&#xe018;" horiz-adv-x="596" 
d="M325 393q68 11 103.5 39.5t35.5 78.5q0 39 -27 57.5t-85 18.5q-62 0 -96.5 -28.5t-34.5 -78.5q0 -72 104 -87zM25 151q0 78 43 127.5t128 69.5q-48 14 -73 45.5t-25 79.5q0 102 68 156.5t196 54.5q116 0 170.5 -37.5t54.5 -117.5q0 -72 -39.5 -120t-113.5 -69
q112 -32 112 -133q0 -108 -70.5 -163.5t-210.5 -55.5q-124 0 -182 38.5t-58 124.5zM305 295q-75 -10 -115 -41t-40 -85q0 -84 126 -84q69 0 106.5 30.5t37.5 84.5q0 39 -26 62.5t-89 32.5z" />
    <glyph glyph-name="nine.lprop" unicode="&#xe019;" horiz-adv-x="586" 
d="M565 480q0 -116 -25 -207.5t-72 -154.5t-114.5 -96.5t-152.5 -33.5q-45 0 -87.5 7t-81.5 20l17 99q37 -12 76.5 -19t80.5 -7q85 0 142 52t76 151q-58 -58 -158 -58q-95 0 -146 44.5t-51 123.5q0 134 72.5 208.5t203.5 74.5q110 0 165 -52t55 -152zM447 476q0 50 -27.5 79
t-83.5 29q-66 0 -105 -41.5t-39 -116.5q0 -95 106 -95q71 0 110 38t39 107z" />
    <glyph glyph-name="dollar.lprop" unicode="&#xe01a;" horiz-adv-x="559" 
d="M180 23q-42 4 -82 12.5t-77 21.5l18 104q50 -19 99.5 -29t103.5 -10q62 0 95 22.5t33 68.5q0 31 -21 45.5t-52.5 23.5t-68.5 17t-68.5 24.5t-52.5 46.5t-21 83q0 84 52 135t152 62l30 166h118l-30 -168q73 -8 137 -27l-19 -104q-45 14 -89 23.5t-92 9.5q-60 0 -92 -22
t-32 -65q0 -30 21 -43.5t53 -22t68.5 -16t68.5 -24.5t53 -48t21 -86q0 -87 -52.5 -139t-155.5 -62l-29 -166h-118z" />
    <glyph glyph-name="cent.lprop" unicode="&#xe01b;" horiz-adv-x="495" 
d="M59 261q0 138 58 222.5t166 104.5l30 169h118l-30 -167q27 -3 53 -7.5t52 -12.5l-17 -101q-32 11 -65.5 17.5t-67.5 6.5q-81 0 -124 -54.5t-43 -157.5q0 -102 119 -102q66 0 133 16l-18 -101q-56 -12 -112 -15l-29 -164h-118l30 173q-135 31 -135 173z" />
    <glyph glyph-name="Euro.lprop" unicode="&#xe01c;" horiz-adv-x="564" 
d="M72 458h65q42 109 123.5 167.5t199.5 58.5q84 0 159 -23l-17 -95q-64 23 -132 23q-65 0 -114.5 -34t-80.5 -97h222l-14 -77h-237q-10 -38 -14 -78h238l-14 -77h-227q2 -76 38.5 -109.5t117.5 -33.5q35 0 68.5 4t66.5 12l-17 -96q-68 -15 -142 -15q-136 0 -199.5 55.5
t-63.5 174.5v8h-67l14 77h57q4 40 12 78h-56z" />
    <glyph glyph-name="sterling.lprop" unicode="&#xe01d;" horiz-adv-x="511" 
d="M7 100h86l33 193h-70l17 98h70l16 90q19 104 80 153.5t170 49.5q34 0 70.5 -5.5t74.5 -14.5l-17 -100q-30 8 -58.5 13t-54.5 5q-59 0 -91 -27.5t-43 -88.5l-14 -75h178l-17 -98h-178l-33 -193h237l-18 -100h-456z" />
    <glyph glyph-name="yen.lprop" unicode="&#xe01e;" horiz-adv-x="585" 
d="M203 119h-146l14 77h145l14 77h-146l13 78h114l-142 321h139l107 -268l197 268h153l-250 -321h107l-13 -78h-146l-14 -77h146l-14 -77h-145l-21 -119h-133z" />
    <glyph glyph-name="zero.otab" unicode="&#xe020;" 
d="M35 179q0 81 20.5 147t58 112t91.5 71t122 25q220 0 220 -191q0 -81 -20.5 -146.5t-58 -112t-92 -71.5t-121.5 -25q-220 0 -220 191zM155 197q0 -106 109 -106q39 0 69 16.5t51 47.5t32 74t11 96q0 106 -109 106q-39 0 -69 -16.5t-51 -47t-32 -74t-11 -96.5z" />
    <glyph glyph-name="one.otab" unicode="&#xe021;" 
d="M308 406l-186 -64l19 107l219 73h97l-92 -522h-128z" />
    <glyph glyph-name="two.otab" unicode="&#xe022;" 
d="M39 97l238 147q96 61 96 121q0 38 -23.5 53.5t-78.5 15.5q-39 0 -78 -7t-80 -18l18 100q43 13 84 19t89 6q105 0 155 -36t50 -111q0 -57 -35.5 -108t-101.5 -91l-142 -91h233l-17 -97h-425z" />
    <glyph glyph-name="three.otab" unicode="&#xe023;" 
d="M512 427l-196 -183q82 -9 123 -47.5t41 -102.5q0 -250 -312 -250q-96 0 -184 31l18 101q87 -32 166 -32q93 0 137.5 32.5t44.5 102.5q0 41 -36.5 60.5t-116.5 19.5h-40l14 82l196 184h-278l17 97h422z" />
    <glyph glyph-name="four.otab" unicode="&#xe024;" 
d="M306 0h-319l17 97l378 425h134l-75 -425h76l-18 -97h-75l-26 -144h-118zM323 97l51 285l-251 -285h200z" />
    <glyph glyph-name="five.otab" unicode="&#xe025;" 
d="M522 425h-290l-30 -166q14 0 28.5 0.5t28.5 0.5q115 0 173.5 -41.5t58.5 -122.5q0 -252 -310 -252q-51 0 -96 8.5t-87 22.5l18 101q42 -15 83.5 -23.5t81.5 -8.5q94 0 137 32.5t43 104.5q0 86 -163 86q-31 0 -63.5 -1t-67.5 -4l64 360h408z" />
    <glyph glyph-name="six.otab" unicode="&#xe026;" 
d="M47 191q0 115 25 206t72 153t114.5 95t152.5 33q45 0 86.5 -7t81.5 -20l-17 -100q-38 13 -77 20t-80 7q-85 0 -141 -49.5t-75 -147.5q30 29 69 42t90 13q94 0 144.5 -44t50.5 -122q0 -134 -72 -208t-203 -74q-111 0 -166 51.5t-55 151.5zM165 195q0 -50 28 -78.5
t84 -28.5q66 0 104.5 41.5t38.5 114.5q0 95 -104 95q-72 0 -111.5 -37.5t-39.5 -106.5z" />
    <glyph glyph-name="seven.otab" unicode="&#xe027;" 
d="M553 424l-350 -568h-139l350 564h-331l18 102h470z" />
    <glyph glyph-name="eight.otab" unicode="&#xe028;" 
d="M314 390q68 11 100.5 39t32.5 78q0 38 -25.5 56t-80.5 18q-60 0 -93 -28t-33 -77q0 -35 22.5 -56.5t76.5 -29.5zM20 150q0 77 42 126t123 69q-45 14 -69 44.5t-24 78.5q0 102 66.5 156t193.5 54q112 0 165 -37t53 -117q0 -71 -37.5 -118.5t-109.5 -68.5q107 -32 107 -131
q0 -108 -69.5 -163t-206.5 -55q-122 0 -178 38t-56 124zM294 292q-149 -19 -149 -124q0 -83 120 -83q67 0 103.5 30t36.5 83q0 39 -24.5 62.5t-86.5 31.5z" />
    <glyph glyph-name="nine.otab" unicode="&#xe029;" 
d="M535 332q0 -116 -25 -206.5t-72 -153t-114 -95.5t-152 -33q-45 0 -87 7t-82 21l17 99q38 -13 77.5 -20t79.5 -7q85 0 141 49.5t75 147.5q-58 -55 -158 -55q-94 0 -145 44t-51 122q0 134 72.5 208t203.5 74q110 0 165 -51t55 -151zM417 327q0 50 -27.5 78.5t-83.5 28.5
q-67 0 -105.5 -41t-38.5 -115q0 -94 105 -94q72 0 111 37t39 106z" />
    <glyph glyph-name="dollar.otab" unicode="&#xe02a;" 
d="M110 360q0 72 43 116t126 55l27 151h118l-27 -152q29 -4 57 -9.5t55 -13.5l-17 -98q-38 13 -77 20.5t-79 7.5q-47 0 -71.5 -17.5t-24.5 -49.5q0 -23 17.5 -33.5t44 -17t57.5 -13.5t57.5 -22t44 -42.5t17.5 -75.5q0 -75 -44.5 -120.5t-131.5 -54.5l-26 -151h-118l26 152
q-70 8 -129 27l17 98q88 -32 176 -32q99 0 99 71q0 24 -17.5 36t-44 19.5t-57 14t-57 21t-44 41t-17.5 72.5z" />
    <glyph glyph-name="cent.otab" unicode="&#xe02b;" 
d="M87 186q0 138 58 222.5t166 104.5l30 169h118l-30 -167q27 -3 53 -7.5t52 -12.5l-17 -101q-32 11 -65.5 17.5t-67.5 6.5q-81 0 -124 -54.5t-43 -157.5q0 -102 119 -102q66 0 133 16l-18 -101q-56 -12 -112 -15l-29 -164h-118l30 173q-135 31 -135 173z" />
    <glyph glyph-name="Euro.otab" unicode="&#xe02c;" 
d="M86 356h50q35 87 107.5 132.5t179.5 45.5q41 0 79.5 -6t69.5 -15l-16 -88q-29 11 -60.5 16.5t-67.5 5.5q-114 0 -163 -91h202l-11 -65h-214q-7 -28 -8 -55h212l-11 -64h-200q7 -51 41.5 -74t100.5 -23q32 0 61.5 5t58.5 13l-15 -90q-32 -8 -64 -11.5t-69 -3.5
q-115 0 -177 47.5t-65 136.5h-53l11 64h44q2 14 4 27.5t4 27.5h-42z" />
    <glyph glyph-name="sterling.otab" unicode="&#xe02d;" 
d="M57 92h78l22 128h-61l15 90h62l10 53q15 85 69.5 128t146.5 43q36 0 69 -5.5t63 -15.5l-17 -93q-24 9 -50 14t-52 5q-45 0 -70 -19.5t-33 -62.5l-8 -47h143l-15 -90h-144l-23 -128h203l-17 -92h-408z" />
    <glyph glyph-name="yen.otab" unicode="&#xe02e;" 
d="M197 89h-127l12 67h126l10 56h-127l12 67h96l-110 243h134l75 -189l142 189h145l-192 -243h91l-12 -67h-126l-10 -56h127l-12 -67h-126l-16 -89h-128z" />
    <glyph glyph-name="zero.oprop" unicode="&#xe030;" horiz-adv-x="607" 
d="M40 182q0 81 21 146t60 111t94.5 70.5t125.5 24.5q231 0 231 -194q0 -81 -20.5 -146t-59.5 -111t-94.5 -70.5t-125.5 -24.5q-232 0 -232 194zM166 200q0 -109 113 -109q78 0 123 62.5t45 169.5q0 108 -114 108q-39 0 -69.5 -16.5t-52.5 -46.5t-33.5 -72.5t-11.5 -95.5z
" />
    <glyph glyph-name="one.oprop" unicode="&#xe031;" horiz-adv-x="393" 
d="M217 403l-177 -61l17 107l211 73h98l-93 -522h-128z" />
    <glyph glyph-name="two.oprop" unicode="&#xe032;" horiz-adv-x="490" 
d="M-4 97l238 147q96 61 96 121q0 38 -23.5 53.5t-78.5 15.5q-39 0 -78 -7t-80 -18l18 100q43 13 84 19t89 6q105 0 155 -36t50 -111q0 -57 -35.5 -108t-101.5 -91l-142 -91h233l-17 -97h-425z" />
    <glyph glyph-name="three.oprop" unicode="&#xe033;" horiz-adv-x="490" 
d="M469 427l-196 -183q82 -9 123 -47.5t41 -102.5q0 -250 -312 -250q-96 0 -184 31l18 101q87 -32 166 -32q93 0 137.5 32.5t44.5 102.5q0 41 -36.5 60.5t-116.5 19.5h-40l14 82l196 184h-278l17 97h422z" />
    <glyph glyph-name="four.oprop" unicode="&#xe034;" horiz-adv-x="543" 
d="M289 0h-319l17 97l378 425h134l-75 -425h76l-18 -97h-75l-26 -144h-118zM306 97l51 285l-251 -285h200z" />
    <glyph glyph-name="five.oprop" unicode="&#xe035;" horiz-adv-x="522" 
d="M503 425h-290l-30 -166q14 0 28.5 0.5t28.5 0.5q115 0 173.5 -41.5t58.5 -122.5q0 -252 -310 -252q-51 0 -96 8.5t-87 22.5l18 101q42 -15 83.5 -23.5t81.5 -8.5q94 0 137 32.5t43 104.5q0 86 -163 86q-31 0 -63.5 -1t-67.5 -4l64 360h408z" />
    <glyph glyph-name="six.oprop" unicode="&#xe036;" horiz-adv-x="596" 
d="M57 191q0 115 25 206t72 153t114.5 95t152.5 33q45 0 86.5 -7t81.5 -20l-17 -100q-38 13 -77 20t-80 7q-85 0 -141 -49.5t-75 -147.5q30 29 69 42t90 13q94 0 144.5 -44t50.5 -122q0 -134 -72 -208t-203 -74q-111 0 -166 51.5t-55 151.5zM175 195q0 -50 28 -78.5
t84 -28.5q66 0 104.5 41.5t38.5 114.5q0 95 -104 95q-72 0 -111.5 -37.5t-39.5 -106.5z" />
    <glyph glyph-name="seven.oprop" unicode="&#xe037;" horiz-adv-x="495" 
d="M512 424l-350 -568h-139l350 564h-331l18 102h470z" />
    <glyph glyph-name="eight.oprop" unicode="&#xe038;" horiz-adv-x="580" 
d="M316 390q68 11 100.5 39t32.5 78q0 38 -25.5 56t-80.5 18q-60 0 -93 -28t-33 -77q0 -35 22.5 -56.5t76.5 -29.5zM22 150q0 77 42 126t123 69q-45 14 -69 44.5t-24 78.5q0 102 66.5 156t193.5 54q112 0 165 -37t53 -117q0 -71 -37.5 -118.5t-109.5 -68.5q107 -32 107 -131
q0 -108 -69.5 -163t-206.5 -55q-122 0 -178 38t-56 124zM296 292q-149 -19 -149 -124q0 -83 120 -83q67 0 103.5 30t36.5 83q0 39 -24.5 62.5t-86.5 31.5z" />
    <glyph glyph-name="nine.oprop" unicode="&#xe039;" horiz-adv-x="596" 
d="M545 332q0 -116 -25 -206.5t-72 -153t-114 -95.5t-152 -33q-45 0 -87 7t-82 21l17 99q38 -13 77.5 -20t79.5 -7q85 0 141 49.5t75 147.5q-58 -55 -158 -55q-94 0 -145 44t-51 122q0 134 72.5 208t203.5 74q110 0 165 -51t55 -151zM427 327q0 50 -27.5 78.5t-83.5 28.5
q-67 0 -105.5 -41t-38.5 -115q0 -94 105 -94q72 0 111 37t39 106z" />
    <glyph glyph-name="dollar.oprop" unicode="&#xe03a;" horiz-adv-x="511" 
d="M77 360q0 72 43 116t126 55l27 151h118l-27 -152q29 -4 57 -9.5t55 -13.5l-17 -98q-38 13 -77 20.5t-79 7.5q-47 0 -71.5 -17.5t-24.5 -49.5q0 -23 17.5 -33.5t44 -17t57.5 -13.5t57.5 -22t44 -42.5t17.5 -75.5q0 -75 -44.5 -120.5t-131.5 -54.5l-26 -151h-118l26 152
q-70 8 -129 27l17 98q88 -32 176 -32q99 0 99 71q0 24 -17.5 36t-44 19.5t-57 14t-57 21t-44 41t-17.5 72.5z" />
    <glyph glyph-name="cent.oprop" unicode="&#xe03b;" horiz-adv-x="495" 
d="M59 186q0 138 58 222.5t166 104.5l30 169h118l-30 -167q27 -3 53 -7.5t52 -12.5l-17 -101q-32 11 -65.5 17.5t-67.5 6.5q-81 0 -124 -54.5t-43 -157.5q0 -102 119 -102q66 0 133 16l-18 -101q-56 -12 -112 -15l-29 -164h-118l30 173q-135 31 -135 173z" />
    <glyph glyph-name="Euro.oprop" unicode="&#xe03c;" horiz-adv-x="532" 
d="M64 356h50q35 87 107.5 132.5t179.5 45.5q41 0 79.5 -6t69.5 -15l-16 -88q-29 11 -60.5 16.5t-67.5 5.5q-114 0 -163 -91h202l-11 -65h-214q-7 -28 -8 -55h212l-11 -64h-200q7 -51 41.5 -74t100.5 -23q32 0 61.5 5t58.5 13l-15 -90q-32 -8 -64 -11.5t-69 -3.5
q-115 0 -177 47.5t-65 136.5h-53l11 64h44q2 14 4 27.5t4 27.5h-42z" />
    <glyph glyph-name="sterling.oprop" unicode="&#xe03d;" horiz-adv-x="463" 
d="M0 92h78l22 128h-61l15 90h62l10 53q15 85 69.5 128t146.5 43q36 0 69 -5.5t63 -15.5l-17 -93q-24 9 -50 14t-52 5q-45 0 -70 -19.5t-33 -62.5l-8 -47h143l-15 -90h-144l-23 -128h203l-17 -92h-408z" />
    <glyph glyph-name="yen.oprop" unicode="&#xe03e;" horiz-adv-x="499" 
d="M158 89h-127l12 67h126l10 56h-127l12 67h96l-110 243h134l75 -189l142 189h145l-192 -243h91l-12 -67h-126l-10 -56h127l-12 -67h-126l-16 -89h-128z" />
    <glyph glyph-name="hyphen.cap" unicode="&#xe800;" horiz-adv-x="336" 
d="M47 391h276l-17 -98h-276z" />
    <glyph glyph-name="uni00AD.cap" unicode="&#xe801;" horiz-adv-x="336" 
d="M47 391h276l-17 -98h-276z" />
    <glyph glyph-name="endash.cap" unicode="&#xe802;" 
d="M47 391h532l-17 -98h-532z" />
    <glyph glyph-name="emdash.cap" unicode="&#xe803;" horiz-adv-x="864" 
d="M47 391h820l-17 -98h-820z" />
    <glyph glyph-name="periodcentered.cap" unicode="&#xe805;" horiz-adv-x="249" 
d="M62 326q0 45 23.5 69t67.5 24q67 0 67 -61q0 -45 -23 -69t-67 -24q-68 0 -68 61z" />
    <glyph glyph-name="slash.cap" unicode="&#xe806;" horiz-adv-x="384" 
d="M363 752h122l-434 -832h-121z" />
    <glyph glyph-name="backslash.cap" unicode="&#xe807;" horiz-adv-x="384" 
d="M83 752h107l141 -832h-108z" />
    <glyph glyph-name="parenleft.cap" unicode="&#xe808;" horiz-adv-x="329" 
d="M71 240q0 147 50.5 279t147.5 233h136q-106 -100 -160 -228t-54 -274q0 -88 17 -171.5t52 -158.5h-119q-35 66 -52.5 147.5t-17.5 172.5z" />
    <glyph glyph-name="parenright.cap" unicode="&#xe809;" horiz-adv-x="329" 
d="M288 432q0 -147 -51 -279t-148 -233h-136q106 100 160 228t54 274q0 88 -17 171.5t-52 158.5h119q35 -66 53 -147.5t18 -172.5z" />
    <glyph glyph-name="bracketleft.cap" unicode="&#xe80a;" horiz-adv-x="329" 
d="M170 752h226l-17 -97h-108l-112 -638h108l-17 -97h-226z" />
    <glyph glyph-name="bracketright.cap" unicode="&#xe80b;" horiz-adv-x="329" 
d="M190 -80h-225l17 97h107l112 638h-107l17 97h225z" />
    <glyph glyph-name="braceleft.cap" unicode="&#xe80c;" horiz-adv-x="329" 
d="M30 385h10q43 0 65.5 20t30.5 63l22 124q7 43 21.5 73.5t38 49.5t57.5 28t81 9h40l-18 -97h-16q-76 0 -89 -79l-22 -128q-9 -49 -33 -79.5t-63 -40.5q57 -15 57 -83q0 -10 -1 -20t-3 -21l-19 -100q-3 -17 -3 -33q0 -29 17.5 -41.5t50.5 -12.5h12l-17 -97h-33
q-152 0 -152 116q0 13 1 25t4 27l21 116q3 15 3 31q0 52 -64 52h-16z" />
    <glyph glyph-name="braceright.cap" unicode="&#xe80d;" horiz-adv-x="329" 
d="M329 287h-10q-43 0 -65.5 -20t-30.5 -63l-22 -124q-8 -43 -22 -73.5t-37.5 -49.5t-57.5 -28t-81 -9h-40l18 97h15q77 0 90 79l22 128q9 49 33 79.5t63 40.5q-57 15 -57 83q0 22 4 41l18 100q3 16 3 33q0 29 -17 41.5t-51 12.5h-11l17 97h33q152 0 152 -116
q0 -13 -1.5 -25t-3.5 -27l-21 -116q-3 -15 -3 -31q0 -52 64 -52h16z" />
    <glyph glyph-name="guilsinglleft.cap" unicode="&#xe80e;" horiz-adv-x="297" 
d="M159 332l99 -193h-113l-112 199l170 199h119z" />
    <glyph glyph-name="guilsinglright.cap" unicode="&#xe80f;" horiz-adv-x="297" 
d="M170 344l-99 193h113l111 -199l-169 -199h-119z" />
    <glyph glyph-name="guillemotleft.cap" unicode="&#xe810;" horiz-adv-x="550" 
d="M159 332l99 -193h-113l-112 199l170 199h119zM412 332l99 -193h-113l-112 199l170 199h119z" />
    <glyph glyph-name="guillemotright.cap" unicode="&#xe811;" horiz-adv-x="550" 
d="M170 344l-99 193h113l111 -199l-169 -199h-119zM423 344l-99 193h113l111 -199l-169 -199h-119z" />
    <glyph glyph-name="exclamdown.cap" unicode="&#xe812;" horiz-adv-x="265" 
d="M153 0h-128l86 460h117zM272 623q0 -44 -23 -67.5t-66 -23.5q-67 0 -67 59q0 44 23 68t66 24q67 0 67 -60z" />
    <glyph glyph-name="questiondown.cap" unicode="&#xe813;" horiz-adv-x="452" 
d="M353 436q-6 -46 -24 -77.5t-41 -53t-48.5 -37t-46.5 -31.5t-34.5 -34.5t-13.5 -46.5q0 -35 24.5 -51.5t77.5 -16.5q68 0 157 23l-18 -100q-40 -12 -81 -17.5t-83 -5.5q-107 0 -157 36t-50 111q0 51 15.5 85t39.5 58t53 41.5t54.5 35t44.5 38t24 50.5l3 17h108zM405 623
q0 -44 -23 -67.5t-66 -23.5q-67 0 -67 59q0 44 23 68t66 24q67 0 67 -60z" />
    <glyph glyph-name="at.cap" unicode="&#xe814;" horiz-adv-x="964" 
d="M55 221q0 131 34.5 235.5t101 177.5t163.5 112t221 39q187 0 284.5 -78.5t97.5 -225.5q0 -82 -17.5 -149.5t-50.5 -115.5t-80.5 -74t-107.5 -26q-38 0 -66.5 14t-45.5 40q-57 -54 -148 -54q-78 0 -119 39.5t-41 112.5q0 67 14.5 120t42 90.5t66.5 57.5t88 20
q42 0 75.5 -13.5t53.5 -38.5l18 40h100l-47 -266q-3 -14 -3 -26q0 -41 40 -41q26 0 48 18.5t38.5 52t25.5 79t9 99.5q0 113 -70 171.5t-213 58.5q-97 0 -172 -31t-126 -89.5t-77.5 -142.5t-26.5 -191q0 -128 76 -191t240 -63q69 0 137.5 12.5t134.5 34.5l-18 -99
q-60 -22 -126 -32.5t-135 -10.5q-419 0 -419 334zM406 291q0 -38 18.5 -56.5t53.5 -18.5q79 0 95 83l9 58q2 11 3 21t1 19q0 26 -19.5 42.5t-51.5 16.5q-48 0 -78.5 -44.5t-30.5 -120.5z" />
    <glyph glyph-name="bullet.cap" unicode="&#xe815;" horiz-adv-x="480" 
d="M112 336q0 30 11 56t30.5 45.5t46 31t56.5 11.5t56 -11.5t45.5 -31t31 -45.5t11.5 -56t-11.5 -56.5t-31 -46t-45.5 -30.5t-56 -11t-56.5 11t-46 30.5t-30.5 46t-11 56.5z" />
    <glyph glyph-name="grave.cap" unicode="&#xe840;" horiz-adv-x="240" 
d="M55 880h125l97 -148h-104z" />
    <glyph glyph-name="acute.cap" unicode="&#xe841;" horiz-adv-x="240" 
d="M250 732h-120l141 148h142z" />
    <glyph glyph-name="circumflex.cap" unicode="&#xe842;" horiz-adv-x="240" 
d="M162 880h124l98 -148h-104l-61 81l-90 -81h-115z" />
    <glyph glyph-name="caron.cap" unicode="&#xe843;" horiz-adv-x="240" 
d="M269 732h-124l-98 148h104l61 -81l90 81h115z" />
    <glyph glyph-name="tilde.cap" unicode="&#xe844;" horiz-adv-x="240" 
d="M37 753q8 63 34 89.5t80 26.5q19 0 35.5 -6.5t30.5 -14t26 -14t23 -6.5q32 0 39 38l1 8h91l-2 -16q-8 -62 -34.5 -88.5t-80.5 -26.5q-20 0 -36 6.5t-30 14t-26 14t-23 6.5q-32 0 -38 -38l-2 -9h-90z" />
    <glyph glyph-name="dieresis.cap" unicode="&#xe845;" horiz-adv-x="240" 
d="M34 790q0 42 21 64.5t63 22.5q63 0 63 -55q0 -42 -21.5 -64.5t-63.5 -22.5q-62 0 -62 55zM250 790q0 42 21.5 64.5t63.5 22.5q62 0 62 -55q0 -42 -21 -64.5t-63 -22.5q-63 0 -63 55z" />
    <glyph glyph-name="macron.cap" unicode="&#xe846;" horiz-adv-x="240" 
d="M62 849h323l-15 -87h-323z" />
    <glyph glyph-name="breve.cap" unicode="&#xe847;" horiz-adv-x="240" 
d="M151 880q-12 -74 66 -74q42 0 63 17t27 57h91q-12 -84 -57 -121.5t-133 -37.5q-150 0 -150 114q0 11 1 22t3 23h89z" />
    <glyph glyph-name="ring.cap" unicode="&#xe848;" horiz-adv-x="240" 
d="M96 784q0 58 35.5 91t98.5 33q105 0 105 -80q0 -59 -36 -91.5t-98 -32.5q-105 0 -105 80zM166 793q0 -35 41 -35q26 0 42 16.5t16 44.5q0 34 -41 34q-26 0 -42 -16t-16 -44z" />
    <glyph glyph-name="hungarumlaut.cap" unicode="&#xe849;" horiz-adv-x="240" 
d="M358 732h-120l141 148h142zM142 732h-120l140 148h142z" />
    <glyph glyph-name="dotaccent.cap" unicode="&#xe84a;" horiz-adv-x="240" 
d="M142 790q0 42 21.5 64.5t63.5 22.5q62 0 62 -55q0 -42 -21.5 -64.5t-63.5 -22.5q-62 0 -62 55z" />
    <glyph glyph-name="arrowleft.cap" unicode="&#xe880;" horiz-adv-x="864" 
d="M263 277l220 -217h-169l-276 276l276 276h169l-220 -217h572v-118h-572z" />
    <glyph glyph-name="arrowup.cap" unicode="&#xe881;" horiz-adv-x="864" 
d="M388 520l-218 -221v169l277 277l276 -277v-169l-217 221v-572h-118v572z" />
    <glyph glyph-name="arrowright.cap" unicode="&#xe882;" horiz-adv-x="864" 
d="M631 395l-221 217h169l276 -276l-276 -276h-169l221 217h-573v118h573z" />
    <glyph glyph-name="arrowdown.cap" unicode="&#xe883;" horiz-adv-x="864" 
d="M506 152l217 221v-169l-276 -277l-277 277v169l218 -221v572h118v-572z" />
    <glyph glyph-name="uni2196.cap" unicode="&#xe884;" horiz-adv-x="864" 
d="M275 424l2 -309l-119 119v391h391l119 -119l-310 1l405 -404l-83 -83z" />
    <glyph glyph-name="uni2197.cap" unicode="&#xe885;" horiz-adv-x="864" 
d="M535 507l-310 -2l120 120h390v-391l-119 -119l2 309l-404 -404l-84 83z" />
    <glyph glyph-name="uni2198.cap" unicode="&#xe886;" horiz-adv-x="864" 
d="M618 248l-2 309l119 -119v-391h-390l-119 119l309 -1l-405 404l84 83z" />
    <glyph glyph-name="uni2199.cap" unicode="&#xe887;" horiz-adv-x="864" 
d="M358 165l310 1l-119 -119h-391v391l119 119l-2 -309l405 404l83 -83z" />
    <glyph glyph-name="commaaccent.alt" unicode="&#xea01;" horiz-adv-x="240" 
d="M202 746h91l-82 -196h-114z" />
    <glyph glyph-name="caron.alt" unicode="&#xea02;" horiz-adv-x="240" 
d="M195 550h-91l82 196h114z" />
    <glyph glyph-name="ringacute" unicode="&#xea03;" horiz-adv-x="240" 
d="M275 715q30 -20 30 -63q0 -59 -36 -91.5t-98 -32.5q-105 0 -105 80q0 49 25.5 80.5t72.5 40.5l99 103h142zM136 617q0 -35 41 -35q26 0 42 16.5t16 44.5q0 34 -41 34q-26 0 -42 -16t-16 -44z" />
    <glyph glyph-name="registered.alt" unicode="&#xec00;" horiz-adv-x="528" 
d="M72 464q0 118 54 171t176 53t176 -53t54 -171q0 -59 -13 -101.5t-41 -69.5t-71.5 -40t-104.5 -13t-104.5 13t-71.5 40t-41 69.5t-13 101.5zM122 464q0 -98 42 -140.5t138 -42.5t138 42.5t42 140.5q0 97 -42 140t-138 43t-138 -43t-42 -140zM211 584h106q48 0 69 -18
t21 -58q0 -60 -52 -70l58 -94h-57l-51 89h-45v-89h-49v240zM260 472h53q23 0 33 8t10 28t-10 28.5t-33 8.5h-53v-73z" />
    <glyph glyph-name="commaaccent" unicode="&#xf6c3;" horiz-adv-x="240" 
d="M38 -256h-91l82 196h114z" />
    <glyph glyph-name="apple" unicode="&#xf8ff;" horiz-adv-x="591" 
d="M230 202v65h196v66h-196v195h261v-65h-196v-65h196v-196h-261zM165 594v-529h73v-65h-138v659h391v-65h-326z" />
    <glyph glyph-name="idotaccent" horiz-adv-x="263" 
d="M28 0l70 395q2 11 0.5 14.5t-10.5 7.5l-34 14l23 59h152q6 0 10 -1.5t2 -10.5l-85 -478h-128zM125 614q0 43 22.5 66t64.5 23q65 0 65 -57q0 -44 -22.5 -67t-64.5 -23q-65 0 -65 58z" />
    <glyph glyph-name="uni0431.locl" horiz-adv-x="537" 
d="M19 162q0 94 45 160.5t142 114.5q-32 24 -49 50.5t-17 58.5q0 74 49.5 112t155.5 46q64 5 113.5 8t94.5 11l-37 -104q-31 -5 -70.5 -8t-88.5 -7q-94 -9 -94 -58q0 -9 4.5 -18t15.5 -18.5t30 -21.5t48 -28q77 -42 110.5 -92t33.5 -115q0 -61 -17.5 -110t-51.5 -83.5
t-84.5 -53t-115.5 -18.5q-217 0 -217 174zM144 183q0 -47 26.5 -71t76.5 -24q63 0 98 41.5t35 113.5q0 45 -20.5 78t-67.5 62q-77 -39 -112.5 -86t-35.5 -114z" />
    <glyph glyph-name="uni0433.locl" horiz-adv-x="471" 
d="M448 371q0 -53 -22 -83.5t-55.5 -48t-72 -26t-72 -17t-55.5 -21.5t-22 -39t19 -39t62 -13q78 0 168 23l-17 -99q-40 -11 -83.5 -15.5t-90.5 -4.5q-97 0 -143 33t-46 102q0 54 22 85t55.5 49t72.5 26.5t72.5 16.5t55.5 20.5t22 37.5q0 48 -80 48q-67 0 -138 -16l-3 94
q45 10 84.5 14t81.5 4q95 0 140 -32t45 -99z" />
    <glyph glyph-name="uni0434.locl" horiz-adv-x="569" 
d="M464 -1q-9 -53 -28 -94t-52 -69t-81.5 -42t-116.5 -14q-32 0 -60.5 2t-44.5 7l18 97q20 -5 43.5 -7t43.5 -2q41 0 68 9.5t43.5 24.5t24.5 35t12 41l9 50q-23 -26 -58 -37.5t-77 -11.5q-88 0 -134 45t-46 129q0 78 17 141t49 107t77 68t101 24q49 0 90 -16t66 -45l20 49
h103zM158 183q0 -48 23.5 -71.5t67.5 -23.5q102 0 122 110l30 168q-13 11 -37.5 23.5t-65.5 12.5q-66 0 -103 -59.5t-37 -159.5z" />
    <glyph glyph-name="uni043F.salt" horiz-adv-x="585" 
d="M228 449q28 26 63.5 39.5t74.5 13.5q81 0 125 -40t44 -112q0 -34 -6 -64l-34 -191q-2 -11 -0.5 -14.5t10.5 -7.5l33 -14l-22 -59h-156q-9 0 -8 10l49 276q4 23 4 41q0 73 -82 73q-31 0 -59.5 -10t-45.5 -19l-66 -371h-128l70 395q2 11 0.5 14.5t-10.5 7.5l-33 14l23 59
h147q6 0 10 -2t2 -10z" />
    <glyph glyph-name="uni0442.locl" horiz-adv-x="883" 
d="M222 449q25 23 59.5 38t75.5 15q52 0 87.5 -18.5t50.5 -44.5q31 32 73 47.5t102 15.5q78 0 120.5 -39t42.5 -108q0 -33 -6 -64l-34 -196q-2 -11 -0.5 -14.5t10.5 -7.5l33 -14l-22 -59h-156q-9 0 -8 10l50 281q2 11 3 21.5t1 19.5q0 68 -77 68q-40 0 -65 -7.5t-45 -20.5
q2 -7 2 -26.5t-5 -43.5l-53 -302h-128l52 291q5 23 5 41q0 68 -78 68q-33 0 -56.5 -8t-43.5 -21l-66 -371h-128l70 395q2 11 0.5 14.5t-10.5 7.5l-33 14l23 59h147q6 0 10 -2t2 -10z" />
    </font>
</defs>
</svg>
