<?xml version="1.0" encoding="utf-8"?>
<!-- Generator: Adobe Illustrator 24.0.3, SVG Export Plug-In . SVG Version: 6.00 Build 0)  -->
<svg version="1.1" id="Capa_1" xmlns="http://www.w3.org/2000/svg" xmlns:xlink="http://www.w3.org/1999/xlink" x="0px" y="0px"
	 viewBox="0 0 124.8 129.8" style="enable-background:new 0 0 124.8 129.8;" xml:space="preserve">
<style type="text/css">
	.st0{enable-background:new    ;}
</style>
<g id="Grupo_98" transform="translate(-6013 594)">
	<g id="_014-ano-nuevo" transform="translate(6013 -594)">
		<g id="Trazado_79">
			<path d="M114.6,7.5H82.4v-5c-0.1-1.4-1.2-2.4-2.6-2.4c-1.3,0.1-2.3,1.1-2.4,2.4v5h-30v-5c-0.1-1.4-1.2-2.4-2.6-2.4
				c-1.3,0.1-2.3,1.1-2.4,2.4v5H10.3C4.6,7.5,0,12.1,0,17.8v101.8c0,5.7,4.6,10.3,10.3,10.3h104.3c5.7,0,10.3-4.6,10.3-10.3V17.8
				C124.8,12.1,120.2,7.5,114.6,7.5z M10.3,12.5h32.2v8.2c-2.4,1.4-3.2,4.4-1.8,6.8s4.4,3.2,6.8,1.8s3.2-4.4,1.8-6.8
				c-0.4-0.8-1.1-1.4-1.8-1.8v-8.2h30v8.2c-2.4,1.4-3.2,4.4-1.8,6.8c1.4,2.4,4.4,3.2,6.8,1.8s3.2-4.4,1.8-6.8
				c-0.4-0.8-1.1-1.4-1.8-1.8v-8.2h32.2c2.9,0,5.3,2.4,5.3,5.3v19.7H5V17.8C5,14.9,7.4,12.5,10.3,12.5L10.3,12.5z M15,42.4h94.9
				v68.7c0,2-1.7,3.7-3.7,3.7H18.7c-2,0-3.7-1.7-3.7-3.7L15,42.4z M114.6,124.8H10.3c-2.9,0-5.3-2.4-5.3-5.3V42.4h5v68.7
				c0,4.8,3.9,8.7,8.7,8.7h87.5c4.8,0,8.7-3.9,8.7-8.7V42.4h5v77.1C119.8,122.5,117.5,124.8,114.6,124.8L114.6,124.8z"/>
		</g>
	</g>
	<g class="st0">
		<path d="M6085.8-527.9l-8.5,10c3.5,0.3,6,1.3,7.7,2.9c1.6,1.6,2.5,3.9,2.5,7c0,1.9-0.3,3.5-0.8,4.8c-0.6,1.3-1.4,2.4-2.6,3.3
			c-1.2,0.8-2.7,1.5-4.5,1.9s-4,0.6-6.6,0.6c-3.2,0-6.2-0.4-8.9-1.3v-5.2c2.8,0.9,5.6,1.4,8.4,1.4c3,0,5.2-0.4,6.5-1.3
			c1.3-0.9,2-2.3,2-4.3c0-2-0.7-3.4-2.1-4.2c-1.4-0.8-3.7-1.3-6.9-1.3h-1.6v-3.8l8.3-9.9h-14.2v-4.9h21.5V-527.9z"/>
	</g>
</g>
</svg>
