<?xml version="1.0" encoding="utf-8"?>
<!-- Generator: Adobe Illustrator 24.0.3, SVG Export Plug-In . SVG Version: 6.00 Build 0)  -->
<svg version="1.1" id="Capa_1" xmlns="http://www.w3.org/2000/svg" xmlns:xlink="http://www.w3.org/1999/xlink" x="0px" y="0px"
	 viewBox="0 0 124.8 129.8" style="enable-background:new 0 0 124.8 129.8;" xml:space="preserve">
<style type="text/css">
	.st0{enable-background:new    ;}
</style>
<g id="Grupo_99" transform="translate(-6013 594)">
	<g id="_014-ano-nuevo" transform="translate(6013 -594)">
		<g id="Trazado_79">
			<path d="M114.6,7.5H82.4v-5c-0.1-1.4-1.2-2.4-2.6-2.4c-1.3,0.1-2.3,1.1-2.4,2.4v5h-30v-5c-0.1-1.4-1.2-2.4-2.6-2.4
				c-1.3,0.1-2.3,1.1-2.4,2.4v5H10.3C4.6,7.5,0,12.1,0,17.8v101.8c0,5.7,4.6,10.3,10.3,10.3h104.3c5.7,0,10.3-4.6,10.3-10.3V17.8
				C124.8,12.1,120.2,7.5,114.6,7.5z M10.3,12.5h32.2v8.2c-2.4,1.4-3.2,4.4-1.8,6.8s4.4,3.2,6.8,1.8s3.2-4.4,1.8-6.8
				c-0.4-0.8-1.1-1.4-1.8-1.8v-8.2h30v8.2c-2.4,1.4-3.2,4.4-1.8,6.8c1.4,2.4,4.4,3.2,6.8,1.8s3.2-4.4,1.8-6.8
				c-0.4-0.8-1.1-1.4-1.8-1.8v-8.2h32.2c2.9,0,5.3,2.4,5.3,5.3v19.7H5V17.8C5,14.9,7.4,12.5,10.3,12.5L10.3,12.5z M15,42.4h94.9
				v68.7c0,2-1.7,3.7-3.7,3.7H18.7c-2,0-3.7-1.7-3.7-3.7L15,42.4z M114.6,124.8H10.3c-2.9,0-5.3-2.4-5.3-5.3V42.4h5v68.7
				c0,4.8,3.9,8.7,8.7,8.7h87.5c4.8,0,8.7-3.9,8.7-8.7V42.4h5v77.1C119.8,122.5,117.5,124.8,114.6,124.8L114.6,124.8z"/>
		</g>
	</g>
	<g class="st0">
		<path d="M6063.5-513.6c0-3.4,0.3-6.3,0.9-8.8c0.6-2.4,1.5-4.5,2.8-6s2.9-2.7,4.9-3.5c2-0.7,4.4-1.1,7.2-1.1c2.9,0,5.5,0.4,8,1.1
			v5.2c-1.3-0.4-2.5-0.7-3.8-0.8c-1.3-0.2-2.5-0.3-3.7-0.3c-3.4,0-5.9,0.8-7.4,2.5c-1.5,1.7-2.4,4.3-2.5,7.9c1.3-2,3.8-3,7.6-3
			c4.1,0,7.1,0.9,8.9,2.7c1.8,1.8,2.7,4.6,2.7,8.6c0,2.1-0.2,3.9-0.7,5.3c-0.5,1.5-1.2,2.7-2.3,3.6c-1,1-2.4,1.7-4,2.1
			s-3.5,0.7-5.8,0.7c-2.3,0-4.3-0.3-5.9-0.9c-1.6-0.6-3-1.6-4-2.9c-1.1-1.3-1.8-3-2.3-5C6063.8-508.3,6063.5-510.7,6063.5-513.6z
			 M6070.1-509.5c0,4.6,2.1,6.9,6.2,6.9c2.3,0,4-0.5,5.1-1.5c1-1,1.6-2.7,1.6-5c0-2.2-0.5-3.8-1.4-4.8c-1-1-2.5-1.5-4.7-1.5
			c-2.3,0-4,0.5-5.1,1.5C6070.7-513.1,6070.1-511.6,6070.1-509.5z"/>
	</g>
</g>
</svg>
