<svg xmlns="http://www.w3.org/2000/svg" viewBox="0 0 124.9 129.8"><defs><style>.cls-1{fill:#ffce33;}.cls-2{isolation:isolate;}</style></defs><title>Recurso 1auser2</title><g id="Capa_2" data-name="Capa 2"><g id="Capa_1-2" data-name="Capa 1"><g id="Grupo_100" data-name="Grupo 100"><g id="_014-ano-nuevo" data-name=" 014-ano-nuevo"><g id="Trazado_79" data-name="Trazado 79"><path class="cls-1" d="M114.6,7.4H82.4v-5A2.54,2.54,0,0,0,79.8,0a2.58,2.58,0,0,0-2.4,2.4v5h-30v-5A2.54,2.54,0,0,0,44.8,0a2.58,2.58,0,0,0-2.4,2.4v5H10.3A10.29,10.29,0,0,0,0,17.7V119.5a10.29,10.29,0,0,0,10.3,10.3H114.6a10.29,10.29,0,0,0,10.3-10.3V17.7A10.42,10.42,0,0,0,114.6,7.4Zm-104.3,5H42.5v8.2a5,5,0,1,0,6.8,1.8,4.45,4.45,0,0,0-1.8-1.8V12.4h30v8.2a5,5,0,1,0,6.8,1.8,4.45,4.45,0,0,0-1.8-1.8V12.4h32.2a5.34,5.34,0,0,1,5.3,5.3V37.4H5V17.7a5.34,5.34,0,0,1,5.3-5.3ZM15,42.3h94.9V111a3.76,3.76,0,0,1-3.7,3.7H18.7A3.76,3.76,0,0,1,15,111Zm99.6,82.4H10.3A5.34,5.34,0,0,1,5,119.4V42.3h5V111a8.71,8.71,0,0,0,8.7,8.7h87.5a8.71,8.71,0,0,0,8.7-8.7V42.3h5v77.1a5.33,5.33,0,0,1-5.3,5.3Z"/></g></g><g class="cls-2"><path class="cls-1" d="M62.7,67.3l-8.9,3.9V65.9l10-4.4h5.5V95.8H62.8V67.3Z"/></g></g></g></g></svg>