<?xml version="1.0" encoding="utf-8"?>
<!-- Generator: Adobe Illustrator 24.0.3, SVG Export Plug-In . SVG Version: 6.00 Build 0)  -->
<svg version="1.1" id="Capa_1" xmlns="http://www.w3.org/2000/svg" xmlns:xlink="http://www.w3.org/1999/xlink" x="0px" y="0px"
	 viewBox="0 0 669.1 352.3" style="enable-background:new 0 0 669.1 352.3;" xml:space="preserve">
<style type="text/css">
	.st0{clip-path:url(#SVGID_2_);}
	.st1{clip-path:url(#SVGID_4_);}
	.st2{fill:url(#SVGID_5_);}
	.st3{clip-path:url(#SVGID_7_);}
	.st4{fill:url(#SVGID_8_);}
	.st5{clip-path:url(#SVGID_10_);}
	.st6{fill:url(#SVGID_11_);}
	.st7{fill:#FFFFFF;}
	.st8{fill:#FFD400;}
	.st9{clip-path:url(#SVGID_13_);}
	.st10{fill:url(#SVGID_14_);}
	.st11{clip-path:url(#SVGID_16_);}
	.st12{clip-path:url(#SVGID_18_);}
	.st13{fill:url(#SVGID_19_);}
	.st14{clip-path:url(#SVGID_21_);}
	.st15{fill:url(#SVGID_22_);}
	.st16{clip-path:url(#SVGID_24_);}
	.st17{fill:url(#SVGID_25_);}
	.st18{clip-path:url(#SVGID_27_);}
	.st19{fill:url(#SVGID_28_);}
	.st20{clip-path:url(#SVGID_30_);}
	.st21{fill:url(#SVGID_31_);}
	.st22{clip-path:url(#SVGID_33_);}
	.st23{fill:url(#SVGID_34_);}
	.st24{clip-path:url(#SVGID_36_);}
	.st25{fill:url(#SVGID_37_);}
	.st26{clip-path:url(#SVGID_39_);}
	.st27{fill:url(#SVGID_40_);}
	.st28{clip-path:url(#SVGID_42_);}
	.st29{fill:url(#SVGID_43_);}
	.st30{clip-path:url(#SVGID_45_);}
	.st31{fill:url(#SVGID_46_);}
	.st32{clip-path:url(#SVGID_48_);}
	.st33{fill:url(#SVGID_49_);}
	.st34{clip-path:url(#SVGID_51_);}
	.st35{fill:url(#SVGID_52_);}
	.st36{clip-path:url(#SVGID_54_);}
	.st37{clip-path:url(#SVGID_56_);}
	.st38{clip-path:url(#SVGID_58_);}
	.st39{fill:url(#SVGID_59_);}
	.st40{fill:#010000;}
	.st41{fill:#0F0D08;}
	.st42{fill:#767476;}
</style>
<title>Logo renaultauser</title>
<g id="Capa_2_1_">
	<g id="Capa_1-2">
		<g>
			<g>
				<defs>
					<path id="SVGID_1_" d="M68.7,203.9L68.7,203.9z"/>
				</defs>
				<clipPath id="SVGID_2_">
					<use xlink:href="#SVGID_1_"  style="overflow:visible;"/>
				</clipPath>
				<g class="st0">
					<g>
						<defs>
							<polygon id="SVGID_3_" points="68.7,203.9 68.7,203.9 68.7,203.9 							"/>
						</defs>
						<clipPath id="SVGID_4_">
							<use xlink:href="#SVGID_3_"  style="overflow:visible;"/>
						</clipPath>
						<g class="st1">
							
								<linearGradient id="SVGID_5_" gradientUnits="userSpaceOnUse" x1="36.3805" y1="171.6197" x2="36.3905" y2="171.6197" gradientTransform="matrix(1 0 0 -1 0 375.5297)">
								<stop  offset="0" style="stop-color:#ECECEF"/>
								<stop  offset="1.000000e-02" style="stop-color:#ECECEF"/>
								<stop  offset="0.34" style="stop-color:#BCBDC2"/>
								<stop  offset="0.53" style="stop-color:#8A8A8F"/>
								<stop  offset="0.69" style="stop-color:#5B5A5F"/>
								<stop  offset="0.85" style="stop-color:#434144"/>
								<stop  offset="0.9" style="stop-color:#393739"/>
								<stop  offset="0.95" style="stop-color:#2D2A2B"/>
								<stop  offset="0.96" style="stop-color:#302E2F"/>
								<stop  offset="0.97" style="stop-color:#3B383A"/>
								<stop  offset="0.98" style="stop-color:#4C4A4D"/>
								<stop  offset="0.99" style="stop-color:#656467"/>
								<stop  offset="1" style="stop-color:#848489"/>
								<stop  offset="1" style="stop-color:#89898E"/>
							</linearGradient>
							<polygon class="st2" points="68.7,203.9 68.7,203.9 68.7,203.9 							"/>
						</g>
					</g>
				</g>
			</g>
			<g>
				<defs>
					<path id="SVGID_6_" d="M64.7,207c0.9,0.5,1.9,0.8,3,0.8c2.7,0.2,14.7,0.4,21.6,0.4s19.8-0.3,21.6-0.4c0.8,0,1.7-0.2,2.4-0.5
						l-1.4-3.4c-0.4,0.1-0.7,0.2-1.1,0.2h-0.3c-1.6,0.2-12.2,0.4-21.2,0.4c-7.3,0-14.2-0.2-18.7-0.3c-0.4,0-0.8,0-1.2,0
						c-0.7,0.1-1.4,0.1-2.1,0.1c-0.5-0.2-0.9-0.4-1.2-0.8L64.7,207z"/>
				</defs>
				<clipPath id="SVGID_7_">
					<use xlink:href="#SVGID_6_"  style="overflow:visible;"/>
				</clipPath>
				<g class="st3">
					
						<linearGradient id="SVGID_8_" gradientUnits="userSpaceOnUse" x1="-3175.2397" y1="826.9866" x2="-3170.9097" y2="826.9866" gradientTransform="matrix(8.5477 4.935 -4.935 8.5477 31295.9258 8798.0801)">
						<stop  offset="0" style="stop-color:#89898E"/>
						<stop  offset="2.000000e-02" style="stop-color:#89898E"/>
						<stop  offset="4.000000e-02" style="stop-color:#757579"/>
						<stop  offset="6.000000e-02" style="stop-color:#605F63"/>
						<stop  offset="8.000000e-02" style="stop-color:#535256"/>
						<stop  offset="0.1" style="stop-color:#4F4D51"/>
						<stop  offset="1" style="stop-color:#4F4D51"/>
					</linearGradient>
					<polygon class="st4" points="62.7,207.1 76.9,182.4 115.5,204.7 101.2,229.3 					"/>
				</g>
			</g>
			<g>
				<defs>
					<path id="SVGID_9_" d="M67.5,13.8c-0.8,0-1.5,0.2-2.2,0.5l1.4,3.5c0.4-0.2,0.8-0.3,1.3-0.4c1.4-0.1,12.3-0.4,21.4-0.4
						c7.4,0,14.8,0.1,18.6,0.3c0.4,0,0.8,0,1.2,0c0.7-0.1,1.5-0.1,2.2,0c0.2,0.1,0.5,0.2,0.7,0.4l1.3-3.4c-0.8-0.3-1.7-0.5-2.5-0.5
						c-2.8-0.3-15.1-0.5-21.5-0.5C83.7,13.3,70.6,13.5,67.5,13.8"/>
				</defs>
				<clipPath id="SVGID_10_">
					<use xlink:href="#SVGID_9_"  style="overflow:visible;"/>
				</clipPath>
				<g class="st5">
					
						<linearGradient id="SVGID_11_" gradientUnits="userSpaceOnUse" x1="-3790.3008" y1="854.792" x2="-3785.9707" y2="854.792" gradientTransform="matrix(-10.2663 -2.9438 2.9438 -10.2663 -41310.7812 -2358.6338)">
						<stop  offset="0" style="stop-color:#7F7D82"/>
						<stop  offset="1.000000e-02" style="stop-color:#7F7D82"/>
						<stop  offset="2.000000e-02" style="stop-color:#919095"/>
						<stop  offset="4.000000e-02" style="stop-color:#A9A9AE"/>
						<stop  offset="6.000000e-02" style="stop-color:#B7B8BD"/>
						<stop  offset="7.000000e-02" style="stop-color:#BCBDC2"/>
						<stop  offset="0.5" style="stop-color:#CFD0D3"/>
						<stop  offset="1" style="stop-color:#D0D0D4"/>
					</linearGradient>
					<polygon class="st6" points="64.1,17.5 68.9,0.6 114.6,13.7 109.7,30.6 					"/>
				</g>
			</g>
			<path class="st7" d="M109.2,17.3h0.2c-1,0.6-2.2,0.8-3.3,0.7c-2.8,0-8.7-0.1-13.3-0.2c-8.7-0.1-19,0.1-23.8,0.3
				c-2.6,0.1-2.7,0.4-4.4,2.1l0,0l0.8-1.3c0.3-0.5,0.8-1,1.3-1.3c0.4-0.2,0.8-0.3,1.3-0.3c1.4-0.1,12.3-0.4,21.4-0.4
				c7.4,0,14.8,0.1,18.6,0.3C108.4,17.4,108.8,17.4,109.2,17.3"/>
			<g>
				<rect x="632.3" y="13.3" class="st8" width="22.4" height="194.9"/>
				<g>
					<defs>
						<path id="SVGID_12_" d="M88,156.8c-7.9-15.1-13.1-25.4-20.6-42.2c-0.6-1.2-1-2.5-1-3.8c0.1-1.3,0.5-2.6,1.1-3.8
							C74.9,90.3,80.2,79.9,88,64.8c0.4-0.9,0.8-1.4,1.3-1.4l0,0c0.5,0,0.9,0.6,1.3,1.4c7.9,15.1,13.1,25.5,20.6,42.2
							c0.7,1.2,1,2.5,1.1,3.8c-0.1,1.3-0.5,2.6-1.1,3.8c-7.4,16.7-12.7,27.1-20.6,42.2c-0.4,0.9-0.8,1.4-1.3,1.4
							S88.5,157.6,88,156.8 M68,17.4c-1.1,0.1-2.1,0.7-2.6,1.6c-1.7,2.5-19.2,31.3-30.3,51.5c-7.9,14.3-15.7,29.6-19,36.6
							c-0.6,1.1-0.9,2.4-1,3.7c0.1,1.3,0.4,2.5,1,3.7c3.3,7,11.1,22.2,19,36.6c11.1,20.2,28.5,49,30.3,51.5c0.2,0.3,0.5,0.6,0.8,0.9
							c0.3,0.4,0.7,0.7,1.2,0.8c0.7,0.1,1.4,0.1,2.1,0c0.4,0,0.8,0,1.2,0c4.5,0.1,11.4,0.3,18.7,0.3c9,0,19.6-0.2,21.2-0.4h0.3
							c0.4,0,0.8-0.1,1.1-0.2c0.4-0.2,0.7-0.4,1.4-1.5c1.8-2.5,19.1-31.1,30.2-51.4c7.9-14.3,15.7-29.6,19-36.6
							c0.6-1.2,0.9-2.5,1-3.9c-0.1-1.2-0.4-2.4-1-3.4c-3.3-7-11.1-22.2-19-36.6c-11.1-20.3-28.5-49.1-30.3-51.6
							c-0.4-0.5-0.8-1-1.3-1.4c-0.2-0.1-0.4-0.3-0.7-0.3c-0.7-0.1-1.5-0.1-2.2,0c-0.4,0-0.8,0-1.2,0c-3.7-0.1-11.2-0.3-18.5-0.3
							C80.4,17,69.5,17.3,68,17.4"/>
					</defs>
					<clipPath id="SVGID_13_">
						<use xlink:href="#SVGID_12_"  style="overflow:visible;"/>
					</clipPath>
					<g class="st9">
						
							<linearGradient id="SVGID_14_" gradientUnits="userSpaceOnUse" x1="-3521.9976" y1="941.1271" x2="-3517.6577" y2="941.1271" gradientTransform="matrix(0 -43.28 43.28 0 -40642.6328 -152220.2812)">
							<stop  offset="0" style="stop-color:#ECECEF"/>
							<stop  offset="0.69" style="stop-color:#FFFFFF"/>
							<stop  offset="1" style="stop-color:#ABACB1"/>
						</linearGradient>
						<rect x="15.1" y="17" class="st10" width="148.6" height="187.6"/>
					</g>
				</g>
				<g>
					<g>
						<defs>
							<rect id="SVGID_15_" x="15.1" y="17" width="148.6" height="187.6"/>
						</defs>
						<clipPath id="SVGID_16_">
							<use xlink:href="#SVGID_15_"  style="overflow:visible;"/>
						</clipPath>
						<g class="st11">
							<g>
								<defs>
									<path id="SVGID_17_" d="M89.4,63.3c0.5,0,0.9,0.6,1.3,1.5c7.8,15.1,13.1,25.5,20.5,42.2c0.7,1.2,1,2.5,1.1,3.8
										c-0.1,1.3-0.5,2.6-1.1,3.8c-7.4,16.7-12.7,27.1-20.6,42.2c-0.4,0.9-0.8,1.4-1.3,1.4s-0.9-0.6-1.3-1.4
										c-7.9-15.1-13.2-25.4-20.7-42.2c-0.6-1.2-1-2.5-1-3.8c0.1-1.3,0.5-2.6,1.1-3.8C74.9,90.3,80.2,79.9,88,64.8
										C88.5,63.9,88.8,63.4,89.4,63.3L89.4,63.3z M68,17.4c-1.1,0.1-2.1,0.7-2.6,1.6c-1.7,2.5-19.2,31.3-30.3,51.5
										c-7.9,14.3-15.7,29.6-19,36.6c-0.6,1.1-0.9,2.4-1,3.7c0.1,1.3,0.4,2.5,1,3.7c3.3,7,11.1,22.2,19,36.6
										c11.1,20.2,28.5,49,30.3,51.5c0.2,0.3,0.5,0.6,0.8,0.9c0.3,0.4,0.7,0.7,1.2,0.8c0.7,0.1,1.3,0.1,2,0c0.4,0,0.8,0,1.3,0
										c4.4,0.1,11.2,0.3,18.4,0.3h0.4c9,0,19.6-0.2,21.2-0.4h0.3c0.4,0,0.8-0.1,1.1-0.2c0.4-0.2,0.7-0.4,1.4-1.5
										c1.8-2.5,19.1-31.1,30.2-51.4c7.9-14.3,15.7-29.6,19-36.6c0.6-1.2,0.9-2.5,1-3.9c-0.1-1.2-0.4-2.4-1-3.4
										c-3.3-7-11.1-22.2-19-36.6c-11.2-20.3-28.6-49.1-30.4-51.6c-0.4-0.5-0.8-1-1.3-1.4c-0.2-0.1-0.4-0.3-0.7-0.3
										c-0.7-0.1-1.5-0.1-2.2,0c-0.4,0-0.8,0-1.2,0c-3.7-0.1-11.2-0.3-18.5-0.3C80.4,17,69.5,17.3,68,17.4"/>
								</defs>
								<clipPath id="SVGID_18_">
									<use xlink:href="#SVGID_17_"  style="overflow:visible;"/>
								</clipPath>
								<g class="st12">
									
										<radialGradient id="SVGID_19_" cx="-3357.231" cy="922.7106" r="4.33" gradientTransform="matrix(21.58 0 0 21.66 72525.5078 -19920.3574)" gradientUnits="userSpaceOnUse">
										<stop  offset="0" style="stop-color:#FFFFFF"/>
										<stop  offset="0.4" style="stop-color:#FFFFFF"/>
										<stop  offset="1" style="stop-color:#ABACB1"/>
									</radialGradient>
									<rect x="15.1" y="17" class="st13" width="148.6" height="187.5"/>
								</g>
							</g>
						</g>
					</g>
				</g>
				<g>
					<defs>
						<path id="SVGID_20_" d="M59,110.7c-0.7,0.6-1.8,1.2-4.5,1.2l-33.1,0c-1.4,0-3.4-0.1-3.4,2.2c0,1.3,1.2,4.1,3.6,8.8
							c13.1,25.7,27.7,51.4,43.4,76.4c0,0,2.4,3.9,2.6,4.2c0.3,0.3,0.7,0.5,1.1,0.4c6.6-12.4,12.6-25,17.9-38
							c-8.9-16.4-17.2-32.7-24.8-49c0,0-2.2-4.1-2.3-5.7c0-0.2,0-0.3,0-0.5c0-0.2,0-0.2-0.1-0.2S59.2,110.6,59,110.7"/>
					</defs>
					<clipPath id="SVGID_21_">
						<use xlink:href="#SVGID_20_"  style="overflow:visible;"/>
					</clipPath>
					<g class="st14">
						
							<linearGradient id="SVGID_22_" gradientUnits="userSpaceOnUse" x1="-3550.365" y1="1010.4222" x2="-3546.0249" y2="1010.4222" gradientTransform="matrix(0 -21.32 21.32 0 -21489.9355 -75486.9297)">
							<stop  offset="0" style="stop-color:#ECECEF"/>
							<stop  offset="1.000000e-02" style="stop-color:#ECECEF"/>
							<stop  offset="0.34" style="stop-color:#BCBDC2"/>
							<stop  offset="0.53" style="stop-color:#8A8A8F"/>
							<stop  offset="0.69" style="stop-color:#5B5A5F"/>
							<stop  offset="0.85" style="stop-color:#434144"/>
							<stop  offset="0.9" style="stop-color:#393739"/>
							<stop  offset="0.95" style="stop-color:#2D2A2B"/>
							<stop  offset="0.96" style="stop-color:#302E2F"/>
							<stop  offset="0.97" style="stop-color:#3B383A"/>
							<stop  offset="0.98" style="stop-color:#4C4A4D"/>
							<stop  offset="0.99" style="stop-color:#656467"/>
							<stop  offset="1" style="stop-color:#848489"/>
							<stop  offset="1" style="stop-color:#89898E"/>
						</linearGradient>
						<rect x="18" y="110.4" class="st15" width="68.6" height="93.5"/>
					</g>
				</g>
				<g>
					<defs>
						<path id="SVGID_23_" d="M161.8,111c-0.4,0.4-1.4,0.9-3.6,0.9h-27.3c-12.5,0-11.2-0.3-14.5,6.3c-1.4,2.9-2.9,6.4-4.4,9.2
							c-10.9,22.9-37.6,68.9-41.2,74.5c-1.4,2.1-1.5,2.3-0.6,2.3c0,0,9,0.3,19.1,0.3c15.7,0,21.3-0.4,21.3-0.4
							c9.1-14.2,30.9-50.1,46.4-81.3c3.6-7.2,5.4-10.3,5.2-11.8c0-0.1-0.1-0.2-0.1-0.2C162,110.9,161.9,110.9,161.8,111"/>
					</defs>
					<clipPath id="SVGID_24_">
						<use xlink:href="#SVGID_23_"  style="overflow:visible;"/>
					</clipPath>
					<g class="st16">
						
							<linearGradient id="SVGID_25_" gradientUnits="userSpaceOnUse" x1="-3550.3086" y1="1012.5758" x2="-3545.9785" y2="1012.5758" gradientTransform="matrix(0 -21.34 21.34 0 -21492.5273 -75553.1484)">
							<stop  offset="0" style="stop-color:#ECECEF"/>
							<stop  offset="1.000000e-02" style="stop-color:#ECECEF"/>
							<stop  offset="0.34" style="stop-color:#BCBDC2"/>
							<stop  offset="0.53" style="stop-color:#8A8A8F"/>
							<stop  offset="0.69" style="stop-color:#5B5A5F"/>
							<stop  offset="0.85" style="stop-color:#434144"/>
							<stop  offset="0.9" style="stop-color:#393739"/>
							<stop  offset="0.95" style="stop-color:#2D2A2B"/>
							<stop  offset="0.96" style="stop-color:#302E2F"/>
							<stop  offset="0.97" style="stop-color:#3B383A"/>
							<stop  offset="0.98" style="stop-color:#4C4A4D"/>
							<stop  offset="0.99" style="stop-color:#656467"/>
							<stop  offset="1" style="stop-color:#848489"/>
							<stop  offset="1" style="stop-color:#89898E"/>
						</linearGradient>
						<rect x="69.3" y="110.8" class="st17" width="93.2" height="93.7"/>
					</g>
				</g>
				<g>
					<defs>
						<path id="SVGID_26_" d="M109.9,17.7c-0.6,0-1.1,0.5-2,1.9c-7.7,12-34.3,62.1-45.2,85.5c-1.3,2.9-2,4.3-2,5.7h5.7
							c0.1-1.3,0.5-2.6,1.1-3.8C74.9,90.3,80.2,79.9,88,64.8c0.4-0.9,0.8-1.4,1.3-1.4l2.2-6.4C99.2,37.8,110,17.7,109.9,17.7
							L109.9,17.7"/>
					</defs>
					<clipPath id="SVGID_27_">
						<use xlink:href="#SVGID_26_"  style="overflow:visible;"/>
					</clipPath>
					<g class="st18">
						
							<linearGradient id="SVGID_28_" gradientUnits="userSpaceOnUse" x1="-3546.6045" y1="1010.5687" x2="-3542.2644" y2="1010.5687" gradientTransform="matrix(0 -21.48 21.48 0 -21621.7012 -76062.2578)">
							<stop  offset="0" style="stop-color:#5B5A5F"/>
							<stop  offset="1.000000e-02" style="stop-color:#504E52"/>
							<stop  offset="2.000000e-02" style="stop-color:#464448"/>
							<stop  offset="4.000000e-02" style="stop-color:#434144"/>
							<stop  offset="0.11" style="stop-color:#403E41"/>
							<stop  offset="0.15" style="stop-color:#383639"/>
							<stop  offset="0.19" style="stop-color:#2A282A"/>
							<stop  offset="0.23" style="stop-color:#151415"/>
							<stop  offset="0.25" style="stop-color:#010000"/>
							<stop  offset="1" style="stop-color:#010000"/>
						</linearGradient>
						<rect x="60.7" y="17.7" class="st19" width="49.3" height="93.1"/>
					</g>
				</g>
				<g>
					<defs>
						<path id="SVGID_29_" d="M89.4,63.3L89.4,63.3c0.5,0,0.9,0.6,1.3,1.4c7.8,15.1,13.1,25.6,20.5,42.2c0.7,1.2,1,2.5,1.1,3.8h5.7
							c0-1.4-0.7-2.8-2-5.6c-7.5-15.9-15.4-31.5-24.5-48.3L89.4,63.3z"/>
					</defs>
					<clipPath id="SVGID_30_">
						<use xlink:href="#SVGID_29_"  style="overflow:visible;"/>
					</clipPath>
					<g class="st20">
						
							<linearGradient id="SVGID_31_" gradientUnits="userSpaceOnUse" x1="-3584.6077" y1="1112.2386" x2="-3580.2776" y2="1112.2386" gradientTransform="matrix(0 -12.43 12.43 0 -13721.4561 -44453.8828)">
							<stop  offset="0" style="stop-color:#949398"/>
							<stop  offset="0.16" style="stop-color:#8F8E93"/>
							<stop  offset="0.34" style="stop-color:#828085"/>
							<stop  offset="0.54" style="stop-color:#6B696D"/>
							<stop  offset="0.75" style="stop-color:#4C4A4D"/>
							<stop  offset="0.8" style="stop-color:#434144"/>
							<stop  offset="0.83" style="stop-color:#3F3D40"/>
							<stop  offset="0.86" style="stop-color:#333133"/>
							<stop  offset="0.89" style="stop-color:#1F1D1F"/>
							<stop  offset="0.92" style="stop-color:#030202"/>
							<stop  offset="0.92" style="stop-color:#010000"/>
							<stop  offset="1" style="stop-color:#010000"/>
						</linearGradient>
						<rect x="89.3" y="56.9" class="st21" width="28.7" height="53.9"/>
					</g>
				</g>
				<g>
					<defs>
						<path id="SVGID_32_" d="M62.7,116.4c7.5,16,15.3,31.5,24.4,48.3l2.3-6.4c-0.5,0-0.9-0.6-1.3-1.4
							c-7.9-15.1-13.2-25.4-20.7-42.2c-0.6-1.2-1-2.5-1-3.8h-5.7C60.7,112.2,61.3,113.6,62.7,116.4"/>
					</defs>
					<clipPath id="SVGID_33_">
						<use xlink:href="#SVGID_32_"  style="overflow:visible;"/>
					</clipPath>
					<g class="st22">
						
							<linearGradient id="SVGID_34_" gradientUnits="userSpaceOnUse" x1="-3587.8833" y1="1110.2389" x2="-3583.5505" y2="1110.2389" gradientTransform="matrix(0 -12.44 12.44 0 -13736.3711 -44465.9844)">
							<stop  offset="0" style="stop-color:#D0D0D4"/>
							<stop  offset="0.36" style="stop-color:#D0D0D4"/>
							<stop  offset="0.49" style="stop-color:#CBCBCF"/>
							<stop  offset="0.64" style="stop-color:#BEBEC2"/>
							<stop  offset="0.8" style="stop-color:#A7A7AC"/>
							<stop  offset="0.96" style="stop-color:#89898E"/>
							<stop  offset="1" style="stop-color:#5B5A5F"/>
						</linearGradient>
						<rect x="60.7" y="110.8" class="st23" width="28.7" height="53.9"/>
					</g>
				</g>
				<g>
					<defs>
						<path id="SVGID_35_" d="M62.7,116.4c7.5,16,15.3,31.5,24.4,48.3l2.3-6.4c-0.5,0-0.9-0.6-1.3-1.4
							c-7.9-15.1-13.2-25.4-20.7-42.2c-0.6-1.2-1-2.5-1-3.8h-5.7C60.7,112.2,61.3,113.6,62.7,116.4"/>
					</defs>
					<clipPath id="SVGID_36_">
						<use xlink:href="#SVGID_35_"  style="overflow:visible;"/>
					</clipPath>
					<g class="st24">
						<g>
							
								<linearGradient id="SVGID_37_" gradientUnits="userSpaceOnUse" x1="-3750.7964" y1="886.6915" x2="-3746.4663" y2="886.6915" gradientTransform="matrix(-11.3123 -5.1029 5.1029 -11.3123 -46867.0938 -8966.1172)">
								<stop  offset="0" style="stop-color:#F6F7F7"/>
								<stop  offset="1.000000e-02" style="stop-color:#F6F7F7"/>
								<stop  offset="0.11" style="stop-color:#F4F3F4"/>
								<stop  offset="1" style="stop-color:#F4F3F4"/>
							</linearGradient>
							<polygon class="st25" points="40.4,155.6 65.5,100 109.5,119.9 84.5,175.4 							"/>
						</g>
					</g>
				</g>
				<g>
					<defs>
						<path id="SVGID_38_" d="M112.4,110.8c-0.1,1.3-0.5,2.6-1.1,3.8c-7.4,16.7-12.7,27.1-20.6,42.2c-0.4,0.9-0.8,1.4-1.3,1.4
							l-2.2,6.4c-5.5,13.4-11.6,26.5-18.4,39.2c0.6,0,1.4-0.7,2.2-2.1c0.2-0.4,0.5-0.9,0.9-1.5c5.8-9.9,33.8-61.6,44.2-83.9
							c1.3-2.9,2-4.3,2-5.7L112.4,110.8"/>
					</defs>
					<clipPath id="SVGID_39_">
						<use xlink:href="#SVGID_38_"  style="overflow:visible;"/>
					</clipPath>
					<g class="st26">
						
							<linearGradient id="SVGID_40_" gradientUnits="userSpaceOnUse" x1="-3549.9246" y1="1010.8774" x2="-3545.5945" y2="1010.8774" gradientTransform="matrix(0 -21.48 21.48 0 -21620.3203 -76052.2891)">
							<stop  offset="0" style="stop-color:#FFFFFF"/>
							<stop  offset="0.26" style="stop-color:#F9F9F9"/>
							<stop  offset="0.62" style="stop-color:#E8E8EA"/>
							<stop  offset="0.97" style="stop-color:#D0D0D4"/>
							<stop  offset="0.99" style="stop-color:#949398"/>
							<stop  offset="1" style="stop-color:#949398"/>
						</linearGradient>
						<rect x="68.7" y="110.8" class="st27" width="49.4" height="93.1"/>
					</g>
				</g>
				<g>
					<defs>
						<path id="SVGID_41_" d="M11.4,110.8c0.1,1.8,0.5,3.6,1.4,5.2c2.6,5.6,9.8,19.9,19.1,36.8c10.2,18.4,28.5,49.1,30.6,51.9
							c0.6,0.9,1.4,1.7,2.2,2.3l1.5-3.5c-0.3-0.3-0.5-0.6-0.8-0.9c-1.8-2.5-19.2-31.3-30.3-51.5c-7.9-14.3-15.7-29.6-19-36.6
							c-0.6-1.1-0.9-2.4-1-3.7H11.4z"/>
					</defs>
					<clipPath id="SVGID_42_">
						<use xlink:href="#SVGID_41_"  style="overflow:visible;"/>
					</clipPath>
					<g class="st28">
						
							<linearGradient id="SVGID_43_" gradientUnits="userSpaceOnUse" x1="-3548.2612" y1="1004.4907" x2="-3543.928" y2="1004.4907" gradientTransform="matrix(0 -22.2 22.2 0 -22260.9023 -78561.5312)">
							<stop  offset="0" style="stop-color:#89898E"/>
							<stop  offset="0.14" style="stop-color:#838388"/>
							<stop  offset="0.57" style="stop-color:#76767B"/>
							<stop  offset="0.97" style="stop-color:#727277"/>
							<stop  offset="0.99" style="stop-color:#97979C"/>
							<stop  offset="1" style="stop-color:#A7A8AD"/>
						</linearGradient>
						<rect x="11.4" y="110.8" class="st29" width="54.8" height="96.2"/>
					</g>
				</g>
				<g>
					<defs>
						<path id="SVGID_44_" d="M112,17.6c0.5,0.4,0.9,0.9,1.3,1.4c1.8,2.5,19.2,31.3,30.3,51.5c7.9,14.3,15.7,29.6,19,36.6
							c0.6,1.1,0.9,2.2,1,3.4l3.7,0.2l0,0c-0.1-1.8-0.5-3.6-1.4-5.2c-2.8-5.8-11.6-23.2-19.1-36.8c-10-18.1-28.4-49-30.6-51.9
							c-0.7-1.1-1.7-2-2.8-2.6L112,17.6z"/>
					</defs>
					<clipPath id="SVGID_45_">
						<use xlink:href="#SVGID_44_"  style="overflow:visible;"/>
					</clipPath>
					<g class="st30">
						
							<linearGradient id="SVGID_46_" gradientUnits="userSpaceOnUse" x1="-3349.8884" y1="849.756" x2="-3345.5583" y2="849.756" gradientTransform="matrix(18.9464 10.3728 -10.3728 18.9464 72388.3281 18692.0234)">
							<stop  offset="0" style="stop-color:#7F7D82"/>
							<stop  offset="1" style="stop-color:#949398"/>
						</linearGradient>
						<polygon class="st31" points="71.3,88.5 124.7,-9 207.9,36.5 154.5,134.1 						"/>
					</g>
				</g>
				<g>
					<defs>
						<path id="SVGID_47_" d="M62.4,17c-2.2,2.8-20.6,33.9-30.5,51.7c-7,12.5-18.1,34.4-19.1,36.8c-0.8,1.6-1.3,3.4-1.4,5.2h3.7
							c0.1-1.3,0.4-2.5,1-3.7c3.3-7,11.1-22.2,19-36.6c11.1-20.2,28.6-49,30.3-51.5c0.3-0.5,0.8-1,1.3-1.3l-1.4-3.5
							C64.1,15,63.1,15.9,62.4,17"/>
					</defs>
					<clipPath id="SVGID_48_">
						<use xlink:href="#SVGID_47_"  style="overflow:visible;"/>
					</clipPath>
					<g class="st32">
						
							<linearGradient id="SVGID_49_" gradientUnits="userSpaceOnUse" x1="-3376.4465" y1="977.6868" x2="-3372.1167" y2="977.6868" gradientTransform="matrix(18.3075 -7.0276 7.0276 18.3075 54932.293 -41545.4492)">
							<stop  offset="0" style="stop-color:#A7A8AD"/>
							<stop  offset="0.99" style="stop-color:#949398"/>
							<stop  offset="1" style="stop-color:#D0D0D4"/>
						</linearGradient>
						<polygon class="st33" points="-20.9,26.7 59.6,-4.2 99,98.4 18.5,129.3 						"/>
					</g>
				</g>
				<g>
					<defs>
						<path id="SVGID_50_" d="M111.9,203.9L111.9,203.9 M162.6,114.5c-3.3,7-11.1,22.2-19,36.6c-11.1,20.2-28.5,48.9-30.2,51.4
							c-0.8,1-1.1,1.3-1.4,1.5l1.4,3.4c1.2-0.6,2.2-1.5,2.8-2.6c2-2.8,21.8-35.9,30.6-51.9s18.1-34.5,19.1-36.8
							c0.9-1.6,1.3-3.4,1.4-5.2l-3.7-0.2C163.6,111.9,163.2,113.2,162.6,114.5"/>
					</defs>
					<clipPath id="SVGID_51_">
						<use xlink:href="#SVGID_50_"  style="overflow:visible;"/>
					</clipPath>
					<g class="st34">
						
							<linearGradient id="SVGID_52_" gradientUnits="userSpaceOnUse" x1="-3547.981" y1="1007.2678" x2="-3543.6409" y2="1007.2678" gradientTransform="matrix(0 -22.32 22.32 0 -22342.6055 -78986.9688)">
							<stop  offset="0" style="stop-color:#4F4D51"/>
							<stop  offset="2.000000e-02" style="stop-color:#4F4D51"/>
							<stop  offset="0.23" style="stop-color:#58575B"/>
							<stop  offset="0.6" style="stop-color:#636367"/>
							<stop  offset="0.97" style="stop-color:#67676B"/>
							<stop  offset="0.99" style="stop-color:#828286"/>
							<stop  offset="1" style="stop-color:#949398"/>
						</linearGradient>
						<rect x="111.9" y="110.6" class="st35" width="55.4" height="96.7"/>
					</g>
				</g>
				<g>
					<defs>
						<path id="SVGID_53_" d="M89.9,65.4c0.7,1.3,6.2,11.8,11.2,22.1c4.7,9.6,8.8,18.9,9.3,19.9c0.6,1,0.9,2.2,1,3.4
							c-0.1,1.2-0.4,2.3-1,3.3v0.1c0,0.1-4.3,9.8-9.3,20c-4.4,9.1-9.3,18.4-11.2,22l-0.1,0.2c-0.2,0.4-0.3,0.6-0.4,0.6
							s-0.2-0.2-0.4-0.6l-0.3-0.5c-5.2-10-8.9-17.3-11-21.6c-4.8-9.7-9-19.2-9.3-20v-0.1c-0.6-1-0.9-2.2-1-3.3
							c0.1-1.2,0.4-2.3,1-3.3l0.2-0.6c3-6.8,6-13.3,9-19.3c4.3-8.8,9.1-18.1,10.8-21.2c-25,16.1-32.1,49.5-16,74.5
							c9.9,15.3,26.8,24.5,45,24.6c9.2,0,18.2-2.4,26.3-6.9c1.2-2.1,2.2-4,3.2-5.7c8.5-15.6,18-34.3,19.1-36.8
							c0.8-1.6,1.3-3.4,1.4-5.2c-0.1-1.8-0.5-3.6-1.4-5.2c-2.8-5.9-11.6-23.2-19.1-36.8c-0.6-1-1.2-2.2-1.8-3.3
							C128.1,55.2,106.8,55.2,89.9,65.4"/>
					</defs>
					<clipPath id="SVGID_54_">
						<use xlink:href="#SVGID_53_"  style="overflow:visible;"/>
					</clipPath>
					<g class="st36">
						<g>
							<g>
								<defs>
									<rect id="SVGID_55_" x="64" y="57.8" width="107.6" height="107.6"/>
								</defs>
								<clipPath id="SVGID_56_">
									<use xlink:href="#SVGID_55_"  style="overflow:visible;"/>
								</clipPath>
								<g class="st37">
									<g>
										<defs>
											<path id="SVGID_57_" d="M64,111.6c0,29.7,24.1,53.8,53.8,53.8s53.8-24.1,53.8-53.8s-24.1-53.8-53.8-53.8
												C88.1,57.8,64,81.9,64,111.6C64,111.6,64,111.6,64,111.6"/>
										</defs>
										<clipPath id="SVGID_58_">
											<use xlink:href="#SVGID_57_"  style="overflow:visible;"/>
										</clipPath>
										<g class="st38">
											<g>
												
													<radialGradient id="SVGID_59_" cx="-3253.6482" cy="962.9021" r="4.33" gradientTransform="matrix(12.42 0 0 12.42 40518.9336 -11846.9512)" gradientUnits="userSpaceOnUse">
													<stop  offset="0" style="stop-color:#FFFFFF"/>
													<stop  offset="0.59" style="stop-color:#FFFFFF"/>
													<stop  offset="1" style="stop-color:#FFFFFF"/>
												</radialGradient>
												<rect x="64" y="57.8" class="st39" width="107.6" height="107.6"/>
											</g>
										</g>
									</g>
								</g>
							</g>
						</g>
					</g>
				</g>
				<path class="st40" d="M111.3,107c-0.3-0.7-4.5-10.1-9.3-19.9c-5.2-10.7-11-21.8-11.3-22.3c-0.5-0.9-0.8-1.5-1.3-1.5
					s-0.8,0.5-1.3,1.5c-0.3,0.5-6.3,11.9-11.4,22.3s-9,19.4-9.3,19.9c-0.6,1.2-1,2.5-1,3.8c0.1,1.3,0.4,2.6,1,3.8
					c0.3,0.7,4.5,10.2,9.3,20c5.3,10.7,11.1,21.7,11.3,22.2c0.4,0.9,0.8,1.4,1.3,1.4s0.9-0.6,1.3-1.4c0.2-0.5,6-11.5,11.2-22.2
					c4.8-9.8,9-19.3,9.3-20c0.7-1.2,1-2.5,1.1-3.8C112.3,109.5,112,108.2,111.3,107 M110.4,114.1L110.4,114.1
					c0,0.2-4.3,9.9-9.3,20.1c-4.4,9.1-9.3,18.4-11.2,22l-0.1,0.2c-0.2,0.4-0.3,0.6-0.4,0.6s-0.2-0.2-0.4-0.6l-0.3-0.5
					c-5.2-10-8.9-17.3-11-21.6c-4.8-9.7-9-19.2-9.3-20v-0.1c-0.6-1-0.9-2.2-1-3.3c0.1-1.2,0.4-2.3,1-3.3c0-0.1,0.1-0.2,0.2-0.6
					c3-6.8,6-13.3,9-19.3c5.2-10.6,11.2-22.1,11.2-22.2c0.2-0.3,0.3-0.6,0.4-0.6s0.2,0.3,0.4,0.6c0.1,0.1,5.9,11.3,11.3,22.2
					c4.7,9.6,8.8,18.9,9.3,19.9c0.6,1,0.9,2.2,1,3.4C111.2,112,110.9,113.1,110.4,114.1"/>
				<path class="st40" d="M166,105.5c-2.8-5.9-11.6-23.2-19.1-36.8c-10.2-18.6-28.5-49.1-30.6-51.9s-3.2-2.9-5.1-3.1h-0.3
					c-2.8-0.3-14.5-0.5-21.5-0.5c-6,0-18.8,0.2-21.8,0.5c-2.8,0.3-3.6,1.1-5.2,3.2c-2.2,2.9-20.8,34.3-30.5,51.8
					c-7,12.6-18.1,34.4-19.1,36.8c-0.8,1.6-1.3,3.4-1.4,5.2c0.1,1.8,0.5,3.6,1.4,5.2c2.3,5,9.3,19,19.1,36.8
					c10.2,18.6,28.6,49.2,30.6,51.9c2.1,2.8,3.4,2.9,5.3,3.1c2.8,0.2,15.1,0.4,21.6,0.4c7.1,0,19.9-0.3,21.6-0.4s3.3-0.3,5.3-3.1
					c1.9-2.6,21.7-35.6,30.6-51.9c8.5-15.6,18-34.3,19.1-36.8c0.8-1.6,1.3-3.4,1.4-5.2C167.3,109,166.8,107.2,166,105.5 M165,115.6
					c-1.1,2.4-10.6,21.1-19.1,36.7c-8.9,16.3-28.7,49.2-30.5,51.8c-1.7,2.4-2.8,2.5-4.5,2.7s-14.5,0.4-21.5,0.4
					c-6.5,0-18.7-0.2-21.5-0.4c-1.8-0.2-2.7-0.2-4.5-2.7c-1.9-2.6-20.3-33.2-30.5-51.8C23,134.6,16,120.6,13.7,115.6
					c-0.8-1.5-1.2-3.1-1.3-4.8c0.1-1.7,0.5-3.3,1.3-4.8c1-2.3,12.1-24.1,19.1-36.7C42.5,51.9,61,20.5,63.2,17.7
					c1.5-2,2.1-2.6,4.4-2.8c3-0.3,15.7-0.4,21.7-0.4c7,0,18.7,0.1,21.4,0.4h0.3c1.8,0.2,2.6,0.3,4.4,2.7
					c2.1,2.8,20.3,33.3,30.5,51.8c7.5,13.5,16.2,30.8,19.1,36.7c0.8,1.5,1.2,3.1,1.3,4.8C166.2,112.5,165.8,114.1,165,115.6"/>
				<g>
					<polygon class="st41" points="557.2,88.9 557.2,96.9 540.6,96.9 540.6,132 529.3,132 529.3,96.9 512.7,96.9 512.7,88.9 					
						"/>
					<polygon class="st41" points="517.5,124 517.5,132 481.8,132 481.8,88.9 493,88.9 493,124 					"/>
					<polygon class="st41" points="301.4,124 301.4,132 263.9,132 263.9,88.9 300.6,88.9 300.6,96.9 275.1,96.9 275.1,106.4 
						298.4,106.4 298.4,114.1 275.1,114.1 275.1,124 					"/>
					<path class="st41" d="M243.8,116c4.8-2.6,7.8-7.7,7.8-13.1c0-4.5-1.3-8-4-10.3c-3.2-2.6-7.6-3.7-15-3.7h-25.7l-0.5,2.6
						c0,0,0.5,0.8,1,1.7c0.6,0.8,0.8,1.7,0.7,2.7V132h11.2v-13.8h13.9l7.5,13.8h12.4L243.8,116z M238.1,109
						c-0.9,0.9-2.2,1.4-3.5,1.3h-15.3V97.1h12.1c3.6,0,5.5,0.4,6.8,1.5s1.9,2.6,1.9,4.8C240.2,105.5,239.5,107.5,238.1,109"/>
					<path class="st41" d="M348.4,88.9v28.6c-2.6-3.3-5.4-6.5-10-11.6c-3.8-4.2-11.7-12.7-15.7-17h-10.9l-0.5,2.6c0,0,0.5,0.8,1,1.7
						c0.4,0.6,0.7,1.3,0.7,2.1v36.8h10.1v-28.7c2,2.7,5.6,6.8,8,9.4c4.8,5.2,12,13.2,17.6,19.2h9.7V88.9L348.4,88.9z"/>
					<path class="st41" d="M458.3,88.9v26.4c0,2.9-0.6,4.7-2,6c-1.8,1.7-4.8,2.5-9.1,2.5s-7.5-0.8-9.3-2.5c-1.4-1.3-2-3.1-2-6V88.9
						h-12.5l-0.5,2.6c0,0,0.5,0.8,1,1.7c0.4,0.6,0.7,1.3,0.7,2c0,0.1,0,20.5,0,20.5c0,11.3,7.6,17,22.4,17h0.3c14.8,0,22-5.6,22-17
						V88.9H458.3z"/>
					<path class="st41" d="M399.6,88.9h-14c-4.2,8.8-11.7,25-18.6,43.2h11.3c0.9-2.4,1.9-5,2.8-7.5h23c1,2.5,1.9,5,2.8,7.5h11.3
						C411.2,113.9,403.8,97.7,399.6,88.9 M384.3,116.4c3-7.3,5.9-14.3,8.3-19.7c2.4,5.4,5.4,12.3,8.3,19.7H384.3z"/>
					<path class="st41" d="M218.8,153c6.8,0,9.6,2.5,9.6,8.5s-2.9,8.4-9.6,8.4h-7.5v10.6H208v-24.9c0-0.3-0.1-0.4-0.4-0.5l-1.2-0.5
						l0.3-1.5L218.8,153z M211.3,167.3h7.3c4.7,0,6.6-1.7,6.6-5.8s-1.9-5.8-6.6-5.8h-7.3V167.3z"/>
					<path class="st41" d="M244.9,178.5c-1.2,1.7-3.5,2.5-6.7,2.5c-5.2,0-7.6-1.8-7.6-5.9s2.4-5.8,8-5.8c2,0,3.9,0.3,5.8,0.9v-2.7
						c0-3.4-1.7-4.8-5.9-4.8c-2.1,0-4.2,0.3-6.1,1v-2.6c2.1-0.6,4.3-0.9,6.5-0.9c6.1,0,8.7,2.2,8.7,7.6v10c0,0.3,0,0.4,0.3,0.6
						l1.2,0.5l-0.3,1.7h-3.4c-0.2,0-0.3,0-0.4-0.3L244.9,178.5z M244.4,172.5c-1.7-0.6-3.5-0.9-5.3-0.9c-3.7,0-5.3,1-5.3,3.5
						s1.5,3.5,5,3.5c3.9,0,5.6-1.4,5.6-4.3L244.4,172.5z"/>
					<path class="st41" d="M260.5,160.1c2.2,0,4.3,0.3,6.4,0.9l-0.5,2.5c-1.8-0.6-3.8-0.9-5.7-0.9c-3.4,0-4.9,1.1-4.9,3.1
						c0,4.8,12,1.2,12,9.2c0,4-2.9,6-8,6c-2.4,0-4.7-0.3-7-1v-2.7c2.2,0.7,4.4,1.1,6.7,1.1c3.5,0,5.1-1.3,5.1-3.4
						c0-5.4-12-1.3-12-9.2C252.5,162,255.5,160.1,260.5,160.1"/>
					<path class="st41" d="M279.2,160.1c2.2,0,4.3,0.3,6.4,0.9l-0.5,2.5c-1.8-0.6-3.8-0.9-5.7-0.9c-3.4,0-4.9,1.1-4.9,3.1
						c0,4.8,12,1.2,12,9.2c0,4-2.9,6-8,6c-2.4,0-4.7-0.3-7-1v-2.7c2.2,0.7,4.4,1.1,6.7,1.1c3.5,0,5.1-1.3,5.1-3.4
						c0-5.4-12-1.3-12-9.2C271.3,162,274.3,160.1,279.2,160.1"/>
					<path class="st41" d="M290.5,160.6h4.1c0.3,0,0.4,0.1,0.4,0.4v19.5h-3.3v-17.1c0-0.3,0-0.4-0.3-0.6l-1.2-0.5L290.5,160.6z
						 M293.3,152.5c1.5,0,2.1,0.6,2.1,2.1s-0.7,2-2.1,2s-2.1-0.6-2.1-2S291.8,152.5,293.3,152.5"/>
					<path class="st41" d="M309.8,160.1c6.9,0,9.8,3.1,9.8,10.4s-2.9,10.4-9.8,10.4s-9.8-3.1-9.8-10.4S302.9,160.1,309.8,160.1
						 M309.8,178.4c4.5,0,6.4-2.2,6.4-7.8s-1.9-7.8-6.4-7.8s-6.5,2.2-6.5,7.8S305.2,178.4,309.8,178.4"/>
					<path class="st41" d="M341.6,177.7c0,0.3,0,0.4,0.3,0.6l1.2,0.5l-0.3,1.7h-4.1c-0.3,0-0.4-0.1-0.4-0.4v-12c0-3.9-1.4-5.3-5-5.3
						c-2.1,0-4.1,0.5-5.9,1.5v16.2h-3.3v-17.1c0-0.3,0-0.4-0.3-0.6l-1.2-0.5l0.3-1.7h4.1c0.3,0,0.4,0.1,0.4,0.4v1.4
						c1.8-1.6,4.1-2.4,6.5-2.3c5.5,0,7.7,2.3,7.7,7.9L341.6,177.7z"/>
					<path class="st41" d="M361.9,160.6h6v2.6h-6v17.3h-3.3v-16.8c0-0.4,0-0.5-0.4-0.6l-2.3-0.7l0.3-1.8h2.5V158
						c0-4.8,2.1-6.8,7-6.8c1.3,0,2.5,0.1,3.7,0.5l-0.5,2.5c-0.9-0.3-1.9-0.5-2.8-0.5c-2.9,0-4.1,1.2-4.1,4.1L361.9,160.6z"/>
					<path class="st41" d="M379.7,160.1c6.9,0,9.8,3.1,9.8,10.4s-2.9,10.4-9.8,10.4s-9.8-3.1-9.8-10.4S372.9,160.1,379.7,160.1
						 M379.7,178.4c4.5,0,6.4-2.2,6.4-7.8s-1.9-7.8-6.4-7.8s-6.5,2.2-6.5,7.8S375.1,178.4,379.7,178.4"/>
					<path class="st41" d="M394.2,163.4c0-0.3,0-0.4-0.3-0.6l-1.2-0.5l0.3-1.7h4.1c0.3,0,0.4,0.1,0.4,0.4v2c1.6-2,4-3,6.5-2.9
						c0.6,0,1.3,0.1,1.9,0.2l-0.6,2.9c-0.6-0.2-1.2-0.2-1.8-0.2c-2.2-0.1-4.4,0.7-6,2.2v15.4h-3.3L394.2,163.4z"/>
					<path class="st41" d="M420.8,177.7c0,0.3,0,0.4,0.3,0.6l1.2,0.5l-0.3,1.7h-4.1c-0.3,0-0.4-0.1-0.4-0.4v-25.6
						c0-0.3,0-0.4-0.3-0.6l-1.2-0.5l0.3-1.7h4.1c0.3,0,0.4,0.1,0.4,0.4L420.8,177.7z"/>
					<path class="st41" d="M427,160.6h4.1c0.3,0,0.4,0.1,0.4,0.4v19.5h-3.3v-17.1c0-0.3,0-0.4-0.3-0.6l-1.2-0.5L427,160.6z
						 M429.8,152.5c1.5,0,2.1,0.6,2.1,2.1s-0.6,2-2.1,2s-2.1-0.6-2.1-2S428.3,152.5,429.8,152.5"/>
					<path class="st41" d="M442.5,160.6h6v2.6h-6v17.3h-3.3v-16.8c0-0.4,0-0.5-0.4-0.6l-2.3-0.7l0.3-1.8h2.5V158
						c0-4.8,2.1-6.8,7-6.8c1.3,0,2.5,0.1,3.7,0.5l-0.5,2.5c-0.9-0.3-1.9-0.5-2.8-0.5c-2.9,0-4.1,1.2-4.1,4.1L442.5,160.6z"/>
					<path class="st41" d="M459.9,160.1c6.1,0,8.6,3,8.6,10.1c0,0.4,0,0.8,0,1.3h-14.8c0.2,5,2.3,6.9,7.7,6.9c2.2,0,4.3-0.3,6.4-1
						v2.6c-2.1,0.7-4.4,1-6.6,0.9c-7.5,0-10.7-3.1-10.7-10.4S453.3,160.1,459.9,160.1 M453.7,169.3h11.7c-0.1-4.8-1.6-6.8-5.4-6.8
						C455.7,162.6,453.9,164.6,453.7,169.3"/>
				</g>
			</g>
		</g>
		<g>
			<path class="st42" d="M246.2,250.7h26.2c1,1.4,0.6,2.9,0.6,4.3c0,19.2,0,38.4,0,57.6c0,11.9,11.5,18.3,22.1,12.4
				c2-1.1,1.4-2.8,1.4-4.3c0-21.8,0-43.6,0-65.3v-4.7H323c1,1,0.6,2.5,0.6,3.8c0,26.4,0,52.7,0.1,79.1c0,3.1-1,4.6-3.9,5.6
				c-16.6,6-34.5,7.3-51.8,3.7c-13.2-2.7-21.4-12.1-21.7-25.7C245.8,295.3,246.2,273.2,246.2,250.7z"/>
			<path class="st42" d="M154.6,255.8c16.7-6.5,33.1-9.3,50.1-5c12.5,3.2,20.4,12.5,20.9,25.4c0.6,20,0.2,40,0.4,60
				c0,2.2-1.5,2.6-3,3.2c-7.3,3.1-15,4.4-22.8,5c-10.2,0.9-20.3,0.8-30.2-2c-11.9-3.4-19.3-11.4-20.5-22c-1.5-13.8,3.3-23.5,15-29.6
				c10.2-5.4,21.4-7.2,32.8-8.4c0.9-0.1,1.9-0.2,2.7-0.2c2.5-9.3-1.6-15.4-11-16.1c-4.8-0.4-9.7-0.2-14.5,0.8c-4.7,1-9,2.7-14,4.4
				C158.6,266.2,156.7,261.3,154.6,255.8z M200.7,294.7c-5.9,0.6-11.2,1.3-16.2,3.5c-7.9,3.5-11.6,11.5-9.7,20.5
				c1.6,7.3,6.6,10.8,15.7,11c1.8,0,3.5-0.1,5.3-0.3c3.3-0.3,5.3-1.4,5-5.5c-0.4-5.5-0.1-11.1-0.1-16.6L200.7,294.7z"/>
			<path class="st42" d="M494.3,298.4l-54.8,7.8c-0.4,11,8.1,19.6,19.6,20c8.9,0.4,17.9-1.2,26-4.9c2,5.5,4,10.9,6.1,16.7
				c-5.4,3.1-11.3,4.5-17.2,5.6c-9.1,1.6-18.3,2.2-27.4,0.2c-15.4-3.3-25.7-12.6-30.5-27.7c-4.1-12.7-4.1-26.4-0.1-39.1
				c5.6-18.2,19.1-27.8,38.1-28c15.5-0.2,27.8,5,35,19.4c3.2,6.4,4.5,13.3,4.9,20.4C494.5,291.7,494.3,294.8,494.3,298.4z
				 M469.1,288.2c0.3-4.4-0.2-8.7-1.5-12.9c-1.8-6.1-5.7-10.1-12.3-10.5c-6-0.4-10.8,2-13.9,7.2c-3.8,6.4-4.2,13.4-3.9,20.9
				L469.1,288.2z"/>
			<path class="st42" d="M391.4,270.9c-3.5-2.4-7.5-3.9-11.7-4.6c-5.8-0.8-10.5,1.3-12.3,5.7c-1.9,4.8-0.3,9.3,4.8,12.9
				c3,2.1,6.5,3.3,9.8,4.9c7.7,3.8,14.7,8.4,17.3,17.1c3.9,12.7-1.2,26.1-12.9,32.4c-16.1,8.7-32.2,6.3-48.6-1
				c2.4-6,4.7-11.5,7-17.4c5.5,3.3,11,5.4,17.1,5.2c5.3-0.2,9.3-3.2,10.5-7.5c1.2-4.6-0.7-9.4-5.1-12.1c-2.3-1.3-4.8-2.5-7.2-3.6
				c-1.9-1-4-1.7-5.8-2.8c-9.2-5.1-14.5-12.7-14-23.7c0.6-11,5.5-19.4,15.4-23.9c14.3-6.5,28.4-4.1,42.3,2.9L391.4,270.9z"/>
			<path class="st42" d="M560.8,249.5c-1.6,6.1-3.2,12.2-4.9,18.4c-4.9-0.9-9.4-2.4-14.2-1.3c-2.9,0.6-3.6,1.8-3.6,4.6
				c0.1,22.3,0.1,44.6,0.1,66.9v4.7h-26.7c-0.8-1.6-0.5-3.3-0.5-4.9c0-26,0.1-51.9-0.1-77.9c0-3.7,1.3-5.1,4.5-6.3
				C526.9,249.6,547.2,247.5,560.8,249.5z"/>
		</g>
	</g>
</g>
</svg>
