<svg xmlns="http://www.w3.org/2000/svg" xmlns:xlink="http://www.w3.org/1999/xlink" viewBox="0 0 1178.09 238.32"><defs><style>.cls-1{isolation:isolate;}.cls-2{fill:url(#Degradado_sin_nombre_33);}.cls-3{clip-path:url(#clip-path);}.cls-4{fill:none;}.cls-5{fill:url(#Degradado_sin_nombre_27);}.cls-6{clip-path:url(#clip-path-2);}.cls-7{fill:url(#Degradado_sin_nombre_21);}.cls-8{fill:url(#Degradado_sin_nombre_20);}.cls-9{fill:#0f0d08;}.cls-10{fill:#ffd400;}.cls-11{clip-path:url(#clip-path-3);}.cls-12{fill:url(#Degradado_sin_nombre_80);}.cls-13{mask:url(#mask);}.cls-14{clip-path:url(#clip-path-4);}.cls-15{clip-path:url(#clip-path-5);}.cls-16{fill:url(#Degradado_sin_nombre_79);}.cls-17{clip-path:url(#clip-path-6);}.cls-18{fill:url(#Degradado_sin_nombre_78);}.cls-19{clip-path:url(#clip-path-7);}.cls-20{clip-path:url(#clip-path-8);}.cls-21{fill:url(#Degradado_sin_nombre_78-2);}.cls-22{clip-path:url(#clip-path-9);}.cls-23{fill:url(#Degradado_sin_nombre_77);}.cls-24{clip-path:url(#clip-path-10);}.cls-25{fill:url(#Degradado_sin_nombre_76);}.cls-26{clip-path:url(#clip-path-11);}.cls-27{fill:url(#Degradado_sin_nombre_75);}.cls-28{clip-path:url(#clip-path-12);}.cls-29{fill:url(#Degradado_sin_nombre_74);}.cls-30{clip-path:url(#clip-path-13);}.cls-31{mask:url(#mask-2);}.cls-32{fill:url(#Degradado_sin_nombre_73);}.cls-33{clip-path:url(#clip-path-14);}.cls-34{fill:url(#Degradado_sin_nombre_72);}.cls-35{clip-path:url(#clip-path-15);}.cls-36{fill:url(#Degradado_sin_nombre_71);}.cls-37{clip-path:url(#clip-path-16);}.cls-38{fill:url(#Degradado_sin_nombre_70);}.cls-39{clip-path:url(#clip-path-17);}.cls-40{fill:url(#Degradado_sin_nombre_69);}.cls-41{clip-path:url(#clip-path-18);}.cls-42{fill:url(#Degradado_sin_nombre_68);}.cls-43{clip-path:url(#clip-path-19);}.cls-44{fill:url(#Degradado_sin_nombre_67);}.cls-45{clip-path:url(#clip-path-20);}.cls-46{fill:url(#Degradado_sin_nombre_66);}.cls-47{fill:#fff;}.cls-48{clip-path:url(#clip-path-21);}.cls-49{mask:url(#mask-3);}.cls-50{clip-path:url(#clip-path-22);}.cls-51{clip-path:url(#clip-path-23);}.cls-52{mask:url(#mask-4);}.cls-53{fill:url(#Degradado_sin_nombre_19);}.cls-54{fill:#010000;}.cls-55{fill:#767476;}.cls-56{filter:url(#luminosity-invert-noclip);}</style><linearGradient id="Degradado_sin_nombre_33" x1="-2844.48" y1="-209.54" x2="-2840.15" y2="-209.54" gradientTransform="matrix(0, -24.39, -24.39, 0, -5033.46, -69181.06)" gradientUnits="userSpaceOnUse"><stop offset="0" stop-color="#fff"/><stop offset="0.85" stop-color="#fff"/><stop offset="0.87" stop-color="#fafafa"/><stop offset="0.89" stop-color="#ebebeb"/><stop offset="0.91" stop-color="#d2d2d2"/><stop offset="0.93" stop-color="#afafaf"/><stop offset="0.95" stop-color="#838282"/><stop offset="0.97" stop-color="#4c4b4b"/><stop offset="1" stop-color="#0d0c0c"/><stop offset="1" stop-color="#010000"/></linearGradient><clipPath id="clip-path"><rect class="cls-4" x="33.14" y="100.22" width="60.94" height="48.31" transform="translate(-75.92 131.22) rotate(-65.72)"/></clipPath><linearGradient id="Degradado_sin_nombre_27" x1="-3005.73" y1="-134.55" x2="-3001.4" y2="-134.55" gradientTransform="matrix(0, -12.41, -12.41, 0, -1606.61, -37162.73)" gradientUnits="userSpaceOnUse"><stop offset="0" stop-color="#ccc"/><stop offset="0.01" stop-color="#ccc"/><stop offset="0.11"/><stop offset="1"/></linearGradient><clipPath id="clip-path-2"><path class="cls-4" d="M90.5,98.3a16,16,0,1,0,16-16,16,16,0,0,0-16,16"/></clipPath><radialGradient id="Degradado_sin_nombre_21" cx="-2182" cy="-317.34" r="4.33" gradientTransform="matrix(3.7, 0, 0, -3.7, 8184.74, -1076.55)" gradientUnits="userSpaceOnUse"><stop offset="0" stop-color="#fff"/><stop offset="0.17" stop-color="#fff"/><stop offset="0.27" stop-color="#c4c4c4"/><stop offset="0.37" stop-color="#909090"/><stop offset="0.48" stop-color="#646464"/><stop offset="0.58" stop-color="#414040"/><stop offset="0.68" stop-color="#252424"/><stop offset="0.79" stop-color="#111010"/><stop offset="0.89" stop-color="#050404"/><stop offset="1" stop-color="#010000"/></radialGradient><radialGradient id="Degradado_sin_nombre_20" cx="-2623.07" cy="-175.37" r="4.33" gradientTransform="matrix(12.42, 0, 0, -12.42, 32675.75, -2079.16)" gradientUnits="userSpaceOnUse"><stop offset="0" stop-color="#fff"/><stop offset="0.19" stop-color="#a2a2a2"/><stop offset="0.39" stop-color="#4b4b4b"/><stop offset="0.52" stop-color="#151515"/><stop offset="0.59"/><stop offset="1"/></radialGradient><clipPath id="clip-path-3" transform="translate(32.27 22.33)"><path class="cls-4" d="M76.62,143.45C68.77,128.37,63.49,118,56,101.26A9,9,0,0,1,55,97.44a9.3,9.3,0,0,1,1.1-3.77C63.49,77,68.78,66.56,76.63,51.48c.45-.86.81-1.43,1.32-1.44h0c.52,0,.89.57,1.35,1.44C87.15,66.56,92.43,77,99.88,93.67A9,9,0,0,1,101,97.49a9,9,0,0,1-1.09,3.78c-7.45,16.69-12.74,27.1-20.58,42.18-.45.87-.83,1.44-1.34,1.45s-.87-.58-1.33-1.45M56.61,4.11A3.21,3.21,0,0,0,54,5.72C52.31,8.26,34.82,37,23.7,57.23,15.8,71.58,8,86.79,4.69,93.81a8.81,8.81,0,0,0-1,3.66,8.94,8.94,0,0,0,1,3.66c3.32,7,11.11,22.23,19,36.58,11.12,20.23,28.54,49,30.34,51.51a9.57,9.57,0,0,0,.76.94A2.84,2.84,0,0,0,56,191a6.84,6.84,0,0,0,2.06,0,10.43,10.43,0,0,1,1.25,0c4.49.15,11.37.31,18.66.31,9,0,19.61-.23,21.2-.42l.26,0a3.71,3.71,0,0,0,1.13-.25c.36-.16.67-.45,1.42-1.48,1.79-2.47,19.13-31.13,30.25-51.36,7.9-14.35,15.69-29.55,19-36.58a9.55,9.55,0,0,0,1-3.89,8.07,8.07,0,0,0-1-3.43c-3.32-7-11.11-22.23-19-36.58C121.1,37,103.68,8.19,101.89,5.72a6.72,6.72,0,0,0-1.28-1.4A2.32,2.32,0,0,0,99.93,4a7.58,7.58,0,0,0-2.17,0,10.46,10.46,0,0,1-1.25,0C92.79,3.85,85.32,3.7,78,3.7c-9,0-19.94.27-21.35.41"/></clipPath><linearGradient id="Degradado_sin_nombre_80" x1="-2829.38" y1="-168.29" x2="-2825.04" y2="-168.29" gradientTransform="matrix(0, -43.28, -43.28, 0, -7172.74, -122234.79)" gradientUnits="userSpaceOnUse"><stop offset="0" stop-color="#ececef"/><stop offset="0.69" stop-color="#fff"/><stop offset="1" stop-color="#abacb1"/></linearGradient><filter id="luminosity-invert-noclip" x="3.68" y="3.7" width="148.56" height="187.55" filterUnits="userSpaceOnUse" color-interpolation-filters="sRGB"><feColorMatrix values="-1 0 0 0 1 0 -1 0 0 1 0 0 -1 0 1 0 0 0 1 0" result="invert"/><feFlood flood-color="#fff" result="bg"/><feBlend in="invert" in2="bg"/></filter><mask id="mask" x="35.95" y="26.03" width="148.56" height="187.55" maskUnits="userSpaceOnUse"><g class="cls-56"><g transform="translate(32.27 22.33)"><rect x="3.68" y="3.7" width="148.56" height="187.55"/><g class="cls-1"><rect class="cls-2" x="3.68" y="98.91" width="148.56" height="92.33"/></g></g></g></mask><clipPath id="clip-path-4" transform="translate(32.27 22.33)"><rect class="cls-4" x="3.68" y="3.7" width="148.56" height="187.55"/></clipPath><clipPath id="clip-path-5" transform="translate(32.27 22.33)"><path class="cls-4" d="M78,50c.52,0,.89.57,1.35,1.45C87.15,66.56,92.43,77,99.88,93.67A9,9,0,0,1,101,97.49a9,9,0,0,1-1.09,3.78c-7.45,16.69-12.74,27.1-20.58,42.18-.45.87-.83,1.44-1.34,1.45s-.87-.58-1.33-1.45C68.77,128.37,63.49,118,56,101.26A9,9,0,0,1,55,97.44a9.3,9.3,0,0,1,1.1-3.77C63.49,77,68.78,66.56,76.63,51.48c.45-.86.81-1.43,1.32-1.44ZM56.61,4.11A3.21,3.21,0,0,0,54,5.72C52.31,8.26,34.82,37,23.7,57.23,15.8,71.58,8,86.79,4.69,93.81a8.81,8.81,0,0,0-1,3.66,8.94,8.94,0,0,0,1,3.66c3.32,7,11.11,22.23,19,36.58,11.12,20.23,28.54,49,30.34,51.51a9.57,9.57,0,0,0,.76.94A2.84,2.84,0,0,0,56,191a6.77,6.77,0,0,0,2,0,10.61,10.61,0,0,1,1.26,0c4.42.15,11.18.31,18.36.31H78c9,0,19.61-.23,21.2-.42l.26,0a4.05,4.05,0,0,0,1.13-.25c.36-.16.67-.45,1.42-1.48,1.79-2.47,19.13-31.13,30.25-51.36,7.9-14.35,15.69-29.55,19-36.58a9.55,9.55,0,0,0,1-3.89,8.07,8.07,0,0,0-1-3.43c-3.32-7-11.11-22.23-19-36.58C121.1,37,103.68,8.19,101.89,5.72a6.72,6.72,0,0,0-1.28-1.4A2.32,2.32,0,0,0,99.93,4a7.58,7.58,0,0,0-2.17,0,10.46,10.46,0,0,1-1.25,0C92.79,3.85,85.32,3.7,78,3.7c-9,0-19.94.27-21.35.41"/></clipPath><radialGradient id="Degradado_sin_nombre_79" cx="-2703.96" cy="-147.96" r="4.33" gradientTransform="matrix(21.58, 0, 0, -21.66, 58448.8, -3130.26)" gradientUnits="userSpaceOnUse"><stop offset="0" stop-color="#fff"/><stop offset="0.4" stop-color="#fff"/><stop offset="1" stop-color="#abacb1"/></radialGradient><clipPath id="clip-path-6" transform="translate(32.27 22.33)"><path class="cls-4" d="M47.6,97.42c-.65.6-1.77,1.2-4.52,1.2L10,98.59c-1.45,0-3.39-.11-3.39,2.19,0,1.35,1.17,4.07,3.57,8.77,13.13,25.7,27.72,51.36,43.37,76.44,0,0,2.38,3.85,2.63,4.16a1.24,1.24,0,0,0,1.12.43,416.06,416.06,0,0,0,17.94-38c-8.92-16.45-17.15-32.71-24.85-49,0,0-2.19-4.1-2.27-5.71a2.78,2.78,0,0,1,0-.5c0-.17,0-.25-.06-.25s-.22.14-.42.33"/></clipPath><linearGradient id="Degradado_sin_nombre_78" x1="-2848.87" y1="-221.8" x2="-2844.53" y2="-221.8" gradientTransform="matrix(0, -21.32, -21.32, 0, -4655.4, -60522.06)" gradientUnits="userSpaceOnUse"><stop offset="0" stop-color="#ececef"/><stop offset="0.01" stop-color="#ececef"/><stop offset="0.34" stop-color="#bcbdc2"/><stop offset="0.53" stop-color="#8a8a8f"/><stop offset="0.69" stop-color="#5b5a5f"/><stop offset="0.85" stop-color="#434144"/><stop offset="0.9" stop-color="#393739"/><stop offset="0.95" stop-color="#2d2a2b"/><stop offset="0.96" stop-color="#302e2f"/><stop offset="0.97" stop-color="#3b383a"/><stop offset="0.98" stop-color="#4c4a4d"/><stop offset="0.99" stop-color="#656467"/><stop offset="1" stop-color="#848489"/><stop offset="1" stop-color="#89898e"/></linearGradient><clipPath id="clip-path-7" transform="translate(32.27 22.33)"><path class="cls-4" d="M57.26,190.58h0Zm0,0Z"/></clipPath><clipPath id="clip-path-8" transform="translate(32.27 22.33)"><polygon class="cls-4" points="57.26 190.58 57.26 190.58 57.27 190.58 57.26 190.58"/></clipPath><linearGradient id="Degradado_sin_nombre_78-2" x1="57.26" y1="190.58" x2="57.27" y2="190.58" gradientTransform="matrix(0, 0, 0, 0, -2199.24, -607.08)" xlink:href="#Degradado_sin_nombre_78"/><clipPath id="clip-path-9" transform="translate(32.27 22.33)"><path class="cls-4" d="M150.4,97.7c-.35.37-1.35.91-3.59.91H119.53c-12.5,0-11.24-.34-14.49,6.28-1.44,2.94-2.93,6.4-4.45,9.25C89.66,137,63,183,59.42,188.65c-1.36,2.15-1.55,2.26-.57,2.26,0,0,9,.33,19.11.33,15.72,0,21.34-.43,21.34-.43,9.12-14.19,30.85-50.15,46.37-81.31,3.58-7.18,5.37-10.3,5.19-11.83,0-.12-.06-.16-.13-.16a.6.6,0,0,0-.33.19"/></clipPath><linearGradient id="Degradado_sin_nombre_77" x1="-2848.83" y1="-224" x2="-2844.5" y2="-224" gradientTransform="matrix(0, -21.34, -21.34, 0, -4642.84, -60574.6)" gradientUnits="userSpaceOnUse"><stop offset="0" stop-color="#ececef"/><stop offset="0.01" stop-color="#ececef"/><stop offset="0.34" stop-color="#bcbdc2"/><stop offset="0.53" stop-color="#8a8a8f"/><stop offset="0.69" stop-color="#5b5a5f"/><stop offset="0.85" stop-color="#434144"/><stop offset="0.9" stop-color="#393739"/><stop offset="0.95" stop-color="#2d2a2b"/><stop offset="0.96" stop-color="#302e2f"/><stop offset="0.97" stop-color="#3b383a"/><stop offset="0.98" stop-color="#4c4a4d"/><stop offset="0.99" stop-color="#656467"/><stop offset="1" stop-color="#848489"/><stop offset="1" stop-color="#89898e"/></linearGradient><clipPath id="clip-path-10" transform="translate(32.27 22.33)"><path class="cls-4" d="M98.52,4.37c-.64,0-1.12.52-2,1.91-7.71,12-34.34,62.11-45.21,85.5-1.33,2.86-2,4.26-2,5.65H55a9.3,9.3,0,0,1,1.1-3.77C63.49,77,68.78,66.56,76.63,51.48c.45-.86.81-1.43,1.32-1.44l2.21-6.42C87.83,24.49,98.58,4.37,98.58,4.37h-.06"/></clipPath><linearGradient id="Degradado_sin_nombre_76" x1="-2845.24" y1="-222.2" x2="-2840.9" y2="-222.2" gradientTransform="matrix(0, -21.48, -21.48, 0, -4665.96, -60987.95)" gradientUnits="userSpaceOnUse"><stop offset="0" stop-color="#5b5a5f"/><stop offset="0.01" stop-color="#504e52"/><stop offset="0.02" stop-color="#464448"/><stop offset="0.04" stop-color="#434144"/><stop offset="0.11" stop-color="#403e41"/><stop offset="0.15" stop-color="#383639"/><stop offset="0.19" stop-color="#2a282a"/><stop offset="0.23" stop-color="#151415"/><stop offset="0.25" stop-color="#010000"/><stop offset="1" stop-color="#010000"/></linearGradient><clipPath id="clip-path-11" transform="translate(32.27 22.33)"><path class="cls-4" d="M78,50h0c.52,0,.89.57,1.35,1.44C87.15,66.56,92.43,77,99.88,93.67A9,9,0,0,1,101,97.49h5.65c0-1.39-.65-2.75-2-5.58C97.11,76,89.25,60.39,80.16,43.62Z"/></clipPath><linearGradient id="Degradado_sin_nombre_75" x1="-2870.6" y1="-301.29" x2="-2866.27" y2="-301.29" gradientTransform="matrix(0, -12.43, -12.43, 0, -3621.36, -35569.77)" gradientUnits="userSpaceOnUse"><stop offset="0" stop-color="#949398"/><stop offset="0.16" stop-color="#8f8e93"/><stop offset="0.34" stop-color="#828085"/><stop offset="0.54" stop-color="#6b696d"/><stop offset="0.75" stop-color="#4c4a4d"/><stop offset="0.8" stop-color="#434144"/><stop offset="0.83" stop-color="#3f3d40"/><stop offset="0.86" stop-color="#333133"/><stop offset="0.89" stop-color="#1f1d1f"/><stop offset="0.92" stop-color="#030202"/><stop offset="0.92" stop-color="#010000"/><stop offset="1" stop-color="#010000"/></linearGradient><clipPath id="clip-path-12" transform="translate(32.27 22.33)"><path class="cls-4" d="M51.27,103.08c7.51,16,15.34,31.48,24.43,48.26L78,144.9c-.52,0-.87-.58-1.33-1.45C68.77,128.37,63.49,118,56,101.26A9,9,0,0,1,55,97.44H49.29c0,1.4.63,2.8,2,5.65"/></clipPath><linearGradient id="Degradado_sin_nombre_74" x1="-2873.9" y1="-299.42" x2="-2869.57" y2="-299.42" gradientTransform="matrix(0, -12.44, -12.44, 0, -3628.7, -35575.03)" gradientUnits="userSpaceOnUse"><stop offset="0" stop-color="#d0d0d4"/><stop offset="0.36" stop-color="#d0d0d4"/><stop offset="0.49" stop-color="#cbcbcf"/><stop offset="0.64" stop-color="#bebec2"/><stop offset="0.8" stop-color="#a7a7ac"/><stop offset="0.96" stop-color="#89898e"/><stop offset="1" stop-color="#5b5a5f"/></linearGradient><clipPath id="clip-path-13" transform="translate(32.27 22.33)"><path class="cls-4" d="M51.27,103.08c7.51,16,15.34,31.48,24.43,48.26L78,144.9c-.52,0-.87-.58-1.33-1.45C68.77,128.37,63.49,118,56,101.26A9,9,0,0,1,55,97.44H49.29c0,1.41.63,2.81,2,5.66"/></clipPath><mask id="mask-2" x="33.07" y="83.1" width="125.62" height="127.21" maskUnits="userSpaceOnUse"><g transform="translate(32.27 22.33)"><g class="cls-3"><rect class="cls-5" x="15.04" y="77.38" width="97.15" height="93.99" transform="translate(-75.92 131.22) rotate(-65.72)"/></g></g></mask><linearGradient id="Degradado_sin_nombre_73" x1="-3005.73" y1="-134.54" x2="-3001.4" y2="-134.54" gradientTransform="matrix(0, -12.41, -12.41, 0, -1606.62, -37162.72)" gradientUnits="userSpaceOnUse"><stop offset="0" stop-color="#f6f7f7"/><stop offset="0.01" stop-color="#f6f7f7"/><stop offset="0.11" stop-color="#f4f3f4"/><stop offset="1" stop-color="#f4f3f4"/></linearGradient><clipPath id="clip-path-14" transform="translate(32.27 22.33)"><path class="cls-4" d="M101,97.49a9,9,0,0,1-1.09,3.78c-7.45,16.69-12.74,27.1-20.58,42.18-.45.87-.83,1.44-1.34,1.45l-2.25,6.44a411.34,411.34,0,0,1-18.44,39.24c.63,0,1.37-.73,2.24-2.05.22-.36.53-.86.9-1.49,5.81-9.89,33.82-61.58,44.18-83.86,1.33-2.87,2-4.3,2-5.69H101"/></clipPath><linearGradient id="Degradado_sin_nombre_72" x1="-2848.56" y1="-222.46" x2="-2844.23" y2="-222.46" gradientTransform="matrix(0, -21.48, -21.48, 0, -4664.58, -60977.98)" gradientUnits="userSpaceOnUse"><stop offset="0" stop-color="#fff"/><stop offset="0.26" stop-color="#f9f9f9"/><stop offset="0.62" stop-color="#e8e8ea"/><stop offset="0.97" stop-color="#d0d0d4"/><stop offset="0.99" stop-color="#949398"/><stop offset="1" stop-color="#949398"/></linearGradient><clipPath id="clip-path-15" transform="translate(32.27 22.33)"><path class="cls-4" d="M0,97.47a12.3,12.3,0,0,0,1.36,5.23c2.59,5.62,9.83,19.9,19.11,36.79C30.63,157.92,49,188.58,51.08,191.38a8.69,8.69,0,0,0,2.25,2.29l1.47-3.51a9.57,9.57,0,0,1-.76-.94c-1.8-2.47-19.22-31.28-30.34-51.51-7.9-14.35-15.69-29.56-19-36.58a8.94,8.94,0,0,1-1-3.66Z"/></clipPath><linearGradient id="Degradado_sin_nombre_71" x1="-2847.46" y1="-217.1" x2="-2843.13" y2="-217.1" gradientTransform="matrix(0, -22.2, -22.2, 0, -4759.74, -62994.74)" gradientUnits="userSpaceOnUse"><stop offset="0" stop-color="#89898e"/><stop offset="0.14" stop-color="#838388"/><stop offset="0.57" stop-color="#76767b"/><stop offset="0.97" stop-color="#727277"/><stop offset="0.99" stop-color="#97979c"/><stop offset="1" stop-color="#a7a8ad"/></linearGradient><clipPath id="clip-path-16" transform="translate(32.27 22.33)"><path class="cls-4" d="M53.33,193.67a6.09,6.09,0,0,0,3,.81c2.74.24,14.73.44,21.62.44s19.84-.28,21.62-.44A7.48,7.48,0,0,0,102,194l-1.45-3.42a3.71,3.71,0,0,1-1.13.25l-.26,0c-1.59.19-12.16.42-21.2.42-7.29,0-14.17-.16-18.66-.31a10.43,10.43,0,0,0-1.25,0A6.84,6.84,0,0,1,56,191a2.84,2.84,0,0,1-1.19-.81Z"/></clipPath><linearGradient id="Degradado_sin_nombre_70" x1="-2568.32" y1="-70.32" x2="-2563.99" y2="-70.32" gradientTransform="matrix(0, 9.87, 9.87, 0, 771.74, 25524.29)" gradientUnits="userSpaceOnUse"><stop offset="0" stop-color="#89898e"/><stop offset="0.02" stop-color="#89898e"/><stop offset="0.04" stop-color="#757579"/><stop offset="0.06" stop-color="#605f63"/><stop offset="0.08" stop-color="#535256"/><stop offset="0.1" stop-color="#4f4d51"/><stop offset="1" stop-color="#4f4d51"/></linearGradient><clipPath id="clip-path-17" transform="translate(32.27 22.33)"><path class="cls-4" d="M100.61,4.32a6.72,6.72,0,0,1,1.28,1.4C103.68,8.19,121.1,37,132.22,57.23c7.9,14.35,15.69,29.56,19,36.58a8.07,8.07,0,0,1,1,3.43l3.67.23h0a12.41,12.41,0,0,0-1.37-5.24c-2.77-5.78-11.63-23.22-19.11-36.78-10-18.13-28.44-49-30.58-51.89A7.43,7.43,0,0,0,102,1Z"/></clipPath><linearGradient id="Degradado_sin_nombre_69" x1="-2701.11" y1="-91.8" x2="-2696.78" y2="-91.8" gradientTransform="matrix(0, 21.6, 21.6, 0, 2111.62, 58354.57)" gradientUnits="userSpaceOnUse"><stop offset="0" stop-color="#7f7d82"/><stop offset="1" stop-color="#949398"/></linearGradient><clipPath id="clip-path-18" transform="translate(32.27 22.33)"><path class="cls-4" d="M56.12.48a7.23,7.23,0,0,0-2.25.5l1.45,3.48a3.24,3.24,0,0,1,1.29-.35C58,4,68.92,3.7,78,3.7c7.36,0,14.83.15,18.55.31a10.46,10.46,0,0,0,1.25,0,7.58,7.58,0,0,1,2.17,0,2.32,2.32,0,0,1,.68.35L102,1a7.65,7.65,0,0,0-2.54-.5C96.63.2,84.38,0,78,0,72.31,0,59.19.17,56.12.48"/></clipPath><linearGradient id="Degradado_sin_nombre_68" x1="-3036.99" y1="-113.76" x2="-3032.66" y2="-113.76" gradientTransform="matrix(0, -10.68, -10.68, 0, -1136.59, -32403.16)" gradientUnits="userSpaceOnUse"><stop offset="0" stop-color="#7f7d82"/><stop offset="0.01" stop-color="#7f7d82"/><stop offset="0.02" stop-color="#919095"/><stop offset="0.04" stop-color="#a9a9ae"/><stop offset="0.06" stop-color="#b7b8bd"/><stop offset="0.07" stop-color="#bcbdc2"/><stop offset="0.5" stop-color="#cfd0d3"/><stop offset="1" stop-color="#d0d0d4"/></linearGradient><clipPath id="clip-path-19" transform="translate(32.27 22.33)"><path class="cls-4" d="M51,3.71C48.83,6.47,30.4,37.58,20.49,55.45,13.51,68,2.43,89.84,1.38,92.23A13.13,13.13,0,0,0,0,97.47H3.68a8.81,8.81,0,0,1,1-3.66c3.32-7,11.11-22.23,19-36.58C34.82,37,52.31,8.26,54,5.72a3.25,3.25,0,0,1,1.32-1.26L53.87,1A7.39,7.39,0,0,0,51,3.71"/></clipPath><linearGradient id="Degradado_sin_nombre_67" x1="-2717.2" y1="-190.32" x2="-2712.87" y2="-190.32" gradientTransform="matrix(19.61, 0, 0, -19.61, 53258.08, -3682.19)" gradientUnits="userSpaceOnUse"><stop offset="0" stop-color="#a7a8ad"/><stop offset="0.99" stop-color="#949398"/><stop offset="1" stop-color="#d0d0d4"/></linearGradient><clipPath id="clip-path-20" transform="translate(32.27 22.33)"><path class="cls-4" d="M100.55,190.55h0m50.68-89.42c-3.32,7-11.11,22.23-19,36.58C121.1,157.94,103.76,186.6,102,189.07c-.75,1-1.06,1.32-1.42,1.48L102,194a7.25,7.25,0,0,0,2.85-2.59c2-2.76,21.81-35.86,30.58-51.89S153.52,105,154.54,102.7a11.81,11.81,0,0,0,1.37-5.23l-3.67-.23a9.55,9.55,0,0,1-1,3.89"/></clipPath><linearGradient id="Degradado_sin_nombre_66" x1="-2847.27" y1="-220.02" x2="-2842.93" y2="-220.02" gradientTransform="matrix(0, -22.32, -22.32, 0, -4750.54, -63338.1)" gradientUnits="userSpaceOnUse"><stop offset="0" stop-color="#4f4d51"/><stop offset="0.02" stop-color="#4f4d51"/><stop offset="0.23" stop-color="#58575b"/><stop offset="0.6" stop-color="#636367"/><stop offset="0.97" stop-color="#67676b"/><stop offset="0.99" stop-color="#828286"/><stop offset="1" stop-color="#949398"/></linearGradient><clipPath id="clip-path-21" transform="translate(32.27 22.33)"><path class="cls-4" d="M78.46,52.12c.69,1.32,6.19,11.8,11.2,22.08,4.71,9.63,8.82,18.88,9.27,19.89a8.23,8.23,0,0,1,1,3.4,7.82,7.82,0,0,1-1,3.28l0,.08c0,.09-4.34,9.78-9.31,20-4.44,9.1-9.28,18.41-11.15,22l-.09.17c-.18.35-.34.6-.41.6s-.22-.24-.4-.59l-.28-.53c-5.25-10-8.87-17.32-11-21.64-4.76-9.74-9-19.24-9.29-20l0-.1a8.59,8.59,0,0,1-1-3.31,8.67,8.67,0,0,1,1-3.33l.25-.56c3-6.82,6-13.33,9-19.35C70.55,65.46,75.39,56.11,77,53a53.86,53.86,0,0,0,29,99.09,53.27,53.27,0,0,0,26.26-6.89c1.17-2.07,2.24-4,3.19-5.73,8.54-15.6,18-34.34,19.11-36.79a12,12,0,0,0,1.36-5.24,12.3,12.3,0,0,0-1.36-5.25c-2.83-5.9-11.64-23.25-19.11-36.78-.58-1-1.18-2.15-1.81-3.27a53.49,53.49,0,0,0-55.18-.05"/></clipPath><mask id="mask-3" x="84.83" y="66.82" width="107.62" height="107.62" maskUnits="userSpaceOnUse"><g transform="translate(32.27 22.33)"><rect x="52.57" y="44.49" width="107.61" height="107.61"/><g class="cls-1"><g class="cls-6"><rect class="cls-7" x="90.5" y="82.26" width="32.09" height="32.09"/></g></g></g></mask><clipPath id="clip-path-22" transform="translate(32.27 22.33)"><rect class="cls-4" x="52.57" y="44.49" width="107.61" height="107.61"/></clipPath><clipPath id="clip-path-23" transform="translate(32.27 22.33)"><path class="cls-4" d="M52.57,98.3a53.81,53.81,0,1,0,53.81-53.81A53.8,53.8,0,0,0,52.57,98.3"/></clipPath><mask id="mask-4" x="84.83" y="66.82" width="107.62" height="107.62" maskUnits="userSpaceOnUse"><g transform="translate(32.27 22.33)"><rect class="cls-8" x="52.57" y="44.49" width="107.61" height="107.61"/></g></mask><radialGradient id="Degradado_sin_nombre_19" cx="-2623.04" cy="-175.34" r="4.33" gradientTransform="matrix(12.42, 0, 0, -12.42, 32707.66, -2056.43)" gradientUnits="userSpaceOnUse"><stop offset="0" stop-color="#fff"/><stop offset="0.59" stop-color="#fff"/><stop offset="1" stop-color="#fff"/></radialGradient></defs><title>Logo renaultauser</title><g id="Capa_2" data-name="Capa 2"><g id="Capa_1-2" data-name="Capa 1"><polygon class="cls-9" points="578.1 97.89 578.1 105.89 561.45 105.89 561.45 141.05 550.22 141.05 550.22 105.89 533.57 105.89 533.57 97.89 578.1 97.89"/><polygon class="cls-9" points="538.37 133.05 538.37 141.05 502.69 141.05 502.69 97.89 513.91 97.89 513.91 133.05 538.37 133.05"/><polygon class="cls-9" points="322.23 133.05 322.23 141.05 284.75 141.05 284.75 97.89 321.52 97.89 321.52 105.89 295.98 105.89 295.98 115.37 319.32 115.37 319.32 123.11 295.98 123.11 295.98 133.05 322.23 133.05"/><path class="cls-9" d="M232.37,102.69a15,15,0,0,0,7.77-13.12c0-4.49-1.31-8-4-10.27-3.19-2.64-7.56-3.74-15-3.74H195.4l-.46,2.6s.46.78,1,1.71a4,4,0,0,1,.73,2.7v36.15H207.9V104.9h13.95l7.48,13.82H241.7Zm-5.68-7a4.53,4.53,0,0,1-3.48,1.26H207.9V83.78H220c3.6,0,5.53.41,6.82,1.46s1.89,2.57,1.89,4.85a7.41,7.41,0,0,1-2,5.59" transform="translate(32.27 22.33)"/><path class="cls-9" d="M337,75.55v28.63c-2.62-3.3-5.37-6.48-10-11.58-3.78-4.15-11.66-12.67-15.71-17H300.41l-.45,2.6s.46.78,1,1.71a4,4,0,0,1,.74,2.07s0,36.78,0,36.78l10.09,0V90.09c2,2.69,5.6,6.81,8,9.41,4.77,5.15,12,13.18,17.56,19.22H347V75.56Z" transform="translate(32.27 22.33)"/><path class="cls-9" d="M446.9,75.56V102c0,2.94-.58,4.69-2,6-1.82,1.69-4.82,2.5-9.15,2.5s-7.48-.81-9.29-2.5c-1.43-1.34-2-3.1-2-6V75.56h-12.5l-.46,2.6s.47.78,1,1.71a4.18,4.18,0,0,1,.73,2c0,.07,0,20.48,0,20.48,0,11.28,7.65,17,22.39,17h.31c14.75,0,22-5.58,22-17V75.56Z" transform="translate(32.27 22.33)"/><path class="cls-9" d="M388.2,75.56h-14c-4.25,8.78-11.66,25-18.58,43.16h11.26c.9-2.45,1.86-5,2.81-7.47h23c1,2.51,1.92,5,2.82,7.47h11.27c-6.94-18.16-14.34-34.38-18.59-43.16m-15.31,27.55c2.95-7.35,5.91-14.31,8.29-19.7,2.39,5.39,5.36,12.35,8.3,19.7Z" transform="translate(32.27 22.33)"/><rect class="cls-10" x="653.18" y="22.33" width="22.4" height="194.94"/><g class="cls-11"><rect class="cls-12" x="35.95" y="26.03" width="148.56" height="187.55"/></g><g class="cls-13"><g class="cls-14"><g class="cls-15"><rect class="cls-16" x="35.95" y="26.03" width="148.56" height="187.54"/></g></g></g><g class="cls-17"><rect class="cls-18" x="38.83" y="119.42" width="68.63" height="93.49"/></g><g class="cls-19"><g class="cls-20"><polygon class="cls-21" points="89.53 212.91 89.53 212.91 89.54 212.91 89.53 212.91"/></g></g><g class="cls-22"><rect class="cls-23" x="90.13" y="119.84" width="93.18" height="93.73"/></g><g class="cls-24"><rect class="cls-25" x="81.55" y="26.7" width="49.29" height="93.07"/></g><g class="cls-26"><rect class="cls-27" x="110.22" y="65.95" width="28.66" height="53.88"/></g><g class="cls-28"><rect class="cls-29" x="81.54" y="119.76" width="28.68" height="53.9"/></g><g class="cls-30"><g class="cls-31"><rect class="cls-32" x="33.14" y="100.22" width="60.94" height="48.31" transform="translate(-43.66 153.55) rotate(-65.72)"/></g></g><g class="cls-33"><rect class="cls-34" x="89.53" y="119.82" width="49.35" height="93.12"/></g><g class="cls-35"><rect class="cls-36" x="32.28" y="119.8" width="54.78" height="96.2"/></g><g class="cls-37"><rect class="cls-38" x="63.44" y="170.27" width="28.46" height="44.53" transform="translate(-95.64 185.86) rotate(-60)"/></g><g class="cls-39"><rect class="cls-40" x="72.66" y="1.79" width="111.21" height="94.85" transform="translate(55.76 160.41) rotate(-61.3)"/></g><g class="cls-41"><rect class="cls-42" x="69.17" y="-21.51" width="17.54" height="47.5" transform="translate(86.57 98.88) rotate(-74)"/></g><g class="cls-43"><rect class="cls-44" x="-15.44" y="-5.73" width="86.21" height="109.9" transform="translate(16.46 35.52) rotate(-21)"/></g><g class="cls-45"><rect class="cls-46" x="132.81" y="119.57" width="55.36" height="96.73"/></g><path class="cls-47" d="M97.76,4,98,4a5.58,5.58,0,0,1-3.3.7c-2.82,0-8.67-.13-13.35-.15-8.65-.06-19,.1-23.77.33C55,5,54.84,5.25,53.2,7h0L54,5.72a3.26,3.26,0,0,1,1.31-1.26,3,3,0,0,1,1.28-.34C58,4,68.92,3.7,78,3.7c7.36,0,14.83.15,18.55.31a8.71,8.71,0,0,0,1.25,0" transform="translate(32.27 22.33)"/><g class="cls-48"><g class="cls-49"><g class="cls-50"><g class="cls-51"><g class="cls-52"><rect class="cls-53" x="84.83" y="66.82" width="107.61" height="107.61"/></g></g></g></g></g><path class="cls-54" d="M99.88,93.67c-.3-.68-4.49-10.12-9.28-19.93-5.21-10.69-11-21.8-11.3-22.26C78.84,50.61,78.47,50,78,50s-.84.51-1.33,1.45C76.38,52,70.4,63.4,65.31,73.74s-9,19.36-9.26,19.93A9.39,9.39,0,0,0,55,97.44,9.61,9.61,0,0,0,56,101.26c.28.67,4.51,10.18,9.3,20C70.57,132,76.4,143,76.62,143.45c.44.86.82,1.45,1.33,1.45s.88-.57,1.34-1.45c.23-.46,6-11.5,11.25-22.18,4.78-9.81,9-19.3,9.33-20A9,9,0,0,0,101,97.49a9.11,9.11,0,0,0-1.07-3.82m-.94,7.1,0,.08c0,.08-4.34,9.78-9.31,20-4.44,9.1-9.28,18.41-11.15,22l-.09.17c-.18.35-.34.6-.41.6s-.22-.25-.4-.6l-.28-.53c-5.25-10-8.87-17.3-11-21.64-4.76-9.73-9-19.24-9.29-20l0-.1a8.64,8.64,0,0,1-1-3.31,8.72,8.72,0,0,1,1-3.34c0-.06.12-.25.25-.55,3-6.82,6-13.33,9-19.35C71.48,63.59,77.5,52.07,77.55,52c.17-.32.31-.62.41-.62s.25.31.42.63c.05.09,5.94,11.26,11.28,22.21,4.71,9.64,8.81,18.88,9.27,19.9a8.23,8.23,0,0,1,1,3.4,7.86,7.86,0,0,1-1,3.28" transform="translate(32.27 22.33)"/><path class="cls-54" d="M154.56,92.22c-2.83-5.9-11.64-23.24-19.11-36.78-10.23-18.56-28.51-49.11-30.59-51.9S101.66.67,99.77.47l-.28,0C96.72.14,85,0,78,0c-6,0-18.85.16-21.84.46-2.81.27-3.58,1.13-5.18,3.23C48.73,6.57,30.15,38,20.48,55.44c-7,12.62-18.09,34.43-19.12,36.78A13.29,13.29,0,0,0,0,97.47a12.37,12.37,0,0,0,1.37,5.24c2.32,5,9.33,19,19.11,36.79,10.2,18.55,28.63,49.22,30.58,51.89,2.07,2.82,3.42,2.94,5.28,3.11,2.84.25,15.08.44,21.62.44,7.07,0,19.86-.28,21.62-.44s3.26-.3,5.28-3.11c1.86-2.57,21.69-35.62,30.59-51.89,8.54-15.6,18-34.34,19.11-36.79a12.06,12.06,0,0,0,1.37-5.24,12.37,12.37,0,0,0-1.37-5.25m-1,10.06c-1.09,2.44-10.55,21.13-19.07,36.7-8.9,16.26-28.67,49.22-30.52,51.79-1.74,2.41-2.84,2.51-4.51,2.67s-14.48.43-21.53.43c-6.53,0-18.71-.18-21.52-.43-1.77-.16-2.74-.25-4.52-2.68C50,188.11,31.6,157.51,21.41,139c-9.77-17.76-16.76-31.69-19.08-36.71a11.58,11.58,0,0,1-1.26-4.8,12.27,12.27,0,0,1,1.27-4.82c1-2.34,12.08-24.09,19.07-36.7C31.07,38.53,49.6,7.19,51.79,4.34c1.53-2,2.08-2.59,4.43-2.83,3-.29,15.73-.45,21.74-.45,7,0,18.69.14,21.41.44l.28,0c1.78.19,2.59.27,4.36,2.65C106.07,7,124.3,37.42,134.52,56,142,69.47,150.77,86.79,153.6,92.68a11.25,11.25,0,0,1,1.26,4.79,11.13,11.13,0,0,1-1.27,4.81" transform="translate(32.27 22.33)"/><path class="cls-9" d="M207.43,139.7c6.79,0,9.65,2.54,9.65,8.47s-2.86,8.43-9.65,8.43H199.9v10.6h-3.28V142.28c0-.29-.12-.41-.41-.53l-1.22-.54.28-1.51Zm-7.53,14.24h7.28c4.66,0,6.59-1.68,6.59-5.77s-1.93-5.77-6.59-5.77H199.9Z" transform="translate(32.27 22.33)"/><path class="cls-9" d="M233.5,165.16c-1.23,1.72-3.48,2.53-6.71,2.53-5.2,0-7.57-1.84-7.57-5.85s2.45-5.81,8-5.81a18.1,18.1,0,0,1,5.81.86v-2.74c0-3.4-1.72-4.75-5.93-4.75a20,20,0,0,0-6.14,1v-2.62a22.39,22.39,0,0,1,6.5-.94c6.14,0,8.72,2.25,8.72,7.57v10c0,.32,0,.45.33.57l1.22.53-.32,1.68H234c-.24,0-.33,0-.37-.32Zm-.45-6a14.42,14.42,0,0,0-5.32-.9c-3.73,0-5.28,1-5.28,3.52s1.52,3.52,5,3.52c3.93,0,5.65-1.35,5.65-4.34Z" transform="translate(32.27 22.33)"/><path class="cls-9" d="M249.1,146.82a23.27,23.27,0,0,1,6.42.9l-.53,2.54a18.21,18.21,0,0,0-5.73-.9c-3.36,0-4.91,1.1-4.91,3.15,0,4.83,12,1.18,12,9.17,0,4-2.91,6-8,6a23.09,23.09,0,0,1-7-1v-2.66a20.71,20.71,0,0,0,6.71,1.11c3.48,0,5.08-1.27,5.08-3.44,0-5.37-12-1.31-12-9.17,0-3.85,2.94-5.73,7.9-5.73" transform="translate(32.27 22.33)"/><path class="cls-9" d="M267.8,146.82a23.39,23.39,0,0,1,6.43.9l-.54,2.54a18.12,18.12,0,0,0-5.73-.9c-3.35,0-4.91,1.1-4.91,3.15,0,4.83,12,1.18,12,9.17,0,4-2.9,6-8,6a23,23,0,0,1-6.95-1v-2.66a20.62,20.62,0,0,0,6.71,1.11c3.48,0,5.07-1.27,5.07-3.44,0-5.37-12-1.31-12-9.17,0-3.85,3-5.73,7.9-5.73" transform="translate(32.27 22.33)"/><path class="cls-9" d="M279.1,147.31h4.13c.29,0,.37.08.37.41V167.2h-3.28V150.09c0-.32,0-.44-.32-.57l-1.23-.53Zm2.78-8.14c1.47,0,2.13.61,2.13,2.09s-.66,2-2.13,2-2.13-.61-2.13-2,.62-2.09,2.13-2.09" transform="translate(32.27 22.33)"/><path class="cls-9" d="M298.37,146.82c6.88,0,9.78,3.11,9.78,10.44s-2.9,10.43-9.78,10.43-9.82-3.07-9.82-10.43,2.95-10.44,9.82-10.44m0,18.25c4.54,0,6.43-2.25,6.43-7.81s-1.89-7.82-6.43-7.82-6.46,2.25-6.46,7.82,1.88,7.81,6.46,7.81" transform="translate(32.27 22.33)"/><path class="cls-9" d="M330.21,164.42c0,.33.05.45.33.57l1.23.53-.33,1.68h-4.13c-.29,0-.37-.08-.37-.41v-12c0-3.85-1.43-5.28-5-5.28a11.91,11.91,0,0,0-5.9,1.48v16.2h-3.27V150.1c0-.33,0-.45-.33-.58l-1.22-.53.32-1.68h4.13c.29,0,.37.08.37.41v1.39a9.19,9.19,0,0,1,6.47-2.29c5.48,0,7.69,2.29,7.69,7.9Z" transform="translate(32.27 22.33)"/><path class="cls-9" d="M350.47,147.31h6v2.58h-6V167.2H347.2V150.38c0-.45,0-.49-.41-.61l-2.33-.66.29-1.8h2.45v-2.62c0-4.79,2.09-6.79,7-6.79a11.35,11.35,0,0,1,3.72.53l-.53,2.54a9,9,0,0,0-2.82-.46c-2.87,0-4.1,1.19-4.1,4.06Z" transform="translate(32.27 22.33)"/><path class="cls-9" d="M368.28,146.82c6.88,0,9.78,3.11,9.78,10.44s-2.9,10.43-9.78,10.43-9.82-3.07-9.82-10.43,3-10.44,9.82-10.44m0,18.25c4.54,0,6.43-2.25,6.43-7.81s-1.89-7.82-6.43-7.82-6.46,2.25-6.46,7.82,1.88,7.81,6.46,7.81" transform="translate(32.27 22.33)"/><path class="cls-9" d="M382.81,150.09c0-.33,0-.45-.33-.57l-1.22-.53.32-1.68h4.14c.28,0,.36.08.36.41v2a7.75,7.75,0,0,1,6.47-2.9,12.36,12.36,0,0,1,1.93.16l-.58,2.87a7,7,0,0,0-1.84-.25,8.6,8.6,0,0,0-6,2.17V167.2h-3.27Z" transform="translate(32.27 22.33)"/><path class="cls-9" d="M409.41,164.42c0,.33,0,.45.33.57l1.23.53-.33,1.68h-4.13c-.29,0-.37-.08-.37-.41V141.17c0-.33,0-.45-.33-.57l-1.22-.53.32-1.68h4.14c.28,0,.36.08.36.41Z" transform="translate(32.27 22.33)"/><path class="cls-9" d="M415.59,147.31h4.14c.28,0,.37.08.37.41V167.2h-3.28V150.09c0-.32,0-.44-.32-.57l-1.24-.53Zm2.79-8.14c1.47,0,2.12.61,2.12,2.09s-.65,2-2.12,2-2.13-.61-2.13-2,.61-2.09,2.13-2.09" transform="translate(32.27 22.33)"/><path class="cls-9" d="M431.15,147.31h6v2.58h-6V167.2h-3.28V150.38c0-.45,0-.49-.41-.61l-2.33-.66.29-1.8h2.45v-2.62c0-4.79,2.09-6.79,7-6.79a11.37,11.37,0,0,1,3.73.53l-.54,2.54a9,9,0,0,0-2.82-.46c-2.87,0-4.09,1.19-4.09,4.06Z" transform="translate(32.27 22.33)"/><path class="cls-9" d="M448.54,146.82c6.06,0,8.6,3,8.6,10.11a10.13,10.13,0,0,1-.05,1.27H442.32c.16,5,2.33,6.91,7.69,6.91a21.22,21.22,0,0,0,6.35-1v2.62a21.21,21.21,0,0,1-6.59.94c-7.49,0-10.68-3.07-10.68-10.43s2.82-10.44,9.45-10.44M442.32,156H454c-.08-4.84-1.63-6.76-5.44-6.76-4.26,0-6.1,2-6.22,6.76" transform="translate(32.27 22.33)"/><path class="cls-55" d="M838.67,52.49h25.58c1,1.34.58,2.85.58,4.24,0,18.75,0,37.49,0,56.24,0,11.66,11.25,17.91,21.57,12.1,1.93-1.09,1.33-2.7,1.33-4.15q.06-31.89,0-63.77V52.61h25.94c1,1,.59,2.43.59,3.68,0,25.74,0,51.49.1,77.23,0,3-1,4.46-3.77,5.43A93.09,93.09,0,0,1,860,142.57c-12.89-2.68-20.91-11.86-21.21-25.13C838.31,96,838.67,74.44,838.67,52.49Z" transform="translate(32.27 22.33)"/><path class="cls-55" d="M749.31,57.43c16.27-6.39,32.34-9.07,48.9-4.86,12.19,3.09,19.94,12.19,20.36,24.75.63,19.51.24,39.06.36,58.58,0,2.16-1.45,2.55-2.9,3.16-7.12,3-14.64,4.28-22.28,4.91-9.91.83-19.77.76-29.44-2-11.61-3.3-18.87-11.09-20-21.45-1.45-13.49,3.26-22.91,14.69-28.92,10-5.24,20.92-7,32-8.23.9-.1,1.81-.17,2.66-.24,2.41-9.09-1.61-15-10.71-15.73a49.54,49.54,0,0,0-14.16.77c-4.54.94-8.8,2.63-13.65,4.31C753.22,67.59,751.36,62.77,749.31,57.43Zm45,38c-5.74.55-10.93,1.27-15.79,3.43-7.67,3.4-11.35,11.23-9.45,20,1.52,7.11,6.48,10.59,15.34,10.71a49,49,0,0,0,5.13-.26c3.23-.3,5.19-1.38,4.88-5.37-.42-5.37-.11-10.81-.11-16.21Z" transform="translate(32.27 22.33)"/><path class="cls-55" d="M1080.92,99l-53.45,7.62c-.37,10.78,7.88,19.12,19.16,19.49a55.94,55.94,0,0,0,25.43-4.77c2,5.39,3.9,10.66,6,16.28-5.3,3-11,4.44-16.78,5.44-8.91,1.53-17.88,2.1-26.76.2-15.07-3.24-25.1-12.28-29.73-27.06a63.14,63.14,0,0,1-.06-38.18c5.48-17.72,18.66-27.13,37.19-27.36,15.11-.18,27.13,4.89,34.19,18.94,3.12,6.21,4.36,13,4.83,19.87C1081.1,92.52,1080.92,95.55,1080.92,99Zm-24.61-9.94a33.49,33.49,0,0,0-1.5-12.58c-1.8-5.93-5.55-9.85-12-10.24-5.84-.36-10.55,1.92-13.61,7-3.74,6.23-4.14,13.08-3.76,20.41Z" transform="translate(32.27 22.33)"/><path class="cls-55" d="M980.47,72.2a28.9,28.9,0,0,0-11.42-4.5c-5.64-.81-10.28,1.31-12,5.52-1.87,4.72-.26,9.1,4.7,12.61,2.93,2.07,6.34,3.2,9.52,4.78,7.47,3.71,14.31,8.17,16.92,16.74,3.76,12.37-1.18,25.46-12.57,31.63-15.74,8.52-31.45,6.14-47.49-1,2.37-5.86,4.56-11.27,6.87-17,5.4,3.27,10.78,5.27,16.74,5.05,5.16-.19,9.1-3.08,10.21-7.29,1.2-4.51-.67-9.14-5-11.86a78.75,78.75,0,0,0-7.05-3.55c-1.9-.93-3.87-1.69-5.71-2.72-9-5-14.2-12.42-13.65-23.12s5.38-18.92,15.08-23.33c14-6.36,27.68-4,41.34,2.8Z" transform="translate(32.27 22.33)"/><path class="cls-55" d="M1145.83,51.28c-1.58,6-3.15,11.89-4.76,18-4.79-.88-9.15-2.37-13.88-1.31-2.79.62-3.55,1.73-3.54,4.48.11,21.78.06,43.57.06,65.35v4.61h-26.09c-.81-1.6-.45-3.21-.45-4.75,0-25.35.07-50.7-.11-76.05,0-3.58,1.23-5,4.41-6.15C1112.66,51.4,1132.57,49.34,1145.83,51.28Z" transform="translate(32.27 22.33)"/></g></g></svg>